<svg class="w-full h-auto md:h-16 md:w-auto flex-shrink-0 mx-auto" fill="none" xmlns="http://www.w3.org/2000/svg" viewBox="0 0 49 64"><path d="M22.67 63.31c-11.79.0-21.352-8.562-21.352-20.26.0-11.697 17.174-18.417 8.82-42.36 7.998.0 21.35 14.274 24.6 31.31.423 2.22 5.57-7.827 5.105-15.655C56.088 32 45.877 63.31 22.669 63.31z" fill="#fde047"/><path d="M23.215 62.938c-10.524.223-15.3-6.07-15.131-14.358.196-9.673 13.889-8.062 12.497-23.256 5.105 3.223 9.05 10.36 10.443 20.95.209 1.587 9.148-3.662 8.819-9.21 2.32 13.814-1.625 25.555-16.628 25.874z" fill="#fff"/><path d="M23.527 63.323c-5.614.0-10.278-4.077-10.165-9.645.133-6.497 9.075-5.793 9.075-15.002 3.25 2.763 4.635 7.62 5.57 14.734.14 1.066 6.603-1.381 8.46-4.604-1.857 9.669-5.512 14.517-12.94 14.517z" fill="#fde047"/><path d="M22.67 64C10.305 64 .621 54.798.621 43.05c0-4.392 2.313-8.113 4.762-12.053C9.766 23.949 14.73 15.96 9.48.917a.685.685.0 01.34-.84.7.7.0 01.318-.077c8.52.0 21.627 14.287 25.137 31.132 1.37-1.987 4.224-8.847 3.873-14.746a.686.686.0 01.405-.669.702.702.0 01.775.133c8.16 7.863 10.444 20.255 5.814 31.57C41.895 57.801 33.121 64 22.669 64zM11.127 1.452c4.906 15.043-.332 23.47-4.559 30.27-2.444 3.932-4.555 7.328-4.555 11.328.0 10.973 9.073 19.569 20.655 19.569 9.864.0 18.157-5.876 22.183-15.719 4.177-10.216 2.469-21.335-4.303-28.828-.265 6.498-3.67 14.706-5.456 14.925a.958.958.0 01-.938-.51.94.94.0 01-.102-.358C31.076 16.518 19.121 2.558 11.128 1.452z" fill="#0f172a"/></svg>