<svg class="w-full h-auto md:h-16 md:w-auto flex-shrink-0 mx-auto" fill="none" xmlns="http://www.w3.org/2000/svg" viewBox="0 0 64 64"><path d="M43.004 21.142a.589.589.0 01-.578-.705.591.591.0 01.161-.302l14.54-14.56a.59.59.0 01.834.834l-14.54 14.56a.59.59.0 01-.417.173z" fill="#0f172a"/><path d="M57.541 11.592a5.505 5.505.0 005.502-5.51A5.505 5.505.0 0057.541.574a5.505 5.505.0 00-5.501 5.51 5.505 5.505.0 005.501 5.509z" fill="#fde047"/><path d="M57.551 12.183c-.536.0-1.069-.07-1.586-.21a6.048 6.048.0 01-3.699-2.842 6.099 6.099.0 01.973-7.349 6.08 6.08.0 019.918 1.974 6.1 6.1.0 01-1.907 7.162 6.078 6.078.0 01-3.699 1.265zm-.018-11.018a4.907 4.907.0 00-4.246 2.463 4.923 4.923.0 00.002 4.914 4.916 4.916.0 004.256 2.46A4.907 4.907.0 0061.8 8.54a4.924 4.924.0 00-1.808-6.72 4.907 4.907.0 00-2.459-.654zM36.601 58.556a.589.589.0 01-.59-.59V37.375a.59.59.0 111.18.0v20.59a.59.59.0 01-.59.591z" fill="#0f172a"/><path d="M36.54 63.409a5.506 5.506.0 005.501-5.51 5.506 5.506.0 00-5.502-5.509 5.506 5.506.0 00-5.502 5.51 5.505 5.505.0 005.502 5.509z" fill="#fde047"/><path d="M36.538 64a6.083 6.083.0 01-4.575-2.081 6.102 6.102.0 013.586-10.036 6.083 6.083.0 016.058 2.627 6.106 6.106.0 01-1.05 7.977A6.086 6.086.0 0136.537 64v0zm-.006-11.021c-1.251.0-2.455.475-3.369 1.331a4.936 4.936.0 002.72 8.494 4.922 4.922.0 003.513-.878 4.934 4.934.0 001.32-6.614 4.927 4.927.0 00-4.184-2.333zM26.598 27.948H6.034a.59.59.0 010-1.181h20.564a.589.589.0 01.416 1.008.589.589.0 01-.416.173z" fill="#0f172a"/><path d="M36.323 41.015c7.38.0 13.361-5.99 13.361-13.38.0-7.389-5.982-13.38-13.36-13.38-7.38.0-13.362 5.991-13.362 13.38.0 7.39 5.982 13.38 13.361 13.38z" fill="#fde047"/><path d="M36.323 41.6a13.933 13.933.0 01-8.844-3.175 13.98 13.98.0 01-3.442-17.378A13.952 13.952.0 0131 14.732a13.928 13.928.0 019.385-.457 13.946 13.946.0 017.543 5.608 13.978 13.978.0 01-6.267 20.659 13.89 13.89.0 01-5.339 1.057zm0-26.748a12.755 12.755.0 00-8.096 2.908 12.8 12.8.0 00-3.148 15.91 12.772 12.772.0 006.378 5.78 12.75 12.75.0 008.591.416 12.768 12.768.0 006.905-5.136 12.797 12.797.0 00-5.742-18.91 12.716 12.716.0 00-4.888-.968z" fill="#0f172a"/><path d="M6.1 32.928a5.505 5.505.0 005.502-5.509A5.505 5.505.0 006.1 21.91 5.505 5.505.0 00.6 27.42a5.505 5.505.0 005.5 5.51z" fill="#fde047"/><path d="M6.102 33.52a6.093 6.093.0 01-4.17-1.647 6.108 6.108.0 013.365-10.511 6.09 6.09.0 014.348 1.088 6.106 6.106.0 011.63 8.186 6.098 6.098.0 01-5.173 2.883zm.006-11.022a4.907 4.907.0 00-4.699 3.488 4.926 4.926.0 001.965 5.517 4.908 4.908.0 003.998.668 4.91 4.91.0 002.983-2.292 4.924 4.924.0 00.49-3.733 4.925 4.925.0 00-4.737-3.648z" fill="#0f172a"/></svg>