<svg class="h-16 w-auto lg:h-24 mx-auto mb-4 md:mb-6 lg:mb-9 xl:mb-10" fill="none" xmlns="http://www.w3.org/2000/svg" viewBox="0 0 118 97"><g clip-path="url(#clip0)"><path d="M115.181 87.99l-4.048 5.697a4.157 4.157.0 01-2.705 1.69 4.193 4.193.0 01-3.119-.72L71.077 70.335l-9.993-16.497 18.867 4.01 34.231 24.323a4.199 4.199.0 011.706 2.709 4.162 4.162.0 01-.707 3.11z" fill="#fde047"/><path d="M79.95 57.846l-8.873 12.488-9.993-16.497 18.867 4.01z" fill="#111827"/><path d="M80.892 58.515l-8.874 12.487a1.14 1.14.0 01-.982.482 1.157 1.157.0 01-.945-.559l-9.993-16.497a1.153 1.153.0 01.045-1.26 1.145 1.145.0 011.175-.457l18.866 4.01a1.159 1.159.0 01.91 1.268c-.022.19-.092.37-.202.526zm-9.741 9.721 6.843-9.63-14.55-3.092 7.707 12.722z" fill="#111827"/><path d="M75.826 65.644l-3.808 5.358L105.58 94.85s2.139 2.303 4.468-.975l1.847-2.599-36.068-25.632z" fill="#fff"/><path d="M116.122 88.657l-4.048 5.698a5.31 5.31.0 01-3.451 2.155 5.362 5.362.0 01-3.98-.915L70.412 71.27a1.142 1.142.0 01-.322-.345l-9.993-16.497a1.153 1.153.0 01.045-1.26 1.144 1.144.0 011.175-.457l18.867 4.01c.155.032.302.096.432.189l34.232 24.324a5.354 5.354.0 012.173 3.456 5.303 5.303.0 01-.899 3.967zm-44.184-19.12 34.036 24.184a3.04 3.04.0 002.258.52 3.008 3.008.0 001.96-1.224l4.048-5.697a3.012 3.012.0 00.51-2.252 3.04 3.04.0 00-1.233-1.961L79.48 58.922l-16.036-3.408 8.494 14.022z" fill="#111827"/><path d="M36.858 2.082l.927 5.404 9.787 57.009.928 5.403a34.96 34.96.0 01-15.268 1.809l-.951-5.543-9.493-55.297-.952-5.543a34.918 34.918.0 0115.022-3.242zM51.872 5.6l1.174 6.838L60.33 54.87l1.174 6.838a33.802 33.802.0 01-6.874 5.33L43.602 2.794a34.195 34.195.0 018.27 2.804zM16.513 8.391l1.035 5.998 9.64 56.152a35.846 35.846.0 01-4.15-1.483l-1.125-6.56L14.22 17.69l-1.126-6.56a33.465 33.465.0 013.419-2.739z" fill="#fff"/><path d="M51.872 5.6A35.111 35.111.0 0036.858 2.082 34.92 34.92.0 0016.513 8.39 34.713 34.713.0 003.635 25.532 34.84 34.84.0 002.258 42.73a35.076 35.076.0 007.04 15.794 35.2 35.2.0 0017.89 12.017c1.976.568 4 .958 6.044 1.166A34.961 34.961.0 0048.5 69.898a34.753 34.753.0 0013.004-8.189 34.7 34.7.0 009.301-16.855 34.841 34.841.0 00.362-13.614 35.038 35.038.0 00-4.885-12.739 35.164 35.164.0 00-9.387-9.925A34.672 34.672.0 0051.871 5.6zm8.99 48.549a34.69 34.69.0 01-.532.721 29.196 29.196.0 01-12.758 9.625 29.662 29.662.0 01-15.291 1.669 29.162 29.162.0 01-6.124-1.627 29.83 29.83.0 01-6.53-3.513A29.736 29.736.0 017.563 41.846a29.45 29.45.0 014.99-22.022 29.39 29.39.0 014.994-5.434 28.843 28.843.0 015.24-3.522 29.613 29.613.0 0114.998-3.381 29.532 29.532.0 0115.26 4.952c.25.167.5.335.744.509a29.736 29.736.0 0112.063 19.18 29.449 29.449.0 01-4.99 22.022z" fill="#fde047"/><path d="M66.195 57.938a35.517 35.517.0 01-3.875 4.588 35.938 35.938.0 01-13.433 8.46 36.315 36.315.0 01-22.015.659A36.363 36.363.0 018.394 59.232 36.232 36.232.0 011.122 42.917a35.988 35.988.0 011.423-17.764A35.855 35.855.0 0115.848 7.448a35.588 35.588.0 015.501-3.17A36.264 36.264.0 0136.867.929 36.29 36.29.0 0164.61 14.224a36.234 36.234.0 017.054 13.884 36.026 36.026.0 01.564 15.532 35.87 35.87.0 01-6.034 14.298zM9.103 17.371A33.592 33.592.0 003.392 31.146a33.753 33.753.0 00.806 14.915 33.955 33.955.0 007.166 13.14 34.044 34.044.0 0016.141 10.231 33.982 33.982.0 0020.605-.618 33.599 33.599.0 0012.574-7.917 33.57 33.57.0 009.276-17.681 33.733 33.733.0 00-.526-14.541A33.935 33.935.0 0062.83 15.677a34.034 34.034.0 00-11.456-9.042l-.004-.003a33.968 33.968.0 00-14.514-3.4 33.95 33.95.0 00-14.53 3.136 33.366 33.366.0 00-5.15 2.964 32.456 32.456.0 00-3.298 2.648 33.377 33.377.0 00-4.775 5.39zm52.7 37.447c-.177.25-.364.499-.55.745A30.328 30.328.0 0147.992 65.568 30.81 30.81.0 0132.109 67.3a30.328 30.328.0 01-6.363-1.69 31.089 31.089.0 01-6.785-3.649A30.895 30.895.0 016.428 42.035a30.599 30.599.0 015.185-22.881 30.585 30.585.0 015.189-5.646 30.052 30.052.0 015.447-3.66 30.76 30.76.0 0115.578-3.512c5.655.219 11.144 2 15.857 5.147.264.177.52.35.77.527a30.893 30.893.0 0112.533 19.927 30.596 30.596.0 01-5.184 22.88zM13.495 20.49A28.304 28.304.0 008.699 41.655a28.579 28.579.0 0017.87 21.808 28.092 28.092.0 005.881 1.562 28.51 28.51.0 0014.699-1.603 28.04 28.04.0 0012.26-9.249c.171-.227.345-.458.512-.694a28.305 28.305.0 004.796-21.164A28.58 28.58.0 0053.123 13.883c-.235-.168-.476-.33-.717-.491A28.381 28.381.0 0037.747 8.635a28.462 28.462.0 00-14.416 3.247 27.788 27.788.0 00-5.034 3.382 28.313 28.313.0 00-4.802 5.226z" fill="#111827"/></g><defs><clipPath id="clip0"><path fill="#fff" transform="translate(.548 .894)" d="M0 0h116.903v96H0z"/></clipPath></defs></svg>