<svg class="h-16 w-auto lg:h-24 mx-auto mb-4 md:mb-6 lg:mb-9 xl:mb-10" fill="none" xmlns="http://www.w3.org/2000/svg" viewBox="0 0 126 93"><path d="M53.368 85.83l-9.846 4.281-5.137 2.14-9.77-35.48 10.599-4.61s6.096 23.445 14.154 33.67z" fill="#fde047"/><path d="M38.385 92.894a.642.642.0 01-.619-.471l-9.77-35.482a.643.643.0 01.362-.76l10.6-4.608a.641.641.0 01.878.428c.06.233 6.155 23.433 14.037 33.433a.643.643.0 01-.249.987l-9.846 4.28-5.146 2.145a.641.641.0 01-.247.048zm-9.003-35.757L38.81 91.38l4.464-1.86 9.085-3.95c-7.1-9.563-12.486-28.51-13.574-32.521l-9.404 4.09z" fill="#1a1a1a"/><path d="M49.012 87.493l-10.627 4.759L23.05 56.77l10.6-4.61s7.305 25.108 15.363 35.332z" fill="#fde047"/><path d="M38.385 92.894a.642.642.0 01-.59-.388l-15.334-35.48a.642.642.0 01.333-.845l10.599-4.608a.642.642.0 01.873.41c.073.25 7.363 25.104 15.25 35.112a.644.644.0 01-.24.985l-10.628 4.758a.641.641.0 01-.263.056zM23.893 57.106 38.717 91.4l9.292-4.162c-7.184-9.67-13.534-30.081-14.77-34.199l-9.346 4.067z" fill="#1a1a1a"/><path d="M18.709 56.333l2.564 4.188a7.278 7.278.0 006.207 3.477h10.092l-2.52-7.332-16.343-.333z" fill="#fde047"/><path d="M37.572 64.64H27.479a7.968 7.968.0 01-6.753-3.783l-2.565-4.19a.643.643.0 01.56-.977l16.345.334a.642.642.0 01.594.433l2.52 7.333a.642.642.0 01-.608.85zm-17.703-7.642 1.952 3.188a6.678 6.678.0 005.659 3.17h9.193L34.591 57.3 19.869 57z" fill="#1a1a1a"/><path d="M10.997 25.01c-1.529.0-2.907 1.865-3.884 4.85-3.51 1.833-5.97 6.077-5.97 11.022.0 5.056 2.572 9.377 6.21 11.139.956 2.582 2.236 4.163 3.644 4.163 2.961.0 21.823.537 29.957.537V25.47c-9.418.0-26.996-.461-29.957-.461z" fill="#fde047"/><path d="M46.09 63.142l-3.134-6.421-3.073.05 1.499 10.652 4.709-4.28z" fill="#fff"/><path d="M41.382 68.065a.642.642.0 01-.636-.553l-1.498-10.651a.643.643.0 01.625-.732l3.072-.05a.64.64.0 01.587.36l3.136 6.422a.641.641.0 01-.145.756l-4.71 4.281a.642.642.0 01-.431.167zm-.761-10.663 1.227 8.729 3.454-3.14-2.744-5.621-1.937.032z" fill="#1a1a1a"/><path d="M41.382 67.423l2.996-2.997-3.99-7.793-3.073.05 4.067 10.74z" fill="#fff"/><path d="M41.382 68.065a.642.642.0 01-.6-.415l-4.067-10.74a.642.642.0 01.59-.869l3.072-.05a.647.647.0 01.582.349l3.991 7.794a.642.642.0 01-.117.747l-2.997 2.996a.643.643.0 01-.454.188zM38.239 57.31l3.392 8.957 1.963-1.963-3.596-7.02-1.76.026z" fill="#1a1a1a"/><path d="M40.954 25.47c-2.96.0-5.37 6.95-5.37 15.557.0 8.609 2.41 15.694 5.37 15.694.0.0 40.668 2.14 67.209 23.973V1.498c-26.541 21.832-67.21 23.973-67.21 23.973z" fill="#fff"/><path d="M110.945 81.55c7.684.0 13.913-18.112 13.913-40.454.0-22.342-6.229-40.454-13.913-40.454S97.033 18.754 97.033 41.096c0 22.342 6.228 40.454 13.912 40.454z" fill="#fde047"/><path d="M112.443 31.892v17.98L97.486 51.4a115.493 115.493.0 01-.454-10.304c0-3.823.184-7.521.523-11.027l14.888 1.823z" fill="#fff"/><path d="M112.657 49.657c1.419.0 2.569-3.928 2.569-8.775s-1.15-8.776-2.569-8.776c-1.418.0-2.568 3.93-2.568 8.776s1.15 8.776 2.568 8.776z" fill="#fde047"/><path d="M112.444 44.949c.641.0 1.161-1.821 1.161-4.067s-.52-4.067-1.161-4.067c-.642.0-1.162 1.82-1.162 4.067.0 2.246.52 4.067 1.162 4.067z" fill="#1a1a1a"/><path d="M97.032 41.096c0 17.513 3.828 32.427 9.187 38.056a84.358 84.358.0 00-10.094-6.635c-3.626-7.414-5.942-18.737-5.942-31.421.0-12.684 2.316-24.007 5.942-31.421a84.357 84.357.0 0010.094-6.636c-5.359 5.63-9.186 20.544-9.186 38.057z" fill="#fde047"/><path d="M31.825 63.998s-4.57 1.905-2.643 5.78l-3.211-5.78h5.854zM110.945.0c-1.818.0-3.548.899-5.14 2.546l-.068.053a119.337 119.337.0 01-1.305.978 83.35 83.35.0 01-1.361.974c-.171.119-.339.238-.511.356-.314.217-.63.43-.948.642l-.226.152C75.806 22.665 41.832 24.777 40.937 24.83c-6.028.0-15.335-.189-22.132-.326-3.764-.075-6.737-.135-7.808-.135-1.926.0-3.417 2.047-4.43 5.067C2.99 31.445.5 35.817.5 40.882c0 5.18 2.605 9.637 6.32 11.58 1.002 2.63 2.403 4.364 4.177 4.364 1.107.0 4.442.075 8.664.171 6.827.154 16.17.365 21.258.366.375.02 34.625 2.019 60.408 19.089l.286.191a86.56 86.56.0 011.464 1.003l.608.428c.252.18.502.36.75.542l.379.28c.311.23.618.462.923.695l.067.052c1.592 1.65 3.323 2.549 5.141 2.549 8.162.0 14.555-18.052 14.555-41.096C125.5 18.05 119.107.0 110.945.0zM97.7 38.768l.01-.471a114.578 114.578.0 01.18-4.204c.07-1.118.155-2.22.257-3.306l12.7 1.554c-1.1 1.727-1.614 5.224-1.614 8.54a25.94 25.94.0 00.681 6.203c-4.405.366-10.274-.172-12.1-.361v-.017c-.09-1.855-.14-3.73-.14-5.61.0-.777.01-1.554.026-2.328zm14.743-6.234c.577.0 1.927 2.84 1.927 8.348.0 5.507-1.35 8.348-1.927 8.348-.576.0-1.926-2.84-1.926-8.348.0-5.507 1.35-8.348 1.926-8.348zm-13.69-23.65.224-.137a87.23 87.23.0 004.309-2.778c-4.167 7.152-6.896 20.073-6.896 35.127.0 15.053 2.729 27.975 6.896 35.127a83.488 83.488.0 00-3.507-2.29l-.296-.18a97.589 97.589.0 00-1.242-.754 89.528 89.528.0 00-1.627-.942c-3.68-7.635-5.789-18.903-5.789-30.961s2.11-23.326 5.79-30.96c.724-.41 1.434-.829 2.138-1.252zM5.703 48.392a9.157 9.157.0 01-3.098-2.835 13.522 13.522.0 01-.82-4.675c0-3.995 1.69-7.512 4.233-9.531a40.276 40.276.0 00-1.023 9.246c-.007 2.615.23 5.224.708 7.795zM33 52.622c-3.766-.225-8.335 1.694-14.092.46-5.88-1.26-8.463-2.924-10.984-1.37-.965-2.65-1.644-6.517-1.644-11.116.0-8.807 2.487-14.944 4.718-14.944 1.058.0 4.024.06 7.782.135 5.933.12 13.774.278 19.692.317-.724.68-2.04 2.384-3.296 6.43-1.207 3.885-2.58 9.07-2.176 20.088zm5.857 1.732c-1.455-2.428-2.628-7.245-2.628-13.327.0-8.788 2.491-14.914 4.726-14.914h.034c.343-.018 28.96-1.692 53.762-14.97a51.741 51.741.0 00-2.205 6.298l-.011.038a74.6 74.6.0 00-.375 1.4c-.036.138-.073.272-.108.41-.106.422-.206.85-.306 1.28-.046.197-.093.393-.137.591-.09.4-.174.807-.257 1.215-.049.238-.098.475-.145.715a72.48 72.48.0 00-.218 1.17 73.383 73.383.0 00-.463 2.85 80.351 80.351.0 00-.277 2.085c-.043.358-.086.715-.125 1.076-.038.351-.073.704-.108 1.057-.033.346-.067.692-.098 1.04-.033.38-.06.761-.09 1.143-.024.331-.05.661-.072.994-.026.415-.048.833-.07 1.251-.016.306-.034.61-.047.918-.02.48-.034.962-.048 1.445-.007.251-.018.5-.023.753a96.002 96.002.0 00.009 4.805c.006.254.017.505.025.759.02.615.045 1.228.075 1.838.013.267.029.532.042.797.037.623.079 1.243.127 1.858.017.218.033.436.051.653.064.765.137 1.524.218 2.276l.017.167a86.9 86.9.0 00.71 5.088l.005.028c.137.806.284 1.599.442 2.38.01.042.018.085.027.127.159.785.328 1.556.507 2.314-18.034-6.941-47.953-7.553-52.966-7.608zm70.691 26.32a7.132 7.132.0 01-2.855-1.952l-.007-.012a12.326 12.326.0 01-.592-.673c-.101-.121-.2-.246-.3-.374-3.623-4.735-6.464-14.236-7.593-25.692l14.308-1.462c2.162-.099 3.146-5.035 3.146-9.627.0-4.58-.98-9.504-3.128-9.626h-.005l-14.247-1.747a83.953 83.953.0 012.611-14.046c2.917-3.272 10.987-11.679 13.644-7.744 3.651 7.29 6.048 19.519 6.048 33.377.0 19.47-4.729 35.72-11.03 39.579z" fill="#1a1a1a"/></svg>