<svg fill="none" class="w-6 h-6 flex-shrink-0" xmlns="http://www.w3.org/2000/svg" viewBox="0 0 26 26"><path d="M26 13c0 7.18-5.82 13-13 13S0 20.18.0 13 5.82.0 13 0s13 5.82 13 13z" fill="#fde047"/><path fill-rule="evenodd" clip-rule="evenodd" d="M13 24.375c6.282.0 11.375-5.093 11.375-11.375S19.282 1.625 13 1.625 1.625 6.718 1.625 13 6.718 24.375 13 24.375zM13 26c7.18.0 13-5.82 13-13S20.18.0 13 0 0 5.82.0 13s5.82 13 13 13z" fill="#111827"/><path d="M9.353 12.4a1.355 1.355.0 00-1.915 1.915l2.516 2.516a2.009 2.009.0 002.842.0l.494-.495L9.353 12.4zm9.209-3.25a1.355 1.355.0 00-1.916.0l-5.271 5.27 1.915 1.916 5.272-5.271a1.355 1.355.0 000-1.916z" fill="#111827"/></svg>