<svg viewBox="0 0 753 768" class="absolute w-full top-0 lg:w-auto lg:h-full lg:left-0 lg:top-auto overflow-visible" xmlns="http://www.w3.org/2000/svg" fill-rule="evenodd" clip-rule="evenodd"><path d="M707.397 494.755c22.394 23.691 68.721 84.128 29.672 156.595-45.528 84.507-135.325 59.135-172.667 50.882-42.931-9.483-123.562-79.185-173.332 13.084-45.866 85.087-238.496-119.126-294.083-224.192-43.195-81.636-84.666-319.317 137.55-353.026 260.344-39.481 267.49 161.6 354.69 240.345 38.151 34.447 82.17 80.584 118.17 116.312z" fill="#fde047" fill-rule="nonzero"/><g id="svg-astronaut"><path d="M476.325 270.72s-20.042-200.217-56.23-241.56c-50.121-57.096-200.221-15.186-206.874 30.548-9.307 63.76 88.803 272.603 100.043 295.509 11.24 22.908 167.689 15.866 163.109-9.117-4.581-24.984-.048-75.38-.048-75.38z" fill="#fff" fill-rule="nonzero"/><path d="M228.859 37.78s51.343-35.694 131.869-24.558c26.121 3.791 50.531 10.05 65.138 44.497 14.606 34.447 40.667 140.136 40.667 140.136S448.417 81.536 435.751 55.913c-12.664-25.623-26.802-44.885-66.898-52.369-40.096-7.485-108.207 4.789-139.994 34.236z" fill="#fde047" fill-rule="nonzero"/><path d="M355.777 369.609c34.808 2.753 81.18-.797 104.59-8.373 12.868-4.203 18.86-9.359 17.771-15.347-4.438-24.487-.181-74.466-.141-74.979.015-.089.023-.179.021-.269-.867-8.211-20.506-201.238-56.707-242.432C392.379-4.92 330.152-5.257 281.378 9.106c-39.434 11.591-66.692 31.362-69.455 50.362-9.955 68.309 99.116 294.18 100.212 296.445 3.696 7.571 21.29 11.929 43.642 13.696zm119.258-98.842c-.281 3.549-4.301 51.111.085 75.671.749 4.144-4.838 8.393-15.741 11.934-40.282 13.097-136.403 13.016-144.579-3.731-1.095-2.266-109.571-228.377-99.924-294.698 2.593-17.832 29.016-36.641 67.303-47.914C330.083-2.083 390.914-1.934 419.152 30.172c35.081 40.001 55.238 234.356 55.883 240.595z" fill="#111827" fill-rule="nonzero"/><path d="M329.323 662.777c12.623 13.104 37.173-5.641 40.087 22.177 2.259 21.53 1.438 37.672-6.826 65.771-7.574 25.732-30.433 13.104-37.243-2.477-7.005-16.019-8.978-63.025 3.982-85.471z" fill="#fff" fill-rule="nonzero"/><path d="M346.301 767c.746.057 1.497.06 2.244.011 5.079-.308 11.917-3.308 15.592-15.806 8.572-29.133 9.041-45.803 6.887-66.341-1.879-17.884-12.388-17.989-22.563-18.098-6.521-.061-13.253-.14-17.955-4.976a1.516 1.516.0 00-1.216-.551 1.52 1.52.0 00-1.121.745c-12.728 22.009-11.582 69.678-4.045 86.829 3.741 8.739 12.825 17.448 22.177 18.187zm7.916-97.024c7.209.57 12.521 3.063 13.793 15.194 2.161 20.63 1.677 36.361-6.78 65.186-2.514 8.562-6.969 13.279-12.871 13.645-7.718.494-17.399-6.824-21.477-16.286-7.067-16.192-8.373-60.497 2.986-82.465 5.418 4.408 12.395 4.476 18.615 4.499 1.986.021 3.928.038 5.737.182l-.003.045z" fill="#111827" fill-rule="nonzero"/><path d="M567.238 501.482c6.087-7.297 10.667-32.207 30.094-23.209 17.192 7.912 34.829 23.804 47.156 44.299 12.858 21.447-7.451 29.541-22.52 24.55-15.914-5.268-44.114-24.039-54.73-45.64z" fill="#fff" fill-rule="nonzero"/><path d="M628.707 550.005c7.542.596 14.754-1.754 18.543-6.479 2.491-3.101 5.634-10.041-1.318-21.714-12.071-20.082-29.472-36.469-47.803-44.941-16.107-7.418-23.027 6.775-27.654 16.154a42.638 42.638.0 01-4.248 7.457 1.509 1.509.0 00-.128 1.624c10.716 21.851 39.249 41.028 55.619 46.468a30.446 30.446.0 006.989 1.431zm-38.018-72.133a18.04 18.04.0 016.117 1.724c17.803 8.233 34.752 24.192 46.483 43.763 4.561 7.594 5.107 13.918 1.59 18.285-4.155 5.15-13.749 6.902-22.342 4.059-15.721-5.208-42.772-23.342-53.425-44.085a55.566 55.566.0 004.019-7.249c4.03-8.17 8.494-17.214 17.558-16.497z" fill="#111827" fill-rule="nonzero"/><path d="M290.681 401.157s-160.572 184.478 13.474 292.475c40.073 25.232 45.909-12.092 27.972-27.464-17.938-15.37-32.397-105.797 88.505-214.86-1.793-35.294-94.262-86.538-129.951-50.151z" fill="#fff" fill-rule="nonzero"/><path d="M325.014 703.631c8.445.669 12.75-3.274 14.616-5.774 6.385-8.575 3.117-24.239-6.86-32.806-5.088-4.352-11.101-16.797-11.372-37.551-.325-25.237 8.769-92.826 99.91-175.037a1.505 1.505.0 00.488-1.186c-1.084-21.408-32.247-45.709-61.735-56.833-30.249-11.473-56.066-9.353-70.808 5.688l-.005.076c-.802.92-80.135 93.295-66.223 184.874 6.682 44.08 33.627 81.031 80.094 109.856 9.263 5.894 16.435 8.261 21.895 8.693zm93.712-252.87c-36.273 32.814-63.303 66.601-80.32 100.423-17.016 33.824-20.252 60.141-20.036 76.41.271 21.722 6.596 34.812 12.425 39.798 8.853 7.601 11.974 21.285 6.394 28.712-5.581 7.429-17.287 5.958-32.581-3.681-45.685-28.339-72.154-64.588-78.698-107.734-13.572-89.57 63.672-180.264 65.529-182.463 13.881-14.11 38.502-15.915 67.548-4.947 31.642 11.915 58.182 35.744 59.743 53.437l-.004.045z" fill="#111827" fill-rule="nonzero"/><path d="M595.297 522.759S494.844 691.23 366.69 460.067c-44.034-73.199 103.797-63.005 103.797-63.005s54.07 168.33 97.876 103.576c10.479-17.936 36.807 6.09 26.934 22.121z" fill="#fff" fill-rule="nonzero"/><path d="M435.402 443.225a64.285 64.285.0 0026.497 2.519c14.308-1.895 9.192 12.712 19.618 18.289 7.789 4.186 16.683.138 16.683.138l-25.407-62.539s-7.914 17.942-13.495 22.691c-5.582 4.748-23.896 18.902-23.896 18.902z" fill="#fde047" fill-rule="nonzero"/><path d="M497.949 583.304c1.689.133 3.379.267 5.095.251 56.219.891 92.686-58.949 93.389-59.984 3.312-5.412 3.15-12.204-.436-18.662-3.993-7.081-11.186-12.068-17.616-12.139-3.351-.037-8.061 1.179-11.535 7.124-7.013 10.371-14.715 15.074-22.893 13.897-35.823-5.103-71.819-116.043-72.186-117.161a1.511 1.511.0 00-1.329-1.043c-3.679-.291-90.156-5.845-109.81 26.014-6.393 10.42-4.903 23.628 4.483 39.26 43.192 77.718 87.833 118.883 132.838 122.443zm81.056-87.487c5.218.413 11 4.653 14.342 10.546 3.042 5.492 3.229 11.182.494 15.642-.35.592-36.098 59.4-90.77 58.511-45.47-.735-91.053-41.507-135.214-121.162-8.815-14.635-10.326-26.799-4.561-36.18 17.525-28.531 96.087-25.193 105.909-24.659 3.9 11.901 38.104 113.074 74.315 118.253 9.41 1.334 18.118-3.802 25.885-15.279 2.263-3.862 5.251-5.744 8.935-5.71l.665.038zM435.676 200.362s-9.793-43.313-17.726-52.58c-7.932-9.269-10.436-21.558-12.158-43.333-1.724-21.777-12.961-28.022-25.856-29.043-12.895-1.019-26.126-15.065-39.075-15.407-49.282-1.296-53.554 28.163-53.554 28.163l109.889 113.257 38.48-1.057z" fill="#111827" fill-rule="nonzero"/><path d="M33.742 211.26s27.097 2.794 38.797.315c27.208 85.23 203.65 25.564 203.65 25.564l.263-.084c11.06-7.813 25.383-13.913 43.366-18.12.0.0 3.86.138 10.172.713l-5.154-4.674s128.758-41.268 247.316 9.966c102.585 44.432 23.488 149.552-101.597 173.556 7.196 24.132-47.686 43.761-90.251 88.986-29.124-1.336-79.163-34.121-107.031-95.282C51.72 419.349 33.742 211.26 33.742 211.26z" fill="#fff" fill-rule="nonzero"/><path d="M416.312 404.594c10.133-.137 45.595-5.05 54.956-6.368.145 1.268.156 2.547.033 3.816-1.542 14.118-23.28 31.451-39.625 40.479-18.416-6.451-27.535-19.898-31.43-33.977a36.714 36.714.0 0116.066-3.95zM377.85 276.818c7.926-25.945 41.238-50.308 41.238-50.308l33.539 123.593s5.272.69 7.217 4.671l-40.604 14.494s-10.215 3.854-18.768-.833c4.278-17.625 4.214-37.741-5.6-44.327-10.253-6.804-24.832-21.637-17.022-47.29zm176.806-59.317s80.278 33.27 38.489 96.684c-16.535 24.282-37.151 50.843-75.125 70.841 38.646-12.182 108.685-59.757 100.216-112.907-5.855-28.64-43.543-49.114-63.58-54.618z" fill="#fde047" fill-rule="nonzero"/><path d="M542.235 271.664c1.406 31.526-26.478 85.326-124.411 98.358.03.003 94.568-20.38 124.411-98.358z" fill="#fde047" fill-rule="nonzero"/><path d="M411.473 406.035l.181.014c.393.031 39.391-1.818 59.271-6.027a1.51 1.51.0 10-.632-2.955c-17.349 3.682-49.606 5.505-57.164 5.89.048-4.824.004-19.249-2.49-30.311 75.074-13.386 113.451-62.832 129.672-91.209a14.488 14.488.0 00-.989-16.86 1.532 1.532.0 00-.474-.351 1.543 1.543.0 00-1.159-.054 1.503 1.503.0 00-.857.777 1.516 1.516.0 00-.054 1.155c.068.187.171.358.305.505.21.228 5.002 5.647.6 13.334-16.081 28.116-54.231 77.201-129.136 89.98a1.63 1.63.0 00-.577.228c-.176.113-.328.26-.446.432a1.495 1.495.0 00-.225.578 1.46 1.46.0 00.025.617c3.2 12.874 2.74 32.511 2.74 32.707a1.5 1.5.0 00.457 1.125c.257.25.595.4.952.425z" fill="#111827" fill-rule="nonzero"/><path d="M472.74 347.577c-53.814-31.495-45.291-144.815 8.099-146.145l-27.148-2.148c-38.425-1.752-82.747 109.645 4.633 154.992a120.288 120.288.0 0014.416-6.699z" fill="#fff" fill-rule="nonzero"/><path d="M458.459 355.645c.23.015.463-.024.676-.113a118.606 118.606.0 0014.586-6.731 1.501 1.501.0 00.555-2.051 1.518 1.518.0 00-.546-.551c-31.91-18.7-41.563-66.845-32.343-102.645 6.564-25.419 21.033-40.269 39.647-40.75.402.013.791-.136 1.083-.411a1.503 1.503.0 00.062-2.135 1.52 1.52.0 00-1.059-.473l-27.146-2.148c-17.345-.795-36.23 20.379-43.99 49.214-9.581 35.561-1.992 82.754 47.805 108.62.208.108.436.169.67.174zm11.467-8.173c-2.165 1.084-5.888 2.864-11.283 5.07-47.7-25.125-54.881-70.576-45.66-104.833 7.412-27.516 25.02-47.718 40.883-46.992l15.806 1.25c-14.466 5.211-25.768 19.737-31.221 40.9-9.276 35.934.078 84.22 31.479 104.545l-.004.06z" fill="#111827" fill-rule="nonzero"/><path d="M245.325 246.615c-20.477 28.645 9.259 107.629 27.566 144.427l-18.422 2.659c-39.998 2.011-75.943-129.534-28.524-143.066 9.67-1.762 19.38-4.02 19.38-4.02z" fill="#fff" fill-rule="nonzero"/><path d="M252.152 395.275c.843.064 1.689.075 2.532.034l18.559-2.664a1.514 1.514.0 001.3-1.475 1.512 1.512.0 00-.157-.689c-21.406-43.081-46.437-116.714-27.685-142.924.174-.249.27-.545.271-.85a1.5 1.5.0 00-.257-.855 1.521 1.521.0 00-1.589-.629c-.091-.007-9.785 2.254-19.323 4.071-23.461 6.679-26.643 39.826-21.834 68.625 6.127 36.713 26.044 75.605 48.183 77.356zm18.633-5.321-16.349 2.354c-.702.036-1.406.025-2.107-.031-19.939-1.576-39.4-39.116-45.328-74.874-4.607-27.529-1.877-59.167 19.544-65.206a473.775 473.775.0 0015.77-3.292c-16.859 31.066 10.332 104.037 28.425 141.045l.045.004z" fill="#111827" fill-rule="nonzero"/><path d="M44.289 257.491s22.476 44.527 38.715 44.526c16.239-.003 28.167-10.741 36.648 4.835 8.481 15.576 16.622 20.11 25.62 21.457 9 1.347 5.828 49.702 29.74 59.372-54.262-16.61-106.831-54.453-130.723-130.19z" fill="#fde047" fill-rule="nonzero"/><path d="M415.493 370.128c-10.966 1.07-17.284-.217-36.914-20.095-18.195-18.418-21.635 15.465 4.579 22.123-24.249-.405-34.743 1.792-46.04 2.82-7.641.667-9.854 12.144-.952 12.031 8.444-.074 18.351-.592 28.007.505.0.0-21.663 5.248-29.588 7.406-12.406 3.346-10.126 16.737 3.103 13.349a241.543 241.543.0 0129.147-5.109s-19.886 8.521-28.679 14.151c-8.469 5.383.818 15.561 9.802 10.384 9.906-5.709 26.738-13.971 26.738-13.971s-8.464 8.001-12.177 17.348c-3.883 9.755 5.722 13.028 10.879 5.022 8.328-12.825 21.755-30.8 44.621-32.079 22.59-1.255 11.135-36.209-2.526-33.885z" fill="#fff" fill-rule="nonzero"/><path d="M365.726 442.119c2.851.226 6.279-1.289 8.77-5.163 9.015-14.01 22.121-30.241 43.382-31.374 7.759-.431 11.222-4.499 12.761-7.843 3.385-7.299.488-17.485-3.957-23.269-3.385-4.4-7.502-6.45-11.608-5.775-9.988.98-15.704.528-35.628-19.646-6.703-6.781-11.025-6.245-13.026-5.328-2.833 1.289-4.292 4.761-3.87 9.213a23.624 23.624.0 004.046 10.328 23.699 23.699.0 008.321 7.356c-10.03.07-20.045.733-29.994 1.985-2.833.322-5.513.624-8.218.864a8.849 8.849.0 00-5.843 2.877 8.793 8.793.0 00-2.272 6.09c.138 2.856 2.148 6.224 7.362 6.121l5.333-.092c4.028-.075 8.375-.155 12.784-.049-6.856 1.682-15.651 3.878-20.132 5.081-7.382 1.99-10.132 7.219-9.05 11.392 1.017 3.832 5.408 6.843 12.935 4.926 6.197-1.613 13.124-2.835 18.578-3.675a186.053 186.053.0 00-19.305 9.974c-4.555 2.908-4.757 7.19-2.954 10.117a10.503 10.503.0 006.578 4.313c2.67.534 5.444.012 7.735-1.456 5.692-3.287 13.777-7.461 19.533-10.379a49.121 49.121.0 00-7.148 11.888c-2.346 5.868-.18 9.58 2.417 10.905.773.369 1.613.58 2.47.619zm51.379-70.51c3.257.258 5.837 2.959 7.216 4.702 3.963 5.156 6.381 14.124 3.595 20.168-1.724 3.768-5.149 5.813-10.18 6.095-22.649 1.236-36.343 18.191-45.756 32.806-2.267 3.528-5.358 4.42-7.224 3.454-1.866-.965-2.312-3.769-.957-7.097 3.545-8.936 11.735-16.732 11.818-16.816a1.51 1.51.0 00.44-.949 1.509 1.509.0 00-.285-1.005 1.515 1.515.0 00-1.918-.5c-.175.092-16.991 8.356-26.835 14.023a7.488 7.488.0 01-10.206-1.806c-1.347-2.164-.597-4.344 1.993-6.016 8.599-5.479 28.267-13.926 28.426-14.019a1.505 1.505.0 00.269-2.636 1.524 1.524.0 00-1.027-.254 247.154 247.154.0 00-29.327 5.081c-5.517 1.424-8.622-.364-9.252-2.761-.631-2.394 1.492-6.207 6.903-7.655 7.893-2.13 29.417-7.343 29.557-7.407.347-.084.652-.286.864-.573a1.5 1.5.0 00.291-.99 1.52 1.52.0 00-.415-.946 1.514 1.514.0 00-.929-.457 173.777 173.777.0 00-22.884-.6l-5.304.08c-2.688.029-4.206-1.12-4.298-3.23a5.831 5.831.0 011.542-3.957 5.856 5.856.0 013.822-1.87c2.75-.236 5.445-.537 8.293-.857a256.073 256.073.0 0137.578-1.93 1.509 1.509.0 001.536-1.392 1.502 1.502.0 00-.269-1.01 1.52 1.52.0 00-.863-.593c-11.366-2.896-17.101-11.173-17.756-18.051-.29-3.049.537-5.45 2.145-6.2 2.111-.983 5.69.783 9.584 4.707 19.883 20.126 26.559 21.667 38.123 20.524l.106.009a6.316 6.316.0 011.584-.072z" fill="#111827" fill-rule="nonzero"/><path d="M548.605 215.96s-27.007-6.236-43.598 39.105a6880.325 6880.325.0 01-40.161-10.304s9.816-41.989 33.757-40.746c15.994 3.868 50.002 11.945 50.002 11.945z" fill="#fde047" fill-rule="nonzero"/><path d="M504.991 256.547a1.51 1.51.0 001.595-.979c15.879-43.416 40.78-38.389 41.823-38.155a1.537 1.537.0 001.591-.599 1.521 1.521.0 00-.9-2.374s-34.008-8.091-49.942-11.939l-.271-.022c-24.924-1.29-34.909 40.14-35.322 41.909a1.508 1.508.0 001.102 1.797c.182.014 18.083 4.713 40.162 10.304l.162.058zm33.2-41.562c-9.631 2.416-23.629 10.918-34.016 38.26a7303.49 7303.49.0 01-37.335-9.582c1.964-7.185 11.814-39.046 31.7-38.154 10.411 2.503 28.379 6.738 39.651 9.476z" fill="#111827" fill-rule="nonzero"/><path d="M199.915 254.745s-16.456 10.805-17.779 27.527a271.894 271.894.0 01-32.325-2.133s-1.929-13.968 17.408-22.835c11.706.138 23.51-1.56 32.696-2.559z" fill="#fde047" fill-rule="nonzero"/><path d="M161.956 282.86c5.55.439 12.652.835 20.447.906a1.517 1.517.0 001.522-1.393c1.249-15.791 16.936-26.293 17.097-26.401a1.501 1.501.0 00-.034-2.535 1.515 1.515.0 00-.963-.222l-4.9.565a232.366 232.366.0 01-27.63 2.022 1.533 1.533.0 00-.634.147c-20.198 9.192-18.407 23.77-18.364 24.379a1.52 1.52.0 001.28 1.282c.135.025 4.789.665 12.179 1.25zm19.094-2.136a283.327 283.327.0 01-29.503-1.926c.049-3.31 1.506-13.092 16.281-19.898a231.398 231.398.0 0027.218-2.008c-4.998 4.28-12.626 12.65-14.056 23.827l.06.005z" fill="#111827" fill-rule="nonzero"/><path d="M281.008 341.539c-7.38-6.769-9.097-16.885-3.833-22.593 5.264-5.708 15.516-4.848 22.898 1.921s9.098 16.884 3.833 22.593c-5.264 5.709-15.516 4.848-22.898-1.921z" fill="#fde047" fill-rule="nonzero"/><path d="M293.018 348.633c2.16.254 4.35.006 6.399-.725a14.086 14.086.0 005.407-3.487c5.81-6.303 4.062-17.398-3.919-24.718-7.98-7.32-19.222-8.134-25.033-1.829a14.067 14.067.0 00-3.208 12.17 23.474 23.474.0 007.126 12.55 23.58 23.58.0 0013.137 6.032l.091.007zm-5.592-31.964a19.5 19.5.0 0111.421 5.262c6.749 6.194 8.438 15.361 3.74 20.453a11.09 11.09.0 01-4.297 2.72c-1.625.562-3.359.74-5.065.519a20.634 20.634.0 01-11.333-5.257 20.534 20.534.0 01-6.199-10.823 11.11 11.11.0 012.446-9.628 11.17 11.17.0 019.302-3.244l-.015-.002zm328.626-16.327c.212.02.426-.004.628-.072a1.506 1.506.0 00.925-1.909c-.321-.917-8.233-22.35-46.707-20.794-.2.009-.397.055-.579.139a1.519 1.519.0 00.703 2.898c36.097-1.443 43.489 17.922 43.727 18.743.099.272.274.512.505.689.231.175.508.282.798.306zM570.36 266.254c.393.034.785-.088 1.09-.338 22.861-18.892 41.907-3.721 42.108-3.57a1.519 1.519.0 002.126-.209 1.51 1.51.0 00-.212-2.122c-.215-.168-21.186-16.882-45.949 3.585-.304.26-.491.628-.522 1.026-.032.397.095.791.354 1.094.253.302.614.494 1.005.534zM560.716 252.524a1.517 1.517.0 001.494-.851c9.443-19.818 27.202-15.811 27.946-15.63a1.511 1.511.0 001.818-1.112 1.502 1.502.0 00-.177-1.132 1.515 1.515.0 00-.924-.681c-.211-.016-20.864-4.829-31.393 17.189a1.498 1.498.0 00-.064 1.163 1.503 1.503.0 00.784.862c.159.094.333.159.516.192zM149.649 380.045a1.512 1.512.0 001.122-.38 1.503 1.503.0 00.168-2.12 44.166 44.166.0 01-9.435-30.755 1.51 1.51.0 00-1.39-1.623 1.506 1.506.0 00-1.627 1.385 46.42 46.42.0 0010.198 33.008c.251.274.594.447.964.485zm-22.376-11.519c.307.023.615-.048.881-.204a1.508 1.508.0 00.706-.924c.051-.193.063-.394.034-.592a1.479 1.479.0 00-.197-.559c-.066-.111-6.679-11.484-5.698-31.367a1.507 1.507.0 00-1.439-1.581 1.509 1.509.0 00-1.585 1.433c-.998 20.865 5.816 32.571 6.111 33.064a1.517 1.517.0 001.187.73zm-24.319-16.8c.084.021.17.028.256.02a1.512 1.512.0 001.358-1.633c.019-.225-2.06-21.924 1.743-30.869a1.499 1.499.0 00-.317-1.648 1.54 1.54.0 00-1.069-.449 1.496 1.496.0 00-.579.112 1.492 1.492.0 00-.825.812c-4.086 9.634-2.044 31.404-1.95 32.32.041.347.199.671.451.915.252.243.581.391.932.42zM250.216 633.362c18.702 1.479 34.387-11.474 35.151-12.126a1.5 1.5.0 00.275-2.196 1.51 1.51.0 00-1.697-.438 1.539 1.539.0 00-.521.332c-.209.165-21.251 17.522-42.481 9.245a1.518 1.518.0 00-1.872.885 1.515 1.515.0 00.77 1.919 36.427 36.427.0 0010.375 2.379zM244.928 611.513c18.446 1.459 37.836-4.423 38.864-4.75a1.53 1.53.0 00.984-.715 1.508 1.508.0 00-1.268-2.267 1.532 1.532.0 00-.613.111c-.311.097-31.439 9.529-51.444 1.682a1.5 1.5.0 00-.597-.14 1.506 1.506.0 00-1.115.444 1.499 1.499.0 00.076 2.197c.156.137.337.24.534.302a50.901 50.901.0 0014.579 3.136zM281.801 592.069a1.527 1.527.0 001.822-1.157 1.516 1.516.0 00-.204-1.149 1.53 1.53.0 00-.957-.669c-1.65-.629-40.66-15.321-58.172-9.398a1.533 1.533.0 00-.558.271 1.495 1.495.0 00-.58 1.065 1.494 1.494.0 00.393 1.147 1.52 1.52.0 001.719.364c16.483-5.582 55.728 9.22 56.124 9.372.13.074.269.125.413.154zM477.456 578.321l.392.032c.832-.162 20.436-4.15 30.009-33.068a1.514 1.514.0 00-.113-1.122 1.512 1.512.0 00-1.991-.66 1.504 1.504.0 00-.766.829c-8.975 27.135-27.523 31.009-27.713 31.1a1.526 1.526.0 00-1.44 1.604c.023.403.205.781.508 1.049.301.27.697.41 1.102.387l.012-.151zM511.939 582.653c.287.022.573-.035.832-.16 15.828-8.433 8.303-34.754 7.981-35.853a1.517 1.517.0 00-1.877-1.027c-.385.112-.71.373-.903.723a1.502 1.502.0 00-.125 1.148c.072.248 7.12 25.109-6.503 32.339a1.496 1.496.0 00-.654.692 1.493 1.493.0 00-.108.945 1.5 1.5.0 00.479.822c.245.215.553.345.878.371zM538.674 576.013a1.524 1.524.0 001.372-.648c8.705-12.599-8.951-29.218-9.776-29.918a1.536 1.536.0 00-.501-.333 1.51 1.51.0 00-1.67.365 1.501 1.501.0 00.101 2.164c.168.165 16.511 15.546 9.28 26.006a1.51 1.51.0 00-.248 1.13 1.523 1.523.0 00.627.973c.241.163.524.253.815.261zM344.437 388.149l.091.006a1.502 1.502.0 001.08-.42c.145-.138.259-.303.338-.485.08-.182.123-.377.125-.576l.319-12.278a1.51 1.51.0 00-1.396-1.548 1.517 1.517.0 00-1.542 1.482l-.334 12.277a1.513 1.513.0 001.319 1.542zM340.578 408.949c.154.016.31.002.459-.041a1.507 1.507.0 001.129-1.802l-3.086-12.985a1.513 1.513.0 00-2.362-.885 1.53 1.53.0 00-.406.431 1.503 1.503.0 00-.185 1.143l3.09 12.926c.064.323.231.615.477.834.246.218.556.351.884.379zM349.822 428.307a1.514 1.514.0 001.451-.758 1.506 1.506.0 00-.094-1.631l-8.393-11.681a1.52 1.52.0 00-2.113-.347 1.5 1.5.0 00-.611.98c-.067.395.029.799.262 1.125l8.395 11.681a1.517 1.517.0 001.103.631zM374.887 435.423a1.511 1.511.0 001.49-2.103 1.52 1.52.0 00-.69-.739l-11.028-5.624a1.518 1.518.0 00-2.04.656 1.51 1.51.0 00.659 2.034l11.045 5.61c.172.099.365.156.564.166zm-6.637-71.749c.389.03.773-.091 1.075-.337l12.267-10.047a1.513 1.513.0 00.589-1.643 1.512 1.512.0 00-2.498-.687l-12.284 10.044a1.505 1.505.0 00-.481 1.622 1.514 1.514.0 001.332 1.048z" fill="#111827" fill-rule="nonzero"/><path d="M508.408 482.746c7.241 23.574-29.911 82.498-72.318 68.144-10.454-7.305-13.871-13.416-13.871-13.416 32.121 4.492 75.512-26.412 78.77-67.617a74.968 74.968.0 007.419 12.889z" fill="#fde047" fill-rule="nonzero"/><path d="M446.356 554.476c13.907 1.099 28.056-4.728 40.726-16.981 16.993-16.437 27.314-41.196 23.02-55.215a1.542 1.542.0 00-.237-.457 74.072 74.072.0 01-7.259-12.605 1.52 1.52.0 00-1.642-.878 1.511 1.511.0 00-1.252 1.376c-1.473 18.633-11.765 36.9-28.242 50.08-15.293 12.212-33.519 18.338-48.811 16.16a1.514 1.514.0 00-1.463.64 1.507 1.507.0 00-.125 1.594c.147.255 3.707 6.483 14.335 13.907.118.08.244.146.379.196a43.576 43.576.0 0010.571 2.183zm60.895-71.074c3.732 12.87-6.414 36.567-22.319 51.925-8.677 8.394-26.411 21.352-47.94 14.172a57.03 57.03.0 01-11.335-10.204c15.312.984 32.88-5.268 47.721-17.139 15.618-12.505 25.898-29.443 28.749-47.089a77.341 77.341.0 005.124 8.335z" fill="#111827" fill-rule="nonzero"/><path d="M331.903 568.557c-.998-44.948-90.334-69.037-106.559-33.125.764-9.669 5.865-25.625 5.865-25.625 10.612-23.841 100.077-21.154 109.603 38.586a173.359 173.359.0 01-8.909 20.164z" fill="#fde047" fill-rule="nonzero"/><path d="M331.935 570.041c.294.02.588-.047.844-.19.257-.144.466-.359.601-.62a173.849 173.849.0 009.017-20.351 1.61 1.61.0 00.059-.752c-5.387-33.793-35.918-49.57-62.7-53.066-23.826-3.094-44.753 2.832-49.773 14.118l-.014.164c-.218.649-5.169 16.238-5.937 25.952-.034.358.062.717.27 1.01.207.294.513.505.864.593a1.513 1.513.0 001.766-.844c6.254-13.851 25.746-19.664 49.733-14.785 26.423 5.374 53.442 23.354 53.929 47.317.006.334.124.657.333.918.211.26.501.443.828.521l.18.015zm7.477-21.806a159.86 159.86.0 01-6.327 14.951c-4.019-22.867-30.25-39.68-55.865-44.898-21.643-4.406-39.98-.318-49.159 10.397 1.61-8.272 4.411-17.403 4.759-18.343 4.485-9.89 24.481-15.179 46.592-12.28 25.596 3.34 54.735 18.296 60.045 50.177l-.045-.004zm238.373-64.088s6.812-4 20.776 4.232c13.964 8.231 36.642 33.678 39.404 39.071 2.76 5.394 5.524 16.312-.564 19.401 8.134-4.214 16.304-9.076 8.315-22.994-7.991-13.918-30.669-38.412-41.35-42.495-10.68-4.083-20.147-8.721-26.581 2.785zM352.395 667.844s6.587 1.913 6.897 25.242c.2 15.315-4.785 49.559-8.795 58.246-4.012 8.686-5.442 11.222-11.335 11.104 6.023 3.094 17.733 2.794 22.38-9.535 4.648-12.329 11.971-47.735 6.972-74.914-1.256-6.184-10.739-11.973-16.119-10.143zM245.689 319.015s-14.828 9.419-11.373 23.312c3.453 13.893 1.443 36.433-20.198 36.235-9.099-.085-21.733 11.9-21.733 11.9s51.925 6.255 80.091.705c-9.964-16.405-26.787-72.152-26.787-72.152zm-91.496-61.21s-25.375.582-37.267 10.672c-11.892 10.091-29.115-1.652-25.909-9.177 3.206-7.524-14.194-9.536-16.623-20.093-2.428-10.558 2.607-16.652 2.607-16.652s22.397 38.044 77.192 35.25zm376.915 35.809s-27.49 40.576-70.659 60.996c-10.059-4.247-32.382-17.694-39.939-37.283-7.556-19.589 18.098-26.2 30.53-13.565s19.571 2.002 27.317-.004c10.18-2.645 14.641 6.772 30.12-2.793 9.533-5.995 10.958-8.273 22.631-7.351zM337.913 471.945c-32.967-18.376-48.307-28.972-79.61-22.518 3.395-7.616 16.463-31.627 24.327-37.029 10.818 16.155 29.742 41.305 55.283 59.547zM329.792 573.897s-22.734 60.457 2.818 94.469c-15.715-12.365-21.679-30.225-26.357-43.805-4.677-13.582 9.899-8.297 8.598-27.149-1.301-18.853 14.941-23.515 14.941-23.515zM545.266 572s18.143-15.831 24.237-37.806c6.093-21.974 11.666-5.13 15.965-9.98 4.299-4.851 7.948-18.363 1.245-26.672 8.574 6.731 14.248 17.107 7.768 27.853C588 536.142 556.998 566.028 545.266 572zM449.319 432.284s-24.03 24.445-26.665 35.889c-2.634 11.444-3.941 17.016-11.071 19.478-7.131 2.462 3.997 26.224-5.125 31.979-9.147-10.227-24.669-33.473-24.669-33.473s16.747-19.86 29.965-28.303c13.219-8.443 37.565-25.57 37.565-25.57z" fill="#111827" fill-rule="nonzero"/><path d="M378.655 488.899l1.373.109a1.529 1.529.0 001.176-.482c17.347-18.437 36.401-32.335 53.216-44.609 23.466-17.121 40.652-29.669 37.781-44.226 77.936-15.415 142.817-64.368 148.053-111.955 2.937-26.779-14.006-49.533-47.697-64.121-61.532-26.597-125.791-27.911-168.857-24.326-46.64 3.877-79.205 14.195-79.532 14.305a1.501 1.501.0 00-1.014 1.115 1.504 1.504.0 00.463 1.428l1.873 1.662c-3.605-.285-5.71-.345-5.817-.339a1.912 1.912.0 00-.407-.032c-17.675 4.141-32.365 10.273-43.677 18.216l-.09-.008c-1.139.394-114.691 38.219-172.227 9.26-14.826-7.484-24.763-18.862-29.556-33.86a1.509 1.509.0 00-.682-.845 1.523 1.523.0 00-1.073-.172c-11.285 2.408-38.054-.315-38.325-.336a1.498 1.498.0 00-1.646 1.624c.066.899 8.467 89.817 75.023 143.641 41.852 33.834 97.383 46.882 165.088 38.783 28.908 62.59 79.014 92.99 106.554 95.168zm.826-2.961-.633-.05c-26.907-2.128-76.123-32.261-104.406-94.317a1.513 1.513.0 00-1.555-.865c-67.342 8.293-122.482-4.511-163.937-37.979-60.325-48.762-72.173-126.907-73.752-139.758 6.131.56 25.556 2.112 36.061.355 5.188 15.18 15.506 26.726 30.669 34.371 58.628 29.529 169.81-7.499 174.505-9.094l.263-.07c.145-.045.279-.117.397-.211 10.978-7.757 25.369-13.746 42.628-17.814.874.069 4.537.192 9.901.693a1.661 1.661.0 001.588-.889c.128-.289.162-.611.096-.92a1.517 1.517.0 00-.46-.804l-3.172-2.884c18.634-5.336 136.128-35.827 243.708 10.679 32.841 14.205 48.716 35.3 45.892 61.028-5.205 46.636-69.72 94.8-147.171 109.633a1.515 1.515.0 00-1.167 1.906c3.903 13.217-12.945 25.519-36.281 42.528-15.959 11.616-35.738 26.063-53.174 44.462z" fill="#111827" fill-rule="nonzero"/><path d="M291.023 267.473c-55.525-4.392-96.986-52.834-92.608-108.198 4.379-55.366 52.94-96.688 108.466-92.296 55.525 4.391 96.987 52.832 92.608 108.198-4.378 55.365-52.941 96.687-108.466 92.296z" fill="#111827" fill-rule="nonzero"/><path d="M290.829 269.014a102.614 102.614.0 0055.208-11.22 102.196 102.196.0 0040.881-38.651 101.843 101.843.0 0014.174-54.376 101.932 101.932.0 00-16.826-53.631A102.376 102.376.0 00341.534 74.49a102.673 102.673.0 00-55.693-8.563A102.5 102.5.0 00234.05 88.042a102.016 102.016.0 00-32.201 46.094 101.746 101.746.0 00-5.305 39.469 101.876 101.876.0 0010.249 38.497 102.161 102.161.0 0024.243 31.66 102.475 102.475.0 0034.544 20.002 102.98 102.98.0 0025.249 5.25zm15.517-200.612c8.344.668 16.57 2.375 24.488 5.085a99.392 99.392.0 0146.803 33.619 98.934 98.934.0 0120.197 53.874 98.795 98.795.0 01-13.218 55.97 99.156 99.156.0 01-42.177 39.201 99.547 99.547.0 01-56.919 9.219 99.511 99.511.0 01-52.48-23.868 99.076 99.076.0 01-30.349-48.912 98.781 98.781.0 012.008-57.471 99.142 99.142.0 0139.384-50.683 99.625 99.625.0 0162.263-16.034z" fill="#111827" fill-rule="nonzero"/><path d="M259.847 184.355c-6.014-24.128 1.944-45.5 19.819-51.592 15.021-5.138 27.9-1.032 39.752 23.739a6.278 6.278.0 012.863-2.059c3.869-1.313 9.783 2.575 10.779 7.632 2.427 12.299-8.541 14.548-8.513 14.581l19.925 47.987c7.041 17.853-40.152 34.096-42.639 12.578l-5.468-19.333c-18.471 4.259-31.784-14.515-36.518-33.533z" fill="#fde047" fill-rule="nonzero"/><path d="M313.55 248.984c9.396.743 21.7-3.626 28.338-10.591 4.254-4.476 5.594-9.531 3.734-14.218l-19.313-46.516c5.26-2.036 9.665-7.075 7.987-15.787a11.792 11.792.0 00-5.795-7.707 8.663 8.663.0 00-3.365-1.269 8.646 8.646.0 00-3.593.204 7.706 7.706.0 00-1.914.983c-10.859-21.575-23.539-28.585-40.698-22.694-18.5 6.315-27.049 28.262-20.796 53.392l1.47-.368-1.47.368c4.803 19.297 18.337 38.133 36.921 34.957l5.036 17.876a12.057 12.057.0 002.727 6.539 12.112 12.112.0 005.933 3.892c1.554.511 3.166.826 4.798.939zm10.497-93.189a7.114 7.114.0 012.956.991 8.844 8.844.0 014.333 5.668c1.89 9.502-5.14 12.215-7.341 12.812a1.622 1.622.0 00-1.018.782 1.498 1.498.0 00-.102 1.278l19.942 47.975c1.767 4.513-.672 8.482-3.147 11.01-7.002 7.36-21.535 11.688-29.919 8.892a9.093 9.093.0 01-4.63-2.986 9.048 9.048.0 01-2.045-5.108l.019-.226-5.591-19.313a1.512 1.512.0 00-1.797-1.064c-17.296 3.957-30.122-14.05-34.706-32.467-5.863-23.54 1.873-44.023 18.842-49.809 11.403-3.895 24.829-4.21 37.898 23.003.109.233.277.434.487.583.21.151.453.245.71.274a1.513 1.513.0 001.36-.564 4.601 4.601.0 012.143-1.571 3.984 3.984.0 011.606-.16z" fill="#111827" fill-rule="nonzero"/><path d="M333.244 193.148s10.056-6.06 7.529-24.389-6.503-43.264-24.517-42.116c-7.515-14.547-39.447-12.821-52.1 1.524-12.654 14.344-10.1 23.7-6.104 29.389 6.686-9.111 18.231-10.21 29.978-10.401 15.833-.261 17.309 6.408 21.646 16.618 4.338 10.209 3.702 8.085 6.94 5.315 3.24-2.771 2.493-12.318 2.493-12.318 2.479-3.148 9.847-4.199 13.901 7.304 3.782 10.696-6.39 11.511-6.39 11.511l6.624 17.563z" fill="#111827" fill-rule="nonzero"/><path d="M333.327 194.635c.32.026.639-.049.912-.216.446-.268 10.866-6.707 8.239-25.876-2.281-16.448-6.022-43.786-25.154-43.468-3.152-5.243-9.466-8.694-17.912-9.74-13.661-1.7-28.554 3.16-36.19 11.817-10.418 11.797-12.494 22.316-6.208 31.287.144.191.329.348.541.458.211.11.444.173.684.185a1.528 1.528.0 001.248-.628c6.379-8.696 17.711-9.601 28.778-9.831 13.6-.211 15.614 4.641 19.274 13.435.305.734.621 1.561.943 2.268 2.752 6.467 3.544 8.164 5.188 8.476 1.243.219 2.115-.635 2.94-1.477.378-.399.777-.777 1.197-1.131 3.255-2.77 3.151-10.48 3.025-12.911a4.338 4.338.0 013.789-1.078c2.875.469 5.417 3.455 7.141 8.328 1.016 2.879 1.003 5.164-.034 6.762a7.368 7.368.0 01-2.25 1.885 7.358 7.358.0 01-2.809.861 1.517 1.517.0 00-1.163.711 1.497 1.497.0 00-.106 1.338l6.67 17.552a1.51 1.51.0 00.916.905l.341.088zm-14.47-66.487c13.965 1.104 18.025 21.536 20.659 40.812 1.779 12.821-2.856 19.234-5.341 21.67l-5.303-13.933a9.412 9.412.0 005.424-3.716c1.59-2.447 1.703-5.616.366-9.43-2.853-8.063-7.182-9.92-9.505-10.3a7.574 7.574.0 00-7.032 2.562 1.609 1.609.0 00-.311 1.064c.277 3.397-.016 9.397-1.936 11.045-.554.471-1 .935-1.38 1.313-.097.084-.18.183-.279.281-.698-1.16-1.901-3.994-2.903-6.282-.333-.768-.635-1.564-.946-2.24-3.748-9.027-6.464-15.552-22.111-15.367-11.107.18-22.486 1.082-29.8 9.325-3.971-7.366-1.783-15.834 7.079-25.801 6.901-7.823 20.981-12.368 33.545-10.816 7.877.972 13.593 4.103 16.074 8.99a1.52 1.52.0 001.454.811 16.481 16.481.0 012.2.008l.046.004zM296.535 217.909s12.566-2.304 17.691-14.141c-.606 11.119-1.657 18.27-15.562 22.346a78.867 78.867.0 00-2.129-8.205z" fill="#111827" fill-rule="nonzero"/><path d="M298.294 227.601c.187.016.374-.005.553-.063 14.54-4.252 15.987-11.794 16.64-23.698.024-.356-.08-.71-.292-.998a1.52 1.52.0 00-2.614.314c-4.736 10.96-16.45 13.227-16.573 13.247a1.512 1.512.0 00-1.156 1.952s1.219 3.773 2.082 8.033c.042.206.128.4.249.572.123.171.28.315.461.422.197.122.421.196.65.219zm13.621-17.551c-.956 6.703-3.491 11.134-12.366 14.154a93.423 93.423.0 00-1.349-5.192 27.954 27.954.0 0013.715-8.962z" fill="#111827" fill-rule="nonzero"/><path d="M238.058 245.182c98.901 31.141 126.056-65.831 126.056-65.831l-18.633-43.588c-94.295-12.829-132.16 8.282-147.383 27.689a100.345 100.345.0 0124.276-61.788 100.844 100.844.0 0157.602-33.231 101.117 101.117.0 0165.836 9.801 100.737 100.737.0 0145.39 48.564 100.31 100.31.0 015.174 66.174 100.486 100.486.0 01-37.298 54.956 101.016 101.016.0 01-63.521 19.799 101.064 101.064.0 01-62.074-23.981l4.575 1.436z" fill="#fff" fill-rule="nonzero"/><path d="M284.312 168.985c-.614-2.183 2.318-4.911 6.549-6.092 4.232-1.182 8.161-.371 8.774 1.811.614 2.182-2.319 4.91-6.551 6.092-4.231 1.181-8.159.37-8.772-1.811z" fill="#fff" fill-rule="nonzero"/><path d="M288.531 172.798a14.895 14.895.0 005.159-.576c5.199-1.45 8.459-4.869 7.595-7.949a4.945 4.945.0 00-1.617-2.227 4.973 4.973.0 00-2.558-1.024 14.084 14.084.0 00-6.464.381c-5.199 1.451-8.459 4.871-7.596 7.95.556 1.997 2.66 3.222 5.481 3.445zm7.05-8.946c.309.002.617.025.92.073 1.032.202 1.741.637 1.871 1.101.286.992-1.77 3.189-5.494 4.226-3.725 1.038-6.636.233-6.92-.774-.284-1.006 1.769-3.188 5.51-4.225a12.118 12.118.0 014.113-.401z" fill="#111827" fill-rule="nonzero"/><path d="M292.892 167.993a2.72 2.72.0 01-2.501-2.922 2.72 2.72.0 012.93-2.493 2.72 2.72.0 012.5 2.922 2.72 2.72.0 01-2.929 2.493z" fill="#111827" fill-rule="nonzero"/><path d="M258.823 176.455c-.613-2.183 2.319-4.91 6.55-6.092 4.233-1.181 8.16-.37 8.774 1.811.614 2.183-2.318 4.91-6.55 6.092-4.232 1.181-8.16.37-8.774-1.811z" fill="#fff" fill-rule="nonzero"/><path d="M263.027 180.247c1.74.113 3.485-.076 5.159-.56 5.2-1.449 8.459-4.869 7.594-7.949a4.924 4.924.0 00-4.174-3.236 14.058 14.058.0 00-6.449.353c-5.197 1.449-8.459 4.87-7.595 7.964a4.964 4.964.0 001.622 2.217 4.986 4.986.0 002.553 1.019c.427.087.857.151 1.29.192zm7.051-8.93c.307.0.615.026.92.073 1.029.217 1.74.637 1.885 1.102.272.991-1.769 3.19-5.509 4.225-1.63.496-3.353.608-5.035.329-1.03-.203-1.741-.622-1.871-1.087-.285-1.005 1.771-3.204 5.495-4.241a12.152 12.152.0 014.115-.401z" fill="#111827" fill-rule="nonzero"/><path d="M267.405 175.023a2.72 2.72.0 01-2.502-2.922 2.72 2.72.0 012.93-2.492 2.717 2.717.0 012.5 2.921 2.719 2.719.0 01-2.928 2.493zm21.483 27.285c8.748.692 14.521-6.675 16.542-11.312a1.508 1.508.0 00-.806-1.934 1.513 1.513.0 00-1.967.73c-.24.526-5.85 12.93-17.258 8.654a1.519 1.519.0 00-1.638.375 1.507 1.507.0 00-.408 1.082 1.482 1.482.0 00.483 1.055c.147.135.317.241.506.31 1.458.557 2.988.907 4.546 1.04zm-6.584-11.533c1.04.084 2.085.086 3.126.005a1.528 1.528.0 001.412-1.636 1.533 1.533.0 00-1.642-1.409 14.762 14.762.0 01-5.389-.562c.216-.618.477-1.219.78-1.799a13.06 13.06.0 001.752-7.564 1.513 1.513.0 00-1.721-1.272 1.51 1.51.0 00-1.274 1.715 10.277 10.277.0 01-1.491 5.814c-.855 1.779-2.129 4.463.354 5.688 1.292.582 2.679.929 4.093 1.02zM279.9 267.264c40.723 3.219 65.924-20.104 79.87-40.232a149.118 149.118.0 0020.607-44.676 1.545 1.545.0 00-.187-1.153 1.534 1.534.0 00-1.548-.707 1.538 1.538.0 00-1.245 1.155 146.953 146.953.0 01-20.159 43.804c-19.628 28.274-45.568 41.354-77.089 38.862a1.511 1.511.0 00-1.627 1.384 1.513 1.513.0 001.389 1.624l-.011-.061z" fill="#111827" fill-rule="nonzero"/><path d="M355.229 251.668s-48.303 43.696-84.492 33.056c-36.189-10.641-27.287-32.817-27.287-32.817 13.851 5.635 48.122 32.271 111.779-.239z" fill="#111827" fill-rule="nonzero"/><path d="M348.633 120.25s-93.854-19.529-147.02 22.709a14.252 14.252.0 013.256-8.156s40.416-42.807 143.764-14.553z" fill="#fde047" fill-rule="nonzero"/><path d="M242.482 83.667c42.577-18.121 148.733-19.228 154.765 105.2 21.666-68.032-60.251-158.301-154.765-105.2z" fill="#fde047" fill-rule="nonzero"/><path d="M290.583 268.965a102.52 102.52.0 0058.47-12.935 102.07 102.07.0 0041.175-43.361 101.74 101.74.0 009.767-58.923 101.931 101.931.0 00-24.987-54.293A102.425 102.425.0 00323.83 68.396 102.595 102.595.0 00264 71.22a102.235 102.235.0 00-47.978 35.739 101.81 101.81.0 00-19.681 56.403 1.511 1.511.0 001.937 1.518c.31-.09.583-.277.779-.532 15.184-19.289 52.609-39.634 145.113-27.202l18.099 42.289c-1.486 4.786-14.101 42.634-47.566 60.674-21.512 11.599-47.225 12.819-76.427 3.625-1.478-.481-3.079-.97-4.573-1.467a1.52 1.52.0 00-1.815.691 1.509 1.509.0 00.366 1.903 102.873 102.873.0 0058.329 24.104zm15.858-200.524a99.574 99.574.0 0143.224 13.777 99.289 99.289.0 0132.581 31.502 98.903 98.903.0 0115.144 42.655 98.782 98.782.0 01-5.451 44.912 98.982 98.982.0 01-24.909 37.804 99.363 99.363.0 01-39.174 22.81 99.631 99.631.0 01-45.266 3.059 99.525 99.525.0 01-41.92-17.33c28.663 8.32 54.105 6.701 75.463-4.881 36.714-19.795 49.052-62.569 49.162-62.999a1.51 1.51.0 00-.057-1.003l-18.651-43.574a1.506 1.506.0 00-1.187-.912c-89.04-12.096-128.421 5.915-145.789 24.789a98.917 98.917.0 0134.638-67.301c20.024-16.974 45.983-25.34 72.189-23.263l.003-.045z" fill="#111827" fill-rule="nonzero"/><path d="M202.128 138.448a1.52 1.52.0 001.221-.478c.116-.113 11.57-11.949 35.227-19.793 21.927-7.239 59.201-12.433 112.224 3.913.393.119.817.078 1.18-.114a1.544 1.544.0 00-.279-2.841c-53.911-16.628-91.898-11.265-114.278-3.834-24.377 8.105-35.806 20.019-36.271 20.527a1.52 1.52.0 00-.317.499 1.514 1.514.0 00.376 1.639c.244.257.567.425.917.482z" fill="#111827" fill-rule="nonzero"/><path d="M72.098 212.992c.505-13.473 4.082-25.901 28.567-39.386 22.691-12.505-13.95-23.197-27.455.189 2.862-24.288 9.5-35.672 14.459-42.165 4.672-6.108-1.466-17.912-10.969-11.93-2.635 1.653-17.955 30.904-15.997 30.71.0.0 3.027-20.81 5.749-28.751 2.723-7.941-10.329-15.813-15.954-3.411-5.624 12.403-4.738 29.785-4.738 29.785s-7.842-19.052-7.141-29.06c.7-10.008-12.422-9.699-15.775.084-3.354 9.784 8.324 35.6 8.324 35.6A91.996 91.996.0 0117.6 134.32c-6.054-12.298-19.611-6.681-14.999 5.805 4.613 12.486 14.129 26.676 19.588 36.718 5.459 10.041 7.46 16.206 11.467 34.44 4.005 18.235 38.442 1.709 38.442 1.709z" fill="#fff" fill-rule="nonzero"/><path d="M44.639 221.316c11.734.928 27.486-6.543 28.274-6.919a1.507 1.507.0 00.862-1.309c.448-11.799 2.966-24.447 27.785-38.131 7.279-3.964 8.345-7.648 7.95-9.964-.494-2.96-3.576-5.247-8.259-6.101a28.528 28.528.0 00-13.953 1.364A28.433 28.433.0 0075.695 168.1c3.111-20.153 9.037-29.839 13.338-35.476a10.53 10.53.0 001.89-6.745 10.551 10.551.0 00-2.759-6.444c-3.115-3.394-7.641-3.751-12.065-.955-1.422.902-7.165 10.572-11.547 19.154a124.925 124.925.0 013.542-15.428c1.696-4.936-1.565-9.566-5.686-11.194-4.121-1.627-9.713-.769-13.081 6.698-3.271 7.202-4.401 15.92-4.789 22.169-2.126-6.312-4.618-15.105-4.217-20.732.399-5.629-2.875-8.188-6.026-8.816-4.482-.913-10.519 1.938-12.692 8.304-2.173 6.365 1.266 18.138 4.368 26.706a94.267 94.267.0 01-6.822-11.601c-3.596-7.307-9.565-8.792-13.582-7.127-4.016 1.664-6.878 6.764-4.146 14.047 3.314 8.949 9.029 18.632 14.06 27.171 2.075 3.508 4.014 6.81 5.619 9.751 5.298 9.756 7.309 15.802 11.315 34.035a11.319 11.319.0 002.138 4.818 11.356 11.356.0 004.092 3.332 17.062 17.062.0 005.994 1.549zm26.153-9.266c-4.042 1.799-21.988 9.368-30.903 5.031a8.293 8.293.0 01-4.588-6.083c-4.084-18.572-6.15-24.699-11.617-34.831-1.614-2.988-3.581-6.337-5.671-9.846-4.978-8.429-10.612-17.984-13.824-26.683-2.012-5.455-.177-9.092 2.538-10.225 2.715-1.132 6.96.082 9.679 5.607a93.047 93.047.0 0013.808 20.766 1.517 1.517.0 001.968.257 1.506 1.506.0 00.53-1.907c-3.192-7.031-10.876-26.948-8.274-34.505 1.639-4.788 5.985-6.988 9.226-6.322 2.494.514 3.819 2.572 3.605 5.657-.719 10.233 6.922 28.951 7.254 29.734a1.518 1.518.0 002.594.331c.216-.28.326-.626.311-.979.014-.165-.798-17.147 4.608-29.083 2.482-5.48 6.397-6.244 9.207-5.128a6.05 6.05.0 013.495 2.911 6.021 6.021.0 01.47 4.515c-2.326 6.777-4.8 22.319-5.582 27.417-.29.7-.401 1.461-.327 2.214a1.662 1.662.0 001.733 1.106 1.512 1.512.0 001.347-1.287s.062-.782.31-2.002c2.357-6.2 13.053-26.116 15.043-27.669 4.31-2.685 7.011-.959 8.222.438a7.527 7.527.0 01.702 9.333c-4.926 6.45-11.828 17.919-14.76 42.898a1.511 1.511.0 002.058 1.595c.327-.128.598-.367.769-.674a25.843 25.843.0 0111.05-10.352 25.948 25.948.0 0114.97-2.405c3.261.59 5.551 1.951 5.784 3.62.319 1.916-2.086 4.495-6.435 6.891-23.161 12.695-28.537 24.648-29.3 39.66z" fill="#111827" fill-rule="nonzero"/><path d="M85.248 135.71a1.513 1.513.0 001.555-.999 1.51 1.51.0 00-.579-1.754l-12.753-8.575a1.512 1.512.0 00-1.687-.02 1.54 1.54.0 00-.423.413 1.492 1.492.0 00-.232.544 1.502 1.502.0 00.627 1.56l12.752 8.576c.22.148.475.236.74.255zM65.239 126.594a1.515 1.515.0 001.69-1.312 1.509 1.509.0 00-1.316-1.685L50 121.061a1.513 1.513.0 00-1.738 1.254 1.505 1.505.0 001.245 1.718l15.612 2.536.12.025zM22.906 130.113c.174.013.35-.003.52-.049l16.174-4.563a1.508 1.508.0 00-.818-2.895l-16.234 4.543a1.514 1.514.0 00-.846.601 1.513 1.513.0 00-.257 1.003 1.515 1.515.0 001.401 1.356l.06.004zM5.272 146.857c.374.028.746-.083 1.042-.311l12.671-9.591a1.498 1.498.0 00.771-1.023 1.512 1.512.0 00-.296-1.247 1.5 1.5.0 00-1.148-.57 1.51 1.51.0 00-1.175.515l-12.673 9.59a1.507 1.507.0 00.787 2.711l.021-.074zm91.547 29.286c.196.018.393-.002.581-.06.19-.06.364-.158.516-.288.152-.129.276-.286.365-.463a1.499 1.499.0 00.089-1.155l-4.542-13.751a1.53 1.53.0 00-.29-.514 1.49 1.49.0 00-.466-.364 1.52 1.52.0 00-1.672.198 1.504 1.504.0 00-.454 1.617l4.54 13.782c.099.279.279.521.516.698.237.178.521.283.817.3zM314.85 698.205a31.465 31.465.0 01-9.227-8.332 31.337 31.337.0 01-5.266-11.246c-3.15-13.127-6.821-16.807-14.524-14.769-13.957 3.769-21.04-29.478-34.122-18.345 18.892 25.54 51.953 48.674 63.139 52.692z" fill="#111827" fill-rule="nonzero"/></g><g id="svg-feta4"><path d="M173.788 505.525l-3.908-13.878c-1.043-3.703-5.706-4.891-8.393-2.135l-10.064 10.325c-2.686 2.757-1.383 7.387 2.349 8.335l13.971 3.554c3.731.948 7.089-2.496 6.045-6.201zm-6.915-13.03 3.907 13.877c.392 1.39-.868 2.682-2.267 2.325l-13.971-3.552c-1.399-.356-1.888-2.094-.882-3.128l10.064-10.322c1.008-1.034 2.758-.589 3.149.8z" fill="#111827"/></g><g id="svg-feta2"><path d="M211.851 509.211c.296-2.833 9.932-11.884 13.347-12.708a9.275 9.275.0 019.267 3.038l28.117 33.35a9.274 9.274.0 011.722 8.868c-1.002 3.054-9.771 12.159-12.896 12.913-11.234 2.712-20.434-.345-31.669 2.367a9.279 9.279.0 01-8.702-2.425 9.28 9.28.0 01-2.511-8.678c2.805-12.148 1.934-23.439 3.325-36.725z" fill="#fde047"/><path d="M251.408 554.672c-11.234 2.712-20.434-.345-31.669 2.367l-.561-2.323.28-.067c5.842-1.367 11.151-1.268 16.156-1.183 5.133.086 9.952.158 15.234-1.117-.003.001.013-.003.051-.018.038-.012.09-.034.157-.065.138-.063.313-.156.526-.285.429-.26.95-.627 1.539-1.092 1.178-.929 2.522-2.161 3.827-3.487 1.305-1.325 2.53-2.705 3.475-3.915 1.013-1.296 1.503-2.147 1.61-2.472l.034-.108a6.878 6.878.0 00-1.313-6.475l1.828-1.541a9.274 9.274.0 011.722 8.868l-2.271-.744 2.271.744c-1.002 3.054-9.771 12.159-12.896 12.913zm-39.223-1.217.534-.539a6.886 6.886.0 006.35 1.824l.109-.024.561 2.323a9.279 9.279.0 01-8.702-2.425l1.148-1.159zm52.119-11.696-2.271-.744 2.271.744zm-1.722-8.868-1.828 1.541-28.116-33.351 1.827-1.54 28.117 33.35zm-36.857-34.056c-.372.105-1.265.562-2.607 1.537-1.288.935-2.742 2.162-4.121 3.467-1.38 1.308-2.635 2.645-3.543 3.792-.456.575-.793 1.061-1.012 1.443-.163.284-.211.425-.221.448-.682 6.535-.806 12.53-1.115 18.601-.31 6.042-.802 12.069-2.251 18.351a6.887 6.887.0 001.864 6.442l-.534.539-1.148 1.159.842-.85-.842.85a9.28 9.28.0 01-2.511-8.678l2.329.538-2.329-.538c2.804-12.148 1.934-23.439 3.325-36.725l.623.065 1.753.183-.005.046c-.001.007-.008.025-.003.02l.002-.003.006-.063-1.753-.183-.623-.065c.296-2.833 9.932-11.884 13.347-12.708a9.275 9.275.0 019.267 3.038l-1.827 1.54a6.887 6.887.0 00-6.879-2.255l-.034.009z" fill="#0f172a" fill-rule="nonzero"/><path d="M253.602 539.694l6.804-7.46-1.883-1.717-6.804 7.459 1.883 1.718zM247.885 532.2l6.775-7.428-1.885-1.717-6.774 7.428 1.884 1.717zM241.724 525.134l6.731-7.38-1.884-1.718-6.731 7.38 1.884 1.718zM235.169 517.814l6.916-7.584-1.883-1.719-6.917 7.585 1.884 1.718zM229.016 510.563l6.916-7.585-1.883-1.718-6.917 7.586 1.884 1.717z" fill="#111827"/><path d="M256.013 548.306a8.077 8.077.0 01-5.782 5.337l-37.927 9.153a8.077 8.077.0 01-7.58-2.112 8.086 8.086.0 01-2.189-7.56l9.812-42.503a8.079 8.079.0 0114.049-3.391l28.117 33.35a8.078 8.078.0 011.5 7.726z" fill="#fde047" fill-rule="nonzero"/><path d="M233.134 557.844a8.601 8.601.0 01-1.808-3.56c-1.119-4.638 1.738-9.31 6.375-10.429 4.636-1.119 9.31 1.736 10.429 6.374a8.596 8.596.0 01.015 3.993l-15.011 3.622z" fill="#fff"/><path d="M231.975 558.156a9.819 9.819.0 01-1.687-3.589c-1.273-5.279 1.977-10.598 7.255-11.871 5.278-1.274 10.597 1.976 11.871 7.255a9.781 9.781.0 01.135 3.964l-2.611.63a7.397 7.397.0 00.153-4.033 7.452 7.452.0 00-8.988-5.493 7.45 7.45.0 00-3.517 12.507l-2.611.63z" fill="#0f172a"/><path d="M216.283 505.621a388.465 388.465.0 01-1.641 11.263c-2.654 16.504-6.156 31.563-9.898 43.498a8.076 8.076.0 01-1.866-7.221l9.811-42.503a8.077 8.077.0 013.594-5.037z" fill="#fff"/><path d="M204.51 561.997a9.27 9.27.0 008.198 1.963l37.927-9.153a9.275 9.275.0 004.915-14.993l-28.116-33.351s-.433-.479-.666-.701c-.238-.229-.764-.668-.764-.668a9.277 9.277.0 00-14.699 5.26l-9.81 42.505a9.277 9.277.0 002.511 8.676l.474.47.03-.008zm21.095-53.995 28.118 33.351a6.885 6.885.0 01-3.649 11.131l-37.927 9.153a6.887 6.887.0 01-6.459-1.8l-.56 2.011v-.001l.56-2.01a6.885 6.885.0 01-1.864-6.441l9.81-42.504a6.885 6.885.0 0111.971-2.89z" fill="#0f172a"/><path d="M226.81 534.784a6.81 6.81.0 10-3.195-13.241 6.81 6.81.0 103.195 13.241z" fill="#fff" fill-rule="nonzero"/><path d="M223.457 520.384a8.007 8.007.0 00-5.903 9.66 8.007 8.007.0 009.659 5.903 8.008 8.008.0 005.904-9.659 8.008 8.008.0 00-9.66-5.904zm.56 2.322a5.62 5.62.0 016.778 4.142 5.619 5.619.0 01-4.143 6.777 5.619 5.619.0 01-6.776-4.141 5.62 5.62.0 014.141-6.778z" fill="#0f172a"/><path d="M219.526 552.478a4.501 4.501.0 10-2.113-8.75 4.501 4.501.0 002.113 8.75z" fill="#fff" fill-rule="nonzero"/><path d="M217.257 542.569a5.697 5.697.0 00-4.2 6.872 5.697 5.697.0 006.873 4.201 5.698 5.698.0 004.199-6.873 5.697 5.697.0 00-6.872-4.2zm.561 2.323a3.307 3.307.0 013.989 2.438 3.308 3.308.0 01-2.438 3.989 3.308 3.308.0 01-3.99-2.438 3.307 3.307.0 012.439-3.989z" fill="#0f172a"/></g><g id="svg-feta1"><path d="M590.34 203.33c3.074-4.619 27.887-11.522 34.525-9.855a18.071 18.071.0 0113.242 13.623l18.352 82.979a18.061 18.061.0 01-5.049 16.857c-4.49 4.366-27.857 12.145-33.931 10.62-21.837-5.483-34.948-19.077-56.787-24.56a18.07 18.07.0 01-9.306-29.298c15.826-18.426 24.536-38.698 38.954-60.366z" fill="#fde047"/><path d="M561.988 290.085c11.11 2.871 20.028 7.754 28.601 12.434 8.629 4.71 16.913 9.217 27.165 11.866l.489.125-.764 3.044c-21.837-5.483-34.948-19.077-56.787-24.56l.765-3.044.531.135zm-11.05-9.867a14.928 14.928.0 0010.284 9.67l.235.062-.765 3.044a18.076 18.076.0 01-12.821-12.055l2.992-.951.075.23zm.448-16.522 2.38 2.044a14.932 14.932.0 00-2.975 14.017l.072.231-2.992.951a18.07 18.07.0 013.515-17.243zm-3.515 17.243 2.992-.951-2.992.951zm42.469-77.609 2.613 1.739c-7.147 10.741-12.844 21.078-18.861 31.256-5.985 10.126-12.23 19.99-20.326 29.415l-2.38-2.044c15.826-18.426 24.536-38.698 38.954-60.366zm66.119 86.747-3.064.677-18.352-82.978-.059-.258a14.933 14.933.0 00-10.882-10.999l.763-3.044a18.071 18.071.0 0113.242 13.623l18.352 82.979zM590.34 203.33c3.074-4.619 27.887-11.522 34.525-9.855l-.763 3.044c-1-.251-3.243-.236-6.544.249-3.147.461-6.832 1.279-10.44 2.297-3.611 1.02-7.059 2.217-9.747 3.41-1.347.598-2.442 1.169-3.252 1.684-.403.257-.7.478-.907.657-.218.187-.275.275-.259.253l-2.613-1.739zm66.119 86.747a18.061 18.061.0 01-5.049 16.857c-4.49 4.366-27.857 12.145-33.931 10.62l.764-3.044.061.014c.322.069.964.123 2.002.059 1.059-.066 2.352-.239 3.828-.516 2.952-.553 6.452-1.48 9.945-2.601 3.491-1.121 6.909-2.414 9.697-3.675 2.921-1.321 4.759-2.437 5.448-3.106l.172-.171a14.931 14.931.0 003.999-13.76l3.064-.677z" fill="#111827" fill-rule="nonzero"/><path d="M634.668 293.747l18.488-6.719-1.072-2.95-18.488 6.719 1.072 2.95zM631.592 275.702l18.407-6.692-1.071-2.949-18.408 6.691 1.072 2.95zM627.197 257.75l18.29-6.647-1.072-2.95-18.29 6.648 1.072 2.949zM623.242 239.368l18.794-6.832-1.071-2.95-18.795 6.832 1.072 2.95zM618.408 220.91l18.794-6.831-1.072-2.95-18.794 6.831 1.072 2.95z" fill="#111827"/><path d="M589.522 205.892a16.5 16.5.0 0128.627 7.188 1496035 1496035 0 0112.922 58.43l5.429 24.548 1.533-.339-1.533.339a16.496 16.496.0 01-4.609 15.394l1.093 1.126-1.093-1.126a16.493 16.493.0 01-15.518 4.172l-73.724-18.509a16.5 16.5.0 01-11.707-11.009l-1.497.475 1.497-.475a16.493 16.493.0 013.208-15.745l55.372-64.469z" fill="#fde047" fill-rule="nonzero"/><path d="M599.251 200.472a747.929 747.929.0 01-12.515 17.234c-19.435 25.981-39.026 48.726-56.232 65.915l-.005-.034a16.984 16.984.0 01-.109-3.909 16.58 16.58.0 013.915-9.253l55.372-64.469c2.438-2.837 5.777-4.731 9.436-5.459l.138-.025zM582.277 307.08a17.514 17.514.0 01-.004-8.588c2.365-9.42 11.933-15.147 21.352-12.782 9.42 2.365 15.147 11.933 12.783 21.352a17.521 17.521.0 01-4.06 7.568l-30.071-7.55z" fill="#fff"/><path d="M580.819 306.682a19.09 19.09.0 01.183-8.541c2.576-10.26 12.997-16.498 23.256-13.922 10.26 2.576 16.498 12.997 13.922 23.256a19.071 19.071.0 01-3.873 7.614l-3.463-.869a15.936 15.936.0 004.292-7.51c2.155-8.579-3.062-17.293-11.642-19.447-8.58-2.155-17.294 3.062-19.448 11.642-.743 2.958-.61 5.93.235 8.646l-3.462-.869z" fill="#111827"/><path d="M589.522 205.892a16.5 16.5.0 0128.627 7.188 1496035 1496035 0 0112.922 58.43l5.429 24.548 1.533-.339-1.533.339a16.496 16.496.0 01-4.609 15.394l1.093 1.126-1.093-1.126a16.493 16.493.0 01-15.518 4.172l-73.724-18.509a16.5 16.5.0 01-11.707-11.009l-1.497.475 1.497-.475a16.493 16.493.0 013.208-15.745l55.372-64.469z" fill="none" fill-rule="nonzero"/><path d="M592.468 261.86c7.514 1.886 15.135-2.676 17.021-10.189 1.887-7.514-2.675-15.135-10.189-17.021-7.514-1.887-15.134 2.675-17.021 10.189-1.886 7.514 2.676 15.134 10.189 17.021z" fill="#fff" fill-rule="nonzero"/><path d="M599.943 233.054c-8.349-2.096-16.828 2.98-18.925 11.329-2.096 8.349 2.98 16.828 11.329 18.925 8.349 2.096 16.829-2.98 18.925-11.329s-2.98-16.828-11.329-18.925zm-.764 3.044c6.669 1.674 10.724 8.448 9.049 15.117-1.674 6.669-8.448 10.724-15.117 9.049-6.669-1.674-10.723-8.448-9.049-15.117 1.675-6.669 8.448-10.724 15.117-9.049z" fill="#111827"/><path d="M564.368 285.873a9.527 9.527.0 0011.56-6.921c1.282-5.103-1.817-10.279-6.92-11.56-5.103-1.282-10.279 1.817-11.56 6.92-1.282 5.103 1.817 10.279 6.92 11.561z" fill="#fff" fill-rule="nonzero"/><path d="M569.211 265.906c-5.939-1.491-11.973 2.12-13.464 8.06-1.491 5.94 2.12 11.973 8.06 13.465 5.94 1.491 11.973-2.121 13.464-8.06 1.492-5.94-2.12-11.973-8.06-13.465zm-.764 3.044c4.26 1.069 6.85 5.397 5.781 9.656-1.07 4.26-5.397 6.851-9.657 5.781a7.962 7.962.0 01-5.78-9.657 7.961 7.961.0 019.656-5.78z" fill="#111827"/><path d="M588.301 204.901a18.062 18.062.0 0118.107-5.751 18.067 18.067.0 0113.242 13.622l12.923 58.431 5.09 23.015v-.001l.678 3.066-.067.013a18.065 18.065.0 01-4.244 14.171l.049.049-2.252 2.186-.046-.049a18.061 18.061.0 01-15.821 3.524l-73.725-18.51a18.067 18.067.0 01-12.28-10.58l-.066.021-.949-2.992.065-.021a18.062 18.062.0 013.924-15.725l55.372-64.469zm46.298 89.994.337 1.533a14.931 14.931.0 01-18.212 17.706l-73.723-18.51a14.933 14.933.0 01-10.596-9.961v-.001a14.935 14.935.0 012.904-14.249l55.372-64.468a14.933 14.933.0 0114.962-4.752h.001a14.928 14.928.0 0110.941 11.256l12.923 58.431 5.091 23.015z" fill="#111827"/></g><g id="svg-feta3"><path d="M289.348 281.104c2.302-2.659 18.455-5.012 22.495-3.432a11.45 11.45.0 017.234 9.625c1.5 16.426 3.495 38.306 4.894 53.636a11.449 11.449.0 01-4.524 10.194c-3.173 2.384-18.487 5.404-22.183 3.959-13.289-5.195-20.443-14.791-33.734-19.987a11.455 11.455.0 01-7.095-8.606 11.454 11.454.0 013.591-10.559c11.425-10.316 18.524-22.363 29.322-34.83z" fill="#fde047"/><path d="M297.264 355.086c-13.289-5.195-20.443-14.791-33.734-19.987l1.075-2.749.329.131c6.882 2.746 12.186 6.597 17.193 10.221 5.136 3.715 9.964 7.194 16.212 9.636-.003-.001.016.006.065.019.047.013.115.028.204.045.184.033.427.062.734.083.619.04 1.405.035 2.33-.019 1.849-.107 4.081-.404 6.34-.824 2.256-.42 4.472-.951 6.285-1.508 1.941-.596 3.039-1.112 3.377-1.365l.11-.085a8.493 8.493.0 003.247-7.483l2.94-.268a11.449 11.449.0 01-4.524 10.194l-1.773-2.358 1.773 2.358c-3.173 2.384-18.487 5.404-22.183 3.959zm-38.847-28.955.921-.168a8.503 8.503.0 005.139 6.336l.128.051-1.075 2.749a11.455 11.455.0 01-7.095-8.606l1.982-.362zm61.03 24.996-1.773-2.358 1.773 2.358zm4.524-10.194-2.94.268-4.892-53.636 2.938-.268 4.894 53.636zm-13.243-60.529c-.451-.156-1.678-.324-3.725-.286-1.965.037-4.305.252-6.623.598-2.321.348-4.537.815-6.267 1.334-.868.261-1.553.515-2.044.747-.366.172-.514.28-.541.297-5.309 6.133-9.672 12.114-14.276 18.042-4.583 5.898-9.342 11.653-15.249 16.988a8.502 8.502.0 00-2.665 7.839l-.921.168-1.982.362 1.452-.265-1.452.265a11.454 11.454.0 013.591-10.559l1.977 2.19-1.977-2.19c11.424-10.317 18.524-22.363 29.322-34.83l.585.506 1.645 1.424-.037.043c-.005.006-.026.02-.017.019l.004-.002.05-.06-1.645-1.424-.585-.506c2.302-2.659 18.455-5.012 22.495-3.432a11.45 11.45.0 017.234 9.625l-2.938.268a8.502 8.502.0 00-5.37-7.145l-.041-.016z" fill="#0f172a" fill-rule="nonzero"/><path d="M310.293 341.432l12.16-2.744-.692-3.069-12.16 2.743.692 3.07zM309.426 329.869l12.108-2.731-.693-3.071-12.109 2.733.694 3.069zM308.124 318.293l12.031-2.715-.694-3.07-12.031 2.714.694 3.071zM307.175 306.386l12.362-2.79-.692-3.071-12.363 2.79.693 3.071zM305.857 294.411l12.362-2.79-.692-3.071-12.364 2.791.694 3.07z" fill="#111827"/><path d="M306.736 352.102a9.973 9.973.0 01-9.626 1.316l-44.866-17.54a9.975 9.975.0 01-3.054-16.696l39.974-36.095a9.977 9.977.0 0116.62 6.497l4.894 53.636a9.976 9.976.0 01-3.942 8.882z" fill="#fde047" fill-rule="nonzero"/><path d="M276.809 345.471a10.629 10.629.0 01.686-4.882c2.145-5.486 8.34-8.197 13.825-6.053s8.198 8.338 6.053 13.824a10.61 10.61.0 01-2.806 4.053l-17.758-6.942z" fill="#fff"/><path d="M275.25 344.921a12.104 12.104.0 01.829-4.825c2.441-6.245 9.492-9.332 15.735-6.891 6.244 2.441 9.331 9.491 6.89 15.736a12.072 12.072.0 01-2.665 4.108l-3.088-1.208a9.14 9.14.0 003.005-3.975c1.848-4.727-.49-10.065-5.217-11.913s-10.065.49-11.913 5.217a9.144 9.144.0 00-.488 4.959l-3.088-1.208z" fill="#0f172a"/><path d="M296.11 280.602a476.494 476.494.0 01-9.622 10.242c-14.351 14.833-28.541 27.602-40.764 37.041-.4-3.215.79-6.44 3.213-8.629l39.974-36.096a9.98 9.98.0 017.199-2.558z" fill="#fff"/><path d="M244.752 329.514a11.45 11.45.0 006.913 7.782l44.866 17.54a11.449 11.449.0 0015.572-11.705l-4.892-53.636s-.1-.791-.178-1.181a25.108 25.108.0 00-.302-1.215 11.45 11.45.0 00-18.599-5.064c-12.241 11.056-28.548 25.781-39.972 36.097a11.453 11.453.0 00-3.591 10.558l.148.811.035.013zm59.52-39.754 4.894 53.638a8.5 8.5.0 01-11.561 8.69l-44.866-17.54a8.502 8.502.0 01-5.267-6.388l-1.988 1.64v-.001l1.988-1.639a8.502 8.502.0 012.665-7.839 430028.87 430028.87.0 0039.972-36.096 8.502 8.502.0 0114.163 5.535z" fill="#0f172a"/><path d="M286.605 317.735a8.41 8.41.0 106.123-15.664 8.41 8.41.0 00-6.123 15.664z" fill="#fff" fill-rule="nonzero"/><path d="M293.222 300.631c-5.08-1.987-10.817.525-12.803 5.607-1.987 5.081.525 10.817 5.606 12.803 5.082 1.987 10.818-.525 12.804-5.606 1.987-5.081-.525-10.818-5.607-12.804zm-1.074 2.746a6.939 6.939.0 013.934 8.985 6.937 6.937.0 01-8.983 3.932 6.938 6.938.0 01-3.934-8.982 6.939 6.939.0 018.983-3.935z" fill="#0f172a"/><path d="M266.689 330.61a5.557 5.557.0 104.047-10.352 5.557 5.557.0 00-4.047 10.352z" fill="#fff" fill-rule="nonzero"/><path d="M271.231 318.929a7.034 7.034.0 00-9.11 3.989 7.035 7.035.0 003.989 9.11 7.036 7.036.0 009.109-3.99 7.034 7.034.0 00-3.988-9.109zm-1.074 2.748a4.084 4.084.0 012.315 5.287 4.082 4.082.0 01-7.604-2.972 4.084 4.084.0 015.289-2.315z" fill="#0f172a"/></g></svg>