<?xml version="1.0" encoding="utf-8"?>
<!-- Generator: Adobe Illustrator 24.3.0, SVG Export Plug-In . SVG Version: 6.00 Build 0)  -->
<svg version="1.1" id="Layer_1" xmlns="http://www.w3.org/2000/svg" xmlns:xlink="http://www.w3.org/1999/xlink" x="0px" y="0px"
	 viewBox="0 0 6315.3 4444.1" style="enable-background:new 0 0 6315.3 4444.1;" xml:space="preserve">
<style type="text/css">
	.st0{fill-rule:evenodd;clip-rule:evenodd;fill:none;stroke:#73C8FE;stroke-width:18.0573;stroke-miterlimit:10;}
	.st1{fill-rule:evenodd;clip-rule:evenodd;fill:#B28B67;}
	.st2{fill-rule:evenodd;clip-rule:evenodd;fill:#133084;}
	.st3{fill-rule:evenodd;clip-rule:evenodd;fill:#1940B0;}
	.st4{fill-rule:evenodd;clip-rule:evenodd;fill:#EAEEF6;}
	.st5{fill-rule:evenodd;clip-rule:evenodd;fill:#12183A;}
	.st6{fill:#EAEEF6;}
	.st7{fill:#16A3FE;}
	.st8{fill-rule:evenodd;clip-rule:evenodd;fill:#BF9614;}
	.st9{fill-rule:evenodd;clip-rule:evenodd;fill:#FFC81A;}
	.st10{fill:#1940B0;}
	.st11{font-family:'Avenir-Heavy';}
	.st12{font-size:350.8085px;}
	.st13{fill:none;stroke:#1940B0;stroke-width:20;stroke-linejoin:round;stroke-miterlimit:10;}
	.st14{fill:none;stroke:#DDE3E9;stroke-width:20;stroke-miterlimit:10;}
	.st15{fill:none;stroke:#DDE3E9;stroke-width:20;stroke-linecap:round;stroke-linejoin:round;stroke-miterlimit:10;}
	.st16{fill:#F5FAFD;stroke:#1940B0;stroke-width:20;stroke-linejoin:round;stroke-miterlimit:10;}
	.st17{fill:#12183A;}
	.st18{font-size:307.3326px;}
	.st19{font-size:32.1809px;}
	.st20{fill:none;stroke:#73C8FE;stroke-width:18.0573;stroke-miterlimit:10;}
	.st21{fill:#73C8FE;}
</style>
<path class="st0" d="M2194.7,313.8c538.7-279.8,1056.1,275,996.6,964.4c-52.3,608.4-473.3,1262-996.6,956
	c-447.2-261.9-1258.2-231-1258.2-838.2S1426.4,712.7,2194.7,313.8z"/>
<path class="st1" d="M2699.5,2419.1l310.4,1069.5l146,803h146.5l-146.3-1872.5H2699.5z"/>
<path class="st1" d="M2560,2419.1c21.7,555.6,13.1,858.6,8.3,909.1c-4.8,50.5-32.4,388.5-219.9,980.3h152.4
	c248.3-567.7,335-905.8,363.5-980.3c28.5-74.5,112.6-377.6,235.4-909.1H2560z"/>
<path class="st2" d="M2692.8,2419.1c80.7,368,220.4,955.5,418.9,1762.3h214.3c15.8-828.2-51.5-1373.3-168.1-1762.3H2692.8z"/>
<path class="st3" d="M2558.9,2419.1c21.2,555.6-33.8,1103-204,1771h228.7c248.8-559.2,427.1-1103.9,549-1771H2558.9z"/>
<path class="st4" d="M2326.7,4418.6l8.3-134.3c0-0.6,0.7-1.1,1.3-0.9c73.8,20.8,183.8-17.3,183.8-17.3
	c117.7,83.4,295.4,114.7,317.3,118.3c1.2,0.2,2,1.4,1.6,2.5l-16.2,57.1h-302.7h-176.6L2326.7,4418.6z"/>
<path class="st4" d="M3123.2,4418.6l8.3-134.3c0-0.6,0.7-1.1,1.3-0.9c73.8,20.8,183.8-17.3,183.8-17.3
	c117.7,83.4,295.4,114.7,317.3,118.3c1.2,0.2,1.9,1.4,1.6,2.5l-16.2,57.1h-302.7H3140L3123.2,4418.6z"/>
<path class="st1" d="M2897.4,1388.8c54,34.4,107.5,51.7,133,45.8c63.8-14.8,75.4-246.7,28.6-339.4
	c-46.8-92.7-298.2-138.8-315.4,42.1c-6,62.8,19.1,119.6,57,166.4l-78,324.4l203.3,5L2897.4,1388.8z"/>
<path class="st5" d="M3152.2,970.6c-3.8-14.9-14.8-27.8-30-32c-3.7-1-7.5-1.5-11.3-1.4c-1.4,0-1.8,0.4-2.4-0.6
	c-0.4-0.7-0.4-2.5-0.6-3.3c-0.5-2.6-1.2-5.2-2.1-7.7c-3-8.6-8.2-16.2-14.5-22.7c-11.8-12.1-27.9-20.7-44.9-22.6
	c-9.3-1-18.5,0.2-27.4,3.1c-4.6,1.5-9,3.3-13.4,5.3c-1.3,0.6-5.6,3.7-6.9,3.5c-1.4-0.3-4.2-3.9-5.4-4.8
	c-14.1-11.4-31.8-16.2-49.8-16.5c-20.3-0.3-39.8,0.2-57,12.1c-3.7,2.5-7.1,5.3-10.4,8.2c-1.8,1.5-3.4,3.2-5.1,4.8
	c-1,1-1.9,2-2.9,3.1c-1.6,1.8-1.3,2.4-3.4,1.1c-8-5.1-17.4-7.7-26.9-6.8c-5.6,0.6-11.2,2.1-16.4,4.2c-1.8,0.7-6,3.6-7.9,3.6
	c-1.9,0-5.8-2.9-7.8-3.7c-10.3-4.1-21.5-5.3-32.6-3.8c-11.4,1.6-22.6,5.8-32.3,11.8c-4.7,2.9-8.8,6.1-12.1,10.5
	c-1.4,1.9-2.8,3.9-4.4,5.6c-0.9,1-2.8,2-3.3,3.4c0.3-0.8-12.2-6-13.4-6.3c-6.3-1.8-12.8-1.6-19.1,0.3c-11.8,3.6-22.1,12-30.6,20.6
	c-4.4,4.5-8.2,9.4-11.5,14.7c-1.6,2.5-3,5.1-4.4,7.8c-0.6,1.3-1.1,2.9-1.9,4.1c-1.1,1.5-1.8,1.5-3.7,2.1
	c-9.7,3.1-18.6,8.6-25.4,16.1c-6.9,7.6-11.5,17.1-13.6,27.1c-0.1,0.6-0.2,3.1-0.6,3.4c-0.5,0.4-2.4,0.2-3.1,0.3
	c-2.5,0.2-5.1,0.6-7.5,1.1c-4.6,1-9.1,2.4-13.3,4.4c-16.6,7.7-28.7,22.6-34.8,39.6c-6.5,17.8-6.9,38.4-0.1,56.1
	c1.1,2.9,2.4,5.7,4,8.3c1,1.6,1.3,1.6,0.6,3.3c-0.8,1.9-2.1,3.6-3,5.4c-2.9,5.9-5.1,12.2-6.4,18.6c-2.3,10.6-3.6,21.7-1.8,32.4
	c0.8,5,2.3,9.9,4.7,14.4c1.2,2.3,2.6,4.5,4.2,6.5c0.8,1,1.7,2.1,2.7,3c0.5,0.5,1.2,1,1.7,1.6c1.1,1.5,1.4,0.3,0.7,2.4
	c-0.9,3-2.8,5.9-4,8.8c-1.2,3-2.4,6-3.4,9.1c-2.1,6.2-3.9,12.5-5.1,18.9c-2.3,12.3-2.3,25.6,3.3,37.1c2.4,4.9,5.9,9.3,10.2,12.7
	c2.1,1.7,4.4,3.1,6.8,4.3c1.2,0.6,2.8,0.9,3.4,2.1c0.6,1.3-0.4,3.9-0.6,5.3c-2.1,12.6-3.3,25.8,0.1,38.2
	c3.2,11.5,10.5,21.7,20.2,28.6c18.8,13.4,44.6,13.3,65,3.5c5.3-2.6,10.3-5.8,14.8-9.6c10.8,15.3,33.7,15.4,50.1,11.5
	c20.4-4.8,37-18.5,46.9-36.8c12.4,15.9,39.5,11.5,48.8-5.2c2.3-4.1,3.7-8.6,4.4-13.2c0.4-2.4,0.2-4.9,0.5-7.3c0.4-3.1,2.5-6,3.8-8.9
	c2.4-5.7,4-11.7,4.2-17.9c0.1-3.3-0.2-6.4-0.4-9.7c-0.2-2.9,0.7-5.6,1.2-8.5c-5.2,0.7-11.5-0.8-16.4-2.5c-4.8-1.6-9.2-5.6-12.5-9.3
	c-7.7-8.5-12.2-19.4-15.2-30.3c-6.6-23.9-3-52.2,21.1-64.6c11.2-5.8,44.5-4.9,57.6-1.6c13.8,3.5,28.8,34.5,29.5,37.4
	c0.4,1.8,0.1,4,1.8,5.2c3.5,2.7,9.6-1.7,12.3-3.9c4.7-3.7,8.1-8.8,11-13.9c6.4-11.2,11.7-23.2,15.5-35.6c2.9-9.5,4.9-19.3,8.7-28.6
	c3.8-9.2,9.5-17.4,18.3-22.4c9.5-5.5,20.4-8.2,30.8-11.6c10.3-3.3,20.5-7.4,28.6-14.8c1.8-1.6,3.5-3.3,5-5.3c1.1-1.5,2.3-4.5,4-5.4
	c2.7-1.5,6.4,2.6,8.6,4.1c11,7.4,20.1,17.5,27.3,28.5c7.2,10.9,13.1,21.5,17.8,33.6c3.5,9,5.5,20.5,11.8,27.9
	c2.8,3.3,24.4,5.8,31.4,3.2s15.1-9.9,17.6-14.5c2.5-4.7,3.2-9.9,2.3-15.1c-0.5-3.1-1.7-6-2.3-9c-0.5-2.5-1-4.9-2.1-7.3
	c-2.2-4.4-6.1-7.7-10.9-9.1c5.1-4.5,9.4-9.9,12.4-15.9c3.1-6.3,5.8-14,6.7-21c0.7-5.7,0-11.6-3-16.6c-3.1-5.2-8.8-8.7-13.8-12
	c7.8-5.8,14.5-12.9,20.1-20.8C3150.1,1009.1,3157,989.5,3152.2,970.6z"/>
<path class="st1" d="M3953.7,1991.8c12-10.1,26.9-30.9-21.3-29.2c-48.3,1.8-99.1,1.4-105.1-15.3c-2.6-7.3,1.7-15,6.2-23.1
	c5.9-10.5,43.3-42.9,36.2-55.7c-8.4-15.1-83.2,41.2-162.3,126.9l-271.8,100l53.7,149.9l278-187.3
	C3841.2,2041.3,3903.4,2019.2,3953.7,1991.8z M2360.7,2183.1l-173.5-34.4c-117.7,310.3-187.9,480.3-210.5,510.1
	c-16.6,21.8-119,78.1-188.3,108.1c-27.8,12.1-21.8,35.6-13.7,43.1c51.5,47.5,99.3,30.8,151.4,12.7c15.1-5.2,30.5-10.6,46.5-14.6
	c41.4-10.3,53.9,11,65.8,31.1c10.5,17.8,20.5,34.7,49.4,27.9c-1.3-5.7-2.9-12-4.7-18.9c-11.3-44.4-27.9-109.8-3.2-147.9
	C2092.5,2680.8,2186.1,2508.4,2360.7,2183.1z"/>
<g>
	<g>
		<path class="st6" d="M3993.4,1660.7l100.6,47.8c18.2,8.6,25.9,30.4,17.3,48.6l-131.3,276.2c-8.6,18.2-30.4,25.9-48.6,17.3
			l-100.6-47.8c-18.2-8.6-25.9-30.4-17.3-48.6l131.3-276.2C3953.5,1659.8,3975.2,1652.1,3993.4,1660.7z"/>
	</g>
	<path class="st5" d="M3986.3,1666.3c-12.1-5.8-26.6-0.6-32.4,11.5l-134.6,283.2c-5.8,12.1-0.6,26.6,11.5,32.4l107.4,51.1
		c12.1,5.8,26.6,0.6,32.4-11.5l134.6-283.2c5.8-12.1,0.6-26.6-11.5-32.4L3986.3,1666.3z M4063.5,1717.5c6.5,3.1,14.3,0.3,17.4-6.2
		l-81.5-38.7c-3.1,6.5-0.3,14.3,6.2,17.4L4063.5,1717.5z"/>
</g>
<path class="st6" d="M3988.6,1907l-97.8-47.1c-1.9-0.9-2.7-3.2-1.8-5l17.2-35.7c0.9-1.9,3.2-2.7,5-1.8l97.8,47.1
	c1.9,0.9,2.7,3.2,1.8,5l-17.2,35.7C3992.8,1907.1,3990.5,1907.9,3988.6,1907z"/>
<path class="st6" d="M3975.6,1788.8l-45.1-21.7c-0.9-0.4-0.8-2.3,0.1-4.1l17.2-35.7c0.9-1.9,2.3-3.1,3.2-2.6l45.1,21.7
	c0.9,0.4,0.8,2.3-0.1,4.1l-17.2,35.7C3977.9,1788.1,3976.4,1789.3,3975.6,1788.8z"/>
<path class="st7" d="M4035.2,1865.7l-97.8-47.1c-1.9-0.9-2.9-2.7-2.2-4.1l12.6-26.2c0.7-1.4,2.7-1.8,4.6-0.9l97.8,47.1
	c1.9,0.9,2.9,2.7,2.2,4.1l-12.6,26.2C4039.2,1866.2,4037.1,1866.6,4035.2,1865.7z"/>
<path class="st1" d="M3806.8,1961.2c-2.6-7.3,42.6-22.5,53.6-24.9c19.7-6.7,34.5-35.7,21.5-34.3c-23.6,2.4-95.4,7.7-174.6,93.4
	l-271.8,100l53.7,149.9l278-187.3C3841.2,2041.3,3774.1,1980,3806.8,1961.2z"/>
<path class="st8" d="M2832.3,1499.2l73.2-12.6c159.5,154.8,224.6,526.6,330.9,575.8c100.5,46.5,243,1.5,412.3-59.3l51.9,115.9
	c-153.9,166.5-481.7,307.2-614.5,226.9C2873.7,2217.5,2824.6,1759,2832.3,1499.2z"/>
<path class="st4" d="M2513.1,2419.7c0,0,440.4,0,648,0c29.6,0,24-42.8,19.8-64.3c-49.4-249-242.2-517.5-242.2-872l-186.9-29.3
	C2597.1,1702.7,2543.6,2008.9,2513.1,2419.7z"/>
<path class="st9" d="M2741.7,1454.1h-2.1c-419.2,258.4-672.6,658.9-760.1,1201.6l135.8,26.6c90-104.8,201-276.4,333.1-514.7
	c-40.5,143.6-70.1,290.8-79.3,430h583.3c112.9-285.4-138.8-1143.5-138.8-1143.5h-40.3H2741.7z"/>
<path class="st10" d="M2466,1001l-22.3-67.8l1.5-2.5c24.1-40.4,35.8-86.6,33.9-133.6c-2.6-64.6-30.2-124.4-77.7-168.3
	c-47.5-43.9-109.3-66.6-173.9-64c-41,1.7-81.3,13.8-116.3,35.2v0c-55.2,33.7-94,86.8-109.2,149.7c-15.2,62.9-5.1,127.9,28.6,183.1
	c33.7,55.2,86.8,94,149.7,109.2c62.9,15.2,127.9,5.1,183.1-28.6l1.8-1.1l86.2,7.3c1.9,0.2,3.8-0.1,5.6-0.7
	C2464.4,1016.6,2468.4,1008.5,2466,1001z M2362.7,983.6c-3.1-0.3-6.3,0.5-9,2.3c-32.2,21-69.5,32.8-107.9,34.4c0,0-0.1,0-0.1,0
	c-44.6,1.8-87.9-10.2-125.3-34.6c-47.8-31.2-80.6-79.1-92.3-135c-11.7-55.9-1-113,30.2-160.8c31.2-47.8,79.1-80.6,135-92.3
	c55.9-11.7,113-1,160.8,30.2c47.8,31.2,80.6,79.1,92.3,135s1,113-30.2,160.8c-2.4,3.6-3,8.1-1.6,12.2l17.7,53.7L2362.7,983.6z"/>
<path class="st10" d="M2511.6,657.2l35.1,60.8c2,3.5,5.5,6,9.4,6.8l75.7,15.8l27.6,68.9c2.9,7.3,11.2,10.8,18.5,7.9
	c3.5-1.4,6.3-4.1,7.8-7.6s1.5-7.4,0.1-10.9l-30.4-76c-1.8-4.4-5.6-7.7-10.3-8.6l-76.9-16.1l-31.9-55.3c-3.9-6.7-12.6-9-19.3-5.2l0,0
	C2510.1,641.7,2507.7,650.4,2511.6,657.2z"/>
<path class="st10" d="M2433.9,1224.7c0.6-3.8-0.4-7.5-2.7-10.6c-2.3-3-5.6-5-9.3-5.6c-0.9-0.1-1.8-0.2-2.7-0.1
	c-2.8,0.1-5.6,1.1-7.9,2.8l-65.9,48.5c-3.8,2.8-6,7.4-5.8,12.1l3.8,78.5l-45.5,44.8c-5.6,5.5-5.7,14.5-0.2,20.1
	c5.5,5.6,14.5,5.7,20.1,0.2l50-49.2c2.9-2.8,4.4-6.8,4.2-10.8l-3.7-77.3l59.9-44.1C2431.3,1231.8,2433.3,1228.4,2433.9,1224.7z"/>
<path class="st10" d="M2410.2,1109.7l-79.7-9.7c-4.5-0.6-9.1,1.1-12.2,4.5l-54.1,58.6l-72.5-15.9c-1.1-0.2-2.1-0.3-3.2-0.2
	c-6.3,0.3-11.9,4.7-13.3,11.2c-1.7,7.7,3.2,15.3,10.8,16.9l80,17.5c4.9,1.1,10.1-0.6,13.5-4.2l54.7-59.2l72.5,8.8
	c7.8,0.9,14.9-4.6,15.8-12.4C2423.6,1117.8,2418,1110.7,2410.2,1109.7z"/>
<path class="st10" d="M2847.2,728L2847.2,728l-17.2-56l38.9-55.5c2.2-3.1,3-6.9,2.4-10.6c-0.7-3.7-2.7-7-5.8-9.2
	c-2.6-1.8-5.6-2.7-8.7-2.6c-0.6,0-1.3,0.1-1.9,0.2c-3.7,0.7-7,2.7-9.2,5.8l-42.9,61.2c-2.5,3.6-3.2,8.1-1.9,12.3l17.2,56l-38.9,55.5
	c-2.2,3.1-3,6.9-2.4,10.6c0.7,3.7,2.7,7,5.8,9.2c6.4,4.5,15.3,2.9,19.8-3.5l42.9-61.2C2847.8,736.7,2848.5,732.2,2847.2,728z"/>
<text transform="matrix(1 0 0 1 2140.8784 927.3597)" class="st10 st11 st12">?</text>
<path class="st13" d="M4416.3,1699.6l-120.4-50.8l-142.1,48.3l38.8-91.9l-440-185.6c-12.7-5.4-18.7-20-13.3-32.8l102.1-242.1
	c5.4-12.7,20-18.7,32.8-13.3l663.7,279.9c12.7,5.4,18.7,20,13.3,32.8L4449,1686.3C4443.6,1699,4429,1705,4416.3,1699.6z"/>
<path class="st14" d="M3722.2,949l667.2,271.3c12.8,5.2,27.4-1,32.6-13.7l99-243.4c5.2-12.8-1-27.4-13.7-32.6l-667.2-271.3
	c-12.8-5.2-27.4,1-32.6,13.7l-99,243.4C3703.3,929.2,3709.4,943.8,3722.2,949z"/>
<path class="st15" d="M4372.1,947.1l-523.2-212.8"/>
<path class="st15" d="M4149.2,1048.7l-367.3-149.4"/>
<path class="st15" d="M4135,945.7L3816,816"/>
<path class="st15" d="M4339.2,1028.8l-115.6-47"/>
<circle class="st16" cx="4145.2" cy="1406.6" r="208.2"/>
<text transform="matrix(0.9384 0.3455 -0.3455 0.9384 4022.3176 1481.1619)" class="st17 st11 st18">$</text>
<line class="st13" x1="4341.8" y1="1338" x2="3950" y2="1478.9"/>
<text transform="matrix(0.9019 0.4318 -0.4318 0.9019 3949.9529 1762.5917)" class="st17 st11 st19">$</text>
<circle class="st20" cx="3861.5" cy="3305.1" r="130.8"/>
<path class="st21" d="M1887,2535.7c-1.5,0.9-3,1.7-4.5,2.6c-59.5,34.2-108.3,75.1-141.1,118c-32.8,43.1-49.5,87-49.5,130.6
	c0,28.6,8.2,72.2,31.3,108.7c17,26.9,48.4,59.1,100.8,59.1c43.3,0,80.1-16,106.3-46.2c26.3-30.2,40.2-72.3,40.2-121.6
	c0-58.1-15.3-121-44.2-182C1915,2581.1,1901.9,2558,1887,2535.7z M2975.3,2771.3c98.1,71.9,213.5,125.2,373,125.2
	c80.9,0,146.5-21,189.6-60.6c36.6-33.6,49.6-73.4,49.6-99.5c0-45.6-19.9-88.3-59-126.7c-47.2-46.3-117.3-82-190.7-109.1
	c-56.4,73.8-117.7,134.5-183,181.1C3098,2722.2,3038.1,2752.1,2975.3,2771.3z M3161.7,2431.9 M3551.4,2036.8
	c10.3-31.7,17.8-58,22.8-76.8c4.3-15.9,8.5-32.3,12.6-48.2c20.7-80.3,42-163.4,81.2-230c21.4-36.4,46-64.8,75.4-86.9
	c32.6-24.5,71.7-41.2,116.1-49.4l3.3,17.8c-42.3,7.9-77.8,22.9-108.6,46.1c-27.4,20.6-50.6,47.3-70.7,81.6
	c-37.9,64.4-58.9,146.2-79.3,225.3c-4.1,15.9-8.3,32.4-12.6,48.4c-4.4,16.5-10.7,38.6-19.1,65.1L3551.4,2036.8z M3167.5,2451.6
	l-5.7-19.7c1.5,0.3,3,0.6,4.5,1c50.6,11.1,108.4,26.2,165.1,46.3c16-21.5,31.7-44.2,46.9-67.9c23.5-36.7,44.7-73.8,63.7-110.5
	l27-13.2c-22,44-47,89-75.4,133.4c-14.4,22.5-29.2,44.1-44.4,64.7c73.7,27.7,143.9,64,192,111.2c42.8,41.9,64.4,88.9,64.4,139.6
	c0,29.9-14.6,75.2-55.4,112.8c-21.7,19.9-48.4,35.6-79.5,46.5c-35.5,12.5-76.6,18.9-122.3,18.9c-116.5,0-220.7-28.1-318.8-85.8
	c-26.7-15.7-51.9-33-76-51.2c-49.2,13-100.1,19.6-152.4,19.6c-85.1,0-226.1-8.6-343.3-33c-153.6-31.9-231.4-81.9-231.4-148.5
	c0-50.6,22.4-93.3,66.4-126.8c24.5-18.6,56.1-34.6,94.4-47.9l-3.1,20.3c-32.4,11.9-59.3,26-80.3,42c-19.1,14.5-33.7,30.9-43.6,48.8
	c-10.5,19.1-15.8,40.5-15.8,63.6c0,70.9,118,110.3,217,130.9c115.9,24.1,255.4,32.6,339.7,32.6c45.9,0,90.7-5.2,134.2-15.6
	c-47-37.2-90.1-77.9-132.3-117.7c-77.1-72.7-151.6-142.9-241.8-185.1c-30.6-14.3-62.9-24.6-96.1-31.1l-3.8-0.8
	c-26.3-5.2-53-8-79.8-8.1c-0.2,0-0.4,0-0.6,0c-179.9,0-348.5,37.6-477.9,106.3c15,22.6,28.3,46,39.8,70.2
	c30,63.4,45.9,129,45.9,189.7c0,53.8-15.4,99.9-44.6,133.5c-29.8,34.3-71.3,52.4-119.9,52.4c-60.6,0-96.6-36.7-116-67.5
	c-25.1-39.7-34.1-87.2-34.1-118.4c0-95,72.8-191.4,199.6-264.3c1.1-0.6,2.1-1.2,3.2-1.8c-26.5-36.9-57.9-71.4-94-103.2
	c-71.4-62.6-158.8-111.9-259.8-146.5c-115-39.3-247.2-59.2-393-59.2c-143,0-271.9,13.6-383.2,40.4c-94,22.6-176,54.8-243.8,95.6
	c-54.6,32.9-99.4,70.7-133,112.6c-33.5,41.7-46.1,75.3-50.6,91.5l-17.4-4.8c4.9-17.6,18.4-53.7,53.9-98
	c35-43.5,81.3-82.8,137.7-116.8c69.4-41.8,153.2-74.6,248.9-97.7c112.7-27.1,243-40.9,387.4-40.9c147.8,0,282,20.3,398.8,60.2
	c103.2,35.3,192.7,85.8,265.9,150c37.7,33.1,70.5,69.2,98,107.9c132.2-70.6,304.5-109.4,488.2-109.4c37,0,72,4.1,106.3,12.6
	l39.4,11.7c32.6,11.4,64.5,26.9,97,47c69,42.8,128.7,99,191.9,158.6c45.5,42.9,91.5,86.3,141.9,125.1c65.5-18.4,128.1-48.7,187-90.7
	c62.5-44.5,121.3-102.4,175.6-172.8C3267.7,2476.1,3214.6,2462.1,3167.5,2451.6"/>
<path class="st20" d="M4589.3,1554.4c225.9,0,518.2,191.5,518.2,492.3c0,192.4-124.9,336.2-316.2,336.2
	c-121.7,0-268.4-99.7-268.4-238.3"/>
<circle class="st20" cx="936.4" cy="2374.9" r="50.5"/>
<circle class="st20" cx="4788.6" cy="1897.5" r="50.5"/>
<circle class="st20" cx="703.8" cy="2167.5" r="25.3"/>
<g id="Layer_2_3_">
	<g id="BACKGROUND">
		<circle class="st10" cx="2028.8" cy="2185.2" r="17.7"/>
		<path class="st10" d="M1929.8,2185.2c0,9.8-7.9,17.7-17.7,17.7c-9.8,0-17.7-7.9-17.7-17.7c0-9.8,7.9-17.7,17.7-17.7l0,0
			C1921.9,2167.5,1929.8,2175.4,1929.8,2185.2z"/>
		<path class="st10" d="M1813,2185.2c0,9.8-7.9,17.7-17.7,17.7c-9.8,0-17.7-7.9-17.7-17.7c0-9.8,7.9-17.7,17.7-17.7c0,0,0,0,0.2,0
			C1805,2167.5,1813,2175.3,1813,2185.2L1813,2185.2z"/>
		<circle class="st10" cx="2028.8" cy="2095.3" r="17.7"/>
		<path class="st10" d="M1929.8,2095.3c0,9.8-7.9,17.7-17.7,17.7c-9.8,0-17.7-7.9-17.7-17.7c0-9.8,7.9-17.7,17.7-17.7
			S1929.8,2085.5,1929.8,2095.3L1929.8,2095.3z"/>
		<path class="st10" d="M1813,2095.3c0,9.8-7.9,17.7-17.7,17.7c-9.8,0-17.7-7.9-17.7-17.7c0-9.8,7.9-17.7,17.7-17.7c0,0,0,0,0.2,0
			C1805,2077.6,1813,2085.3,1813,2095.3C1813,2095.1,1813,2095.3,1813,2095.3z"/>
		<circle class="st10" cx="2028.8" cy="2005.3" r="17.7"/>
		<path class="st10" d="M1929.8,2005.3c0,9.8-7.9,17.7-17.7,17.7c-9.8,0-17.7-7.9-17.7-17.7c0-9.8,7.9-17.7,17.7-17.7
			C1921.9,1987.6,1929.8,1995.6,1929.8,2005.3L1929.8,2005.3z"/>
		<path class="st10" d="M1813,2005.3c0,9.8-7.9,17.7-17.7,17.7c-9.8,0-17.7-7.9-17.7-17.7c0-9.8,7.9-17.7,17.7-17.7c0,0,0,0,0.2,0
			C1805,1987.6,1813,1995.6,1813,2005.3z"/>
		<circle class="st10" cx="2028.8" cy="1915.2" r="17.7"/>
		<path class="st10" d="M1929.8,1915.2c0,9.8-7.8,17.7-17.5,17.9s-17.7-7.8-17.9-17.5c0-9.8,7.8-17.7,17.5-17.9c0,0,0,0,0.2,0
			C1921.9,1897.7,1929.6,1905.5,1929.8,1915.2z"/>
		<path class="st10" d="M1813,1915.2c0,9.8-7.8,17.7-17.5,17.9c-9.8,0-17.7-7.8-17.9-17.5c0-9.8,7.8-17.7,17.5-17.9h0.2
			C1805,1897.7,1813,1905.5,1813,1915.2L1813,1915.2z"/>
		<circle class="st10" cx="2028.8" cy="1825.3" r="17.7"/>
		<path class="st10" d="M1929.8,1825.3c0.4,9.8-7.2,18.1-17.2,18.4c-9.8,0.4-18.1-7.2-18.4-17.2c-0.4-9.9,7.2-18.1,17.2-18.4
			c0.2,0,0.4,0,0.7,0C1921.7,1808.2,1929.5,1815.7,1929.8,1825.3z"/>
		<path class="st10" d="M1813,1825.3c0.4,9.8-7.2,18.1-17.2,18.4c-9.8,0.4-18.1-7.2-18.4-17.2c-0.4-9.8,7.2-18.1,17.2-18.4
			c0.2,0,0.5,0,0.7,0C1804.9,1808.2,1812.6,1815.7,1813,1825.3z"/>
		<circle class="st10" cx="2028.8" cy="1735.4" r="17.7"/>
		<path class="st10" d="M1929.8,1735.4c0,9.8-7.9,17.7-17.7,17.7c-9.8,0-17.7-7.9-17.7-17.7c0-9.8,7.9-17.7,17.7-17.7l0,0
			C1921.9,1717.7,1929.8,1725.6,1929.8,1735.4z"/>
		<path class="st10" d="M1813,1735.4c0,9.8-7.9,17.7-17.7,17.7c-9.8,0-17.7-7.9-17.7-17.7c0-9.8,7.9-17.7,17.7-17.7c0,0,0,0,0.2,0
			C1805,1717.7,1813,1725.6,1813,1735.4z"/>
		<path class="st10" d="M1813,2455.3c0,9.8-7.9,17.7-17.7,17.7s-17.7-7.9-17.7-17.7c0-9.8,7.9-17.7,17.7-17.7c0,0,0,0,0.2,0
			C1805,2437.5,1813,2445.4,1813,2455.3C1813,2455.1,1813,2455.1,1813,2455.3z"/>
		<circle class="st10" cx="1678.5" cy="2455.1" r="17.7"/>
		<circle class="st10" cx="1561.8" cy="2455.1" r="17.7"/>
		<path class="st10" d="M1813,2364.7c0,9.8-7.9,17.7-17.7,17.7c-9.8,0-17.7-7.9-17.7-17.7c0-9.8,7.9-17.7,17.7-17.7c0,0,0,0,0.2,0
			C1805,2347,1813,2354.9,1813,2364.7z"/>
		<circle class="st10" cx="1678.5" cy="2365.2" r="17.7"/>
		<circle class="st10" cx="1561.8" cy="2365.2" r="17.7"/>
		<path class="st10" d="M1813,2275.1c0,9.8-7.8,17.7-17.5,17.9c-9.8,0-17.7-7.8-17.9-17.5c0-9.8,7.8-17.7,17.5-17.9h0.2
			C1805,2257.6,1813,2265.4,1813,2275.1L1813,2275.1z"/>
		<circle class="st10" cx="1678.5" cy="2275.1" r="17.7"/>
		<circle class="st10" cx="1561.8" cy="2275.1" r="17.7"/>
		<path class="st10" d="M1813,2185.2c0,9.8-7.9,17.7-17.7,17.7c-9.8,0-17.7-7.9-17.7-17.7c0-9.8,7.9-17.7,17.7-17.7c0,0,0,0,0.2,0
			C1805,2167.5,1813,2175.3,1813,2185.2L1813,2185.2z"/>
		<circle class="st10" cx="1678.5" cy="2185.2" r="17.7"/>
		<circle class="st10" cx="1561.8" cy="2185.2" r="17.7"/>
		<path class="st10" d="M1813,2095.3c0,9.8-7.9,17.7-17.7,17.7c-9.8,0-17.7-7.9-17.7-17.7c0-9.8,7.9-17.7,17.7-17.7c0,0,0,0,0.2,0
			C1805,2077.6,1813,2085.3,1813,2095.3C1813,2095.1,1813,2095.3,1813,2095.3z"/>
		<circle class="st10" cx="1678.5" cy="2095.3" r="17.7"/>
		<circle class="st10" cx="1561.8" cy="2095.3" r="17.7"/>
		<path class="st10" d="M1813,2005.3c0,9.8-7.9,17.7-17.7,17.7c-9.8,0-17.7-7.9-17.7-17.7c0-9.8,7.9-17.7,17.7-17.7c0,0,0,0,0.2,0
			C1805,1987.6,1813,1995.6,1813,2005.3z"/>
		<circle class="st10" cx="1678.5" cy="2005.3" r="17.7"/>
		<circle class="st10" cx="1561.8" cy="2005.3" r="17.7"/>
	</g>
</g>
<g id="Layer_2_1_">
	<g id="BACKGROUND_1_">
		<path class="st10" d="M4053.2,3572.7c0.2,10.2-7.7,18.7-17.9,19c-10.5,0-19-8.5-19-19c0-10.5,8.5-19,19-19
			C4045.4,3554,4053.5,3562.5,4053.2,3572.7C4053.2,3572.7,4053.2,3572.7,4053.2,3572.7z"/>
		<ellipse class="st10" cx="3918.1" cy="3572.7" rx="17.8" ry="19"/>
		<path class="st10" d="M4053.2,3476c-0.6,9.8-9.1,17.3-18.9,16.6s-17.3-9.1-16.6-18.9c0.6-9.4,8.3-16.7,17.7-16.7
			C4045.5,3457.5,4053.4,3465.9,4053.2,3476z"/>
		<ellipse class="st10" cx="3918.1" cy="3476" rx="17.8" ry="19"/>
		<path class="st10" d="M4053.2,3379.5c0,9.8-8,17.8-17.8,17.8c-9.8,0-17.8-8-17.8-17.8c0,0,0,0,0,0c0.1-9.8,7.8-17.9,17.6-18.3
			C4045.1,3361.5,4053,3369.6,4053.2,3379.5z"/>
		<path class="st10" d="M3935.9,3379.5c0.3,10.2-7.6,18.7-17.8,19c-10.1-0.3-18.1-8.7-17.8-18.9c0-0.1,0-0.1,0-0.2
			c0.1-9.9,7.9-18,17.8-18.3C3928,3361.6,3935.8,3369.6,3935.9,3379.5z"/>
		<path class="st10" d="M4053.2,3282.9c0.2,10.2-7.7,18.7-17.9,19c-10.2-0.4-18.1-8.9-17.8-19c0-9.8,8-17.8,17.8-17.8
			c9.8,0,17.8,8,17.8,17.8c0,0,0,0,0,0H4053.2z"/>
		<ellipse class="st10" cx="3918.1" cy="3282.9" rx="17.8" ry="19"/>
	</g>
</g>
</svg>
