<?xml version="1.0" encoding="utf-8"?>
<!-- Generator: Adobe Illustrator 24.3.0, SVG Export Plug-In . SVG Version: 6.00 Build 0)  -->
<svg version="1.1" id="Layer_1" xmlns="http://www.w3.org/2000/svg" xmlns:xlink="http://www.w3.org/1999/xlink" x="0px" y="0px"
	 viewBox="0 0 66.3 21" style="enable-background:new 0 0 66.3 21;" xml:space="preserve">
<style type="text/css">
	.st0{fill:#1940B0;}
</style>
<g>
	<path class="st0" d="M25.7,18c-0.8,0-1.5,0.7-1.5,1.5c0,0.8,0.7,1.5,1.5,1.5h29.8c0.8,0,1.5-0.7,1.5-1.5c0-0.8-0.7-1.5-1.5-1.5
		l-14.9,0c-0.8,0-1.5-0.7-1.5-1.5s0.7-1.5,1.5-1.5h20.6c0.8,0,1.5-0.7,1.5-1.5S62.1,12,61.2,12H49c-0.8-0.1-1.4-0.8-1.3-1.7
		C47.8,9.6,48.3,9.1,49,9h5.6c0.8,0,1.5-0.7,1.5-1.5c0-0.8-0.7-1.5-1.5-1.5H47c-0.8,0-1.5-0.7-1.5-1.5S46.2,3,47,3h17.8
		c0.8,0,1.5-0.7,1.5-1.5S65.6,0,64.8,0H21.3c-0.8,0-1.5,0.7-1.5,1.5S20.4,3,21.3,3h14.2C36.3,3,37,3.7,37,4.5S36.3,6,35.5,6h-34
		C0.7,6,0,6.7,0,7.5S0.7,9,1.5,9h42c0.8,0.1,1.4,0.8,1.3,1.7c-0.1,0.7-0.6,1.2-1.3,1.3H17c-0.8,0-1.5,0.7-1.5,1.5S16.2,15,17,15
		h12.1c0.8,0,1.5,0.7,1.5,1.5S30,18,29.1,18L25.7,18z"/>
</g>
</svg>
