<svg width="31" height="31" viewBox="0 0 31 31" fill="none" xmlns="http://www.w3.org/2000/svg">
<circle cx="15.5" cy="15.5" r="15.5" fill="#F5FAFD"/>
<path fill-rule="evenodd" clip-rule="evenodd" d="M7 7H24V24H7V7ZM10.9129 12.3124C11.0175 12.4067 11.071 12.5453 11.0568 12.6855V17.7332C11.0879 17.9153 11.0305 18.1013 10.9022 18.2342L9.70256 19.6894V19.8812H13.1042V19.6894L11.9046 18.2342C11.7753 18.1015 11.7144 17.9167 11.7393 17.7332V13.3677L14.725 19.8812H15.0716L17.6361 13.3677V18.5594C17.6361 18.6979 17.6361 18.7246 17.5455 18.8152L16.6231 19.7107V19.9026H21.1017V19.7107L20.2114 18.8365C20.1328 18.7766 20.0938 18.6781 20.1101 18.5807V12.1578C20.0938 12.0603 20.1328 11.9619 20.2114 11.9019L21.1231 11.0278V10.8359H17.9667L15.7167 16.4486L13.1575 10.8359H9.84652V11.0278L10.9129 12.3124Z" fill="#12183A"/>
</svg>
