<svg fill="none" xmlns="http://www.w3.org/2000/svg" viewBox="0 0 1000 990"><mask id="mask0" maskUnits="userSpaceOnUse" x="0" y="0" width="1000" height="966"><path d="M1000 0H0v718.31h179.2c38.38 142.38 167.45 247.1 320.8 247.1 153.35 0 282.42-104.72 320.8-247.1H1000V0z" fill="#fff"/></mask><g mask="url(#mask0)"><path d="M500 962.602c183.603 0 332.442-148.839 332.442-332.442 0-183.602-148.839-332.442-332.442-332.442S167.558 446.558 167.558 630.16c0 183.603 148.839 332.442 332.442 332.442z" fill="#FDE047"/><path d="M610 758.72c90.76 0 72 114.24 72.87 241.28H610V758.72z" fill="#D8985D"/><path d="M632.74 831.87L610 870l11.38 130h31.76c.77-180.27-20.4-168.13-20.4-168.13z" fill="#C6854E"/><path d="M233.25 500c0-147.32 119.43-266.75 266.75-266.75S766.75 352.68 766.75 500a266.213 266.213 0 01-98.65 207.12 264.415 264.415 0 01-16.94 12.69C591 758 515 758 446.39 751.89c-6.66-1-13.3-2.26-19.89-3.71-26.33-5.8-51.82-14.75-75.37-27.8a209.22 209.22 0 01-16.93-11.62 199.912 199.912 0 01-15.8-13.38 266.295 266.295 0 01-13.79-13.78A265.857 265.857 0 01233.25 500z" fill="#D8985D"/><path d="M269.61 634.48c.7 1.2 1.39 2.4 2.11 3.58.43.72.88 1.42 1.33 2.14.66 1.07 1.32 2.14 2 3.19.48.76 1 1.5 1.46 2.24.66 1 1.32 2 2 3 .51.76 1 1.52 1.56 2.28.66 1 1.32 1.92 2 2.88.54.77 1.1 1.53 1.65 2.3.55.77 1.34 1.85 2 2.77.66.92 1.15 1.53 1.73 2.29.58.76 1.37 1.8 2.07 2.7.7.9 1.19 1.51 1.79 2.26.6.75 1.41 1.76 2.12 2.63.71.87 1.23 1.49 1.85 2.23.62.74 1.44 1.72 2.17 2.57.73.85 1.27 1.47 1.91 2.2l2.22 2.5c.65.73 1.31 1.44 2 2.16.86.94 1.73 1.87 2.6 2.79l1.21 1.28c1.29 1.34 2.59 2.68 3.91 4l.26.27c1.29 1.28 2.6 2.55 3.91 3.81l1.58 1.5c.95.89 1.9 1.78 2.86 2.66l1.16 1.06c1 .94 2.09 1.86 3.14 2.78 3.267 2.847 6.6 5.577 10 8.19a206.785 206.785 0 0016.93 11.62c23.55 13 49 22 75.37 27.8 6.59 1.45 13.23 2.7 19.89 3.71 42.1 3.75 87 5.18 129.28-3.08C508.45 729 185.59 612.74 388.8 257.48c-2.72 1.25-5.4 2.54-8.06 3.88l-.59.29c-1.22.61-2.44 1.24-3.65 1.88l-1 .53c-3.76 2-7.48 4.07-11.13 6.23l-.9.53c-1.16.69-2.31 1.39-3.46 2.1l-.87.54a278.453 278.453 0 00-10.55 6.93l-1.08.75c-1.09.76-2.16 1.52-3.23 2.29l-.66.47a340.484 340.484 0 00-6.46 4.84l-.62.48c-1 .78-2 1.58-3 2.39l-1.17.94c-1 .81-2 1.62-3 2.45-2.11 1.75-4.19 3.55-6.24 5.37l-1.14 1-2.69 2.45L318 305a270.065 270.065 0 00-8.37 8.17l-1.38 1.41c-.79.82-1.58 1.64-2.36 2.47-.46.49-.92 1-1.37 1.48a214.59 214.59 0 00-4.06 4.46c-.45.51-.91 1-1.36 1.54-.71.81-1.41 1.63-2.11 2.45l-1.51 1.79c-.68.81-1.36 1.62-2 2.44-.54.66-1.08 1.33-1.61 2-1.07 1.33-2.12 2.66-3.16 4-.54.7-1.08 1.4-1.61 2.11s-1.2 1.59-1.79 2.4c-.59.81-1.07 1.45-1.59 2.18-.52.73-1.13 1.55-1.68 2.33a194.519 194.519 0 00-2.8 4.05c-.5.73-1 1.48-1.49 2.22-.49.74-1.1 1.66-1.64 2.5l-1.49 2.31-1.68 2.71c-.43.69-.86 1.38-1.28 2.07-.89 1.46-1.75 2.93-2.61 4.4l-1.22 2.16c-.54.95-1.08 1.91-1.61 2.87-.4.73-.8 1.46-1.19 2.19-.64 1.19-1.27 2.39-1.9 3.59l-1.2 2.34c-.64 1.28-1.28 2.55-1.91 3.84-.33.69-.67 1.39-1 2.09-.52 1.09-1 2.19-1.53 3.29-.31.66-.61 1.32-.91 2a214.37 214.37 0 00-2.17 5c-.22.52-.43 1.05-.65 1.57-.53 1.27-1.05 2.54-1.56 3.82-.27.67-.53 1.34-.79 2-.5 1.26-1 2.53-1.45 3.8-.21.55-.42 1.1-.62 1.65a549.286 549.286 0 00-1.85 5.26l-.56 1.7c-.44 1.333-.87 2.667-1.29 4l-.6 1.91c-.47 1.54-.93 3.08-1.37 4.63-.1.33-.2.66-.29 1-.52 1.84-1.02 3.687-1.5 5.54-.16.59-.3 1.19-.45 1.78-.35 1.39-.69 2.78-1 4.18l-.42 1.75c-.43 1.9-.85 3.8-1.24 5.71l-.15.77c-.34 1.7-.673 3.4-1 5.1-.11.61-.21 1.21-.32 1.82-.26 1.49-.51 3-.74 4.5-.08.51-.17 1-.24 1.52-.3 1.95-.57 3.91-.83 5.88l-.15 1.3c-.2 1.59-.38 3.19-.55 4.79-.06.6-.13 1.2-.19 1.81-.16 1.68-.31 3.37-.45 5.06 0 .35-.06.69-.08 1-.147 2-.277 4.017-.39 6.05 0 .53 0 1.07-.07 1.6a538.167 538.167 0 00-.18 4.71v1.77c0 2.05-.08 4.11-.08 6.17v.1c0 2.22 0 4.42.08 6.62 0 .76.06 1.52.08 2.28.05 1.47.1 2.94.17 4.41 0 .89.11 1.77.16 2.66.08 1.33.15 2.66.25 4 .07 1 .16 1.89.24 2.83.11 1.26.21 2.52.34 3.77.09 1 .21 1.94.31 2.91.14 1.21.27 2.43.42 3.64.12 1 .26 2 .39 2.95.16 1.18.32 2.37.5 3.55.15 1 .31 2 .47 3 .18 1.16.37 2.33.57 3.49.18 1 .36 2 .55 3 .21 1.15.43 2.3.65 3.44.22 1.14.41 2 .62 3 .24 1.14.48 2.27.74 3.4s.44 2 .68 2.93c.26 1.13.54 2.25.82 3.36.28 1.11.49 1.95.74 2.91.3 1.12.6 2.23.91 3.34.26 1 .53 1.92.81 2.87.32 1.11.65 2.21 1 3.31s.58 1.89.88 2.84a281.772 281.772 0 002 6.08c.38 1.09.76 2.18 1.15 3.27.33.91.65 1.83 1 2.74l1.24 3.27c.35.89.69 1.79 1 2.68.44 1.09.89 2.19 1.34 3.28.36.86.71 1.73 1.08 2.59.47 1.12 1 2.22 1.45 3.33.37.82.73 1.65 1.1 2.47.52 1.16 1.07 2.3 1.6 3.44l1.08 2.3c.61 1.26 1.24 2.5 1.87 3.75.32.63.62 1.27.95 1.9 1.92 3.74 3.92 7.43 6 11.07.29.47.66 1.08 1.02 1.69z" fill="#C6854E"/><path d="M233.25 500c0-147.32 119.43-266.75 266.75-266.75S766.75 352.68 766.75 500a266.213 266.213 0 01-98.65 207.12 264.415 264.415 0 01-16.94 12.69C591 758 515 758 446.39 751.89c-6.66-1-13.3-2.26-19.89-3.71-26.33-5.8-51.82-14.75-75.37-27.8a209.22 209.22 0 01-16.93-11.62 199.912 199.912 0 01-15.8-13.38 266.295 266.295 0 01-13.79-13.78A265.857 265.857 0 01233.25 500v0z" stroke="#111827" stroke-width="12" stroke-miterlimit="10"/><path d="M386.12 758.72c-90.77 0-72 114.24-72.87 241.28h72.87V758.72z" fill="#D8985D"/><path d="M367.23 831.87L390 870l-11.39 130h-31.73c-.81-180.27 20.35-168.13 20.35-168.13z" fill="#C6854E"/><path d="M619.47 1070H380.53c-3.52 0-6.895-1.4-9.384-3.89a13.289 13.289 0 01-3.886-9.39V772a13.28 13.28 0 0113.27-13.28h233.23c13.09 0 19 7.66 19 19.88v278.08c.006 1.75-.334 3.48-1 5.1a13.364 13.364 0 01-2.879 4.32 13.246 13.246 0 01-9.411 3.9z" fill="#D8985D"/><path d="M629.05 766.62a19.333 19.333 0 01-2.51-4 17.251 17.251 0 00-8.28-3.51 28.97 28.97 0 00-4.5-.34H380.53A13.28 13.28 0 00367.26 772c29 10.42 83.29 16.24 132.74 16.24 63.06 0 104.38-9.35 129.05-21.62z" fill="#C6854E"/><path d="M610 758.72c90.76 0 72 114.24 72.87 241.28h-50.13M386.12 758.72c-90.77 0-72 114.24-72.87 241.28h50.07" stroke="#111827" stroke-width="12" stroke-miterlimit="10" stroke-linecap="square"/><path d="M380.53 758.82l233.23-.1" stroke="#111827" stroke-width="12" stroke-miterlimit="10"/><path d="M380.53 1070h116.62C388 1070 396.24 838.82 367.26 838.82v217.86c-.005 1.75.334 3.48.999 5.09a13.153 13.153 0 002.873 4.32 13.231 13.231 0 004.31 2.89c1.613.67 3.342 1.02 5.088 1.02z" fill="#C6854E"/><path d="M361.26 860.85c-.19-3.67-.11-7.34.05-11s.47-7.35.86-11c.2-1.84.4-3.67.65-5.51.25-1.84.49-3.67.85-5.51a44.169 44.169 0 013.59-11 44.169 44.169 0 013.59 11c.36 1.84.62 3.67.85 5.51.23 1.84.45 3.67.65 5.51.38 3.67.68 7.34.85 11 .17 3.66.25 7.34.06 11h-12z" fill="#111827"/><path d="M632.74 870v8c.26 34 .26 69 0 102.75v75.94c.004 1.75-.336 3.48-1.001 5.09a13.382 13.382 0 01-2.874 4.32 13.369 13.369 0 01-4.309 2.88c-1.612.67-3.34 1.02-5.086 1.02H380.53c-3.52 0-6.895-1.4-9.384-3.89a13.289 13.289 0 01-3.886-9.39v-58.2-7.65c-.25-34.87-.25-69.87 0-105.3v-24.72" stroke="#111827" stroke-width="12" stroke-miterlimit="10"/><path d="M626.74 870c-.19-4.17-.1-8.35.06-12.53s.47-8.35.85-12.53c.2-2.09.41-4.18.65-6.27.24-2.09.49-4.17.85-6.26a55.126 55.126 0 013.59-12.53 55.126 55.126 0 013.59 12.53c.36 2.09.62 4.18.85 6.26.23 2.08.45 4.18.65 6.27.38 4.18.69 8.35.85 12.53.16 4.18.25 8.36.06 12.53h-12zM570.68 842.45C570.9 833 582.9 829 588.9 835a10.608 10.608 0 01-3.621 17.269 10.597 10.597 0 01-8.12-.083 10.626 10.626 0 01-3.419-2.336 10.4 10.4 0 01-3.06-7.4zM408.11 842.15C407.9 834 416.9 830 422.9 833c8 3 8 14 0 19-4 2-8 0-11.75-2.48a10.395 10.395 0 01-3.04-7.37z" fill="#111827"/><path d="M500 831.77a27.195 27.195 0 011.5 5.84c.297 1.933.461 3.884.49 5.84l.3 11.69c.09 3.89.21 7.79.25 11.69l.17 11.67c.23 15.57.22 31.16.28 46.74.06 15.58.18 31.16 0 46.74-.09 7.79-.3 15.58-.53 23.37-.1 3.89-.29 7.79-.67 11.68a92.3 92.3 0 01-1.77 11.69 92.3 92.3 0 01-1.77-11.69c-.38-3.89-.57-7.79-.67-11.68-.23-7.79-.44-15.58-.53-23.37-.2-15.58 0-31.16 0-46.74 0-15.58 0-31.15.18-46.73l.17-11.7.33-11.68.33-11.68c.037-1.956.204-3.907.5-5.84a27.122 27.122 0 011.44-5.84z" fill="#C6854E"/><path d="M425.22 883a18.524 18.524 0 014.67-1.5 29.778 29.778 0 014.68-.5l9.35-.33 18.7-.41c12.46-.19 24.91-.24 37.38-.27 12.47-.03 24.93-.16 37.39 0 6.23.09 12.46.3 18.7.53 3.11.11 6.23.3 9.34.67 3.158.35 6.284.945 9.35 1.78a59.177 59.177 0 01-9.35 1.77c-3.11.38-6.23.57-9.34.67-6.24.23-12.47.43-18.7.52-12.46.19-24.92 0-37.39 0-12.47 0-24.93 0-37.4-.15-6.23-.06-12.46-.26-18.68-.5l-9.35-.34a29.534 29.534 0 01-4.67-.5 18.444 18.444 0 01-4.68-1.44zM442.41 914.38a12.516 12.516 0 013.74-1.11 18.413 18.413 0 013.62-.15c2.39.1 4.78.16 7.17.21 4.78.11 9.56.15 14.34.17 9.63 0 19.09.08 28.76-.21 9.67-.29 19.26-.43 28.88-.39 4.81 0 9.62.13 14.42.24 2.417.033 4.83.19 7.23.47 2.467.273 4.902.785 7.27 1.53a36.509 36.509 0 01-7.16 2c-2.384.43-4.792.717-7.21.86-4.82.35-9.64.65-14.45.82-9.64.36-19.27.32-28.88.45-4.81 0-9.61.22-14.48.1-4.87-.12-9.69-.13-14.52-.31s-9.68-.58-14.5-1.08c-2.42-.27-4.82-.57-7.23-.9a16.778 16.778 0 01-3.57-.84 11.493 11.493 0 01-3.43-1.86zM438.93 949.87a13.09 13.09 0 013.82-1.5 19.067 19.067 0 013.82-.49l7.63-.32c5.09-.18 10.19-.33 15.28-.41 10.18-.15 20.36-.15 30.52-.15s20.36-.17 30.54 0c5.09.09 10.18.3 15.27.53 2.553.086 5.1.306 7.63.66 2.605.357 5.17.963 7.66 1.81a41.239 41.239 0 01-7.63 1.77 70.295 70.295 0 01-7.64.67c-5.09.23-10.18.44-15.27.53-10.18.2-20.37.06-30.55 0s-20.36-.06-30.54-.25c-5.09-.1-10.19-.28-15.28-.49l-7.63-.37a19.364 19.364 0 01-3.82-.5 12.85 12.85 0 01-3.81-1.49zM677.8 906.35c.21-37.11-1.21-70.07-7.73-95.39C660 785.6 641.89 770.48 610 770.48L632.79 905s22.52 10.24 45.01 1.35z" fill="#C6854E"/><path d="M686.41 895.79a20.344 20.344 0 01-3.7 2.43" stroke="#111827" stroke-width="12" stroke-miterlimit="10" stroke-linecap="square"/><path d="M326.11 809.88c-6.83 25.57-8 59.13-7.74 97 19.9 8.54 50.42-2.15 50.42-2.15l17.33-132.24c-30.87-.03-49.27 13.87-60.01 37.39z" fill="#C6854E"/><path d="M613.76 758.72h-54.21v.1a62.732 62.732 0 01-1.44 13.39 60.775 60.775 0 01-1.74 6.33 50.867 50.867 0 01-10 16.83 48.127 48.127 0 01-4.5 4.43c-25.17 18.2-65.17 19.2-89.48-.58a51.833 51.833 0 01-7.11-7.6 50.861 50.861 0 01-9.1-19.41 62.458 62.458 0 01-1.07-6.59 61.057 61.057 0 01-.37-6.8v-.1h-54.21A13.28 13.28 0 00367.26 772v284.68c-.005 1.75.334 3.48.999 5.09a13.153 13.153 0 002.873 4.32 13.231 13.231 0 004.31 2.89c1.613.67 3.342 1.02 5.088 1.02h238.94c3.521 0 6.896-1.4 9.384-3.89a13.285 13.285 0 003.886-9.39V778.6c0-12.22-5.89-19.88-18.98-19.88z" fill="#633749"/><path d="M610 758.72c63.54 0 73.4 56 73.9 133.17-18.6 11.62-48.91 1.31-48.91 1.31L610 758.72z" fill="#633749"/><path d="M632.74 831.87L610 870l11.38 130h11.61V894.35l17.28 2.89c-5.67-72.17-17.53-65.37-17.53-65.37z" fill="#5E3244"/><path d="M386.12 758.72c-61.78 0-75.83 53.8-76.85 127.66 19 19.86 58 4.58 58 4.58l18.85-132.24z" fill="#633749"/><path d="M367.23 831.87V891l-17.31 4.31c5.67-70.12 17.31-63.44 17.31-63.44z" fill="#5E3244"/><path d="M610 758.72c67.41 0 78.45 56.29 78.9 133.78-26.2 12.43-53.91.7-53.91.7M386.12 758.72c-66.79 0-80.08 54.7-80.76 130.72C326 904.22 367.22 891 367.22 891" stroke="#111827" stroke-width="12" stroke-miterlimit="10" stroke-linecap="square"/><path d="M380.53 1070h116.62C388 1070 396.24 838.82 367.26 838.82v217.86c-.005 1.75.334 3.48.999 5.09a13.153 13.153 0 002.873 4.32 13.231 13.231 0 004.31 2.89c1.613.67 3.342 1.02 5.088 1.02z" fill="#5E3244"/><path d="M361.26 860.85c-.19-3.67-.11-7.34.05-11s.47-7.35.86-11c.2-1.84.4-3.67.65-5.51.25-1.84.49-3.67.85-5.51a44.169 44.169 0 013.59-11 43.74 43.74 0 013.58 11c.37 1.84.63 3.67.86 5.51.23 1.84.45 3.67.65 5.51.38 3.67.68 7.34.85 11 .17 3.66.25 7.34.06 11h-12z" fill="#111827"/><path d="M632.74 870v8c.26 34 .26 69 0 102.75v75.94c.004 1.75-.336 3.48-1.001 5.09a13.382 13.382 0 01-2.874 4.32 13.369 13.369 0 01-4.309 2.88c-1.612.67-3.34 1.02-5.086 1.02H380.53c-3.52 0-6.895-1.4-9.384-3.89a13.289 13.289 0 01-3.886-9.39v-58.2-7.65c-.25-34.87-.25-69.87 0-105.3v-24.72" stroke="#111827" stroke-width="12" stroke-miterlimit="10"/><path d="M626.74 870c-.19-4.17-.1-8.35.06-12.53s.47-8.35.85-12.53c.2-2.09.41-4.18.65-6.27.24-2.09.49-4.17.86-6.26a54.504 54.504 0 013.58-12.53 55.126 55.126 0 013.59 12.53c.36 2.09.62 4.18.85 6.26.23 2.08.45 4.18.65 6.27.38 4.18.69 8.35.85 12.53.16 4.18.25 8.36.06 12.53h-12z" fill="#111827"/><path d="M380.53 758.82l233.23-.1M559.55 758.82a62.732 62.732 0 01-1.44 13.39 60.775 60.775 0 01-1.74 6.33 50.867 50.867 0 01-10 16.83 48.127 48.127 0 01-4.5 4.43c-25.17 18.2-65.17 19.2-89.48-.58a51.833 51.833 0 01-7.11-7.6 50.861 50.861 0 01-9.1-19.41 62.458 62.458 0 01-1.07-6.59 61.057 61.057 0 01-.37-6.8" stroke="#111827" stroke-width="12" stroke-miterlimit="10"/><path d="M503.4 828.39a66.592 66.592 0 01-18.39 1.1 69.78 69.78 0 01-18.2-3.76 61.442 61.442 0 01-16.5-8.64l-1.86-1.41c-.61-.48-1.2-1-1.79-1.52a32.125 32.125 0 01-3.33-3.28 43.838 43.838 0 01-5.38-7.51 87.354 87.354 0 006.74 6.09c.58.48 1.17.95 1.75 1.4.58.45 1.23.82 1.84 1.24.61.42 1.22.84 1.85 1.23l1.91 1.16a88.015 88.015 0 0016.1 7.46 106.232 106.232 0 0017.25 4.45 173.616 173.616 0 0018.01 1.99z" fill="#111827"/><path d="M307.83 892.5a24.507 24.507 0 003.68 2.77" stroke="#111827" stroke-width="12" stroke-miterlimit="10" stroke-linecap="square"/><path d="M674.7 882.69a19.895 19.895 0 01-6.76 2.52 34.796 34.796 0 01-7.2.65 40.197 40.197 0 01-7.18-.79c-1.18-.21-2.33-.56-3.49-.87-1.16-.31-2.27-.77-3.37-1.24 1.21 0 2.38.18 3.56.28l3.52.29c1.17 0 2.33.2 3.5.21 1.17.01 2.32.11 3.48.12a79.02 79.02 0 007-.19 49.333 49.333 0 006.94-.98zM341.06 590.04c11.576 0 20.96-9.384 20.96-20.96s-9.384-20.96-20.96-20.96-20.96 9.384-20.96 20.96 9.384 20.96 20.96 20.96z" fill="#111827"/><path d="M340.93 586c1.79-.1 3.79-.26 5.7-.46 1.91-.2 3.86-.44 5.79-.74 1.93-.3 3.87-.65 5.81-1 1.94-.35 3.92-.68 6-.83a24.752 24.752 0 01-5.31 3.12 48.968 48.968 0 01-5.78 2 50.686 50.686 0 01-6 1.36c-2.061.36-4.148.541-6.24.54l.03-3.99zM661.77 590.04c11.576 0 20.96-9.384 20.96-20.96s-9.384-20.96-20.96-20.96-20.96 9.384-20.96 20.96 9.384 20.96 20.96 20.96z" fill="#111827"/><path d="M661.77 586c1.8-.1 3.79-.26 5.7-.46 1.91-.2 3.87-.44 5.8-.74 1.93-.3 3.87-.65 5.81-1 1.94-.35 3.92-.68 6-.83a24.992 24.992 0 01-5.31 3.12 48.906 48.906 0 01-5.78 2 51.287 51.287 0 01-6 1.36c-2.061.36-4.148.54-6.24.54l.02-3.99z" fill="#111827"/><path d="M446.66 606.02h95.87" stroke="#111827" stroke-width="12" stroke-miterlimit="10" stroke-linecap="round"/><path d="M500 233.25c-135.7 0-247.73 101.33-264.56 232.45a307.115 307.115 0 0070.16-98.91A919.496 919.496 0 00500 387.94a899.569 899.569 0 00194.4-21.15 307.115 307.115 0 0070.16 98.91C747.73 334.58 635.7 233.25 500 233.25z" fill="#111827"/><path d="M305.6 366.79a926.687 926.687 0 0032.07 6.35c10.61-35.4 27.23-73.88 51.13-115.66-1.33.62-2.66 1.24-4 1.87l-.17.08c-1.31.63-2.62 1.27-3.92 1.93l-.59.29c-1.22.61-2.44 1.24-3.65 1.88l-1 .53c-3.76 2-7.48 4.07-11.13 6.23l-.8.47-.14.09a100.872 100.872 0 00-3.42 2.07l-.87.54a278.453 278.453 0 00-10.55 6.93l-1.08.75c-1 .71-2 1.42-3 2.14l-.71.52-.15.1a340.484 340.484 0 00-6.46 4.84l-.62.48c-1 .78-2 1.58-3 2.39l-1.17.94-2.41 2-.78.65c-2.05 1.71-4.06 3.45-6.06 5.22l-1.14 1-2.69 2.45L318 305a270.065 270.065 0 00-8.37 8.17l-1 1c-.22.22-.43.44-.64.67-.7.72-1.39 1.44-2.08 2.17-.46.49-.92 1-1.37 1.48a217.435 217.435 0 00-4.06 4.46l-.48.55c-.31.35-.63.7-.94 1.06L297 327c-.11.14-.22.27-.34.4l-1.2 1.43c-.61.72-1.21 1.45-1.81 2.18-.39.47-.78 1-1.17 1.44l-.66.82a330.87 330.87 0 00-3.13 4l-.07.09c-.53.68-1.05 1.36-1.57 2.05-.4.52-.79 1.05-1.17 1.57l-1 1.33-1.22 1.68-1 1.35-1.41 2c-.57.81-1.13 1.62-1.69 2.44-.56.82-1.11 1.64-1.65 2.46l-.25.36-1.52 2.31-1.74 2.72c-.52.83-1 1.66-1.55 2.49-.57.92-1.14 1.84-1.7 2.77-.56.93-1 1.68-1.48 2.52-.48.84-.92 1.56-1.36 2.34l-.57 1-1.13 2c-.42.77-.85 1.53-1.26 2.3-.14.25-.28.5-.41.75-.42.78-.84 1.57-1.25 2.36-.41.79-.68 1.29-1 1.94l-.84 1.63-.93 1.88c-.39.78-.78 1.55-1.16 2.34l-.82 1.71-.3.65c-.44.92-.87 1.85-1.3 2.78l-.72 1.59c-.41.91-.81 1.83-1.21 2.75l-1 2.34c-.45 1.07-.88 2.14-1.32 3.21-.32.77-.63 1.53-.94 2.3-.11.26-.21.53-.31.8-.35.88-.69 1.77-1 2.66-.31.89-.61 1.57-.9 2.36l-.16.43c-.38 1-.74 2-1.1 3.06-.36 1.06-.64 1.79-1 2.69-.37 1.08-.73 2.15-1.08 3.23-.3.91-.6 1.82-.89 2.73-.35 1.09-.68 2.17-1 3.26-.28.92-.55 1.84-.82 2.77-.32 1.09-.64 2.19-.94 3.29-.26.92-.51 1.85-.75 2.78-.3 1.11-.59 2.22-.87 3.34-.24.92-.46 1.86-.68 2.79-.27 1.12-.54 2.25-.8 3.37-.21.93-.41 1.87-.61 2.8-.24 1.14-.49 2.29-.73 3.44-.18.91-.35 1.82-.52 2.74-.17.92-.39 2-.57 3l-.18 1-.33 2c-.18 1.09-.37 2.19-.54 3.29 0 .21-.07.42-.1.63-.3 2-.58 4-.84 6a307.101 307.101 0 0070.17-98.95z" fill="#111827"/><path d="M500 233.25c-135.7 0-247.73 101.33-264.56 232.45a307.115 307.115 0 0070.16-98.91A919.496 919.496 0 00500 387.94a899.569 899.569 0 00194.4-21.15 307.115 307.115 0 0070.16 98.91C747.73 334.58 635.7 233.25 500 233.25z" stroke="#111827" stroke-width="12" stroke-miterlimit="10"/><path d="M506.21 250.1c-12.57 1.68-24.94 3.38-37.16 5.76-12.22 2.38-24.29 5.18-36.18 8.64a392.339 392.339 0 00-35.18 12.07c-11.56 4.59-22.95 9.73-34.46 15.05a170.002 170.002 0 0131.87-20.78 204.09 204.09 0 0173.07-21.19 172.743 172.743 0 0138.04.45z" fill="#fff"/><path d="M407.29 474.84H286.65c-5.56 0-11.12-.08-16.68 0h-.24c-5.23 0-10.24 4.6-10 10a10.17 10.17 0 0010 10h120.64c5.55 0 11.12.08 16.68 0h.24c5.23 0 10.24-4.6 10-10a10.183 10.183 0 00-10-10zM726.32 474.84H605.68c-5.56 0-11.12-.08-16.68 0h-.24c-5.23 0-10.24 4.6-10 10a10.172 10.172 0 0010 10H709.4c5.56 0 11.12.08 16.68 0h.24c5.23 0 10.24-4.6 10-10a10.179 10.179 0 00-10-10z" fill="#111827"/></g></svg>