<svg fill="none" xmlns="http://www.w3.org/2000/svg" viewBox="0 0 1000 990"><mask id="mask0" maskUnits="userSpaceOnUse" x="0" y="0" width="1000" height="966"><path d="M1000 0H0v718.31h179.2c38.38 142.38 167.45 247.1 320.8 247.1 153.35 0 282.42-104.72 320.8-247.1H1000V0z" fill="#fff"/></mask><g mask="url(#mask0)"><path d="M500 962.602c183.602 0 332.442-148.84 332.442-332.442 0-183.603-148.84-332.442-332.442-332.442-183.603 0-332.442 148.839-332.442 332.442 0 183.602 148.839 332.442 332.442 332.442z" fill="#FDE047"/><path d="M610 758.72c90.76 0 72 114.24 72.87 241.28H610V758.72z" fill="#FDD2B2"/><path d="M632.74 831.87L610 870l11.38 130h31.76c.77-180.27-20.4-168.13-20.4-168.13z" fill="#F3AB98"/><path d="M233.249 500c0-147.32 119.43-266.75 266.75-266.75S766.749 352.68 766.749 500a266.213 266.213 0 01-98.65 207.12 264.415 264.415 0 01-16.94 12.69c-60.16 38.19-136.16 38.19-204.77 32.08-6.66-1-13.3-2.26-19.89-3.71-26.33-5.8-51.82-14.75-75.37-27.8a209.22 209.22 0 01-16.93-11.62 199.912 199.912 0 01-15.8-13.38 266.295 266.295 0 01-13.79-13.78 265.857 265.857 0 01-71.36-181.6z" fill="#FDD2B2"/><path d="M269.61 634.48c.7 1.2 1.39 2.4 2.11 3.58.43.72.88 1.42 1.33 2.14.66 1.07 1.32 2.14 2 3.19.48.76 1 1.5 1.46 2.24.66 1 1.32 2 2 3 .51.76 1 1.52 1.56 2.28.66 1 1.32 1.92 2 2.88.54.77 1.1 1.53 1.65 2.3.55.77 1.34 1.85 2 2.77.66.92 1.15 1.53 1.73 2.29.58.76 1.37 1.8 2.07 2.7.7.9 1.19 1.51 1.79 2.26.6.75 1.41 1.76 2.12 2.63.71.87 1.23 1.49 1.85 2.23.62.74 1.44 1.72 2.17 2.57.73.85 1.27 1.47 1.91 2.2l2.22 2.5c.65.73 1.31 1.44 2 2.16.86.94 1.73 1.87 2.6 2.79l1.21 1.28c1.29 1.34 2.59 2.68 3.91 4l.26.27c1.29 1.28 2.6 2.55 3.91 3.81l1.58 1.5c.95.89 1.9 1.78 2.86 2.66l1.16 1.06c1 .94 2.09 1.86 3.14 2.78 3.266 2.847 6.6 5.577 10 8.19a206.785 206.785 0 0016.93 11.62c23.55 13 49 22 75.37 27.8 6.59 1.45 13.23 2.7 19.89 3.71 42.1 3.75 87 5.18 129.28-3.08C508.45 729 185.59 612.74 388.8 257.48c-2.72 1.25-5.4 2.54-8.06 3.88l-.59.29c-1.22.61-2.44 1.24-3.65 1.88l-1 .53c-3.76 2-7.48 4.07-11.13 6.23l-.9.53c-1.16.69-2.31 1.39-3.46 2.1l-.87.54a277.654 277.654 0 00-10.55 6.93l-1.08.75c-1.09.76-2.16 1.52-3.23 2.29l-.66.47a337.313 337.313 0 00-6.46 4.84l-.62.48c-1 .78-2 1.58-3 2.39l-1.17.94c-1 .81-2 1.62-3 2.45-2.11 1.75-4.19 3.55-6.24 5.37l-1.14 1-2.69 2.45L318 305a267.85 267.85 0 00-8.37 8.17l-1.38 1.41c-.79.82-1.58 1.64-2.36 2.47-.46.49-.92 1-1.37 1.48a211.818 211.818 0 00-4.06 4.46c-.45.51-.91 1-1.36 1.54-.71.81-1.41 1.63-2.11 2.45l-1.51 1.79c-.68.81-1.36 1.62-2 2.44-.54.66-1.08 1.33-1.61 2-1.07 1.33-2.12 2.66-3.16 4-.54.7-1.08 1.4-1.61 2.11s-1.2 1.59-1.79 2.4c-.59.81-1.07 1.45-1.59 2.18-.52.73-1.13 1.55-1.68 2.33a194.519 194.519 0 00-2.8 4.05c-.5.73-1 1.48-1.49 2.22-.49.74-1.1 1.66-1.64 2.5l-1.49 2.31-1.68 2.71c-.43.69-.86 1.38-1.28 2.07-.89 1.46-1.75 2.93-2.61 4.4l-1.22 2.16c-.54.95-1.08 1.91-1.61 2.87-.4.73-.8 1.46-1.19 2.19-.64 1.19-1.27 2.39-1.9 3.59l-1.2 2.34c-.64 1.28-1.28 2.55-1.91 3.84-.33.69-.67 1.39-1 2.09-.52 1.09-1 2.19-1.53 3.29-.31.66-.61 1.32-.91 2a210.197 210.197 0 00-2.17 5c-.22.52-.43 1.05-.65 1.57-.53 1.27-1.05 2.54-1.56 3.82-.27.67-.53 1.34-.79 2-.5 1.26-1 2.53-1.45 3.8-.21.55-.42 1.1-.62 1.65a523.13 523.13 0 00-1.85 5.26l-.56 1.7c-.44 1.333-.87 2.667-1.29 4l-.6 1.91c-.47 1.54-.93 3.08-1.37 4.63-.1.33-.2.66-.29 1-.52 1.84-1.02 3.687-1.5 5.54-.16.59-.3 1.19-.45 1.78-.35 1.39-.69 2.78-1 4.18l-.42 1.75c-.43 1.9-.85 3.8-1.24 5.71l-.15.77c-.34 1.7-.674 3.4-1 5.1-.11.61-.21 1.21-.32 1.82-.26 1.49-.51 3-.74 4.5-.08.51-.17 1-.24 1.52-.3 1.95-.57 3.91-.83 5.88l-.15 1.3c-.2 1.59-.38 3.19-.55 4.79-.06.6-.13 1.2-.19 1.81-.16 1.68-.31 3.37-.45 5.06 0 .35-.06.69-.08 1-.147 2-.277 4.017-.39 6.05 0 .53 0 1.07-.07 1.6a538.167 538.167 0 00-.18 4.71v1.77c0 2.05-.08 4.11-.08 6.17v.1c0 2.22 0 4.42.08 6.62 0 .76.06 1.52.08 2.28.05 1.47.1 2.94.17 4.41 0 .89.11 1.77.16 2.66.08 1.33.15 2.66.25 4 .07 1 .16 1.89.24 2.83.11 1.26.21 2.52.34 3.77.09 1 .21 1.94.31 2.91.14 1.21.27 2.43.42 3.64.12 1 .26 2 .39 2.95.16 1.18.32 2.37.5 3.55.15 1 .31 2 .47 3 .18 1.16.37 2.33.57 3.49.18 1 .36 2 .55 3 .21 1.15.43 2.3.65 3.44.22 1.14.41 2 .62 3 .24 1.14.48 2.27.74 3.4s.44 2 .68 2.93c.26 1.13.54 2.25.82 3.36.28 1.11.49 1.95.74 2.91.3 1.12.6 2.23.91 3.34.26 1 .53 1.92.81 2.87.32 1.11.65 2.21 1 3.31s.58 1.89.88 2.84a281.772 281.772 0 002 6.08c.38 1.09.76 2.18 1.15 3.27.33.91.65 1.83 1 2.74l1.24 3.27c.35.89.69 1.79 1 2.68.44 1.09.89 2.19 1.34 3.28.36.86.71 1.73 1.08 2.59.47 1.12 1 2.22 1.45 3.33.37.82.73 1.65 1.1 2.47.52 1.16 1.07 2.3 1.6 3.44l1.08 2.3c.61 1.26 1.24 2.5 1.87 3.75.32.63.62 1.27.95 1.9 1.92 3.74 3.92 7.43 6 11.07.29.47.66 1.08 1.02 1.69z" fill="#F3AB98"/><path d="M233.249 500c0-147.32 119.43-266.75 266.75-266.75S766.749 352.68 766.749 500a266.213 266.213 0 01-98.65 207.12 264.415 264.415 0 01-16.94 12.69c-60.16 38.19-136.16 38.19-204.77 32.08-6.66-1-13.3-2.26-19.89-3.71-26.33-5.8-51.82-14.75-75.37-27.8a209.22 209.22 0 01-16.93-11.62 199.912 199.912 0 01-15.8-13.38 266.295 266.295 0 01-13.79-13.78 265.857 265.857 0 01-71.36-181.6v0z" stroke="#111827" stroke-width="12" stroke-miterlimit="10"/><path d="M386.12 758.72c-90.77 0-72 114.24-72.87 241.28h72.87V758.72z" fill="#FDD2B2"/><path d="M367.23 831.87L390 870l-11.39 130h-31.73c-.81-180.27 20.35-168.13 20.35-168.13z" fill="#F3AB98"/><path d="M619.47 1070H380.53c-3.521 0-6.896-1.4-9.384-3.89a13.289 13.289 0 01-3.886-9.39V772a13.28 13.28 0 0113.27-13.28h233.23c13.09 0 19 7.66 19 19.88v278.08c.005 1.75-.335 3.48-1.001 5.1a13.345 13.345 0 01-2.878 4.32 13.26 13.26 0 01-9.411 3.9z" fill="#FDD2B2"/><path d="M629.05 766.62a19.333 19.333 0 01-2.51-4 17.241 17.241 0 00-8.28-3.51 28.735 28.735 0 00-4.5-.34H380.53A13.28 13.28 0 00367.26 772c29 10.42 83.29 16.24 132.74 16.24 63.06 0 104.38-9.35 129.05-21.62z" fill="#F3AB98"/><path d="M610 758.72c90.76 0 72 114.24 72.87 241.28h-50.13M386.12 758.72c-90.77 0-72 114.24-72.87 241.28h50.07" stroke="#111827" stroke-width="12" stroke-miterlimit="10" stroke-linecap="square"/><path d="M380.529 758.82l233.23-.1" stroke="#111827" stroke-width="12" stroke-miterlimit="10"/><path d="M380.53 1070h116.62C388 1070 396.24 838.82 367.26 838.82v217.86a13.25 13.25 0 00.998 5.09 13.155 13.155 0 002.874 4.32 13.22 13.22 0 004.31 2.89c1.612.67 3.341 1.02 5.088 1.02z" fill="#F3AB98"/><path d="M361.26 860.85c-.19-3.67-.11-7.34.05-11s.47-7.35.86-11c.2-1.84.4-3.67.65-5.51.25-1.84.49-3.67.85-5.51a44.169 44.169 0 013.59-11 44.169 44.169 0 013.59 11c.36 1.84.62 3.67.85 5.51.23 1.84.45 3.67.65 5.51.38 3.67.68 7.34.85 11 .17 3.66.25 7.34.06 11h-12z" fill="#111827"/><path d="M632.74 870v8c.26 34 .26 69 0 102.75v75.94a13.29 13.29 0 01-3.876 9.41 13.354 13.354 0 01-4.308 2.88 13.259 13.259 0 01-5.086 1.02H380.53c-3.521 0-6.896-1.4-9.384-3.89a13.289 13.289 0 01-3.886-9.39v-58.2-7.65c-.25-34.87-.25-69.87 0-105.3v-24.72" stroke="#111827" stroke-width="12" stroke-miterlimit="10"/><path d="M626.74 870c-.19-4.17-.1-8.35.06-12.53s.47-8.35.85-12.53c.2-2.09.41-4.18.65-6.27.24-2.09.49-4.17.85-6.26a55.126 55.126 0 013.59-12.53 55.126 55.126 0 013.59 12.53c.36 2.09.62 4.18.85 6.26.23 2.08.45 4.18.65 6.27.38 4.18.69 8.35.85 12.53.16 4.18.25 8.36.06 12.53h-12zM570.68 842.45C570.9 833 582.9 829 588.9 835a10.606 10.606 0 013.03 7.535 10.616 10.616 0 01-6.651 9.734 10.602 10.602 0 01-8.121-.083 10.622 10.622 0 01-3.418-2.336 10.385 10.385 0 01-3.06-7.4zM408.11 842.15C407.9 834 416.9 830 422.9 833c8 3 8 14 0 19-4 2-8 0-11.75-2.48a10.395 10.395 0 01-3.04-7.37z" fill="#111827"/><path d="M500 831.77a27.195 27.195 0 011.5 5.84c.297 1.933.461 3.884.49 5.84l.3 11.69c.09 3.89.21 7.79.25 11.69l.17 11.67c.23 15.57.22 31.16.28 46.74.06 15.58.18 31.16 0 46.74-.09 7.79-.3 15.58-.53 23.37-.1 3.89-.29 7.79-.67 11.68a92.3 92.3 0 01-1.77 11.69 92.3 92.3 0 01-1.77-11.69c-.38-3.89-.57-7.79-.67-11.68-.23-7.79-.44-15.58-.53-23.37-.2-15.58 0-31.16 0-46.74 0-15.58 0-31.15.18-46.73l.17-11.7.33-11.68.33-11.68c.037-1.956.204-3.907.5-5.84a27.122 27.122 0 011.44-5.84z" fill="#F3AB98"/><path d="M425.22 883a18.511 18.511 0 014.67-1.5 29.765 29.765 0 014.68-.5l9.35-.33 18.7-.41c12.46-.19 24.91-.24 37.38-.27 12.47-.03 24.93-.16 37.39 0 6.23.09 12.46.3 18.7.53 3.11.11 6.23.3 9.34.67 3.158.35 6.284.945 9.35 1.78a59.177 59.177 0 01-9.35 1.77c-3.11.38-6.23.57-9.34.67-6.24.23-12.47.43-18.7.52-12.46.19-24.92 0-37.39 0-12.47 0-24.93 0-37.4-.15-6.23-.06-12.46-.26-18.68-.5l-9.35-.34a29.522 29.522 0 01-4.67-.5 18.444 18.444 0 01-4.68-1.44zM442.409 914.38a12.487 12.487 0 013.74-1.11c1.199-.17 2.412-.22 3.62-.15 2.39.1 4.78.16 7.17.21 4.78.11 9.56.15 14.34.17 9.63 0 19.09.08 28.76-.21 9.67-.29 19.26-.43 28.88-.39 4.81 0 9.62.13 14.42.24 2.417.032 4.83.189 7.23.47 2.468.272 4.902.785 7.27 1.53a36.578 36.578 0 01-7.16 2 61.285 61.285 0 01-7.21.86c-4.82.35-9.64.65-14.45.82-9.64.36-19.27.32-28.88.45-4.81 0-9.61.22-14.48.1-4.87-.12-9.69-.13-14.52-.31s-9.68-.58-14.5-1.08c-2.42-.27-4.82-.57-7.23-.9a16.838 16.838 0 01-3.57-.84 11.538 11.538 0 01-3.43-1.86zM438.93 949.87a13.068 13.068 0 013.82-1.5 19.048 19.048 0 013.82-.49l7.63-.32c5.09-.18 10.19-.33 15.28-.41 10.18-.15 20.36-.15 30.52-.15s20.36-.17 30.54 0c5.09.09 10.18.3 15.27.53 2.553.086 5.1.306 7.63.66 2.605.357 5.17.963 7.66 1.81a41.276 41.276 0 01-7.63 1.77 70.317 70.317 0 01-7.64.67c-5.09.23-10.18.44-15.27.53-10.18.2-20.37.06-30.55 0s-20.36-.06-30.54-.25c-5.09-.1-10.19-.28-15.28-.49l-7.63-.37a19.354 19.354 0 01-3.82-.5 12.839 12.839 0 01-3.81-1.49zM677.8 906.35c.21-37.11-1.21-70.07-7.73-95.39C660 785.6 641.89 770.48 610 770.48L632.79 905s22.52 10.24 45.01 1.35z" fill="#F3AB98"/><path d="M686.41 895.79a20.344 20.344 0 01-3.7 2.43" stroke="#111827" stroke-width="12" stroke-miterlimit="10" stroke-linecap="square"/><path d="M326.11 809.88c-6.83 25.57-8 59.13-7.74 97 19.9 8.54 50.42-2.15 50.42-2.15l17.33-132.24c-30.87-.03-49.27 13.87-60.01 37.39z" fill="#F3AB98"/><path d="M613.76 758.72h-54.21v.1a62.796 62.796 0 01-1.44 13.39 61.024 61.024 0 01-1.74 6.33 50.901 50.901 0 01-10 16.83 48.372 48.372 0 01-4.5 4.43c-25.17 18.2-65.17 19.2-89.48-.58a51.833 51.833 0 01-7.11-7.6 50.832 50.832 0 01-9.1-19.41 62.458 62.458 0 01-1.07-6.59 60.818 60.818 0 01-.37-6.8v-.1h-54.21A13.276 13.276 0 00367.26 772v284.68a13.25 13.25 0 00.998 5.09 13.155 13.155 0 002.874 4.32 13.22 13.22 0 004.31 2.89c1.612.67 3.341 1.02 5.088 1.02h238.94c3.52 0 6.895-1.4 9.384-3.89a13.289 13.289 0 003.886-9.39V778.6c0-12.22-5.89-19.88-18.98-19.88z" fill="#85C5E5"/><path d="M610 758.72c63.54 0 73.4 56 73.9 133.17-18.6 11.62-48.91 1.31-48.91 1.31L610 758.72z" fill="#85C5E5"/><path d="M632.74 831.87L610 870l11.38 130h11.61V894.35l17.28 2.89c-5.67-72.17-17.53-65.37-17.53-65.37z" fill="#67B7D6"/><path d="M386.12 758.72c-61.78 0-75.83 53.8-76.85 127.66 19 19.86 58 4.58 58 4.58l18.85-132.24z" fill="#85C5E5"/><path d="M367.23 831.87V891l-17.31 4.31c5.67-70.12 17.31-63.44 17.31-63.44z" fill="#67B7D6"/><path d="M610 758.72c67.41 0 78.45 56.29 78.9 133.78-26.2 12.43-53.91.7-53.91.7M386.119 758.72c-66.79 0-80.08 54.7-80.76 130.72 20.64 14.78 61.86 1.56 61.86 1.56" stroke="#111827" stroke-width="12" stroke-miterlimit="10" stroke-linecap="square"/><path d="M380.53 1070h116.62C388 1070 396.24 838.82 367.26 838.82v217.86a13.25 13.25 0 00.998 5.09 13.155 13.155 0 002.874 4.32 13.22 13.22 0 004.31 2.89c1.612.67 3.341 1.02 5.088 1.02z" fill="#67B7D6"/><path d="M361.26 860.85c-.19-3.67-.11-7.34.05-11s.47-7.35.86-11c.2-1.84.4-3.67.65-5.51.25-1.84.49-3.67.85-5.51a44.169 44.169 0 013.59-11 43.74 43.74 0 013.58 11c.37 1.84.63 3.67.86 5.51.23 1.84.45 3.67.65 5.51.38 3.67.68 7.34.85 11 .17 3.66.25 7.34.06 11h-12z" fill="#111827"/><path d="M632.74 870v8c.26 34 .26 69 0 102.75v75.94a13.29 13.29 0 01-3.876 9.41 13.354 13.354 0 01-4.308 2.88 13.259 13.259 0 01-5.086 1.02H380.53c-3.521 0-6.896-1.4-9.384-3.89a13.289 13.289 0 01-3.886-9.39v-58.2-7.65c-.25-34.87-.25-69.87 0-105.3v-24.72" stroke="#111827" stroke-width="12" stroke-miterlimit="10"/><path d="M626.74 870c-.19-4.17-.1-8.35.06-12.53s.47-8.35.85-12.53c.2-2.09.41-4.18.65-6.27.24-2.09.49-4.17.86-6.26a54.504 54.504 0 013.58-12.53 55.126 55.126 0 013.59 12.53c.36 2.09.62 4.18.85 6.26.23 2.08.45 4.18.65 6.27.38 4.18.69 8.35.85 12.53.16 4.18.25 8.36.06 12.53h-12z" fill="#111827"/><path d="M380.529 758.82l233.23-.1M559.549 758.82a62.732 62.732 0 01-1.44 13.39 60.529 60.529 0 01-1.74 6.33 50.867 50.867 0 01-10 16.83 48.127 48.127 0 01-4.5 4.43c-25.17 18.2-65.17 19.2-89.48-.58a51.833 51.833 0 01-7.11-7.6 50.861 50.861 0 01-9.1-19.41 62.458 62.458 0 01-1.07-6.59 61.057 61.057 0 01-.37-6.8" stroke="#111827" stroke-width="12" stroke-miterlimit="10"/><path d="M503.399 828.39a66.592 66.592 0 01-18.39 1.1 69.78 69.78 0 01-18.2-3.76 61.442 61.442 0 01-16.5-8.64l-1.86-1.41c-.61-.48-1.2-1-1.79-1.52a32.125 32.125 0 01-3.33-3.28 43.838 43.838 0 01-5.38-7.51 87.354 87.354 0 006.74 6.09c.58.48 1.17.95 1.75 1.4.58.45 1.23.82 1.84 1.24.61.42 1.22.84 1.85 1.23l1.91 1.16a88.015 88.015 0 0016.1 7.46 106.259 106.259 0 0017.25 4.45 173.616 173.616 0 0018.01 1.99z" fill="#111827"/><path d="M307.83 892.5a24.507 24.507 0 003.68 2.77" stroke="#111827" stroke-width="12" stroke-miterlimit="10" stroke-linecap="square"/><path d="M674.699 882.69a19.895 19.895 0 01-6.76 2.52 34.796 34.796 0 01-7.2.65 40.197 40.197 0 01-7.18-.79c-1.18-.21-2.33-.56-3.49-.87-1.16-.31-2.27-.77-3.37-1.24 1.21 0 2.38.18 3.56.28l3.52.29c1.17 0 2.33.2 3.5.21 1.17.01 2.32.11 3.48.12a79.02 79.02 0 007-.19 49.333 49.333 0 006.94-.98z" fill="#111827"/><path d="M296.49 572.61v-12.93a49.593 49.593 0 011.94-25.32 46.028 46.028 0 013.51-7.65C305.29 518 314.29 511 323.29 508c14-4 31-2 42 9 14 15 12 37 12.45 55.62M623.31 573c-2.34-26.62 1.66-63.62 36.13-67.17a44.945 44.945 0 018.12 0 43.67 43.67 0 0122.44 8.58c18 15 14 39 13.95 58.63" stroke="#111827" stroke-width="12" stroke-miterlimit="10" stroke-linecap="round"/><path d="M463.749 593.17c15.55 0 25.12 12.76 36.49 12.76 11.37 0 25.91-12.76 41.27-12.76 15.36 0 23.72 11.12 23.72 26.52 0 16.65-16.75 46-62.6 46s-65.4-27.74-65.4-45.45c0-16.35 10.97-27.07 26.52-27.07z" fill="#fff" stroke="#111827" stroke-width="12" stroke-miterlimit="10"/><path d="M477.85 596.6v65.5M526.989 596.6v65.5" stroke="#111827" stroke-width="12" stroke-miterlimit="10"/><path d="M558.729 399.34c-12.86 24-60 37.44-63.83 31.42-4.29-6.73 37.85-55.32 13.9-106.14" fill="#F3AB98"/><path d="M779.834 415.791C741.12 409.915 740.689 341.355 654 281c-47.341-32.96-91.47-45.802-138.113-46.94-2.44-20.48-.75-37.68-2.61-40.1-2.49-3.22-15.49 12.68-18.87 31-11.91-15-32.14-23-32.72-18.8-.377 2.656 7.302 13.888 14.614 29.481-17.477 1.701-35.488 4.618-54.301 8.359-85.5 17-150.5 103-166.5 147s-13.929 63.183-9.502 84.422c3.987 19.126 17.297 34.195 21.435 52.946 16.145-53.921 77.787-71.911 114.631-108.681-8.004 14.95-20.24 27.384-28.271 42.087 37.069-22.33 72.986-54.703 88.32-95.756 2.837 21.276 10.889 40.95 24.486 57.803 12.072 14.964 30.393 31.022 49.288 36.816-9.732-21.706-18.049-44.212-25.686-66.71 8.084 10.314 34.867 54.13 41.591 64.992 6.64 10.725 14.085 20.959 22.078 30.757 3.741 4.584 7.73 9.015 11.748 13.364a267.065 267.065 0 007.164 7.47c.862.863 7.385 7.919 3.656 3.175 8.885 11.046 21.959 19.624 33.315 28.019 11.435 8.452 23.892 15.642 36.844 21.586 28.445 13.057 57.654 17.884 88.644 12.609.291-.032.568-.079.829-.143-.277.049-.553.096-.829.143-5.049.553-14.356-3.55-19.039-4.802-7.252-1.941-13.925-4.403-20.496-7.976-13.123-7.138-25.454-15.649-36.784-25.297 10.852 4.541 19.663 13.139 30.723 17.906 9.166 3.951 18.227 6.013 28.189 6.961 21.893 2.084 48.085-2.839 67.029-14.141 22.017-13.133 34.243-35.672 40.044-59.659 6.504-26.895 2.825-57.12-11.739-80.578-.505-.812-1.984-.513-2.463.315-3.717 6.427-18.573 9.029-30.871 7.163z" fill="#111827"/><path d="M515.887 234.06c-2.44-20.48-.75-37.68-2.61-40.1-2.49-3.22-15.49 12.68-18.87 31-11.91-15-32.14-23-32.72-18.8-.38 2.68 7.44 14.09 14.81 29.9M654 281c86.689 60.355 87.12 128.915 125.834 134.791 12.298 1.866 27.154-.736 30.871-7.163.479-.828 1.958-1.127 2.463-.315 14.564 23.458 18.243 53.683 11.739 80.578-5.801 23.987-18.027 46.526-40.044 59.659-18.944 11.302-45.136 16.225-67.029 14.141-9.962-.948-19.023-3.01-28.189-6.961-11.06-4.767-19.871-13.365-30.723-17.906 11.33 9.648 23.661 18.159 36.784 25.297 6.571 3.573 13.244 6.035 20.496 7.976 4.953 1.325 15.078 5.837 19.868 4.659-31.298 5.503-60.774.708-89.473-12.466-12.952-5.944-25.409-13.134-36.844-21.586-11.356-8.395-24.43-16.973-33.315-28.019 3.729 4.744-2.794-2.312-3.656-3.175a265.69 265.69 0 01-7.164-7.47c-4.018-4.349-8.007-8.78-11.748-13.364-7.993-9.798-15.438-20.032-22.078-30.757-6.724-10.862-33.507-54.678-41.591-64.992 7.637 22.498 15.954 45.004 25.686 66.71-18.895-5.794-37.216-21.852-49.288-36.816-13.597-16.853-21.649-36.527-24.486-57.803-15.334 41.053-51.251 73.426-88.32 95.756 8.031-14.703 20.267-27.137 28.271-42.087-36.844 36.77-98.486 54.759-114.631 108.681-4.138-18.751-17.448-33.82-21.435-52.946C241.571 454.183 239.5 435 255.5 391s81-130 166.5-147c85.5-17.001 154.438-17 232 37z" stroke="#111827" stroke-width="12" stroke-miterlimit="10"/><path d="M505.929 244.31a367.32 367.32 0 00-42.48 4.94c-3.48.67-6.95 1.41-10.44 2.05-3.49.64-6.9 1.61-10.35 2.41l-10.26 2.72c-3.4 1-6.77 2.08-10.15 3.12a314.038 314.038 0 00-39.43 15.73 348.298 348.298 0 00-37.25 21 183.903 183.903 0 0135.08-25.14 219.215 219.215 0 0139.76-17.29c3.48-1 6.94-2.09 10.42-3.05 3.48-.96 7-1.82 10.55-2.6 3.55-.78 7.1-1.4 10.66-2 3.56-.6 7.15-1.07 10.73-1.52a189.93 189.93 0 0143.16-.37z" fill="#fff"/><path d="M600.889 460.57a317.987 317.987 0 0133.51-6.65l-2.66.35c13.18-1.74 26.54-2.25 39.75-.48l-2.66-.36c3.27.46 6.54 1 9.82 1.42l-2.66-.36a220.871 220.871 0 0129.48 6.11c5 1.39 11.1-1.73 12.3-7a10.19 10.19 0 00-7-12.3 239.1 239.1 0 00-34.59-6.78l2.66.36a142.948 142.948 0 00-33.44-1.95 234.955 234.955 0 00-33.09 4.55c-5.62 1.13-11.2 2.43-16.76 3.8-5.08 1.25-8.62 7.26-7 12.3a10.19 10.19 0 0012.3 7l.04-.01zM286.14 460.6a202.567 202.567 0 0129.25-6.19l-2.66.36a195.531 195.531 0 0151.38.08l-2.66-.35a218.94 218.94 0 0129.45 6.1c5 1.4 11.1-1.73 12.3-7a10.19 10.19 0 00-7-12.3 227.318 227.318 0 00-44.2-7.7 208.265 208.265 0 00-71.22 7.71 10.388 10.388 0 00-6 4.6 10.196 10.196 0 00-1 7.7c1.65 5.11 6.91 8.54 12.3 7l.06-.01z" fill="#111827"/><path opacity=".15" d="M725 631.82a265.318 265.318 0 0026.3-59.43c-17.24 35.74-49.84 65.46-92.11 65.46a106.749 106.749 0 01-106.61-106.63 105.677 105.677 0 017.83-40.22H758a105.305 105.305 0 017.62 33.39c.73-8 1.12-16.19 1.12-24.42a269.111 269.111 0 00-1.58-29H234.83a269.111 269.111 0 00-1.58 29c0 4.73.14 9.42.38 14.09A104.871 104.871 0 01240.1 491h197.6a106.701 106.701 0 01-98.8 146.82c-38.8 0-68.82-25.83-87.48-56.89a266.199 266.199 0 0024.76 52.84c19.39 12.07 38.25 24.05 62.72 24.05a126.783 126.783 0 00126.63-126.6c0-1.81 0-3.61-.12-5.4 23.38-8.23 45.52-8.35 67.31-.36-.08 1.91-.14 3.83-.14 5.76a126.782 126.782 0 00126.63 126.63c25.79 0 45.79-12.75 65.79-26.03zM535.26 505.18c-23.4-7.55-47.64-7.42-72.33.39A124.54 124.54 0 00459 491h80.1a122.551 122.551 0 00-3.84 14.18z" fill="#000"/><path opacity=".95" d="M233.59 469.82s.41 32.23.41 50.2c0 64.41 40.48 116.63 104.9 116.63a116.676 116.676 0 0098.616-54.402A116.676 116.676 0 00444.2 469.82H233.59zM553.909 469.82a116.676 116.676 0 006.684 112.428 116.672 116.672 0 0042.31 39.887 116.67 116.67 0 0056.306 14.515c64.42 0 107.54-52.22 107.54-116.63 0-18-2.23-50.2-2.23-50.2h-210.61z" fill="#111827"/><path opacity=".25" d="M320 626.86l123.07-123.08a93.027 93.027 0 00-10-17.27L302.72 616.88a93.637 93.637 0 0017.28 9.98z" fill="#fff"/><path d="M455.859 507.53c29.52-12 58.53-12.42 87 0" stroke="#111827" stroke-width="20" stroke-miterlimit="10"/><path d="M274.279 504.75c2.06 6.51-5.94 11.51-11.94 12.51-6 0-10-4-12-9-1-5 0-10 4-13 5-2 12-4 16.44 1.12a11.687 11.687 0 012.594 3.832c.602 1.437.909 2.98.906 4.538zM285 500.93c-.61 4.33-6.61 4.33-7.61.33 0-3 1-4 3.84-4.1a3.768 3.768 0 013.77 3.77zM590.68 505.73c2.06 6.51-5.94 11.51-11.94 12.51-6 0-10-4-12-9-1-5 0-10 4-13 5-2 12-4 16.45 1.12a11.678 11.678 0 013.49 8.37z" fill="#fff"/><path opacity=".25" d="M645.19 618.92l106.28-106.28a93.969 93.969 0 00-2.41-11.22L634 616.51a94.362 94.362 0 0011.19 2.41z" fill="#fff"/><path d="M601.349 501.91c-.61 4.33-6.61 4.33-7.61.33 0-3 1-4 3.85-4.1a3.762 3.762 0 013.477 2.328c.188.457.285.947.283 1.442z" fill="#fff"/><path d="M233.59 469.82s-.34 31.69.41 50.2c2.6 64.36 40.48 116.63 104.9 116.63a116.67 116.67 0 0056.306-14.515 116.672 116.672 0 0060.115-95.241A116.676 116.676 0 00444.2 469.82H233.59zM553.909 469.82a116.676 116.676 0 006.684 112.428 116.672 116.672 0 0042.31 39.887 116.67 116.67 0 0056.306 14.515c64.42 0 107.54-51.53 107.54-115.94 0-18-2.23-50.89-2.23-50.89h-210.61zM423.14 469.81h151.83" stroke="#111827" stroke-width="20" stroke-miterlimit="10"/></g></svg>