<svg fill="none" xmlns="http://www.w3.org/2000/svg" viewBox="0 0 1000 990"><mask id="mask0" maskUnits="userSpaceOnUse" x="0" y="0" width="1000" height="966"><path d="M1000 0H0v718.31h179.2c38.38 142.38 167.45 247.1 320.8 247.1 153.35 0 282.42-104.72 320.8-247.1H1000V0z" fill="#fff"/></mask><g mask="url(#mask0)"><path d="M500 962.602c183.603 0 332.442-148.839 332.442-332.442 0-183.602-148.839-332.442-332.442-332.442S167.558 446.558 167.558 630.16c0 183.603 148.839 332.442 332.442 332.442z" fill="#FDE047"/><path d="M610 758.72c90.76 0 72 114.24 72.87 241.28H610V758.72z" fill="#FBE8B3"/><path d="M632.74 831.87L610 870l11.38 130h31.76c.77-180.27-20.4-168.13-20.4-168.13z" fill="#EDD494"/><path d="M233.25 500c0-147.32 119.43-266.75 266.75-266.75S766.75 352.68 766.75 500a266.213 266.213 0 01-98.65 207.12 264.415 264.415 0 01-16.94 12.69C591 758 515 758 446.39 751.89c-6.66-1-13.3-2.26-19.89-3.71-26.33-5.8-51.82-14.75-75.37-27.8a209.22 209.22 0 01-16.93-11.62 199.912 199.912 0 01-15.8-13.38 266.295 266.295 0 01-13.79-13.78A265.857 265.857 0 01233.25 500z" fill="#FBE8B3"/><path d="M269.61 634.48c.7 1.2 1.39 2.4 2.11 3.58.43.72.88 1.42 1.33 2.14.66 1.07 1.32 2.14 2 3.19.48.76 1 1.5 1.46 2.24.66 1 1.32 2 2 3 .51.76 1 1.52 1.56 2.28.66 1 1.32 1.92 2 2.88.54.77 1.1 1.53 1.65 2.3.55.77 1.34 1.85 2 2.77.66.92 1.15 1.53 1.73 2.29.58.76 1.37 1.8 2.07 2.7.7.9 1.19 1.51 1.79 2.26.6.75 1.41 1.76 2.12 2.63.71.87 1.23 1.49 1.85 2.23.62.74 1.44 1.72 2.17 2.57.73.85 1.27 1.47 1.91 2.2l2.22 2.5c.65.73 1.31 1.44 2 2.16.86.94 1.73 1.87 2.6 2.79l1.21 1.28c1.29 1.34 2.59 2.68 3.91 4l.26.27c1.29 1.28 2.6 2.55 3.91 3.81l1.58 1.5c.95.89 1.9 1.78 2.86 2.66l1.16 1.06c1 .94 2.09 1.86 3.14 2.78 3.267 2.847 6.6 5.577 10 8.19a206.785 206.785 0 0016.93 11.62c23.55 13 49 22 75.37 27.8 6.59 1.45 13.23 2.7 19.89 3.71 42.1 3.75 87 5.18 129.28-3.08C508.45 729 185.59 612.74 388.8 257.48c-2.72 1.25-5.4 2.54-8.06 3.88l-.59.29c-1.22.61-2.44 1.24-3.65 1.88l-1 .53c-3.76 2-7.48 4.07-11.13 6.23l-.9.53c-1.16.69-2.31 1.39-3.46 2.1l-.87.54a278.453 278.453 0 00-10.55 6.93l-1.08.75c-1.09.76-2.16 1.52-3.23 2.29l-.66.47a340.484 340.484 0 00-6.46 4.84l-.62.48c-1 .78-2 1.58-3 2.39l-1.17.94c-1 .81-2 1.62-3 2.45-2.11 1.75-4.19 3.55-6.24 5.37l-1.14 1-2.69 2.45L318 305a270.065 270.065 0 00-8.37 8.17l-1.38 1.41c-.79.82-1.58 1.64-2.36 2.47-.46.49-.92 1-1.37 1.48a214.59 214.59 0 00-4.06 4.46c-.45.51-.91 1-1.36 1.54-.71.81-1.41 1.63-2.11 2.45l-1.51 1.79c-.68.81-1.36 1.62-2 2.44-.54.66-1.08 1.33-1.61 2-1.07 1.33-2.12 2.66-3.16 4-.54.7-1.08 1.4-1.61 2.11s-1.2 1.59-1.79 2.4c-.59.81-1.07 1.45-1.59 2.18-.52.73-1.13 1.55-1.68 2.33a194.519 194.519 0 00-2.8 4.05c-.5.73-1 1.48-1.49 2.22-.49.74-1.1 1.66-1.64 2.5l-1.49 2.31-1.68 2.71c-.43.69-.86 1.38-1.28 2.07-.89 1.46-1.75 2.93-2.61 4.4l-1.22 2.16c-.54.95-1.08 1.91-1.61 2.87-.4.73-.8 1.46-1.19 2.19-.64 1.19-1.27 2.39-1.9 3.59l-1.2 2.34c-.64 1.28-1.28 2.55-1.91 3.84-.33.69-.67 1.39-1 2.09-.52 1.09-1 2.19-1.53 3.29-.31.66-.61 1.32-.91 2a214.37 214.37 0 00-2.17 5c-.22.52-.43 1.05-.65 1.57-.53 1.27-1.05 2.54-1.56 3.82-.27.67-.53 1.34-.79 2-.5 1.26-1 2.53-1.45 3.8-.21.55-.42 1.1-.62 1.65a549.286 549.286 0 00-1.85 5.26l-.56 1.7c-.44 1.333-.87 2.667-1.29 4l-.6 1.91c-.47 1.54-.93 3.08-1.37 4.63-.1.33-.2.66-.29 1-.52 1.84-1.02 3.687-1.5 5.54-.16.59-.3 1.19-.45 1.78-.35 1.39-.69 2.78-1 4.18l-.42 1.75c-.43 1.9-.85 3.8-1.24 5.71l-.15.77c-.34 1.7-.673 3.4-1 5.1-.11.61-.21 1.21-.32 1.82-.26 1.49-.51 3-.74 4.5-.08.51-.17 1-.24 1.52-.3 1.95-.57 3.91-.83 5.88l-.15 1.3c-.2 1.59-.38 3.19-.55 4.79-.06.6-.13 1.2-.19 1.81-.16 1.68-.31 3.37-.45 5.06 0 .35-.06.69-.08 1-.147 2-.277 4.017-.39 6.05 0 .53 0 1.07-.07 1.6a538.167 538.167 0 00-.18 4.71v1.77c0 2.05-.08 4.11-.08 6.17v.1c0 2.22 0 4.42.08 6.62 0 .76.06 1.52.08 2.28.05 1.47.1 2.94.17 4.41 0 .89.11 1.77.16 2.66.08 1.33.15 2.66.25 4 .07 1 .16 1.89.24 2.83.11 1.26.21 2.52.34 3.77.09 1 .21 1.94.31 2.91.14 1.21.27 2.43.42 3.64.12 1 .26 2 .39 2.95.16 1.18.32 2.37.5 3.55.15 1 .31 2 .47 3 .18 1.16.37 2.33.57 3.49.18 1 .36 2 .55 3 .21 1.15.43 2.3.65 3.44.22 1.14.41 2 .62 3 .24 1.14.48 2.27.74 3.4s.44 2 .68 2.93c.26 1.13.54 2.25.82 3.36.28 1.11.49 1.95.74 2.91.3 1.12.6 2.23.91 3.34.26 1 .53 1.92.81 2.87.32 1.11.65 2.21 1 3.31s.58 1.89.88 2.84a281.772 281.772 0 002 6.08c.38 1.09.76 2.18 1.15 3.27.33.91.65 1.83 1 2.74l1.24 3.27c.35.89.69 1.79 1 2.68.44 1.09.89 2.19 1.34 3.28.36.86.71 1.73 1.08 2.59.47 1.12 1 2.22 1.45 3.33.37.82.73 1.65 1.1 2.47.52 1.16 1.07 2.3 1.6 3.44l1.08 2.3c.61 1.26 1.24 2.5 1.87 3.75.32.63.62 1.27.95 1.9 1.92 3.74 3.92 7.43 6 11.07.29.47.66 1.08 1.02 1.69z" fill="#EDD494"/><path d="M233.25 500c0-147.32 119.43-266.75 266.75-266.75S766.75 352.68 766.75 500a266.213 266.213 0 01-98.65 207.12 264.415 264.415 0 01-16.94 12.69C591 758 515 758 446.39 751.89c-6.66-1-13.3-2.26-19.89-3.71-26.33-5.8-51.82-14.75-75.37-27.8a209.22 209.22 0 01-16.93-11.62 199.912 199.912 0 01-15.8-13.38 266.295 266.295 0 01-13.79-13.78A265.857 265.857 0 01233.25 500v0z" stroke="#111827" stroke-width="12" stroke-miterlimit="10"/><path d="M386.12 758.72c-90.77 0-72 114.24-72.87 241.28h72.87V758.72z" fill="#FBE8B3"/><path d="M367.23 831.87L390 870l-11.39 130h-31.73c-.81-180.27 20.35-168.13 20.35-168.13z" fill="#EDD494"/><path d="M619.47 1070H380.53c-3.52 0-6.896-1.4-9.384-3.89a13.289 13.289 0 01-3.886-9.39V772a13.28 13.28 0 0113.27-13.28h233.23c13.09 0 19 7.66 19 19.88v278.08a13.32 13.32 0 01-1 5.1 13.364 13.364 0 01-2.879 4.32 13.26 13.26 0 01-9.411 3.9z" fill="#FBE8B3"/><path d="M629.05 766.62a19.333 19.333 0 01-2.51-4 17.251 17.251 0 00-8.28-3.51 28.97 28.97 0 00-4.5-.34H380.53A13.279 13.279 0 00367.26 772c29 10.42 83.29 16.24 132.74 16.24 63.06 0 104.38-9.35 129.05-21.62z" fill="#EDD494"/><path d="M610 758.72c90.76 0 72 114.24 72.87 241.28h-50.13M386.12 758.72c-90.77 0-72 114.24-72.87 241.28h50.07" stroke="#111827" stroke-width="12" stroke-miterlimit="10" stroke-linecap="square"/><path d="M380.53 758.82l233.23-.1" stroke="#111827" stroke-width="12" stroke-miterlimit="10"/><path d="M380.53 1070h116.62C388 1070 396.24 838.82 367.26 838.82v217.86a13.25 13.25 0 00.998 5.09 13.155 13.155 0 002.874 4.32 13.231 13.231 0 004.31 2.89c1.612.67 3.342 1.02 5.088 1.02z" fill="#EDD494"/><path d="M361.26 860.85c-.19-3.67-.11-7.34.05-11s.47-7.35.86-11c.2-1.84.4-3.67.65-5.51.25-1.84.49-3.67.85-5.51a44.169 44.169 0 013.59-11 44.169 44.169 0 013.59 11c.36 1.84.62 3.67.85 5.51.23 1.84.45 3.67.65 5.51.38 3.67.68 7.34.85 11 .17 3.66.25 7.34.06 11h-12z" fill="#111827"/><path d="M632.74 870v8c.26 34 .26 69 0 102.75v75.94c.004 1.75-.336 3.48-1.001 5.09a13.382 13.382 0 01-2.874 4.32 13.369 13.369 0 01-4.309 2.88c-1.612.67-3.34 1.02-5.086 1.02H380.53c-3.52 0-6.896-1.4-9.384-3.89a13.289 13.289 0 01-3.886-9.39v-58.2-7.65c-.25-34.87-.25-69.87 0-105.3v-24.72" stroke="#111827" stroke-width="12" stroke-miterlimit="10"/><path d="M626.74 870c-.19-4.17-.1-8.35.06-12.53s.47-8.35.85-12.53c.2-2.09.41-4.18.65-6.27.24-2.09.49-4.17.85-6.26a55.126 55.126 0 013.59-12.53 55.075 55.075 0 013.59 12.53c.36 2.09.62 4.18.85 6.26.23 2.08.45 4.18.65 6.27.38 4.18.69 8.35.85 12.53.16 4.18.25 8.36.06 12.53h-12zM570.68 842.45C570.9 833 582.9 829 588.9 835a10.608 10.608 0 01-3.621 17.269 10.597 10.597 0 01-8.12-.083 10.626 10.626 0 01-3.419-2.336 10.4 10.4 0 01-3.06-7.4zM408.11 842.15C407.9 834 416.9 830 422.9 833c8 3 8 14 0 19-4 2-8 0-11.75-2.48a10.395 10.395 0 01-3.04-7.37z" fill="#111827"/><path d="M500 831.77a27.078 27.078 0 011.5 5.84c.298 1.933.461 3.884.49 5.84l.3 11.69c.09 3.89.21 7.79.25 11.69l.17 11.67c.23 15.57.22 31.16.28 46.74.06 15.58.18 31.16 0 46.74-.09 7.79-.3 15.58-.53 23.37-.1 3.89-.29 7.79-.67 11.68a92.3 92.3 0 01-1.77 11.69 92.3 92.3 0 01-1.77-11.69c-.38-3.89-.57-7.79-.67-11.68-.23-7.79-.44-15.58-.53-23.37-.2-15.58 0-31.16 0-46.74 0-15.58 0-31.15.18-46.73l.17-11.7.33-11.68.33-11.68c.037-1.956.204-3.907.5-5.84a27.122 27.122 0 011.44-5.84z" fill="#EDD494"/><path d="M425.22 883a18.524 18.524 0 014.67-1.5 29.778 29.778 0 014.68-.5l9.35-.33 18.7-.41c12.46-.19 24.91-.24 37.38-.27 12.47-.03 24.93-.16 37.39 0 6.23.09 12.46.3 18.7.53 3.11.11 6.23.3 9.34.67 3.158.35 6.284.945 9.35 1.78a59.177 59.177 0 01-9.35 1.77c-3.11.38-6.23.57-9.34.67-6.24.23-12.47.43-18.7.52-12.46.19-24.92 0-37.39 0-12.47 0-24.93 0-37.4-.15-6.23-.06-12.46-.26-18.68-.5l-9.35-.34a29.534 29.534 0 01-4.67-.5 18.444 18.444 0 01-4.68-1.44zM442.41 914.38a12.516 12.516 0 013.74-1.11 18.413 18.413 0 013.62-.15c2.39.1 4.78.16 7.17.21 4.78.11 9.56.15 14.34.17 9.63 0 19.09.08 28.76-.21 9.67-.29 19.26-.43 28.88-.39 4.81 0 9.62.13 14.42.24 2.417.033 4.83.19 7.23.47 2.467.273 4.902.785 7.27 1.53a36.509 36.509 0 01-7.16 2c-2.384.43-4.792.717-7.21.86-4.82.35-9.64.65-14.45.82-9.64.36-19.27.32-28.88.45-4.81 0-9.61.22-14.48.1-4.87-.12-9.69-.13-14.52-.31s-9.68-.58-14.5-1.08c-2.42-.27-4.82-.57-7.23-.9a16.778 16.778 0 01-3.57-.84 11.493 11.493 0 01-3.43-1.86zM438.93 949.87a13.09 13.09 0 013.82-1.5 19.067 19.067 0 013.82-.49l7.63-.32c5.09-.18 10.19-.33 15.28-.41 10.18-.15 20.36-.15 30.52-.15s20.36-.17 30.54 0c5.09.09 10.18.3 15.27.53 2.553.086 5.1.306 7.63.66 2.605.357 5.17.963 7.66 1.81a41.239 41.239 0 01-7.63 1.77 70.295 70.295 0 01-7.64.67c-5.09.23-10.18.44-15.27.53-10.18.2-20.37.06-30.55 0s-20.36-.06-30.54-.25c-5.09-.1-10.19-.28-15.28-.49l-7.63-.37a19.364 19.364 0 01-3.82-.5 12.85 12.85 0 01-3.81-1.49zM677.8 906.35c.21-37.11-1.21-70.07-7.73-95.39C660 785.6 641.89 770.48 610 770.48L632.79 905s22.52 10.24 45.01 1.35z" fill="#EDD494"/><path d="M686.41 895.79a20.344 20.344 0 01-3.7 2.43" stroke="#111827" stroke-width="12" stroke-miterlimit="10" stroke-linecap="square"/><path d="M326.11 809.88c-6.83 25.57-8 59.13-7.74 97 19.9 8.54 50.42-2.15 50.42-2.15l17.33-132.24c-30.87-.03-49.27 13.87-60.01 37.39z" fill="#EDD494"/><path d="M613.76 758.72h-54.21v.1a62.732 62.732 0 01-1.44 13.39 61.024 61.024 0 01-1.74 6.33 50.884 50.884 0 01-10 16.83 48.25 48.25 0 01-4.5 4.43c-25.17 18.2-65.17 19.2-89.48-.58a51.833 51.833 0 01-7.11-7.6 50.846 50.846 0 01-9.1-19.41 62.458 62.458 0 01-1.07-6.59 61.057 61.057 0 01-.37-6.8v-.1h-54.21A13.278 13.278 0 00367.26 772v284.68a13.25 13.25 0 00.998 5.09 13.155 13.155 0 002.874 4.32 13.231 13.231 0 004.31 2.89c1.612.67 3.342 1.02 5.088 1.02h238.94c3.52 0 6.896-1.4 9.384-3.89a13.289 13.289 0 003.886-9.39V778.6c0-12.22-5.89-19.88-18.98-19.88z" fill="#633749"/><path d="M610 758.72c63.54 0 73.4 56 73.9 133.17-18.6 11.62-48.91 1.31-48.91 1.31L610 758.72z" fill="#633749"/><path d="M632.74 831.87L610 870l11.38 130h11.61V894.35l17.28 2.89c-5.67-72.17-17.53-65.37-17.53-65.37z" fill="#5E3244"/><path d="M386.12 758.72c-61.78 0-75.83 53.8-76.85 127.66 19 19.86 58 4.58 58 4.58l18.85-132.24z" fill="#633749"/><path d="M367.23 831.87V891l-17.31 4.31c5.67-70.12 17.31-63.44 17.31-63.44z" fill="#5E3244"/><path d="M610 758.72c67.41 0 78.45 56.29 78.9 133.78-26.2 12.43-53.91.7-53.91.7M386.12 758.72c-66.79 0-80.08 54.7-80.76 130.72C326 904.22 367.22 891 367.22 891" stroke="#111827" stroke-width="12" stroke-miterlimit="10" stroke-linecap="square"/><path d="M380.53 1070h116.62C388 1070 396.24 838.82 367.26 838.82v217.86a13.25 13.25 0 00.998 5.09 13.155 13.155 0 002.874 4.32 13.231 13.231 0 004.31 2.89c1.612.67 3.342 1.02 5.088 1.02z" fill="#5E3244"/><path d="M361.26 860.85c-.19-3.67-.11-7.34.05-11s.47-7.35.86-11c.2-1.84.4-3.67.65-5.51.25-1.84.49-3.67.85-5.51a44.169 44.169 0 013.59-11 43.74 43.74 0 013.58 11c.37 1.84.63 3.67.86 5.51.23 1.84.45 3.67.65 5.51.38 3.67.68 7.34.85 11 .17 3.66.25 7.34.06 11h-12z" fill="#111827"/><path d="M632.74 870v8c.26 34 .26 69 0 102.75v75.94c.004 1.75-.336 3.48-1.001 5.09a13.382 13.382 0 01-2.874 4.32 13.369 13.369 0 01-4.309 2.88c-1.612.67-3.34 1.02-5.086 1.02H380.53c-3.52 0-6.896-1.4-9.384-3.89a13.289 13.289 0 01-3.886-9.39v-58.2-7.65c-.25-34.87-.25-69.87 0-105.3v-24.72" stroke="#111827" stroke-width="12" stroke-miterlimit="10"/><path d="M626.74 870c-.19-4.17-.1-8.35.06-12.53s.47-8.35.85-12.53c.2-2.09.41-4.18.65-6.27.24-2.09.49-4.17.86-6.26a54.504 54.504 0 013.58-12.53 55.075 55.075 0 013.59 12.53c.36 2.09.62 4.18.85 6.26.23 2.08.45 4.18.65 6.27.38 4.18.69 8.35.85 12.53.16 4.18.25 8.36.06 12.53h-12z" fill="#111827"/><path d="M380.53 758.82l233.23-.1M559.55 758.82a62.732 62.732 0 01-1.44 13.39 61.024 61.024 0 01-1.74 6.33 50.884 50.884 0 01-10 16.83 48.25 48.25 0 01-4.5 4.43c-25.17 18.2-65.17 19.2-89.48-.58a51.833 51.833 0 01-7.11-7.6 50.846 50.846 0 01-9.1-19.41 62.458 62.458 0 01-1.07-6.59 61.057 61.057 0 01-.37-6.8" stroke="#111827" stroke-width="12" stroke-miterlimit="10"/><path d="M503.4 828.39a66.592 66.592 0 01-18.39 1.1 69.78 69.78 0 01-18.2-3.76 61.442 61.442 0 01-16.5-8.64l-1.86-1.41c-.61-.48-1.2-1-1.79-1.52a32.125 32.125 0 01-3.33-3.28 43.838 43.838 0 01-5.38-7.51 87.354 87.354 0 006.74 6.09c.58.48 1.17.95 1.75 1.4.58.45 1.23.82 1.84 1.24.61.42 1.22.84 1.85 1.23l1.91 1.16a88.015 88.015 0 0016.1 7.46 106.232 106.232 0 0017.25 4.45 173.616 173.616 0 0018.01 1.99z" fill="#111827"/><path d="M307.83 892.5a24.507 24.507 0 003.68 2.77" stroke="#111827" stroke-width="12" stroke-miterlimit="10" stroke-linecap="square"/><path d="M674.7 882.69a19.895 19.895 0 01-6.76 2.52 34.796 34.796 0 01-7.2.65 40.197 40.197 0 01-7.18-.79c-1.18-.21-2.33-.56-3.49-.87-1.16-.31-2.27-.77-3.37-1.24 1.21 0 2.38.18 3.56.28l3.52.29c1.17 0 2.33.2 3.5.21 1.17.01 2.32.11 3.48.12a79.02 79.02 0 007-.19 49.333 49.333 0 006.94-.98z" fill="#111827"/><path opacity=".15" d="M664.05 702.32c28.31-23 54.41-54.72 70.68-86.1-.06-.1-3.49 3.38-3.55 3.28-.06-.1-21.07 18.78-81.52 18.5-76.3-.31-60.54-21.68-152.51-21.68-81.42 0-68.49 11.89-145.15 16.15-62.09 3.45-83.62-13-83.62-13l-.2.33a261.19 261.19 0 0040.56 57.53c4.32 4.65 8.86 9.18 13.48 13.48a193.304 193.304 0 0015.35 13c5.18 3.95 10.67 7.72 16.33 11.21 21.71 12 46.48 21.14 73.63 27.13 6.49 1.43 13 2.64 19.31 3.6 65.81 5.85 141.08 6.7 200.74-31.12 5.63-3.85 11.17-8 16.47-12.31z" fill="#000"/><path d="M311.51 663.32a4.18 4.18 0 10.001-8.359 4.18 4.18 0 00-.001 8.359zM338.51 666.28a2.96 2.96 0 100-5.92 2.96 2.96 0 000 5.92zM401.05 710.94a2.96 2.96 0 100-5.92 2.96 2.96 0 000 5.92zM506.83 714.27a2.96 2.96 0 100-5.92 2.96 2.96 0 000 5.92zM517.63 707.46a2.96 2.96 0 100-5.92 2.96 2.96 0 000 5.92zM578.33 704.5a2.96 2.96 0 100-5.92 2.96 2.96 0 000 5.92zM581.29 686.11a2.96 2.96 0 100-5.92 2.96 2.96 0 000 5.92zM391.69 696.09a5.37 5.37 0 100-10.74 5.37 5.37 0 000 10.74zM600.44 709.54a2.09 2.09 0 100-4.18 2.09 2.09 0 000 4.18zM642.96 700.26a4.18 4.18 0 100-8.36 4.18 4.18 0 000 8.36zM462.56 728.22a4.18 4.18 0 100-8.36 4.18 4.18 0 000 8.36zM642.96 666.18a2.96 2.96 0 100-5.92 2.96 2.96 0 000 5.92zM654.05 676.02a2.96 2.96 0 100-5.92 2.96 2.96 0 000 5.92z" fill="#111827"/><path d="M271.4 568.53c-1-28.36 18-52.36 43.28-63.56a62.421 62.421 0 018.16-2.7 70.003 70.003 0 0142.21 2.73 71.608 71.608 0 018.93 4.16c29.53 15.89 42.79 53.25 31.36 83.46a61.667 61.667 0 01-4.18 8.82 54.677 54.677 0 01-17.51 20.83 69.283 69.283 0 01-7.85 5c-27.38 13-64.38 9-86.45-11.4a68.344 68.344 0 01-6.11-7.47 64.907 64.907 0 01-5.57-9.5 55.776 55.776 0 01-5.67-21.8 75.801 75.801 0 01-.6-8.57z" fill="#EDD494"/><path d="M269.77 550.18c-1-28.36 18-52.36 43.28-63.56a62.135 62.135 0 018.15-2.7 69.999 69.999 0 0142.22 2.68 71.476 71.476 0 018.92 4.16c29.53 15.89 42.79 53.26 31.36 83.46a59.655 59.655 0 01-4.18 8.82 63.814 63.814 0 01-4.71 7.8 64.748 64.748 0 01-5.68 7 63.075 63.075 0 01-7.12 6.07 68.33 68.33 0 01-7.85 5c-27.38 13-64.38 9-86.44-11.39a68.337 68.337 0 01-6.11-7.48 65.056 65.056 0 01-5.58-9.5 55.61 55.61 0 01-5.71-21.73 71.347 71.347 0 01-.55-8.63v0z" fill="#fff" stroke="#111827" stroke-width="12" stroke-miterlimit="10"/><path d="M338.51 563.03c6.76 0 12.24-5.48 12.24-12.24s-5.48-12.24-12.24-12.24-12.24 5.48-12.24 12.24 5.48 12.24 12.24 12.24z" fill="#111827"/><path d="M583.89 560.47c.43-15.13 6.67-30.09 15.1-41.33a72.921 72.921 0 017.12-8.53 69.732 69.732 0 0190.17-8.95 73.244 73.244 0 016.53 5.13c27 21.45 30.12 63.14 15.32 93.23a62.34 62.34 0 01-4.78 6.86 72.148 72.148 0 01-7.58 8.13c-20.27 17.83-51.81 22.13-77.41 12.42a71.398 71.398 0 01-10.55-5c-17.9-10.78-30.37-31.09-33.43-52.23a63.04 63.04 0 01-.49-9.73z" fill="#EDD494"/><path d="M589.38 549c.42-14.15 6.42-28.15 14.52-38.66a70.544 70.544 0 016.86-8 68.548 68.548 0 0186.77-8.34 69.786 69.786 0 016.28 4.79c26 20.07 29 59.07 14.74 87.22a56.403 56.403 0 01-4.6 6.42 68.784 68.784 0 01-7.29 7.6c-19.51 16.68-49.86 20.71-74.49 11.62A68.835 68.835 0 01622 606.9c-17.22-10.08-29.22-29.08-32.17-48.85-.392-3-.543-6.026-.45-9.05v0z" fill="#fff" stroke="#111827" stroke-width="12" stroke-miterlimit="10"/><path d="M659.21 563.03c6.76 0 12.24-5.48 12.24-12.24s-5.48-12.24-12.24-12.24-12.24 5.48-12.24 12.24 5.48 12.24 12.24 12.24zM443.14 621.86c0-18.9 113.72-16.06 113.72 0A56.857 56.857 0 01500 678.72a56.857 56.857 0 01-56.86-56.86z" fill="#111827"/><path d="M495 643c-16.95-1-31.73 6.75-36.65 18.22a56.863 56.863 0 0065.14 12.53 55.478 55.478 0 006.51-3.55c-.92-14.11-15.94-26.02-35-27.2z" fill="#F28195"/><path d="M443.14 621.86c0-18.9 113.72-16.06 113.72 0A56.857 56.857 0 01500 678.72a56.857 56.857 0 01-56.86-56.86v0z" stroke="#111827" stroke-width="6" stroke-miterlimit="10"/><path d="M478.12 632.46c.45-.11.63-.16.92-.21l.75-.14c.49-.09 1-.14 1.46-.18.96-.098 1.926-.132 2.89-.1 1.955.042 3.898.314 5.79.81a21.396 21.396 0 0110.35 6.1 20.177 20.177 0 015.08 10.16c.625 3.507.15 7.123-1.36 10.35-2.07-2.93-3.66-5.56-5.32-7.76a28.294 28.294 0 00-2.45-3 14.02 14.02 0 00-2.7-2.16 15.464 15.464 0 00-6.11-2.09A29.401 29.401 0 00484 644c-.59 0-1.18 0-1.76.05l-.85.06h-.62l-2.65-11.65z" fill="#111827"/><path d="M558.73 399.34c-12.86 24-60 37.44-63.83 31.42-4.29-6.73 37.85-55.32 13.9-106.14" fill="#EDD494"/><path d="M784 342.85c-5.1-5.1-31.06 1.83-57.19-.23a280.995 280.995 0 00-221.18-114.34c-2.44-20.48-.75-37.68-2.61-40.1-2.49-3.22-15.49 12.68-18.87 31-11.91-15-32.14-23-32.72-18.8-.38 2.68 7.44 14.09 14.81 29.9-111.6 13.47-203.08 92.26-235.08 197-13.86 11.92-26.86 20.34-27 25.69-.27 9.92 39.31 9.36 56.58 7.82v-.06c60.65-2 179-13.78 236.42-72.89-5.52 19.09-15.69 33.16-13.73 36.16 3 4.67 38.32-5.19 50.07-23.24 48 19.59 139.49 43.16 219-16.16l-.22-.43c14.49-12.11 38.07-34.92 31.72-41.32z" fill="#A56941"/><path d="M726.85 348.62c-5.4.24-10.66.11-16-.14s-10.59-.67-15.87-1.26c-2.64-.29-5.28-.6-7.91-1s-5.27-.72-7.89-1.23a76.969 76.969 0 01-15.58-4.54 91.882 91.882 0 0116-2.62c2.63-.22 5.26-.37 7.89-.48l7.88-.34c5.25-.22 10.49-.34 15.72-.45 5.23-.11 10.48-.12 15.62 0l.14 12.06zM236.6 430v.39l-.12.53-.28 1.11c-.21.75-.43 1.52-.66 2.29-.47 1.55-1 3.14-1.54 4.75-.54 1.61-1.06 3.28-1.77 5a20.526 20.526 0 01-1.38 2.6 17.868 17.868 0 01-2.07 2.77 13.136 13.136 0 01-3.72-5.47 16.139 16.139 0 01-.76-2.9c-.21-1-.31-2-.43-2.95-.2-1.995-.2-4.005 0-6a24.52 24.52 0 01.48-3c.12-.5.25-1 .41-1.51.077-.261.167-.518.27-.77.1-.28.18-.48.36-.9L236.6 430z" fill="#111827"/><path d="M260.74 460.82v-.06c17-.56 38.63-1.9 62.14-4.84 2.63-55.92 22-121.58 65.92-198.44l-6.8-3.25a282.162 282.162 0 00-150.84 173.08c-13.86 11.92-26.86 20.34-27 25.69-.27 9.92 39.31 9.36 56.58 7.82z" fill="#8D5638"/><path d="M784 342.85c-5.1-5.1-31.06 1.83-57.19-.23a280.995 280.995 0 00-221.18-114.34c-2.44-20.48-.75-37.68-2.61-40.1-2.49-3.22-15.49 12.68-18.87 31-11.91-15-32.14-23-32.72-18.8-.38 2.68 7.44 14.09 14.81 29.9-111.6 13.47-203.08 92.26-235.08 197-13.86 11.92-26.86 20.34-27 25.69-.27 9.92 39.31 9.36 56.58 7.82v-.06c60.65-2 179-13.78 236.42-72.89-5.52 19.09-15.69 33.16-13.73 36.16 3 4.67 38.32-5.19 50.07-23.24 48 19.59 139.49 43.16 219-16.16l-.22-.43c14.49-12.11 38.07-34.92 31.72-41.32z" stroke="#111827" stroke-width="12" stroke-miterlimit="10"/><path d="M505.93 244.31a367.32 367.32 0 00-42.48 4.94c-3.48.67-6.95 1.41-10.44 2.05-3.49.64-6.9 1.61-10.35 2.41l-10.26 2.72c-3.4 1-6.77 2.08-10.15 3.12a314.038 314.038 0 00-39.43 15.73 348.298 348.298 0 00-37.25 21 183.871 183.871 0 0135.08-25.14 219.215 219.215 0 0139.76-17.29c3.48-1 6.94-2.09 10.42-3.05 3.48-.96 7-1.82 10.55-2.6 3.55-.78 7.1-1.4 10.66-2 3.56-.6 7.15-1.07 10.73-1.52a189.93 189.93 0 0143.16-.37z" fill="#fff"/><path d="M603.1 452.29a320.69 320.69 0 0133.51-6.66L634 446a150.298 150.298 0 0139.75-.48l-2.66-.36c3.28.45 6.54 1 9.82 1.41l-2.66-.35a222.368 222.368 0 0129.48 6.1c5 1.4 11.11-1.72 12.3-7a10.19 10.19 0 00-7-12.3 239.237 239.237 0 00-34.58-6.78l2.65.36a142.917 142.917 0 00-33.43-1.95 236.76 236.76 0 00-33.1 4.54c-5.61 1.14-11.19 2.44-16.76 3.81-5.08 1.25-8.61 7.26-7 12.3a10.211 10.211 0 0012.3 7l-.01-.01zM261.26 502.22l14.13-1.48 33.67-3.52 40.94-4.29 35.18-3.69c5.72-.59 11.44-1.17 17.16-1.79h.24c2.73-.28 5.07-.92 7.07-2.93a9.998 9.998 0 000-14.14c-1.83-1.69-4.48-3.2-7.07-2.93l-14.13 1.48-33.67 3.53-41 4.29-35.18 3.68c-5.72.6-11.44 1.18-17.16 1.8h-.24c-2.73.29-5.07.93-7.07 2.93a9.995 9.995 0 00-2.933 7.075 9.995 9.995 0 002.933 7.075c1.83 1.68 4.48 3.2 7.07 2.92l.06-.01z" fill="#111827"/></g></svg>