<svg fill="none" xmlns="http://www.w3.org/2000/svg" viewBox="0 0 1000 990"><mask id="mask0" maskUnits="userSpaceOnUse" x="0" y="0" width="1000" height="966"><path d="M1000 0H0v718.31h179.2c38.38 142.38 167.45 247.1 320.8 247.1 153.35 0 282.42-104.72 320.8-247.1H1000V0z" fill="#fff"/></mask><g mask="url(#mask0)"><path d="M500 962.602c183.603 0 332.442-148.839 332.442-332.442 0-183.602-148.839-332.442-332.442-332.442S167.558 446.558 167.558 630.16c0 183.603 148.839 332.442 332.442 332.442z" fill="#FDE047"/><path d="M610 758.72c90.76 0 72 114.24 72.87 241.28H610V758.72z" fill="#D8985D"/><path d="M632.74 831.87L610 870l11.38 130h31.76c.77-180.27-20.4-168.13-20.4-168.13z" fill="#C6854E"/><path d="M233.25 500c0-147.32 119.43-266.75 266.75-266.75S766.75 352.68 766.75 500a266.213 266.213 0 01-98.65 207.12 264.415 264.415 0 01-16.94 12.69C591 758 515 758 446.39 751.89c-6.66-1-13.3-2.26-19.89-3.71-26.33-5.8-51.82-14.75-75.37-27.8a209.22 209.22 0 01-16.93-11.62 199.912 199.912 0 01-15.8-13.38 266.295 266.295 0 01-13.79-13.78A265.857 265.857 0 01233.25 500z" fill="#D8985D"/><path d="M269.61 634.48c.7 1.2 1.39 2.4 2.11 3.58.43.72.88 1.42 1.33 2.14.66 1.07 1.32 2.14 2 3.19.48.76 1 1.5 1.46 2.24.66 1 1.32 2 2 3 .51.76 1 1.52 1.56 2.28.66 1 1.32 1.92 2 2.88.54.77 1.1 1.53 1.65 2.3.55.77 1.34 1.85 2 2.77.66.92 1.15 1.53 1.73 2.29.58.76 1.37 1.8 2.07 2.7.7.9 1.19 1.51 1.79 2.26.6.75 1.41 1.76 2.12 2.63.71.87 1.23 1.49 1.85 2.23.62.74 1.44 1.72 2.17 2.57.73.85 1.27 1.47 1.91 2.2l2.22 2.5c.65.73 1.31 1.44 2 2.16.86.94 1.73 1.87 2.6 2.79l1.21 1.28c1.29 1.34 2.59 2.68 3.91 4l.26.27c1.29 1.28 2.6 2.55 3.91 3.81l1.58 1.5c.95.89 1.9 1.78 2.86 2.66l1.16 1.06c1 .94 2.09 1.86 3.14 2.78 3.267 2.847 6.6 5.577 10 8.19a206.785 206.785 0 0016.93 11.62c23.55 13 49 22 75.37 27.8 6.59 1.45 13.23 2.7 19.89 3.71 42.1 3.75 87 5.18 129.28-3.08C508.45 729 185.59 612.74 388.8 257.48c-2.72 1.25-5.4 2.54-8.06 3.88l-.59.29c-1.22.61-2.44 1.24-3.65 1.88l-1 .53c-3.76 2-7.48 4.07-11.13 6.23l-.9.53c-1.16.69-2.31 1.39-3.46 2.1l-.87.54a278.453 278.453 0 00-10.55 6.93l-1.08.75c-1.09.76-2.16 1.52-3.23 2.29l-.66.47a340.484 340.484 0 00-6.46 4.84l-.62.48c-1 .78-2 1.58-3 2.39l-1.17.94c-1 .81-2 1.62-3 2.45-2.11 1.75-4.19 3.55-6.24 5.37l-1.14 1-2.69 2.45L318 305a270.065 270.065 0 00-8.37 8.17l-1.38 1.41c-.79.82-1.58 1.64-2.36 2.47-.46.49-.92 1-1.37 1.48a214.59 214.59 0 00-4.06 4.46c-.45.51-.91 1-1.36 1.54-.71.81-1.41 1.63-2.11 2.45l-1.51 1.79c-.68.81-1.36 1.62-2 2.44-.54.66-1.08 1.33-1.61 2-1.07 1.33-2.12 2.66-3.16 4-.54.7-1.08 1.4-1.61 2.11s-1.2 1.59-1.79 2.4c-.59.81-1.07 1.45-1.59 2.18-.52.73-1.13 1.55-1.68 2.33a194.519 194.519 0 00-2.8 4.05c-.5.73-1 1.48-1.49 2.22-.49.74-1.1 1.66-1.64 2.5l-1.49 2.31-1.68 2.71c-.43.69-.86 1.38-1.28 2.07-.89 1.46-1.75 2.93-2.61 4.4l-1.22 2.16c-.54.95-1.08 1.91-1.61 2.87-.4.73-.8 1.46-1.19 2.19-.64 1.19-1.27 2.39-1.9 3.59l-1.2 2.34c-.64 1.28-1.28 2.55-1.91 3.84-.33.69-.67 1.39-1 2.09-.52 1.09-1 2.19-1.53 3.29-.31.66-.61 1.32-.91 2a214.37 214.37 0 00-2.17 5c-.22.52-.43 1.05-.65 1.57-.53 1.27-1.05 2.54-1.56 3.82-.27.67-.53 1.34-.79 2-.5 1.26-1 2.53-1.45 3.8-.21.55-.42 1.1-.62 1.65a549.286 549.286 0 00-1.85 5.26l-.56 1.7c-.44 1.333-.87 2.667-1.29 4l-.6 1.91c-.47 1.54-.93 3.08-1.37 4.63-.1.33-.2.66-.29 1-.52 1.84-1.02 3.687-1.5 5.54-.16.59-.3 1.19-.45 1.78-.35 1.39-.69 2.78-1 4.18l-.42 1.75c-.43 1.9-.85 3.8-1.24 5.71l-.15.77c-.34 1.7-.673 3.4-1 5.1-.11.61-.21 1.21-.32 1.82-.26 1.49-.51 3-.74 4.5-.08.51-.17 1-.24 1.52-.3 1.95-.57 3.91-.83 5.88l-.15 1.3c-.2 1.59-.38 3.19-.55 4.79-.06.6-.13 1.2-.19 1.81-.16 1.68-.31 3.37-.45 5.06 0 .35-.06.69-.08 1-.147 2-.277 4.017-.39 6.05 0 .53 0 1.07-.07 1.6a538.167 538.167 0 00-.18 4.71v1.77c0 2.05-.08 4.11-.08 6.17v.1c0 2.22 0 4.42.08 6.62 0 .76.06 1.52.08 2.28.05 1.47.1 2.94.17 4.41 0 .89.11 1.77.16 2.66.08 1.33.15 2.66.25 4 .07 1 .16 1.89.24 2.83.11 1.26.21 2.52.34 3.77.09 1 .21 1.94.31 2.91.14 1.21.27 2.43.42 3.64.12 1 .26 2 .39 2.95.16 1.18.32 2.37.5 3.55.15 1 .31 2 .47 3 .18 1.16.37 2.33.57 3.49.18 1 .36 2 .55 3 .21 1.15.43 2.3.65 3.44.22 1.14.41 2 .62 3 .24 1.14.48 2.27.74 3.4s.44 2 .68 2.93c.26 1.13.54 2.25.82 3.36.28 1.11.49 1.95.74 2.91.3 1.12.6 2.23.91 3.34.26 1 .53 1.92.81 2.87.32 1.11.65 2.21 1 3.31s.58 1.89.88 2.84a281.772 281.772 0 002 6.08c.38 1.09.76 2.18 1.15 3.27.33.91.65 1.83 1 2.74l1.24 3.27c.35.89.69 1.79 1 2.68.44 1.09.89 2.19 1.34 3.28.36.86.71 1.73 1.08 2.59.47 1.12 1 2.22 1.45 3.33.37.82.73 1.65 1.1 2.47.52 1.16 1.07 2.3 1.6 3.44l1.08 2.3c.61 1.26 1.24 2.5 1.87 3.75.32.63.62 1.27.95 1.9 1.92 3.74 3.92 7.43 6 11.07.29.47.66 1.08 1.02 1.69z" fill="#C6854E"/><path d="M233.25 500c0-147.32 119.43-266.75 266.75-266.75S766.75 352.68 766.75 500a266.213 266.213 0 01-98.65 207.12 264.415 264.415 0 01-16.94 12.69C591 758 515 758 446.39 751.89c-6.66-1-13.3-2.26-19.89-3.71-26.33-5.8-51.82-14.75-75.37-27.8a209.22 209.22 0 01-16.93-11.62 199.912 199.912 0 01-15.8-13.38 266.295 266.295 0 01-13.79-13.78A265.857 265.857 0 01233.25 500v0z" stroke="#111827" stroke-width="12" stroke-miterlimit="10"/><path d="M386.12 758.72c-90.77 0-72 114.24-72.87 241.28h72.87V758.72z" fill="#D8985D"/><path d="M367.23 831.87L390 870l-11.39 130h-31.73c-.81-180.27 20.35-168.13 20.35-168.13z" fill="#C6854E"/><path d="M619.47 1070H380.53c-3.52 0-6.895-1.4-9.384-3.89a13.289 13.289 0 01-3.886-9.39V772a13.28 13.28 0 0113.27-13.28h233.23c13.09 0 19 7.66 19 19.88v278.08c.006 1.75-.334 3.48-1 5.1a13.364 13.364 0 01-2.879 4.32 13.246 13.246 0 01-9.411 3.9z" fill="#D8985D"/><path d="M629.05 766.62a19.333 19.333 0 01-2.51-4 17.251 17.251 0 00-8.28-3.51 28.97 28.97 0 00-4.5-.34H380.53A13.28 13.28 0 00367.26 772c29 10.42 83.29 16.24 132.74 16.24 63.06 0 104.38-9.35 129.05-21.62z" fill="#C6854E"/><path d="M610 758.72c90.76 0 72 114.24 72.87 241.28h-50.13M386.12 758.72c-90.77 0-72 114.24-72.87 241.28h50.07" stroke="#111827" stroke-width="12" stroke-miterlimit="10" stroke-linecap="square"/><path d="M380.53 758.82l233.23-.1" stroke="#111827" stroke-width="12" stroke-miterlimit="10"/><path d="M380.53 1070h116.62C388 1070 396.24 838.82 367.26 838.82v217.86c-.005 1.75.334 3.48.999 5.09a13.153 13.153 0 002.873 4.32 13.231 13.231 0 004.31 2.89c1.613.67 3.342 1.02 5.088 1.02z" fill="#C6854E"/><path d="M361.26 860.85c-.19-3.67-.11-7.34.05-11s.47-7.35.86-11c.2-1.84.4-3.67.65-5.51.25-1.84.49-3.67.85-5.51a44.169 44.169 0 013.59-11 44.169 44.169 0 013.59 11c.36 1.84.62 3.67.85 5.51.23 1.84.45 3.67.65 5.51.38 3.67.68 7.34.85 11 .17 3.66.25 7.34.06 11h-12z" fill="#111827"/><path d="M632.74 870v8c.26 34 .26 69 0 102.75v75.94c.004 1.75-.336 3.48-1.001 5.09a13.382 13.382 0 01-2.874 4.32 13.369 13.369 0 01-4.309 2.88c-1.612.67-3.34 1.02-5.086 1.02H380.53c-3.52 0-6.895-1.4-9.384-3.89a13.289 13.289 0 01-3.886-9.39v-58.2-7.65c-.25-34.87-.25-69.87 0-105.3v-24.72" stroke="#111827" stroke-width="12" stroke-miterlimit="10"/><path d="M626.74 870c-.19-4.17-.1-8.35.06-12.53s.47-8.35.85-12.53c.2-2.09.41-4.18.65-6.27.24-2.09.49-4.17.85-6.26a55.126 55.126 0 013.59-12.53 55.126 55.126 0 013.59 12.53c.36 2.09.62 4.18.85 6.26.23 2.08.45 4.18.65 6.27.38 4.18.69 8.35.85 12.53.16 4.18.25 8.36.06 12.53h-12zM570.68 842.45C570.9 833 582.9 829 588.9 835a10.608 10.608 0 01-3.621 17.269 10.597 10.597 0 01-8.12-.083 10.626 10.626 0 01-3.419-2.336 10.4 10.4 0 01-3.06-7.4zM408.11 842.15C407.9 834 416.9 830 422.9 833c8 3 8 14 0 19-4 2-8 0-11.75-2.48a10.395 10.395 0 01-3.04-7.37z" fill="#111827"/><path d="M500 831.77a27.195 27.195 0 011.5 5.84c.297 1.933.461 3.884.49 5.84l.3 11.69c.09 3.89.21 7.79.25 11.69l.17 11.67c.23 15.57.22 31.16.28 46.74.06 15.58.18 31.16 0 46.74-.09 7.79-.3 15.58-.53 23.37-.1 3.89-.29 7.79-.67 11.68a92.3 92.3 0 01-1.77 11.69 92.3 92.3 0 01-1.77-11.69c-.38-3.89-.57-7.79-.67-11.68-.23-7.79-.44-15.58-.53-23.37-.2-15.58 0-31.16 0-46.74 0-15.58 0-31.15.18-46.73l.17-11.7.33-11.68.33-11.68c.037-1.956.204-3.907.5-5.84a27.122 27.122 0 011.44-5.84z" fill="#C6854E"/><path d="M425.22 883a18.524 18.524 0 014.67-1.5 29.778 29.778 0 014.68-.5l9.35-.33 18.7-.41c12.46-.19 24.91-.24 37.38-.27 12.47-.03 24.93-.16 37.39 0 6.23.09 12.46.3 18.7.53 3.11.11 6.23.3 9.34.67 3.158.35 6.284.945 9.35 1.78a59.177 59.177 0 01-9.35 1.77c-3.11.38-6.23.57-9.34.67-6.24.23-12.47.43-18.7.52-12.46.19-24.92 0-37.39 0-12.47 0-24.93 0-37.4-.15-6.23-.06-12.46-.26-18.68-.5l-9.35-.34a29.534 29.534 0 01-4.67-.5 18.444 18.444 0 01-4.68-1.44zM442.41 914.38a12.516 12.516 0 013.74-1.11 18.413 18.413 0 013.62-.15c2.39.1 4.78.16 7.17.21 4.78.11 9.56.15 14.34.17 9.63 0 19.09.08 28.76-.21 9.67-.29 19.26-.43 28.88-.39 4.81 0 9.62.13 14.42.24 2.417.033 4.83.19 7.23.47 2.467.273 4.902.785 7.27 1.53a36.509 36.509 0 01-7.16 2c-2.384.43-4.792.717-7.21.86-4.82.35-9.64.65-14.45.82-9.64.36-19.27.32-28.88.45-4.81 0-9.61.22-14.48.1-4.87-.12-9.69-.13-14.52-.31s-9.68-.58-14.5-1.08c-2.42-.27-4.82-.57-7.23-.9a16.778 16.778 0 01-3.57-.84 11.493 11.493 0 01-3.43-1.86zM438.93 949.87a13.09 13.09 0 013.82-1.5 19.067 19.067 0 013.82-.49l7.63-.32c5.09-.18 10.19-.33 15.28-.41 10.18-.15 20.36-.15 30.52-.15s20.36-.17 30.54 0c5.09.09 10.18.3 15.27.53 2.553.086 5.1.306 7.63.66 2.605.357 5.17.963 7.66 1.81a41.239 41.239 0 01-7.63 1.77 70.295 70.295 0 01-7.64.67c-5.09.23-10.18.44-15.27.53-10.18.2-20.37.06-30.55 0s-20.36-.06-30.54-.25c-5.09-.1-10.19-.28-15.28-.49l-7.63-.37a19.364 19.364 0 01-3.82-.5 12.85 12.85 0 01-3.81-1.49zM680.7 905.78c.2-37.1-1.21-70.07-7.74-95.39-10.08-25.35-28.18-40.47-60.12-40.47l22.85 134.47s22.51 10.29 45.01 1.39z" fill="#C6854E"/><path d="M689.3 895.23a20.27 20.27 0 01-3.69 2.42" stroke="#111827" stroke-width="12" stroke-miterlimit="10" stroke-linecap="square"/><path d="M329 809.32c-6.82 25.57-8 59.13-7.74 97 19.9 8.55 50.43-2.15 50.43-2.15L389 771.89c-30.86 0-49.26 13.9-60 37.43z" fill="#C6854E"/><path d="M616.66 758.16l-38.44.1c0 53.72-75.33 111.14-75.33 111.14s-80.8-60.58-80.8-111.14l-38.66-.1a13.282 13.282 0 00-13.28 13.27v284.69a13.26 13.26 0 003.893 9.38 13.277 13.277 0 009.387 3.89h238.93c3.519 0 6.895-1.4 9.383-3.89a13.262 13.262 0 003.887-9.38V778c0-12.18-5.88-19.84-18.97-19.84z" fill="#633749"/><path d="M612.84 758.16c63.54 0 73.4 56 73.9 133.16-18.59 11.62-48.91 1.32-48.91 1.32l-24.99-134.48z" fill="#633749"/><path d="M635.63 831.31l-22.79 38.09 11.39 130h11.6V893.78l17.28 2.89c-5.62-72.17-17.48-65.36-17.48-65.36z" fill="#5E3244"/><path d="M389 758.16c-61.78 0-75.82 53.79-76.85 127.66 19 19.85 57.95 4.58 57.95 4.58L389 758.16z" fill="#633749"/><path d="M370.12 831.31v59.09l-17.31 4.3c5.67-70.07 17.31-63.39 17.31-63.39z" fill="#5E3244"/><path d="M612.84 758.16c67.42 0 78.45 56.28 78.9 133.78-26.2 12.42-53.91.7-53.91.7M389 758.16c-66.79 0-80.08 54.69-80.75 130.71 20.59 14.79 61.85 1.53 61.85 1.53" stroke="#111827" stroke-width="12" stroke-miterlimit="10" stroke-linecap="square"/><path d="M383.43 1069.39H500c-109.19 0-100.91-231.14-129.89-231.14v217.87a13.268 13.268 0 008.228 12.27c1.615.67 3.345 1.01 5.092 1z" fill="#5E3244"/><path d="M364.15 860.29c-.19-3.67-.11-7.35.06-11 .17-3.65.47-7.34.85-11 .2-1.83.41-3.67.65-5.51.24-1.84.49-3.67.85-5.5a44.074 44.074 0 013.59-11 44.074 44.074 0 013.59 11c.36 1.83.62 3.67.85 5.5.23 1.83.45 3.68.65 5.51.387 3.68.673 7.347.86 11 .16 3.67.24 7.35 0 11h-11.95z" fill="#111827"/><path d="M635.63 869.4v8c.26 34 .26 69 0 102.76v75.94c0 3.52-1.398 6.89-3.887 9.38a13.266 13.266 0 01-9.383 3.89H383.43c-3.52 0-6.897-1.4-9.387-3.89a13.26 13.26 0 01-3.893-9.38v-65.8c-.26-34.86-.26-69.86 0-105.3v-24.71" stroke="#111827" stroke-width="12" stroke-miterlimit="10"/><path d="M629.63 869.4c-.19-4.18-.1-8.36.06-12.53s.47-8.36.86-12.53c.2-2.09.4-4.18.64-6.27s.49-4.18.86-6.27a54.849 54.849 0 013.58-12.53 54.364 54.364 0 013.59 12.53c.36 2.09.63 4.18.85 6.27.22 2.09.45 4.18.65 6.27.39 4.17.69 8.35.85 12.53.16 4.18.26 8.35.06 12.53h-12z" fill="#111827"/><path d="M383.43 758.26l233.23-.1" stroke="#111827" stroke-width="12" stroke-miterlimit="10"/><path d="M310.72 891.94a24.854 24.854 0 003.68 2.76" stroke="#111827" stroke-width="12" stroke-miterlimit="10" stroke-linecap="square"/><path d="M677.59 882.13a20.244 20.244 0 01-6.75 2.52 34.952 34.952 0 01-7.21.64 39.902 39.902 0 01-7.17-.78c-1.18-.22-2.34-.57-3.49-.87-1.15-.3-2.28-.78-3.38-1.24 1.21 0 2.39.17 3.56.27l3.52.29c1.17 0 2.33.2 3.5.21 1.17.01 2.33.11 3.49.12 2.32.05 4.64 0 7-.18a50.879 50.879 0 006.93-.98z" fill="#111827"/><path d="M578.22 758.26c0 53.72-75.33 111.14-75.33 111.14s-80.8-60.58-80.8-111.14" stroke="#111827" stroke-width="12" stroke-miterlimit="10"/><path d="M296.49 572.61v-12.93a49.604 49.604 0 011.94-25.32 46.028 46.028 0 013.51-7.65C305.29 518 314.29 511 323.29 508c14-4 31-2 42 9 14 15 12 37 12.45 55.62M623.31 573c-2.34-26.62 1.66-63.62 36.13-67.17a44.945 44.945 0 018.12 0 43.68 43.68 0 0122.44 8.58c18 15 14 39 13.95 58.63" stroke="#111827" stroke-width="12" stroke-miterlimit="10" stroke-linecap="round"/><path d="M443.14 621.86c0-18.9 113.72-16.06 113.72 0A56.857 56.857 0 01500 678.72a56.857 56.857 0 01-56.86-56.86z" fill="#111827"/><path d="M495 643c-16.95-1-31.73 6.75-36.65 18.22a56.863 56.863 0 0065.14 12.53 55.478 55.478 0 006.51-3.55c-.92-14.11-15.94-26.02-35-27.2z" fill="#F28195"/><path d="M443.14 621.86c0-18.9 113.72-16.06 113.72 0A56.857 56.857 0 01500 678.72a56.857 56.857 0 01-56.86-56.86v0z" stroke="#111827" stroke-width="6" stroke-miterlimit="10"/><path d="M478.12 632.46c.45-.11.63-.16.92-.21l.75-.14c.49-.09 1-.14 1.46-.18.96-.098 1.926-.132 2.89-.1 1.955.042 3.898.314 5.79.81a21.396 21.396 0 0110.35 6.1 20.177 20.177 0 015.08 10.16c.625 3.507.15 7.123-1.36 10.35-2.07-2.93-3.66-5.56-5.32-7.76a28.294 28.294 0 00-2.45-3 14.02 14.02 0 00-2.7-2.16 15.464 15.464 0 00-6.11-2.09A29.401 29.401 0 00484 644c-.59 0-1.18 0-1.76.05l-.85.06h-.62l-2.65-11.65z" fill="#111827"/><path d="M558.73 399.34c-12.86 24-60 37.44-63.83 31.42-4.29-6.73 37.85-55.32 13.9-106.14" fill="#C6854E"/><path d="M784 342.85c-5.1-5.1-31.06 1.83-57.19-.23a280.995 280.995 0 00-221.18-114.34c-2.44-20.48-.75-37.68-2.61-40.1-2.49-3.22-15.49 12.68-18.87 31-11.91-15-32.14-23-32.72-18.8-.38 2.68 7.44 14.09 14.81 29.9-111.6 13.47-203.08 92.26-235.08 197-13.86 11.92-26.86 20.34-27 25.69-.27 9.92 39.31 9.36 56.58 7.82v-.06c60.65-2 179-13.78 236.42-72.89-5.52 19.09-15.69 33.16-13.73 36.16 3 4.67 38.32-5.19 50.07-23.24 48 19.59 139.49 43.16 219-16.16l-.22-.43c14.49-12.11 38.07-34.92 31.72-41.32z" fill="#111827"/><path d="M726.85 348.62c-5.4.24-10.66.11-16-.14s-10.59-.67-15.87-1.26c-2.64-.29-5.28-.6-7.91-1s-5.27-.72-7.89-1.23a76.969 76.969 0 01-15.58-4.54 91.882 91.882 0 0116-2.62c2.63-.22 5.26-.37 7.89-.48l7.88-.34c5.25-.22 10.49-.34 15.72-.45 5.23-.11 10.48-.12 15.62 0l.14 12.06zM236.6 430v.39l-.12.53-.28 1.11c-.21.75-.43 1.52-.66 2.29-.47 1.55-1 3.14-1.54 4.75-.54 1.61-1.06 3.28-1.77 5a20.526 20.526 0 01-1.38 2.6 17.868 17.868 0 01-2.07 2.77 13.136 13.136 0 01-3.72-5.47 16.139 16.139 0 01-.76-2.9c-.21-1-.31-2-.43-2.95-.2-1.995-.2-4.005 0-6a24.52 24.52 0 01.48-3c.12-.5.25-1 .41-1.51.077-.261.167-.518.27-.77.1-.28.18-.48.36-.9L236.6 430z" fill="#111827"/><path d="M260.74 460.82v-.06c17-.56 38.63-1.9 62.14-4.84 2.63-55.92 22-121.58 65.92-198.44l-6.8-3.25a282.162 282.162 0 00-150.84 173.08c-13.86 11.92-26.86 20.34-27 25.69-.27 9.92 39.31 9.36 56.58 7.82z" fill="#111827"/><path d="M784 342.85c-5.1-5.1-31.06 1.83-57.19-.23a280.995 280.995 0 00-221.18-114.34c-2.44-20.48-.75-37.68-2.61-40.1-2.49-3.22-15.49 12.68-18.87 31-11.91-15-32.14-23-32.72-18.8-.38 2.68 7.44 14.09 14.81 29.9-111.6 13.47-203.08 92.26-235.08 197-13.86 11.92-26.86 20.34-27 25.69-.27 9.92 39.31 9.36 56.58 7.82v-.06c60.65-2 179-13.78 236.42-72.89-5.52 19.09-15.69 33.16-13.73 36.16 3 4.67 38.32-5.19 50.07-23.24 48 19.59 139.49 43.16 219-16.16l-.22-.43c14.49-12.11 38.07-34.92 31.72-41.32z" stroke="#111827" stroke-width="12" stroke-miterlimit="10"/><path d="M505.93 244.31a367.32 367.32 0 00-42.48 4.94c-3.48.67-6.95 1.41-10.44 2.05-3.49.64-6.9 1.61-10.35 2.41l-10.26 2.72c-3.4 1-6.77 2.08-10.15 3.12a314.038 314.038 0 00-39.43 15.73 348.298 348.298 0 00-37.25 21 183.903 183.903 0 0135.08-25.14 219.215 219.215 0 0139.76-17.29c3.48-1 6.94-2.09 10.42-3.05 3.48-.96 7-1.82 10.55-2.6 3.55-.78 7.1-1.4 10.66-2 3.56-.6 7.15-1.07 10.73-1.52a189.93 189.93 0 0143.16-.37z" fill="#fff"/><path d="M255.06 519.62l13-4.4 31.2-10.54 37.6-12.7 32.49-11c5.27-1.78 10.55-3.51 15.8-5.34l.23-.07a10.607 10.607 0 006-4.6 10.003 10.003 0 00-3.58-13.68 10.005 10.005 0 00-7.71-1l-13 4.39-31.2 10.54-37.6 12.71-32.49 11c-5.27 1.78-10.55 3.52-15.8 5.34l-.23.08a10.603 10.603 0 00-6 4.6 10.001 10.001 0 003.58 13.68 10.005 10.005 0 007.71 1v-.01zM617.56 475l12.73 5.13 30.54 12.31 36.81 14.84 31.81 12.83c5.15 2.07 10.26 4.3 15.47 6.24l.22.08c2.25.91 5.71.16 7.71-1a9.996 9.996 0 003.58-13.69l-1.56-2a9.997 9.997 0 00-4.41-2.57L737.73 502l-30.54-12.32-36.81-14.84L638.57 462c-5.15-2.08-10.26-4.31-15.47-6.24l-.22-.09c-2.25-.91-5.71-.16-7.71 1a10.001 10.001 0 00-3.58 13.68l1.56 2a10.076 10.076 0 004.41 2.58v.07z" fill="#111827"/></g></svg>