<svg fill="none" xmlns="http://www.w3.org/2000/svg" viewBox="0 0 1000 990"><mask id="mask0" maskUnits="userSpaceOnUse" x="0" y="0" width="1000" height="966"><path d="M1000 0H0v718.31h179.2c38.38 142.38 167.45 247.1 320.8 247.1 153.35 0 282.42-104.72 320.8-247.1H1000V0z" fill="#fff"/></mask><g mask="url(#mask0)"><path d="M500 962.602c183.603 0 332.442-148.839 332.442-332.442 0-183.602-148.839-332.442-332.442-332.442S167.558 446.558 167.558 630.16c0 183.603 148.839 332.442 332.442 332.442z" fill="#FDE047"/><path d="M610 758.72c90.76 0 72 114.24 72.87 241.28H610V758.72z" fill="#CC734C"/><path d="M632.74 831.87L610 870l11.38 130h31.76c.77-180.27-20.4-168.13-20.4-168.13z" fill="#B56241"/><path d="M233.25 500c0-147.32 119.43-266.75 266.75-266.75S766.75 352.68 766.75 500a266.213 266.213 0 01-98.65 207.12 264.415 264.415 0 01-16.94 12.69C591 758 515 758 446.39 751.89c-6.66-1-13.3-2.26-19.89-3.71-26.33-5.8-51.82-14.75-75.37-27.8a209.22 209.22 0 01-16.93-11.62 199.912 199.912 0 01-15.8-13.38 266.295 266.295 0 01-13.79-13.78A265.857 265.857 0 01233.25 500z" fill="#CC734C"/><path d="M269.61 634.48c.7 1.2 1.39 2.4 2.11 3.58.43.72.88 1.42 1.33 2.14.66 1.07 1.32 2.14 2 3.19.48.76 1 1.5 1.46 2.24.66 1 1.32 2 2 3 .51.76 1 1.52 1.56 2.28.66 1 1.32 1.92 2 2.88.54.77 1.1 1.53 1.65 2.3.55.77 1.34 1.85 2 2.77.66.92 1.15 1.53 1.73 2.29.58.76 1.37 1.8 2.07 2.7.7.9 1.19 1.51 1.79 2.26.6.75 1.41 1.76 2.12 2.63.71.87 1.23 1.49 1.85 2.23.62.74 1.44 1.72 2.17 2.57.73.85 1.27 1.47 1.91 2.2l2.22 2.5c.65.73 1.31 1.44 2 2.16.86.94 1.73 1.87 2.6 2.79l1.21 1.28c1.29 1.34 2.59 2.68 3.91 4l.26.27c1.29 1.28 2.6 2.55 3.91 3.81l1.58 1.5c.95.89 1.9 1.78 2.86 2.66l1.16 1.06c1 .94 2.09 1.86 3.14 2.78 3.267 2.847 6.6 5.577 10 8.19a206.785 206.785 0 0016.93 11.62c23.55 13 49 22 75.37 27.8 6.59 1.45 13.23 2.7 19.89 3.71 42.1 3.75 87 5.18 129.28-3.08C508.45 729 185.59 612.74 388.8 257.48c-2.72 1.25-5.4 2.54-8.06 3.88l-.59.29c-1.22.61-2.44 1.24-3.65 1.88l-1 .53c-3.76 2-7.48 4.07-11.13 6.23l-.9.53c-1.16.69-2.31 1.39-3.46 2.1l-.87.54a278.453 278.453 0 00-10.55 6.93l-1.08.75c-1.09.76-2.16 1.52-3.23 2.29l-.66.47a340.484 340.484 0 00-6.46 4.84l-.62.48c-1 .78-2 1.58-3 2.39l-1.17.94c-1 .81-2 1.62-3 2.45-2.11 1.75-4.19 3.55-6.24 5.37l-1.14 1-2.69 2.45L318 305a270.065 270.065 0 00-8.37 8.17l-1.38 1.41c-.79.82-1.58 1.64-2.36 2.47-.46.49-.92 1-1.37 1.48a214.59 214.59 0 00-4.06 4.46c-.45.51-.91 1-1.36 1.54-.71.81-1.41 1.63-2.11 2.45l-1.51 1.79c-.68.81-1.36 1.62-2 2.44-.54.66-1.08 1.33-1.61 2-1.07 1.33-2.12 2.66-3.16 4-.54.7-1.08 1.4-1.61 2.11s-1.2 1.59-1.79 2.4c-.59.81-1.07 1.45-1.59 2.18-.52.73-1.13 1.55-1.68 2.33a194.519 194.519 0 00-2.8 4.05c-.5.73-1 1.48-1.49 2.22-.49.74-1.1 1.66-1.64 2.5l-1.49 2.31-1.68 2.71c-.43.69-.86 1.38-1.28 2.07-.89 1.46-1.75 2.93-2.61 4.4l-1.22 2.16c-.54.95-1.08 1.91-1.61 2.87-.4.73-.8 1.46-1.19 2.19-.64 1.19-1.27 2.39-1.9 3.59l-1.2 2.34c-.64 1.28-1.28 2.55-1.91 3.84-.33.69-.67 1.39-1 2.09-.52 1.09-1 2.19-1.53 3.29-.31.66-.61 1.32-.91 2a214.37 214.37 0 00-2.17 5c-.22.52-.43 1.05-.65 1.57-.53 1.27-1.05 2.54-1.56 3.82-.27.67-.53 1.34-.79 2-.5 1.26-1 2.53-1.45 3.8-.21.55-.42 1.1-.62 1.65a549.286 549.286 0 00-1.85 5.26l-.56 1.7c-.44 1.333-.87 2.667-1.29 4l-.6 1.91c-.47 1.54-.93 3.08-1.37 4.63-.1.33-.2.66-.29 1-.52 1.84-1.02 3.687-1.5 5.54-.16.59-.3 1.19-.45 1.78-.35 1.39-.69 2.78-1 4.18l-.42 1.75c-.43 1.9-.85 3.8-1.24 5.71l-.15.77c-.34 1.7-.673 3.4-1 5.1-.11.61-.21 1.21-.32 1.82-.26 1.49-.51 3-.74 4.5-.08.51-.17 1-.24 1.52-.3 1.95-.57 3.91-.83 5.88l-.15 1.3c-.2 1.59-.38 3.19-.55 4.79-.06.6-.13 1.2-.19 1.81-.16 1.68-.31 3.37-.45 5.06 0 .35-.06.69-.08 1-.147 2-.277 4.017-.39 6.05 0 .53 0 1.07-.07 1.6a538.167 538.167 0 00-.18 4.71v1.77c0 2.05-.08 4.11-.08 6.17v.1c0 2.22 0 4.42.08 6.62 0 .76.06 1.52.08 2.28.05 1.47.1 2.94.17 4.41 0 .89.11 1.77.16 2.66.08 1.33.15 2.66.25 4 .07 1 .16 1.89.24 2.83.11 1.26.21 2.52.34 3.77.09 1 .21 1.94.31 2.91.14 1.21.27 2.43.42 3.64.12 1 .26 2 .39 2.95.16 1.18.32 2.37.5 3.55.15 1 .31 2 .47 3 .18 1.16.37 2.33.57 3.49.18 1 .36 2 .55 3 .21 1.15.43 2.3.65 3.44.22 1.14.41 2 .62 3 .24 1.14.48 2.27.74 3.4s.44 2 .68 2.93c.26 1.13.54 2.25.82 3.36.28 1.11.49 1.95.74 2.91.3 1.12.6 2.23.91 3.34.26 1 .53 1.92.81 2.87.32 1.11.65 2.21 1 3.31s.58 1.89.88 2.84a281.772 281.772 0 002 6.08c.38 1.09.76 2.18 1.15 3.27.33.91.65 1.83 1 2.74l1.24 3.27c.35.89.69 1.79 1 2.68.44 1.09.89 2.19 1.34 3.28.36.86.71 1.73 1.08 2.59.47 1.12 1 2.22 1.45 3.33.37.82.73 1.65 1.1 2.47.52 1.16 1.07 2.3 1.6 3.44l1.08 2.3c.61 1.26 1.24 2.5 1.87 3.75.32.63.62 1.27.95 1.9 1.92 3.74 3.92 7.43 6 11.07.29.47.66 1.08 1.02 1.69z" fill="#B56241"/><path d="M233.25 500c0-147.32 119.43-266.75 266.75-266.75S766.75 352.68 766.75 500a266.213 266.213 0 01-98.65 207.12 264.415 264.415 0 01-16.94 12.69C591 758 515 758 446.39 751.89c-6.66-1-13.3-2.26-19.89-3.71-26.33-5.8-51.82-14.75-75.37-27.8a209.22 209.22 0 01-16.93-11.62 199.912 199.912 0 01-15.8-13.38 266.295 266.295 0 01-13.79-13.78A265.857 265.857 0 01233.25 500v0z" stroke="#111827" stroke-width="12" stroke-miterlimit="10"/><path d="M386.12 758.72c-90.77 0-72 114.24-72.87 241.28h72.87V758.72z" fill="#CC734C"/><path d="M367.23 831.87L390 870l-11.39 130h-31.73c-.81-180.27 20.35-168.13 20.35-168.13z" fill="#B56241"/><path d="M619.47 1070H380.53c-3.521 0-6.896-1.4-9.384-3.89a13.289 13.289 0 01-3.886-9.39V772a13.28 13.28 0 0113.27-13.28h233.23c13.09 0 19 7.66 19 19.88v278.08c.005 1.75-.335 3.48-1.001 5.1a13.345 13.345 0 01-2.878 4.32 13.26 13.26 0 01-9.411 3.9z" fill="#CC734C"/><path d="M629.05 766.62a19.333 19.333 0 01-2.51-4 17.251 17.251 0 00-8.28-3.51 28.979 28.979 0 00-4.5-.34H380.53A13.28 13.28 0 00367.26 772c29 10.42 83.29 16.24 132.74 16.24 63.06 0 104.38-9.35 129.05-21.62z" fill="#B56241"/><path d="M610 758.72c90.76 0 72 114.24 72.87 241.28h-50.13M386.12 758.72c-90.77 0-72 114.24-72.87 241.28h50.07" stroke="#111827" stroke-width="12" stroke-miterlimit="10" stroke-linecap="square"/><path d="M380.53 758.82l233.23-.1" stroke="#111827" stroke-width="12" stroke-miterlimit="10"/><path d="M380.53 1070h116.62C388 1070 396.24 838.82 367.26 838.82v217.86a13.25 13.25 0 00.998 5.09 13.155 13.155 0 002.874 4.32 13.22 13.22 0 004.31 2.89c1.612.67 3.341 1.02 5.088 1.02z" fill="#B56241"/><path d="M361.26 860.85c-.19-3.67-.11-7.34.05-11s.47-7.35.86-11c.2-1.84.4-3.67.65-5.51.25-1.84.49-3.67.85-5.51a44.169 44.169 0 013.59-11 44.169 44.169 0 013.59 11c.36 1.84.62 3.67.85 5.51.23 1.84.45 3.67.65 5.51.38 3.67.68 7.34.85 11 .17 3.66.25 7.34.06 11h-12z" fill="#111827"/><path d="M632.74 870v8c.26 34 .26 69 0 102.75v75.94c.004 1.75-.337 3.48-1.002 5.09a13.366 13.366 0 01-2.874 4.32 13.354 13.354 0 01-4.308 2.88 13.259 13.259 0 01-5.086 1.02H380.53c-3.521 0-6.896-1.4-9.384-3.89a13.289 13.289 0 01-3.886-9.39v-58.2-7.65c-.25-34.87-.25-69.87 0-105.3v-24.72" stroke="#111827" stroke-width="12" stroke-miterlimit="10"/><path d="M626.74 870c-.19-4.17-.1-8.35.06-12.53s.47-8.35.85-12.53c.2-2.09.41-4.18.65-6.27.24-2.09.49-4.17.85-6.26a55.126 55.126 0 013.59-12.53 55.126 55.126 0 013.59 12.53c.36 2.09.62 4.18.85 6.26.23 2.08.45 4.18.65 6.27.38 4.18.69 8.35.85 12.53.16 4.18.25 8.36.06 12.53h-12zM570.68 842.45C570.9 833 582.9 829 588.9 835a10.606 10.606 0 013.03 7.535 10.616 10.616 0 01-6.651 9.734 10.602 10.602 0 01-8.121-.083 10.622 10.622 0 01-3.418-2.336 10.385 10.385 0 01-3.06-7.4zM408.11 842.15C407.9 834 416.9 830 422.9 833c8 3 8 14 0 19-4 2-8 0-11.75-2.48a10.395 10.395 0 01-3.04-7.37z" fill="#111827"/><path d="M500 831.77a27.195 27.195 0 011.5 5.84c.297 1.933.461 3.884.49 5.84l.3 11.69c.09 3.89.21 7.79.25 11.69l.17 11.67c.23 15.57.22 31.16.28 46.74.06 15.58.18 31.16 0 46.74-.09 7.79-.3 15.58-.53 23.37-.1 3.89-.29 7.79-.67 11.68a92.3 92.3 0 01-1.77 11.69 92.3 92.3 0 01-1.77-11.69c-.38-3.89-.57-7.79-.67-11.68-.23-7.79-.44-15.58-.53-23.37-.2-15.58 0-31.16 0-46.74 0-15.58 0-31.15.18-46.73l.17-11.7.33-11.68.33-11.68c.037-1.956.204-3.907.5-5.84a27.122 27.122 0 011.44-5.84z" fill="#B56241"/><path d="M425.22 883a18.524 18.524 0 014.67-1.5 29.778 29.778 0 014.68-.5l9.35-.33 18.7-.41c12.46-.19 24.91-.24 37.38-.27 12.47-.03 24.93-.16 37.39 0 6.23.09 12.46.3 18.7.53 3.11.11 6.23.3 9.34.67 3.158.35 6.284.945 9.35 1.78a59.177 59.177 0 01-9.35 1.77c-3.11.38-6.23.57-9.34.67-6.24.23-12.47.43-18.7.52-12.46.19-24.92 0-37.39 0-12.47 0-24.93 0-37.4-.15-6.23-.06-12.46-.26-18.68-.5l-9.35-.34a29.534 29.534 0 01-4.67-.5 18.444 18.444 0 01-4.68-1.44zM442.41 914.38a12.516 12.516 0 013.74-1.11 18.413 18.413 0 013.62-.15c2.39.1 4.78.16 7.17.21 4.78.11 9.56.15 14.34.17 9.63 0 19.09.08 28.76-.21 9.67-.29 19.26-.43 28.88-.39 4.81 0 9.62.13 14.42.24 2.417.033 4.83.19 7.23.47 2.467.273 4.902.785 7.27 1.53a36.509 36.509 0 01-7.16 2c-2.384.43-4.792.717-7.21.86-4.82.35-9.64.65-14.45.82-9.64.36-19.27.32-28.88.45-4.81 0-9.61.22-14.48.1-4.87-.12-9.69-.13-14.52-.31s-9.68-.58-14.5-1.08c-2.42-.27-4.82-.57-7.23-.9a16.778 16.778 0 01-3.57-.84 11.493 11.493 0 01-3.43-1.86zM438.93 949.87a13.09 13.09 0 013.82-1.5 19.067 19.067 0 013.82-.49l7.63-.32c5.09-.18 10.19-.33 15.28-.41 10.18-.15 20.36-.15 30.52-.15s20.36-.17 30.54 0c5.09.09 10.18.3 15.27.53 2.553.086 5.1.306 7.63.66 2.605.357 5.17.963 7.66 1.81a41.239 41.239 0 01-7.63 1.77 70.295 70.295 0 01-7.64.67c-5.09.23-10.18.44-15.27.53-10.18.2-20.37.06-30.55 0s-20.36-.06-30.54-.25c-5.09-.1-10.19-.28-15.28-.49l-7.63-.37a19.364 19.364 0 01-3.82-.5 12.85 12.85 0 01-3.81-1.49z" fill="#B56241"/><path d="M613.76 758.16h-54.21v.1H589a175.329 175.329 0 01-2.12 27.22 141.794 141.794 0 01-2.57 12.88 116.54 116.54 0 01-14.71 34.22 92.037 92.037 0 01-6.61 9c-37.06 37-95.95 39-131.74-1.19A98.285 98.285 0 01420.8 825a124.04 124.04 0 01-13.4-39.48 202.956 202.956 0 01-1.58-13.39c-.35-4.54-.54-9.15-.54-13.82h29.47v-.1h-54.22c.82 22.29-1.59 75.64-9.11 84.48l-4.16 213.48c0 3.52 1.398 6.89 3.886 9.38a13.269 13.269 0 009.384 3.89h238.94c3.519 0 6.894-1.4 9.383-3.89a13.262 13.262 0 003.887-9.38l-2.38-215.36c-9.75-.05-16.94-57.74-16.6-82.65z" fill="#85C5E5"/><path d="M632.74 831.31l-22.79 38.09 11.39 130.03h11.6V893.78l-.2-62.47zM380.53 1069.39h116.62c-109.2 0-100.91-231.14-129.89-231.14v217.87c0 3.52 1.398 6.89 3.886 9.38a13.269 13.269 0 009.384 3.89z" fill="#67B7D6"/><path d="M361.26 860.4a63.706 63.706 0 01-.1-8.29c.127-2.767.363-5.537.71-8.31.18-1.39.35-2.77.57-4.16.22-1.39.44-2.77.78-4.16a27.831 27.831 0 013.44-8.35 27.537 27.537 0 013.73 8.22c.39 1.38.68 2.76.93 4.13s.5 2.76.72 4.14c.44 2.75.79 5.51 1 8.27a62 62 0 01.21 8.29l-11.99.22z" fill="#111827"/><path d="M632.74 869.4v8c.26 34 .26 69 0 102.76v75.94c0 3.52-1.398 6.89-3.887 9.38a13.268 13.268 0 01-9.383 3.89H380.53c-3.52 0-6.895-1.4-9.384-3.89a13.266 13.266 0 01-3.886-9.38V998v-7.65c-.25-34.86-.25-69.86 0-105.3v-24.76" stroke="#111827" stroke-width="12" stroke-miterlimit="10"/><path d="M626.76 869.38c.031-2.854.248-5.704.65-8.53.38-2.833.866-5.657 1.46-8.47.3-1.41.6-2.82.94-4.22.34-1.4.69-2.81 1.15-4.21a29.187 29.187 0 014.18-8.28 28.921 28.921 0 013 8.78c.26 1.45.42 2.89.55 4.33.13 1.44.25 2.88.35 4.31.18 2.87.28 5.74.25 8.59 0 2.855-.18 5.707-.54 8.54l-11.99-.84z" fill="#111827"/><path d="M368.1 833c21.58-5.27 12.43-74.73 12.43-74.73l233.23-.1s3.93 76.62 19.18 82.92" stroke="#111827" stroke-width="12" stroke-miterlimit="10"/><path d="M589 758.26c.005 9.114-.7 18.215-2.11 27.22a141.863 141.863 0 01-2.57 12.88 116.525 116.525 0 01-14.71 34.22 92.158 92.158 0 01-6.61 9c-37.06 37-95.95 39-131.74-1.19A98.275 98.275 0 01420.8 825a124.074 124.074 0 01-13.4-39.48 203.036 203.036 0 01-1.58-13.39c-.35-4.54-.54-9.15-.54-13.82" stroke="#111827" stroke-width="12" stroke-miterlimit="10"/><path d="M517.8 896.62l-14.4 24.94-14.4-24.94h-48l62.36 108 62.36-108H517.8z" stroke="#fff" stroke-width="16"/><path d="M517.8 896.62l-14.4 24.94-14.4-24.94h-48l62.36 108 62.36-108H517.8z" fill="#44B783"/><path d="M517.8 896.62l-14.4 24.94-14.4-24.94h-23l37.42 64.81 37.42-64.81H517.8z" fill="#364A5E"/><path d="M341.06 590.04c11.576 0 20.96-9.384 20.96-20.96s-9.384-20.96-20.96-20.96-20.96 9.384-20.96 20.96 9.384 20.96 20.96 20.96z" fill="#111827"/><path d="M340.93 586c1.79-.1 3.79-.26 5.7-.46 1.91-.2 3.86-.44 5.79-.74 1.93-.3 3.87-.65 5.81-1 1.94-.35 3.92-.68 6-.83a24.752 24.752 0 01-5.31 3.12 48.968 48.968 0 01-5.78 2 50.686 50.686 0 01-6 1.36c-2.061.36-4.148.541-6.24.54l.03-3.99zM661.77 590.04c11.576 0 20.96-9.384 20.96-20.96s-9.384-20.96-20.96-20.96-20.96 9.384-20.96 20.96 9.384 20.96 20.96 20.96z" fill="#111827"/><path d="M661.77 586c1.8-.1 3.79-.26 5.7-.46 1.91-.2 3.87-.44 5.8-.74 1.93-.3 3.87-.65 5.81-1 1.94-.35 3.92-.68 6-.83a24.992 24.992 0 01-5.31 3.12 48.906 48.906 0 01-5.78 2 51.287 51.287 0 01-6 1.36c-2.061.36-4.148.54-6.24.54l.02-3.99z" fill="#111827"/><path d="M463.75 593.17c15.55 0 25.12 12.76 36.49 12.76 11.37 0 25.91-12.76 41.27-12.76 15.36 0 23.72 11.12 23.72 26.52 0 16.65-16.75 46-62.6 46s-65.4-27.74-65.4-45.45c0-16.35 10.97-27.07 26.52-27.07z" fill="#fff" stroke="#111827" stroke-width="12" stroke-miterlimit="10"/><path d="M477.85 596.6v65.5M526.99 596.6v65.5" stroke="#111827" stroke-width="12" stroke-miterlimit="10"/><path d="M289.63 652.2a270.492 270.492 0 0013.32 15.47 277.136 277.136 0 0014 14 204.528 204.528 0 0016.07 13.62 212.952 212.952 0 0017.24 11.82c24 13.28 49.91 22.39 76.71 28.3 6.7 1.47 13.46 2.74 20.24 3.77 69.83 6.22 147.18 6.22 208.41-32.65 5.92-4.08 11.67-8.383 17.25-12.91 15.56-12.65 28-26.65 40.9-44.33-83.93 0-138.94-94.73-207.41-94.73S367.92 652.2 289.63 652.2z" fill="#B56241"/><path d="M291.53 666.4a262.253 262.253 0 0013.08 15.2 265.904 265.904 0 0013.79 13.78 199.552 199.552 0 0015.8 13.38c5.46 4.16 11.12 8 16.93 11.62 23.55 13 49 22 75.37 27.8 6.59 1.45 13.23 2.7 19.89 3.71C515 758 591 758 651.16 719.81c5.82-4 11.466-8.23 16.94-12.69a268.594 268.594 0 0041.39-42c-82.46 0-137.71-94.64-205-94.64-67.29 0-136.05 95.92-212.96 95.92z" fill="#D67070" stroke="#111827" stroke-width="12" stroke-miterlimit="10"/><path d="M453.37 752.49l5.5.43 1.32.1c1.57.11 3.14.23 4.72.33l1.29.09 5.18.33 2 .12 5 .26 2.16.1 3.35.15 2.56.1 4.46.14 3 .08h2.41c1.73 0 3.46.06 5.19.08h1.91c3.72 0 7.44-.02 11.16-.06h1.1c2.44 0 4.87-.11 7.3-.2h.28c4-.153 8-.36 12-.62h.31c10.79-.73 21.53-1.92 32.13-3.68 2.667-.44 5.317-.917 7.95-1.43-33.29-9.82-129.24-43.29-193-117.69-29.32 19.08-59.55 35.28-91.16 35.28l.35.44 2.44 3 .75.9c.8 1 1.62 1.93 2.44 2.88l1.57 1.82.53.6c.65.74 1.31 1.49 2 2.22.69.73 1.31 1.44 2 2.16.86.94 1.73 1.87 2.6 2.79l1.21 1.28c1.29 1.34 2.59 2.68 3.91 4l.26.27c1.29 1.28 2.6 2.55 3.91 3.81l1.58 1.5c.95.89 1.9 1.78 2.86 2.66l1.16 1.06c1 .94 2.09 1.86 3.14 2.78 1.54 1.35 3.1 2.66 4.68 3.95l.42.35a169.09 169.09 0 004.93 3.89c5.46 4.16 11.12 8 16.93 11.62a262.001 262.001 0 0046.16 19.89c2.07.68 4.15 1.32 6.24 2a334.232 334.232 0 0023 6c3.794.84 7.6 1.603 11.42 2.29 2.82.51 5.64 1 8.47 1.42l5.71.49 1.21.02z" fill="#C46565"/><path d="M579.81 624.61c-6.52-1.65-13-3.05-19.57-4.22s-13.09-2.18-19.63-3c-6.54-.82-13.12-1.45-19.68-1.89-6.56-.44-13.14-.64-19.71-.65h-4.93l-4.93.13c-1.64 0-3.28.11-4.92.19-1.64.08-3.29.13-4.92.26-6.57.38-13.11 1.09-19.66 1.87a397.893 397.893 0 00-39.21 7.32 159.242 159.242 0 0138.13-13.52c3.32-.66 6.64-1.41 10-1.88 1.68-.25 3.35-.56 5-.75l5.06-.6a192.27 192.27 0 0120.36-1c6.79 0 13.59.39 20.34 1.11a193.84 193.84 0 0120.08 3.25 180.586 180.586 0 0119.57 5.41 118.476 118.476 0 0118.62 7.97zM364.82 686.87c11.06 3.46 22.25 6.26 33.51 8.69 2.81.59 5.63 1.2 8.45 1.76 2.82.56 5.64 1.12 8.48 1.58 5.66 1 11.32 2 17 2.77 11.38 1.57 22.76 2.94 34.2 3.74 11.44.8 22.88 1.26 34.33 1.29h8.59l8.58-.26c2.86 0 5.72-.22 8.58-.37 2.86-.15 5.72-.26 8.57-.53 11.43-.76 22.81-2.16 34.18-3.69a531.174 531.174 0 0067.44-15A312.688 312.688 0 01570.36 708c-5.73 1-11.45 2.24-17.24 3-2.89.4-5.77.88-8.67 1.19l-8.7.94c-11.63 1-23.3 1.71-35 1.61-11.7-.1-23.35-.61-35-1.76-11.65-1.15-23.17-2.82-34.6-5.14a341.992 341.992 0 01-33.87-8.46 233.911 233.911 0 01-32.46-12.51zM584.88 662.69c-14.62 1.67-29.24 2.5-43.86 3.13-14.62.63-29.25.86-43.87.87-14.62.01-29.25-.27-43.87-.86-14.62-.59-29.24-1.47-43.86-3.14 14.62-1.68 29.24-2.51 43.86-3.15 14.62-.64 29.25-.86 43.87-.85 14.62.01 29.24.28 43.87.86 14.63.58 29.24 1.45 43.86 3.14z" fill="#111827"/><path d="M291.53 666.4a262.253 262.253 0 0013.08 15.2 265.904 265.904 0 0013.79 13.78 199.552 199.552 0 0015.8 13.38c5.46 4.16 11.12 8 16.93 11.62 23.55 13 49 22 75.37 27.8 6.59 1.45 13.23 2.7 19.89 3.71C515 758 591 758 651.16 719.81c5.82-4 11.466-8.23 16.94-12.69a268.594 268.594 0 0041.39-42c-82.46 0-137.71-94.64-205-94.64-67.29 0-136.05 95.92-212.96 95.92zM673 659s48.64-10.61 84.3-88.54M330 659.06s-53.47-13.43-87-87.61" stroke="#111827" stroke-width="12" stroke-miterlimit="10"/><path d="M425.22 300.35a148.617 148.617 0 0135.91-15A151.134 151.134 0 01500 280a145.14 145.14 0 0139 5.08 138.609 138.609 0 0135.82 15.27 315.695 315.695 0 00-37.19-9.13 210.597 210.597 0 00-37.58-3.22 222.008 222.008 0 00-37.55 3.48 366.907 366.907 0 00-37.28 8.87zM425.22 328.3a148.617 148.617 0 0135.91-15A151.56 151.56 0 01500 308a145.14 145.14 0 0139 5 138.609 138.609 0 0135.82 15.27 317.829 317.829 0 00-37.19-9.13 210.625 210.625 0 00-37.54-3.23 222.008 222.008 0 00-37.55 3.48 369.713 369.713 0 00-37.32 8.91z" fill="#111827"/><path d="M574.78 328.43a310.36 310.36 0 01-37.2 5.68A413.265 413.265 0 01500 336c-12.55 0-25.1-.47-37.6-1.64a270.95 270.95 0 01-37.19-5.91c12.59-.39 25-.34 37.49-.37L500 328l37.29-.13c12.44 0 24.91-.01 37.49.56zM574.78 300.47a330.625 330.625 0 01-37.24 5.22 454.47 454.47 0 01-37.53 1.71c-12.53.05-25.06-.42-37.56-1.48a288.03 288.03 0 01-37.23-5.45c12.57-.59 25-.7 37.47-.84l37.31-.23c12.42 0 24.85-.06 37.31 0s24.91.3 37.47 1.07z" fill="#B56241"/><path d="M871.11 500c-94.26-5.93-88.36-172.82-144.1-140.14l.42.69c-1.08 8.7-11.09 100.12 26.09 224.1.41-1.25.81-2.51 1.21-3.77 2 5.4 17 39.1 75.81 23.16-40.58-34.22-31.47-75.27-31.47-75.27s44.55 1.32 72.04-28.77z" fill="#FEDC58"/><path d="M871.11 500c-94.26-5.93-88.36-172.82-144.1-140.14l.42.69c-1.08 8.7-11.09 100.12 26.09 224.1.41-1.25.81-2.51 1.21-3.77 2 5.4 17 39.1 75.81 23.16-40.58-34.22-31.47-75.27-31.47-75.27s44.55 1.32 72.04-28.77z" stroke="#111827" stroke-width="12" stroke-miterlimit="10"/><path d="M766.75 500a121.954 121.954 0 011.52 21.66 210.365 210.365 0 01-1.6 21.69c-.467 3.6-1.007 7.193-1.62 10.78-.65 3.57-1.35 7.14-2.16 10.69a190.792 190.792 0 01-6 21l-7.59-2.54c2.11-6.73 4.13-13.49 5.92-20.32l1.32-5.13 1.22-5.16 1.17-5.17 1.07-5.2c1.41-6.94 2.5-13.94 3.53-21 1.03-7.06 2-14.14 3.22-21.3zM730.85 358.46A198.962 198.962 0 01742 378.52c.83 1.72 1.62 3.46 2.42 5.2l2.3 5.25 2.15 5.32 2 5.36a210.183 210.183 0 016.64 21.88 127.547 127.547 0 013.37 22.58c-2.76-7.11-5.29-14.18-7.94-21.19-2.65-7.01-5.32-13.95-8.36-20.76l-2.29-5.09-2.39-5-2.45-5-2.55-4.95c-3.43-6.59-7.09-13-10.87-19.43l6.82-4.23z" fill="#111827"/><path d="M128.89 500c94.26-5.93 88.36-172.82 144.1-140.14l-.42.69c1.08 8.7 11.09 100.12-26.09 224.1-.41-1.25-.81-2.51-1.21-3.77-2 5.4-17 39.1-75.81 23.16 40.58-34.22 31.47-75.27 31.47-75.27s-44.55 1.32-72.04-28.77z" fill="#FEDC58"/><path d="M128.89 500c94.26-5.93 88.36-172.82 144.1-140.14l-.42.69c1.08 8.7 11.09 100.12-26.09 224.1-.41-1.25-.81-2.51-1.21-3.77-2 5.4-17 39.1-75.81 23.16 40.58-34.22 31.47-75.27 31.47-75.27s-44.55 1.32-72.04-28.77z" stroke="#111827" stroke-width="12" stroke-miterlimit="10"/><path d="M233.25 500c1.22 7.16 2.18 14.24 3.24 21.28 1.06 7.04 2.12 14.05 3.53 21l1.07 5.2 1.17 5.17 1.22 5.16 1.32 5.13c1.79 6.83 3.8 13.59 5.92 20.32l-7.59 2.54a190.792 190.792 0 01-6-21c-.81-3.55-1.51-7.12-2.16-10.69-.65-3.57-1.15-7.18-1.62-10.78a210.365 210.365 0 01-1.6-21.69 121.909 121.909 0 011.5-21.64zM276 362.65c-3.78 6.39-7.44 12.84-10.87 19.43l-2.58 4.92-2.45 5-2.39 5-2.29 5.09c-3 6.81-5.74 13.76-8.36 20.76-2.62 7-5.18 14.08-7.94 21.19a127.547 127.547 0 013.37-22.58 210.5 210.5 0 016.64-21.88l2-5.36 2.17-5.22 2.3-5.25c.8-1.74 1.59-3.48 2.42-5.2a199.1 199.1 0 0111.13-20.06l6.85 4.16zM198.29 528.85l-1.6-15.59c-.26-2.66-.59-5.32-.79-8-.07-1.36-.15-2.72-.11-4.13-.007-1.436.093-2.87.3-4.29a30.095 30.095 0 014.45 7.27 45.76 45.76 0 011.51 3.88c.45 1.31.88 2.63 1.29 4 .41 1.37.76 2.67 1.1 4 .34 1.33.63 2.72.89 4.09.26 1.37.49 2.75.65 4.15a36.83 36.83 0 01.31 4.34l-8 .28zM793.65 527.37a36.63 36.63 0 01.88-6.66c.24-1.07.53-2.14.82-3.2.29-1.06.66-2.11 1-3.15a39.464 39.464 0 012.68-6.07 17.677 17.677 0 014.45-5.25c.259 2.217.296 4.455.11 6.68-.09 1-.18 2.09-.31 3.1l-.28 3.08-.63 6.1c-.22 2-.43 4.09-.72 5.93l-8-.56zM603.1 452.29a320.639 320.639 0 0133.51-6.66L634 446a150.298 150.298 0 0139.75-.48l-2.66-.36c3.28.45 6.54 1 9.82 1.41l-2.66-.35a222.368 222.368 0 0129.48 6.1c5 1.4 11.11-1.72 12.3-7a10.189 10.189 0 00-7-12.3 239.29 239.29 0 00-34.58-6.78l2.65.36a142.92 142.92 0 00-33.43-1.95 236.72 236.72 0 00-33.1 4.54c-5.61 1.14-11.19 2.44-16.76 3.81-5.08 1.25-8.61 7.26-7 12.3a10.208 10.208 0 0012.3 7l-.01-.01zM261.26 502.22l14.13-1.48 33.67-3.52 40.94-4.29 35.18-3.69c5.72-.59 11.44-1.17 17.16-1.79h.24c2.73-.28 5.07-.92 7.07-2.93a9.998 9.998 0 000-14.14c-1.83-1.69-4.48-3.2-7.07-2.93l-14.13 1.48-33.67 3.53-41 4.29-35.18 3.68c-5.72.6-11.44 1.18-17.16 1.8h-.24c-2.73.29-5.07.93-7.07 2.93a9.995 9.995 0 00-2.933 7.075 9.995 9.995 0 002.933 7.075c1.83 1.68 4.48 3.2 7.07 2.92l.06-.01z" fill="#111827"/><path opacity=".15" d="M725 631.82a265.298 265.298 0 0026.3-59.43c-17.24 35.74-49.84 65.46-92.11 65.46a106.752 106.752 0 01-106.61-106.63 105.68 105.68 0 017.83-40.22H758a105.31 105.31 0 017.62 33.39c.73-8 1.12-16.19 1.12-24.42a269.111 269.111 0 00-1.58-29H234.83a269.111 269.111 0 00-1.58 29c0 4.73.14 9.42.38 14.09A104.902 104.902 0 01240.1 491h197.6a106.705 106.705 0 01-10.347 99.69 106.702 106.702 0 01-88.453 47.13c-38.8 0-68.82-25.83-87.48-56.89a266.146 266.146 0 0024.76 52.84c19.39 12.07 38.25 24.05 62.72 24.05a126.778 126.778 0 00126.63-126.6c0-1.81 0-3.61-.12-5.4 23.38-8.23 45.52-8.35 67.31-.36-.08 1.91-.14 3.83-.14 5.76a126.782 126.782 0 00126.63 126.63c25.79 0 45.79-12.75 65.79-26.03zM535.26 505.18c-23.4-7.55-47.64-7.42-72.33.39A124.593 124.593 0 00459 491h80.1a122.606 122.606 0 00-3.84 14.18z" fill="#000"/><path opacity=".95" d="M233.59 469.82s.41 32.23.41 50.2c0 64.41 40.48 116.63 104.9 116.63a116.676 116.676 0 0098.616-54.402A116.676 116.676 0 00444.2 469.82H233.59zM553.91 469.82a116.688 116.688 0 006.683 112.428 116.68 116.68 0 0098.617 54.402c64.42 0 107.54-52.22 107.54-116.63 0-18-2.23-50.2-2.23-50.2H553.91z" fill="#111827"/><path opacity=".25" d="M320 626.86l123.07-123.08a92.971 92.971 0 00-10-17.27L302.72 616.88a93.637 93.637 0 0017.28 9.98z" fill="#fff"/><path d="M455.86 507.53c29.52-12 58.53-12.42 87 0" stroke="#111827" stroke-width="20" stroke-miterlimit="10"/><path d="M274.28 504.75c2.06 6.51-5.94 11.51-11.94 12.51-6 0-10-4-12-9-1-5 0-10 4-13 5-2 12-4 16.44 1.12a11.708 11.708 0 013.5 8.37zM285 500.93c-.61 4.33-6.61 4.33-7.61.33 0-3 1-4 3.84-4.1a3.77 3.77 0 013.77 3.77z" fill="#fff"/><path opacity=".25" d="M645.19 618.92l106.28-106.28a93.969 93.969 0 00-2.41-11.22L634 616.51a94.362 94.362 0 0011.19 2.41z" fill="#fff"/><path d="M590.68 505.73c2.06 6.51-5.94 11.51-11.94 12.51-6 0-10-4-12-9-1-5 0-10 4-13 5-2 12-4 16.45 1.12a11.7 11.7 0 013.49 8.37zM601.35 501.91c-.61 4.33-6.61 4.33-7.61.33 0-3 1-4 3.85-4.1a3.765 3.765 0 013.477 2.328c.188.458.285.948.283 1.442z" fill="#fff"/><path d="M233.59 469.82s-.34 31.69.41 50.2c2.6 64.36 40.48 116.63 104.9 116.63a116.688 116.688 0 00116.422-109.756A116.688 116.688 0 00444.2 469.82H233.59zM553.91 469.82a116.688 116.688 0 006.683 112.428 116.68 116.68 0 0098.617 54.402c64.42 0 107.54-51.53 107.54-115.94 0-18-2.23-50.89-2.23-50.89H553.91zM423.14 469.81h151.83" stroke="#111827" stroke-width="20" stroke-miterlimit="10"/></g></svg>