<svg fill="none" xmlns="http://www.w3.org/2000/svg" viewBox="0 0 1000 990"><mask id="mask0" maskUnits="userSpaceOnUse" x="0" y="0" width="1000" height="966"><path d="M1000 0H0v718.31h179.2c38.38 142.38 167.45 247.1 320.8 247.1 153.35 0 282.42-104.72 320.8-247.1H1000V0z" fill="#fff"/></mask><g mask="url(#mask0)"><path d="M500 962.602c183.603 0 332.442-148.839 332.442-332.442 0-183.602-148.839-332.442-332.442-332.442S167.558 446.558 167.558 630.16c0 183.603 148.839 332.442 332.442 332.442z" fill="#FDE047"/><path d="M610 758.72c90.76 0 72 114.24 72.87 241.28H610V758.72z" fill="#FDD2B2"/><path d="M632.74 831.87L610 870l11.38 130h31.76c.77-180.27-20.4-168.13-20.4-168.13z" fill="#F3AB98"/><path d="M233.25 500c0-147.32 119.43-266.75 266.75-266.75S766.75 352.68 766.75 500a266.213 266.213 0 01-98.65 207.12 264.415 264.415 0 01-16.94 12.69C591 758 515 758 446.39 751.89c-6.66-1-13.3-2.26-19.89-3.71-26.33-5.8-51.82-14.75-75.37-27.8a209.22 209.22 0 01-16.93-11.62 199.912 199.912 0 01-15.8-13.38 266.295 266.295 0 01-13.79-13.78A265.857 265.857 0 01233.25 500z" fill="#FDD2B2"/><path d="M269.61 634.48c.7 1.2 1.39 2.4 2.11 3.58.43.72.88 1.42 1.33 2.14.66 1.07 1.32 2.14 2 3.19.48.76 1 1.5 1.46 2.24.66 1 1.32 2 2 3 .51.76 1 1.52 1.56 2.28.66 1 1.32 1.92 2 2.88.54.77 1.1 1.53 1.65 2.3.55.77 1.34 1.85 2 2.77.66.92 1.15 1.53 1.73 2.29.58.76 1.37 1.8 2.07 2.7.7.9 1.19 1.51 1.79 2.26.6.75 1.41 1.76 2.12 2.63.71.87 1.23 1.49 1.85 2.23.62.74 1.44 1.72 2.17 2.57.73.85 1.27 1.47 1.91 2.2l2.22 2.5c.65.73 1.31 1.44 2 2.16.86.94 1.73 1.87 2.6 2.79l1.21 1.28c1.29 1.34 2.59 2.68 3.91 4l.26.27c1.29 1.28 2.6 2.55 3.91 3.81l1.58 1.5c.95.89 1.9 1.78 2.86 2.66l1.16 1.06c1 .94 2.09 1.86 3.14 2.78 3.267 2.847 6.6 5.577 10 8.19a206.785 206.785 0 0016.93 11.62c23.55 13 49 22 75.37 27.8 6.59 1.45 13.23 2.7 19.89 3.71 42.1 3.75 87 5.18 129.28-3.08C508.45 729 185.59 612.74 388.8 257.48c-2.72 1.25-5.4 2.54-8.06 3.88l-.59.29c-1.22.61-2.44 1.24-3.65 1.88l-1 .53c-3.76 2-7.48 4.07-11.13 6.23l-.9.53c-1.16.69-2.31 1.39-3.46 2.1l-.87.54a278.453 278.453 0 00-10.55 6.93l-1.08.75c-1.09.76-2.16 1.52-3.23 2.29l-.66.47a340.484 340.484 0 00-6.46 4.84l-.62.48c-1 .78-2 1.58-3 2.39l-1.17.94c-1 .81-2 1.62-3 2.45-2.11 1.75-4.19 3.55-6.24 5.37l-1.14 1-2.69 2.45L318 305a270.065 270.065 0 00-8.37 8.17l-1.38 1.41c-.79.82-1.58 1.64-2.36 2.47-.46.49-.92 1-1.37 1.48a214.59 214.59 0 00-4.06 4.46c-.45.51-.91 1-1.36 1.54-.71.81-1.41 1.63-2.11 2.45l-1.51 1.79c-.68.81-1.36 1.62-2 2.44-.54.66-1.08 1.33-1.61 2-1.07 1.33-2.12 2.66-3.16 4-.54.7-1.08 1.4-1.61 2.11s-1.2 1.59-1.79 2.4c-.59.81-1.07 1.45-1.59 2.18-.52.73-1.13 1.55-1.68 2.33a194.519 194.519 0 00-2.8 4.05c-.5.73-1 1.48-1.49 2.22-.49.74-1.1 1.66-1.64 2.5l-1.49 2.31-1.68 2.71c-.43.69-.86 1.38-1.28 2.07-.89 1.46-1.75 2.93-2.61 4.4l-1.22 2.16c-.54.95-1.08 1.91-1.61 2.87-.4.73-.8 1.46-1.19 2.19-.64 1.19-1.27 2.39-1.9 3.59l-1.2 2.34c-.64 1.28-1.28 2.55-1.91 3.84-.33.69-.67 1.39-1 2.09-.52 1.09-1 2.19-1.53 3.29-.31.66-.61 1.32-.91 2a214.37 214.37 0 00-2.17 5c-.22.52-.43 1.05-.65 1.57-.53 1.27-1.05 2.54-1.56 3.82-.27.67-.53 1.34-.79 2-.5 1.26-1 2.53-1.45 3.8-.21.55-.42 1.1-.62 1.65a549.286 549.286 0 00-1.85 5.26l-.56 1.7c-.44 1.333-.87 2.667-1.29 4l-.6 1.91c-.47 1.54-.93 3.08-1.37 4.63-.1.33-.2.66-.29 1-.52 1.84-1.02 3.687-1.5 5.54-.16.59-.3 1.19-.45 1.78-.35 1.39-.69 2.78-1 4.18l-.42 1.75c-.43 1.9-.85 3.8-1.24 5.71l-.15.77c-.34 1.7-.673 3.4-1 5.1-.11.61-.21 1.21-.32 1.82-.26 1.49-.51 3-.74 4.5-.08.51-.17 1-.24 1.52-.3 1.95-.57 3.91-.83 5.88l-.15 1.3c-.2 1.59-.38 3.19-.55 4.79-.06.6-.13 1.2-.19 1.81-.16 1.68-.31 3.37-.45 5.06 0 .35-.06.69-.08 1-.147 2-.277 4.017-.39 6.05 0 .53 0 1.07-.07 1.6a538.167 538.167 0 00-.18 4.71v1.77c0 2.05-.08 4.11-.08 6.17v.1c0 2.22 0 4.42.08 6.62 0 .76.06 1.52.08 2.28.05 1.47.1 2.94.17 4.41 0 .89.11 1.77.16 2.66.08 1.33.15 2.66.25 4 .07 1 .16 1.89.24 2.83.11 1.26.21 2.52.34 3.77.09 1 .21 1.94.31 2.91.14 1.21.27 2.43.42 3.64.12 1 .26 2 .39 2.95.16 1.18.32 2.37.5 3.55.15 1 .31 2 .47 3 .18 1.16.37 2.33.57 3.49.18 1 .36 2 .55 3 .21 1.15.43 2.3.65 3.44.22 1.14.41 2 .62 3 .24 1.14.48 2.27.74 3.4s.44 2 .68 2.93c.26 1.13.54 2.25.82 3.36.28 1.11.49 1.95.74 2.91.3 1.12.6 2.23.91 3.34.26 1 .53 1.92.81 2.87.32 1.11.65 2.21 1 3.31s.58 1.89.88 2.84a281.772 281.772 0 002 6.08c.38 1.09.76 2.18 1.15 3.27.33.91.65 1.83 1 2.74l1.24 3.27c.35.89.69 1.79 1 2.68.44 1.09.89 2.19 1.34 3.28.36.86.71 1.73 1.08 2.59.47 1.12 1 2.22 1.45 3.33.37.82.73 1.65 1.1 2.47.52 1.16 1.07 2.3 1.6 3.44l1.08 2.3c.61 1.26 1.24 2.5 1.87 3.75.32.63.62 1.27.95 1.9 1.92 3.74 3.92 7.43 6 11.07.29.47.66 1.08 1.02 1.69z" fill="#F3AB98"/><path d="M233.25 500c0-147.32 119.43-266.75 266.75-266.75S766.75 352.68 766.75 500a266.213 266.213 0 01-98.65 207.12 264.415 264.415 0 01-16.94 12.69C591 758 515 758 446.39 751.89c-6.66-1-13.3-2.26-19.89-3.71-26.33-5.8-51.82-14.75-75.37-27.8a209.22 209.22 0 01-16.93-11.62 199.912 199.912 0 01-15.8-13.38 266.295 266.295 0 01-13.79-13.78A265.857 265.857 0 01233.25 500v0z" stroke="#111827" stroke-width="12" stroke-miterlimit="10"/><path d="M386.12 758.72c-90.77 0-72 114.24-72.87 241.28h72.87V758.72z" fill="#FDD2B2"/><path d="M367.23 831.87L390 870l-11.39 130h-31.73c-.81-180.27 20.35-168.13 20.35-168.13z" fill="#F3AB98"/><path d="M619.47 1070H380.53c-3.52 0-6.895-1.4-9.384-3.89a13.289 13.289 0 01-3.886-9.39V772a13.28 13.28 0 0113.27-13.28h233.23c13.09 0 19 7.66 19 19.88v278.08c.006 1.75-.334 3.48-1 5.1a13.364 13.364 0 01-2.879 4.32 13.246 13.246 0 01-9.411 3.9z" fill="#FDD2B2"/><path d="M629.05 766.62a19.333 19.333 0 01-2.51-4 17.251 17.251 0 00-8.28-3.51 28.97 28.97 0 00-4.5-.34H380.53A13.28 13.28 0 00367.26 772c29 10.42 83.29 16.24 132.74 16.24 63.06 0 104.38-9.35 129.05-21.62z" fill="#F3AB98"/><path d="M610 758.72c90.76 0 72 114.24 72.87 241.28h-50.13M386.12 758.72c-90.77 0-72 114.24-72.87 241.28h50.07" stroke="#111827" stroke-width="12" stroke-miterlimit="10" stroke-linecap="square"/><path d="M380.53 758.82l233.23-.1" stroke="#111827" stroke-width="12" stroke-miterlimit="10"/><path d="M380.53 1070h116.62C388 1070 396.24 838.82 367.26 838.82v217.86c-.005 1.75.334 3.48.999 5.09a13.153 13.153 0 002.873 4.32 13.231 13.231 0 004.31 2.89c1.613.67 3.342 1.02 5.088 1.02z" fill="#F3AB98"/><path d="M361.26 860.85c-.19-3.67-.11-7.34.05-11s.47-7.35.86-11c.2-1.84.4-3.67.65-5.51.25-1.84.49-3.67.85-5.51a44.169 44.169 0 013.59-11 44.169 44.169 0 013.59 11c.36 1.84.62 3.67.85 5.51.23 1.84.45 3.67.65 5.51.38 3.67.68 7.34.85 11 .17 3.66.25 7.34.06 11h-12z" fill="#111827"/><path d="M632.74 870v8c.26 34 .26 69 0 102.75v75.94c.004 1.75-.336 3.48-1.001 5.09a13.382 13.382 0 01-2.874 4.32 13.369 13.369 0 01-4.309 2.88c-1.612.67-3.34 1.02-5.086 1.02H380.53c-3.52 0-6.895-1.4-9.384-3.89a13.289 13.289 0 01-3.886-9.39v-58.2-7.65c-.25-34.87-.25-69.87 0-105.3v-24.72" stroke="#111827" stroke-width="12" stroke-miterlimit="10"/><path d="M626.74 870c-.19-4.17-.1-8.35.06-12.53s.47-8.35.85-12.53c.2-2.09.41-4.18.65-6.27.24-2.09.49-4.17.85-6.26a55.126 55.126 0 013.59-12.53 55.126 55.126 0 013.59 12.53c.36 2.09.62 4.18.85 6.26.23 2.08.45 4.18.65 6.27.38 4.18.69 8.35.85 12.53.16 4.18.25 8.36.06 12.53h-12zM570.68 842.45C570.9 833 582.9 829 588.9 835a10.608 10.608 0 01-3.621 17.269 10.597 10.597 0 01-8.12-.083 10.626 10.626 0 01-3.419-2.336 10.4 10.4 0 01-3.06-7.4zM408.11 842.15C407.9 834 416.9 830 422.9 833c8 3 8 14 0 19-4 2-8 0-11.75-2.48a10.395 10.395 0 01-3.04-7.37z" fill="#111827"/><path d="M500 831.77a27.195 27.195 0 011.5 5.84c.297 1.933.461 3.884.49 5.84l.3 11.69c.09 3.89.21 7.79.25 11.69l.17 11.67c.23 15.57.22 31.16.28 46.74.06 15.58.18 31.16 0 46.74-.09 7.79-.3 15.58-.53 23.37-.1 3.89-.29 7.79-.67 11.68a92.3 92.3 0 01-1.77 11.69 92.3 92.3 0 01-1.77-11.69c-.38-3.89-.57-7.79-.67-11.68-.23-7.79-.44-15.58-.53-23.37-.2-15.58 0-31.16 0-46.74 0-15.58 0-31.15.18-46.73l.17-11.7.33-11.68.33-11.68c.037-1.956.204-3.907.5-5.84a27.122 27.122 0 011.44-5.84z" fill="#F3AB98"/><path d="M425.22 883a18.524 18.524 0 014.67-1.5 29.778 29.778 0 014.68-.5l9.35-.33 18.7-.41c12.46-.19 24.91-.24 37.38-.27 12.47-.03 24.93-.16 37.39 0 6.23.09 12.46.3 18.7.53 3.11.11 6.23.3 9.34.67 3.158.35 6.284.945 9.35 1.78a59.177 59.177 0 01-9.35 1.77c-3.11.38-6.23.57-9.34.67-6.24.23-12.47.43-18.7.52-12.46.19-24.92 0-37.39 0-12.47 0-24.93 0-37.4-.15-6.23-.06-12.46-.26-18.68-.5l-9.35-.34a29.534 29.534 0 01-4.67-.5 18.444 18.444 0 01-4.68-1.44zM442.41 914.38a12.516 12.516 0 013.74-1.11 18.413 18.413 0 013.62-.15c2.39.1 4.78.16 7.17.21 4.78.11 9.56.15 14.34.17 9.63 0 19.09.08 28.76-.21 9.67-.29 19.26-.43 28.88-.39 4.81 0 9.62.13 14.42.24 2.417.033 4.83.19 7.23.47 2.467.273 4.902.785 7.27 1.53a36.509 36.509 0 01-7.16 2c-2.384.43-4.792.717-7.21.86-4.82.35-9.64.65-14.45.82-9.64.36-19.27.32-28.88.45-4.81 0-9.61.22-14.48.1-4.87-.12-9.69-.13-14.52-.31s-9.68-.58-14.5-1.08c-2.42-.27-4.82-.57-7.23-.9a16.778 16.778 0 01-3.57-.84 11.493 11.493 0 01-3.43-1.86zM438.93 949.87a13.09 13.09 0 013.82-1.5 19.067 19.067 0 013.82-.49l7.63-.32c5.09-.18 10.19-.33 15.28-.41 10.18-.15 20.36-.15 30.52-.15s20.36-.17 30.54 0c5.09.09 10.18.3 15.27.53 2.553.086 5.1.306 7.63.66 2.605.357 5.17.963 7.66 1.81a41.239 41.239 0 01-7.63 1.77 70.295 70.295 0 01-7.64.67c-5.09.23-10.18.44-15.27.53-10.18.2-20.37.06-30.55 0s-20.36-.06-30.54-.25c-5.09-.1-10.19-.28-15.28-.49l-7.63-.37a19.364 19.364 0 01-3.82-.5 12.85 12.85 0 01-3.81-1.49zM547.85 847.98l-42.13-34.37 74.63-54.79h-160.7l74.63 54.79-42.13 34.37-37.63-56.5v78.48h174.26v-83.44l-40.93 61.46z" fill="#F3AB98"/><path d="M616.66 758.16l-42.73.1a119.505 119.505 0 01-1.43 13.48 63.764 63.764 0 01-1.74 6.34c-2.34 6.49-17.26 12-21.49 16.73a48.247 48.247 0 01-4.5 4.43c-25.17 18.2-65.17 19.2-89.48-.58a51.336 51.336 0 01-7.11-7.61c-4.23-5.56-16.4-11.59-18.1-18.94a59.927 59.927 0 01-1.08-6.59 63.289 63.289 0 01-.36-6.8l-45.21-.56a13.282 13.282 0 00-13.28 13.27v284.69a13.26 13.26 0 003.893 9.38 13.277 13.277 0 009.387 3.89h238.93c3.519 0 6.895-1.4 9.383-3.89a13.262 13.262 0 003.887-9.38V778c0-12.18-5.88-19.84-18.97-19.84z" fill="#E0F2FE"/><path d="M612.84 758.16c63.54 0 88.52 43.39 78.9 272-18.74 6.7-55.91 4.59-55.91 4.59l-22.99-276.59z" fill="#E0F2FE"/><path d="M451.06 855.4l48.45-24.09 48.58 24.09-37.06-43.02-43.89.83-16.08 42.19z" fill="#E2E2E2"/><path d="M635.63 831.31s-22.79 84.54-19.31 234l33.21-31 3.58-137.58c-5.62-72.23-17.48-65.42-17.48-65.42z" fill="#BAE6FD"/><path d="M389 758.16c-61.78 0-88.88 56.45-80.75 245.48 22.42 9.91 56.19 5.58 56.19 5.58L389 758.16z" fill="#E0F2FE"/><path d="M306.94 957.49c.173 13.64.577 28.133 1.21 43.48 15.27.73 43.69.88 57.11 0l4.18-42.81c-10.77-1.26-45.78-1.67-62.5-.67z" fill="#E2E2E2"/><path d="M370.12 831.31l-.5 177.69-13.35.9c-2.97-149.05 13.85-178.59 13.85-178.59z" fill="#BAE6FD"/><path d="M612.84 758.16c67.42 0 78.45 56.28 78.9 133.78v138.22s-50 5.53-55.91 4.59l-.1-142.11M389 758.16c-25.73 0-43.52 8.12-55.71 22.44-19.45 22.87-24.63 61.54-25 108.27v123.77c12.06 3.32 61.36-3.64 61.36-3.64l.49-118.6" stroke="#111827" stroke-width="12" stroke-miterlimit="10" stroke-linecap="square"/><path d="M372.6 1011.24c-1.83 2.61-73.77 1.92-74.67 0-.9-1.92-2.19-37.5 0-41 1.8-2.88 72.11-2.27 74.67 0 2.56 2.27 1.83 38.39 0 41z" fill="#fff" stroke="#111827" stroke-width="12" stroke-miterlimit="10" stroke-linecap="square"/><path d="M383.43 1069.39H500c-109.19 0-100.91-231.14-129.89-231.14v217.87a13.268 13.268 0 008.228 12.27c1.615.67 3.345 1.01 5.092 1z" fill="#BAE6FD"/><path d="M364.15 860.29c-.19-3.67-.11-7.35.06-11 .17-3.65.47-7.34.85-11 .2-1.83.41-3.67.65-5.51.24-1.84.49-3.67.85-5.5a44.074 44.074 0 013.59-11 44.074 44.074 0 013.59 11c.36 1.83.62 3.67.85 5.5.23 1.83.45 3.68.65 5.51.387 3.68.673 7.347.86 11 .16 3.67.24 7.35 0 11h-11.95z" fill="#111827"/><path d="M635.63 869.4v8c.26 34 .26 69 0 102.76v75.94c0 3.52-1.398 6.89-3.887 9.38a13.266 13.266 0 01-9.383 3.89H383.43c-3.52 0-6.897-1.4-9.387-3.89a13.26 13.26 0 01-3.893-9.38v-65.8c-.26-34.86-.26-69.86 0-105.3v-24.71" stroke="#111827" stroke-width="12" stroke-miterlimit="10"/><path d="M697.42 970.24c2.22 2.26 1.59 38.39 0 41-1.59 2.61-64 1.92-64.77 0-.77-1.92-1.9-37.5 0-41 .27-.5 2.28-.89 5.45-1.18" fill="#fff"/><path d="M697.42 970.24c2.22 2.26 1.59 38.39 0 41-1.59 2.61-64 1.92-64.77 0-.77-1.92-1.9-37.5 0-41 .27-.5 2.28-.89 5.45-1.18" stroke="#111827" stroke-width="12" stroke-miterlimit="10" stroke-linecap="square"/><path d="M678.92 968.3a23.663 23.663 0 011.88-2.16 12.113 12.113 0 011.78-1.47 12.76 12.76 0 011.81-1c.61-.29 1.22-.54 1.83-.79a24.142 24.142 0 013.79-1.18 15.866 15.866 0 012-.31H694c.12 0 .44 0 .71.07h.35l.49.11.25.06.2.06.57.21a6.449 6.449 0 012 1.37l4.2 4.29-8.65 8.48-4.12-4.37a5.727 5.727 0 001.91 1.32c.18.08.36.14.54.2h.17l.19.05c.124.041.251.071.38.09H693.6h-2.72a26.268 26.268 0 01-3.92-.53c-.67-.15-1.34-.3-2-.49a12.552 12.552 0 01-2-.72 9.973 9.973 0 01-2.08-1.32 8.167 8.167 0 01-1.96-1.97z" fill="#111827"/><path d="M592.51 763.64l-74.67 54.81 42.14 34.38 59.42-89.24-26.89.05z" fill="#E2E2E2"/><path d="M629.63 869.4c-.19-4.18-.1-8.36.06-12.53s.47-8.36.86-12.53c.2-2.09.4-4.18.64-6.27s.49-4.18.86-6.27a54.849 54.849 0 013.58-12.53 54.364 54.364 0 013.59 12.53c.36 2.09.63 4.18.85 6.27.22 2.09.45 4.18.65 6.27.39 4.17.69 8.35.85 12.53.16 4.18.26 8.35.06 12.53h-12z" fill="#111827"/><path d="M383.43 758.26l233.23-.1" stroke="#111827" stroke-width="12" stroke-miterlimit="10"/><path d="M529.39 835.55l-22.35-22.34-22.34 22.34 10.98 10.98-9.72 106.63 20.74 16.17 21.42-16.17-9.71-106.63 10.98-10.98z" fill="#E2E2E2"/><path d="M500.04 813.21v256.18" stroke="#111827" stroke-width="6" stroke-miterlimit="10" stroke-linecap="square"/><path d="M500.04 813.21l22.35 15.34-22.35 22.35-22.34-22.35 22.34-15.34z" fill="#633749"/><path d="M419.62 758.8s43.27 39.34 74.66 54.81C479 838.82 452.15 848 452.15 848l-59.43-89.23 26.9.03zM580.38 758.8S541 800 505.72 813.61c10 20.28 42.13 34.37 42.13 34.37l59.43-89.23-26.9.05z" fill="#fff" stroke="#111827" stroke-width="12" stroke-miterlimit="10"/><path d="M478.96 946.16l20.74 16.17 21.42-16.17-10-109.78h-22.16l-10 109.78z" fill="#0284C7"/><path d="M477.7 828.55l10.98 10.98-9.72 106.63 20.74 16.17 21.42-16.17-9.71-106.63 10.98-10.98" stroke="#111827" stroke-width="8" stroke-miterlimit="10"/><path d="M637.54 963.08a50.946 50.946 0 018.84-.47c2.9.07 5.78.3 8.66.65 1.43.18 2.87.37 4.3.61a43.43 43.43 0 014.29.85 27.526 27.526 0 018.5 3.67 30.137 30.137 0 01-8.52 3.5c-1.41.36-2.82.63-4.23.86-1.41.23-2.81.47-4.21.69-2.8.42-5.59.78-8.35 1-2.76.22-5.52.5-8.16.54l-6 .1-1-11.13 5.88-.87zM490.89 836.19c-.05-.06 0 0 0 0l.07.05a.871.871 0 01.17.12l.38.29c.25.21.52.42.78.65.53.45 1.09.93 1.7 1.39.61.46 1.27.9 2 1.42a27.441 27.441 0 012.71 2.33 5.613 5.613 0 01-3.13 2.43 9.43 9.43 0 01-3.7.27 11.012 11.012 0 01-3.63-1 9.722 9.722 0 01-1.65-1 9.112 9.112 0 01-1.14-.99l-.2-.21-.25-.29 5.89-5.46z" fill="#111827"/><path d="M670.06 788.32c2.2-2.213 4.367-4.45 6.5-6.71 45.16-54.71 48.7-112.39 57.87-148.37V619l-2.44.84c.83-1.52 1.65-3 2.44-4.56-.06-.1-3.49 3.38-3.55 3.28a33.653 33.653 0 01-5.08 3.44l-32.55 11.28a220.375 220.375 0 01-43.89 3.82c-63-.26-63.24-14.87-113.2-20l-96.49 1.58c-25.69 3.84-37.06 11.81-88 12.85-44.15.9-83.62-10-83.62-10v12.68c14 36.84 4.58 64.43 29 110.49 0-.65 0-1.31-.05-2-4.39-21.71 0-41.57 2.12-49.19.21-1.88.36-2.92.36-2.92v-.07-.2.1c0 .14.11.45.22.9.23-.72.36-1.11.36-1.11s.89 4.91 2.54 12.74c3.93 15.48 11.16 43 19.45 70.08.92 2.43 1.87 4.81 2.84 7.11.07.21.15.44.23.65 27.94 29.88 62.13 55.36 93.14 74.5 3.34 2 6.51 3.87 9.48 5.61a86.41 86.41 0 012.41-43.06s.07.38.21 1.08c.24-.77.4-1.19.4-1.19s11.43 47.45 34.52 62.83c.57.24 1.15.47 1.73.66l-.44.16.1.06c.58.33 1.18.65 1.77 1a208.48 208.48 0 0021.34 8.53c5.41 1.57 9.84 2.39 12 2.39 4.75 0 32-10.61 48.69-49.07 1.1-3.27 1.63-5.32 1.63-5.32l.28.69c.11-.27.22-.53.32-.8a55.992 55.992 0 018 30.14 525.949 525.949 0 0072.06-47.55v-.11c.27-.64.53-1.29.8-1.94l.06-.13.81-2 .84-2.08c14.48-35.83 23.58-89 23.58-89 .06-.18.28.09.6.74v-.85s16.27 22.41 10.61 62.24z" fill="#A56941"/><path d="M670.06 788.32c2.2-2.213 4.367-4.45 6.5-6.71 45.16-54.71 48.7-112.39 57.87-148.37V619l-2.44.84c.83-1.52 1.65-3 2.44-4.56-.06-.1-3.49 3.38-3.55 3.28a33.653 33.653 0 01-5.08 3.44l-32.55 11.28a220.375 220.375 0 01-43.89 3.82c-63-.26-63.24-14.87-113.2-20l-96.49 1.58c-25.69 3.84-37.06 11.81-88 12.85-44.15.9-83.62-10-83.62-10v12.68c14 36.84 4.58 64.43 29 110.49 0-.65 0-1.31-.05-2-4.39-21.71 0-41.57 2.12-49.19.21-1.88.36-2.92.36-2.92v-.07-.2.1c0 .14.11.45.22.9.23-.72.36-1.11.36-1.11s.89 4.91 2.54 12.74c3.93 15.48 11.16 43 19.45 70.08.92 2.43 1.87 4.81 2.84 7.11.07.21.15.44.23.65 27.94 29.88 62.13 55.36 93.14 74.5 3.34 2 6.51 3.87 9.48 5.61a86.41 86.41 0 012.41-43.06s.07.38.21 1.08c.24-.77.4-1.19.4-1.19s11.43 47.45 34.52 62.83c.57.24 1.15.47 1.73.66l-.44.16.1.06c.58.33 1.18.65 1.77 1a208.48 208.48 0 0021.34 8.53c5.41 1.57 9.84 2.39 12 2.39 4.75 0 32-10.61 48.69-49.07 1.1-3.27 1.63-5.32 1.63-5.32l.28.69c.11-.27.22-.53.32-.8a55.992 55.992 0 018 30.14 525.949 525.949 0 0072.06-47.55v-.11c.27-.64.53-1.29.8-1.94l.06-.13.81-2 .84-2.08c14.48-35.83 23.58-89 23.58-89 .06-.18.28.09.6.74v-.85s16.27 22.41 10.61 62.24z" fill="#A56941"/><path d="M670.06 788.32c2.2-2.213 4.367-4.45 6.5-6.71 45.16-54.71 48.7-112.39 57.87-148.37V619l-2.44.84c.83-1.52 1.65-3 2.44-4.56-.06-.1-3.49 3.38-3.55 3.28a33.653 33.653 0 01-5.08 3.44l-32.55 11.28a220.375 220.375 0 01-43.89 3.82c-63-.26-78.3-19.69-113.2-20-34.9-.31-76.95-1.23-96.49 1.58-19.54 2.81-37.06 11.81-88 12.85-44.15.9-83.62-10-83.62-10v12.68c14 36.84 4.58 64.43 29 110.49 0-.65 0-1.31-.05-2-4.39-21.71 0-41.57 2.12-49.19.21-1.88.36-2.92.36-2.92v-.07-.2.1c0 .14.11.45.22.9.23-.72.36-1.11.36-1.11s.89 4.91 2.54 12.74c3.93 15.48 11.16 43 19.45 70.08.92 2.43 1.87 4.81 2.84 7.11.07.21.15.44.23.65 27.94 29.88 62.13 55.36 93.14 74.5 3.34 2 6.51 3.87 9.48 5.61a86.41 86.41 0 012.41-43.06s.07.38.21 1.08c.24-.77.4-1.19.4-1.19s11.43 47.45 34.52 62.83c.57.24 1.15.47 1.73.66l-.44.16.1.06c.58.33 1.18.65 1.77 1a208.48 208.48 0 0021.34 8.53c5.41 1.57 9.84 2.39 12 2.39 4.75 0 32-10.61 48.69-49.07 1.1-3.27 1.63-5.32 1.63-5.32l.28.69c.11-.27.22-.53.32-.8a55.992 55.992 0 018 30.14 525.949 525.949 0 0072.06-47.55v-.11c.27-.64.53-1.29.8-1.94l.06-.13.81-2 .84-2.08c14.48-35.83 23.58-89 23.58-89 .06-.18.28.09.6.74v-.85s16.27 22.41 10.61 62.24z" fill="#A56941"/><path d="M343.5 706.91a23.122 23.122 0 0013.79 5.8C343 701.34 337.78 690.32 336 685.36a271.651 271.651 0 01-10-54.55 329.347 329.347 0 01-57.87-9.33v12.68c14 36.84 4.58 64.43 29 110.49 0-.65 0-1.31-.05-2-4.39-21.71 0-41.57 2.12-49.19.21-1.88.36-2.92.36-2.92v-.07-.2.1c0 .14.11.45.22.9.23-.72.36-1.11.36-1.11s.89 4.91 2.54 12.74c3.93 15.48 11.16 43 19.45 70.08.92 2.43 1.87 4.81 2.84 7.11.07.21.15.44.23.65 27.94 29.88 62.13 55.36 93.14 74.5 3.34 2 6.51 3.87 9.48 5.61a86.398 86.398 0 012.41-43.06s.07.38.21 1.08c.24-.77.4-1.19.4-1.19s11.43 47.45 34.52 62.83c.57.24 1.15.47 1.73.66l-.44.16.1.06c.58.33 1.18.65 1.77 1a208.388 208.388 0 0021.34 8.53c5.41 1.57 9.84 2.39 12 2.39 3.53 0 19.51-5.88 34.33-24.72C466.94 846.06 380.78 800 343.5 706.91z" fill="#8D5638"/><path d="M433.87 816.78s9.49 9 29.29 4.09c-1.47 3.55-5.93 5.4-5.93 5.4s6.17 8.13 19.06 7.75c0 0-7.73 4.8-15.53 1.65a169.87 169.87 0 00-18.35-1.67l-13.51-9.38 4.97-7.84z" fill="#8D5638"/><path d="M351.7 631.52c-1.76.32-3.52.6-5.28.84-.89.11-1.77.25-2.65.35l-2.66.24-5.32.38c-1.78.08-3.56.09-5.33.14-3.56.07-7.11-.07-10.67-.2-3.56-.13-7.1-.37-10.64-.71-3.54-.34-7.07-.7-10.61-1.1-3.54-.4-7.05-1-10.56-1.56a196.773 196.773 0 01-21-4.57l-3.85-1.08 2.1-7.57 3.88.94c6.61 1.61 13.47 3.13 20.27 4.49 6.8 1.36 13.68 2.64 20.57 3.72 3.44.59 6.89 1 10.35 1.56s6.92 1 10.39 1.31c6.98.95 13.95 1.66 21.01 2.82z" fill="#111827"/><path d="M669.31 789.07c10.26-10.26 9.29-9.63 17.79-20.94-1.5-34.48-30-53.71-30-53.71l1.9 11.66c.84.16 7.91 18.47 7.56 46.08l2.75 16.91zM575.36 859.87c-5.72-24.9-22.42-29.15-22.42-29.15l3.21 19.45a96.465 96.465 0 013.9 19.14c5-2.72 10.16-5.66 15.45-8.78l-.14-.66z" fill="#8D5638"/><path d="M340.09 735.62a90.572 90.572 0 006.59 20.14A121.762 121.762 0 00357 773.89l3.09 4.18c.53.68 1 1.42 1.56 2.07l1.66 2c1.13 1.31 2.19 2.68 3.35 4l3.56 3.78c.6.62 1.16 1.28 1.77 1.89l1.9 1.78 3.77 3.58c2.58 2.32 5.33 4.45 7.94 6.75l-6.28 3.32-.06-4c.05-1.32.07-2.64.2-4 .13-1.36.23-2.65.46-4 .11-.66.18-1.32.32-2l.43-2a43.826 43.826 0 012.52-7.67A35.15 35.15 0 01385 780c.34-.6.73-1.18 1.13-1.77.21-.29.4-.57.64-.87.24-.3.42-.54.78-.95l4.46-5.06.56 6.55c.1 1.09.3 2.4.53 3.61.23 1.21.51 2.46.84 3.68a48.101 48.101 0 002.51 7.14 36.337 36.337 0 003.9 6.55 29.008 29.008 0 005.62 5.42 23.792 23.792 0 01-7-4.07 31.32 31.32 0 01-5.54-6.17 43.835 43.835 0 01-4-7.32c-.54-1.28-1-2.58-1.46-3.91a34.135 34.135 0 01-1.11-4.16l5 1.49c0 .08-.22.35-.34.55-.12.2-.26.46-.39.69-.25.48-.5 1-.73 1.48a33.525 33.525 0 00-1.24 3.15 44.454 44.454 0 00-1.62 6.69 55.453 55.453 0 00-.65 6.94c-.06 1.16 0 2.34 0 3.51l.16 3.53.4 8.64-6.68-5.32c-1.44-1.15-2.87-2.29-4.29-3.46l-2.14-1.75c-.7-.59-1.44-1.14-2.09-1.79l-4-3.83-2-1.91c-.64-.67-1.25-1.36-1.86-2.05l-3.67-4.15c-1.21-1.39-2.26-2.92-3.38-4.39a105.255 105.255 0 01-6.17-9.19 91.835 91.835 0 01-8.63-20.3c-1.93-7.01-3.11-14.36-2.45-21.58z" fill="#111827"/><path d="M638.78 724.34c.51.469.925 1.033 1.22 1.66.321.628.601 1.276.84 1.94A33.861 33.861 0 01642 732c.559 2.744.92 5.524 1.08 8.32a94.25 94.25 0 01-.54 16.71 109.36 109.36 0 01-9 32.28A90.587 90.587 0 01614.3 817a70.11 70.11 0 01-28.51 17 111.536 111.536 0 0023.91-21.31A118.613 118.613 0 00626.25 786a157.494 157.494 0 0010.09-30 151.368 151.368 0 002.81-15.76c.32-2.65.54-5.32.63-8 .053-1.334.026-2.67-.08-4a14.631 14.631 0 00-.26-2 5.73 5.73 0 00-.66-1.9z" fill="#fff"/><path d="M262.51 621.57c22.24 43.9 7.22 72.38 35.18 124.3-7-29 2.43-55.68 2.43-55.68S310 744.78 325 780.12c7.28 23.46 69.85 61.4 103.55 81.17a86.327 86.327 0 012.32-43.58s11.89 49.36 35.91 63.71c13.43 7.58 30.15 11.89 35.13 11.89 4.98 0 34.53-11.58 50.92-54.5a55.992 55.992 0 017.9 30.68c22.18-12 53.39-25.68 72.45-47.65 26.34-34.69 26.34-95.84 26.34-95.84s16.48 22.85 10.41 63.3c61.76-68.3 54.34-143.14 71.42-175.57" stroke="#111827" stroke-width="12" stroke-miterlimit="10"/><path d="M734.38 616.77c.282.514.679.955 1.16 1.29a4.004 4.004 0 002.15.7c.579.016 1.153-.1 1.68-.34h-.09l-.2.11-.48.24-1 .51-2 1a7453.56 7453.56 0 01-4 2c-2.69 1.32-5.41 2.57-8.13 3.81-2.72 1.24-5.5 2.41-8.27 3.57-2.77 1.16-5.6 2.23-8.47 3.26-1.44.51-2.89 1-4.39 1.43a39.304 39.304 0 01-4.75 1.15c-.47.08-.81.11-1.18.16l-1.12.13c-.74.09-1.48.16-2.23.23-1.49.14-3 .3-4.49.4a85.486 85.486 0 01-18.09-.43c5.86-1.58 11.62-2.89 17.37-4.29l8.59-2a35.228 35.228 0 003.81-1.36c1.31-.52 2.63-1.14 4-1.72 2.65-1.19 5.29-2.47 7.93-3.77 2.64-1.3 5.29-2.61 7.93-3.93l7.94-4 4-2 2-1 1-.48.53-.25.3-.13.16-.08h.05a4.11 4.11 0 015.19 1.57l2.13 3.38-7.06 4.19-1.97-3.35z" fill="#111827"/><path d="M703.51 506.11V519a49.582 49.582 0 01-1.94 25.32 45.633 45.633 0 01-3.51 7.65c-3.35 8.71-12.35 15.71-21.35 18.71-14 4-31 2-42-9-14-15-12-37-12.45-55.62M376.69 505.7c2.34 26.61-1.66 63.61-36.13 67.17-2.701.24-5.419.24-8.12 0a43.596 43.596 0 01-22.44-8.56c-18-15-14-39-13.95-58.62M446.66 606.02h95.87" stroke="#111827" stroke-width="12" stroke-miterlimit="10" stroke-linecap="round"/><path d="M558.73 399.34c-12.86 24-60 37.44-63.83 31.42-4.29-6.73 37.85-55.32 13.9-106.14" fill="#F3AB98"/><path d="M784 342.85c-5.1-5.1-31.06 1.83-57.19-.23a280.995 280.995 0 00-221.18-114.34c-2.44-20.48-.75-37.68-2.61-40.1-2.49-3.22-15.49 12.68-18.87 31-11.91-15-32.14-23-32.72-18.8-.38 2.68 7.44 14.09 14.81 29.9-111.6 13.47-203.08 92.26-235.08 197-13.86 11.92-26.86 20.34-27 25.69-.27 9.92 39.31 9.36 56.58 7.82v-.06c60.65-2 179-13.78 236.42-72.89-5.52 19.09-15.69 33.16-13.73 36.16 3 4.67 38.32-5.19 50.07-23.24 48 19.59 139.49 43.16 219-16.16l-.22-.43c14.49-12.11 38.07-34.92 31.72-41.32z" fill="#A56941"/><path d="M726.85 348.62c-5.4.24-10.66.11-16-.14s-10.59-.67-15.87-1.26c-2.64-.29-5.28-.6-7.91-1s-5.27-.72-7.89-1.23a76.969 76.969 0 01-15.58-4.54 91.882 91.882 0 0116-2.62c2.63-.22 5.26-.37 7.89-.48l7.88-.34c5.25-.22 10.49-.34 15.72-.45 5.23-.11 10.48-.12 15.62 0l.14 12.06zM236.6 430v.39l-.12.53-.28 1.11c-.21.75-.43 1.52-.66 2.29-.47 1.55-1 3.14-1.54 4.75-.54 1.61-1.06 3.28-1.77 5a20.526 20.526 0 01-1.38 2.6 17.868 17.868 0 01-2.07 2.77 13.136 13.136 0 01-3.72-5.47 16.139 16.139 0 01-.76-2.9c-.21-1-.31-2-.43-2.95-.2-1.995-.2-4.005 0-6a24.52 24.52 0 01.48-3c.12-.5.25-1 .41-1.51.077-.261.167-.518.27-.77.1-.28.18-.48.36-.9L236.6 430z" fill="#111827"/><path d="M260.74 460.82v-.06c17-.56 38.63-1.9 62.14-4.84 2.63-55.92 22-121.58 65.92-198.44l-6.8-3.25a282.162 282.162 0 00-150.84 173.08c-13.86 11.92-26.86 20.34-27 25.69-.27 9.92 39.31 9.36 56.58 7.82z" fill="#8D5638"/><path d="M784 342.85c-5.1-5.1-31.06 1.83-57.19-.23a280.995 280.995 0 00-221.18-114.34c-2.44-20.48-.75-37.68-2.61-40.1-2.49-3.22-15.49 12.68-18.87 31-11.91-15-32.14-23-32.72-18.8-.38 2.68 7.44 14.09 14.81 29.9-111.6 13.47-203.08 92.26-235.08 197-13.86 11.92-26.86 20.34-27 25.69-.27 9.92 39.31 9.36 56.58 7.82v-.06c60.65-2 179-13.78 236.42-72.89-5.52 19.09-15.69 33.16-13.73 36.16 3 4.67 38.32-5.19 50.07-23.24 48 19.59 139.49 43.16 219-16.16l-.22-.43c14.49-12.11 38.07-34.92 31.72-41.32z" stroke="#111827" stroke-width="12" stroke-miterlimit="10"/><path d="M505.93 244.31a367.32 367.32 0 00-42.48 4.94c-3.48.67-6.95 1.41-10.44 2.05-3.49.64-6.9 1.61-10.35 2.41l-10.26 2.72c-3.4 1-6.77 2.08-10.15 3.12a314.038 314.038 0 00-39.43 15.73 348.298 348.298 0 00-37.25 21 183.903 183.903 0 0135.08-25.14 219.215 219.215 0 0139.76-17.29c3.48-1 6.94-2.09 10.42-3.05 3.48-.96 7-1.82 10.55-2.6 3.55-.78 7.1-1.4 10.66-2 3.56-.6 7.15-1.07 10.73-1.52a189.93 189.93 0 0143.16-.37z" fill="#fff"/><path d="M603.1 452.29a320.69 320.69 0 0133.51-6.66L634 446a150.298 150.298 0 0139.75-.48l-2.66-.36c3.28.45 6.54 1 9.82 1.41l-2.66-.35a222.335 222.335 0 0129.48 6.1c5 1.4 11.11-1.72 12.3-7a10.189 10.189 0 00-7-12.3 239.237 239.237 0 00-34.58-6.78l2.65.36a142.914 142.914 0 00-33.43-1.95 236.76 236.76 0 00-33.1 4.54c-5.61 1.14-11.19 2.44-16.76 3.81-5.08 1.25-8.61 7.26-7 12.3a10.213 10.213 0 0012.3 7l-.01-.01zM261.26 502.22l14.13-1.48 33.67-3.52 40.94-4.29 35.18-3.69c5.72-.59 11.44-1.17 17.16-1.79h.24c2.73-.28 5.07-.92 7.07-2.93a9.998 9.998 0 000-14.14c-1.83-1.69-4.48-3.2-7.07-2.93l-14.13 1.48-33.67 3.53-41 4.29-35.18 3.68c-5.72.6-11.44 1.18-17.16 1.8h-.24c-2.73.29-5.07.93-7.07 2.93a9.995 9.995 0 00-2.933 7.075 9.995 9.995 0 002.933 7.075c1.83 1.68 4.48 3.2 7.07 2.92l.06-.01z" fill="#111827"/><path opacity=".15" d="M725 631.82a265.318 265.318 0 0026.3-59.43c-17.24 35.74-49.84 65.46-92.11 65.46a106.749 106.749 0 01-106.61-106.63 105.677 105.677 0 017.83-40.22H758a105.305 105.305 0 017.62 33.39c.73-8 1.12-16.19 1.12-24.42a269.111 269.111 0 00-1.58-29H234.83a269.111 269.111 0 00-1.58 29c0 4.73.14 9.42.38 14.09A104.871 104.871 0 01240.1 491h197.6a106.701 106.701 0 01-98.8 146.82c-38.8 0-68.82-25.83-87.48-56.89a266.199 266.199 0 0024.76 52.84c19.39 12.07 38.25 24.05 62.72 24.05a126.783 126.783 0 00126.63-126.6c0-1.81 0-3.61-.12-5.4 23.38-8.23 45.52-8.35 67.31-.36-.08 1.91-.14 3.83-.14 5.76a126.782 126.782 0 00126.63 126.63c25.79 0 45.79-12.75 65.79-26.03zM535.26 505.18c-23.4-7.55-47.64-7.42-72.33.39A124.54 124.54 0 00459 491h80.1a122.551 122.551 0 00-3.84 14.18z" fill="#000"/><path opacity=".95" d="M233.59 469.82s.41 32.23.41 50.2c0 64.41 40.48 116.63 104.9 116.63a116.68 116.68 0 00105.3-166.83H233.59zM553.91 469.82a116.676 116.676 0 006.684 112.428 116.672 116.672 0 0042.31 39.887 116.67 116.67 0 0056.306 14.515c64.42 0 107.54-52.22 107.54-116.63 0-18-2.23-50.2-2.23-50.2H553.91z" fill="#111827"/><path opacity=".25" d="M320 626.86l123.07-123.08a92.971 92.971 0 00-10-17.27L302.72 616.88a93.637 93.637 0 0017.28 9.98z" fill="#fff"/><path d="M455.86 507.53c29.52-12 58.53-12.42 87 0" stroke="#111827" stroke-width="20" stroke-miterlimit="10"/><path d="M274.28 504.75c2.06 6.51-5.94 11.51-11.94 12.51-6 0-10-4-12-9-1-5 0-10 4-13 5-2 12-4 16.44 1.12a11.708 11.708 0 013.5 8.37zM285 500.93c-.61 4.33-6.61 4.33-7.61.33 0-3 1-4 3.84-4.1a3.77 3.77 0 013.77 3.77z" fill="#fff"/><path opacity=".25" d="M645.19 618.92l106.28-106.28a93.969 93.969 0 00-2.41-11.22L634 616.51a94.362 94.362 0 0011.19 2.41z" fill="#fff"/><path d="M590.68 505.73c2.06 6.51-5.94 11.51-11.94 12.51-6 0-10-4-12-9-1-5 0-10 4-13 5-2 12-4 16.45 1.12a11.7 11.7 0 013.49 8.37zM601.35 501.91c-.61 4.33-6.61 4.33-7.61.33 0-3 1-4 3.85-4.1a3.765 3.765 0 013.477 2.328c.188.458.285.948.283 1.442z" fill="#fff"/><path d="M233.59 469.82s-.34 31.69.41 50.2c2.6 64.36 40.48 116.63 104.9 116.63a116.688 116.688 0 00116.422-109.756A116.688 116.688 0 00444.2 469.82H233.59zM553.91 469.82a116.676 116.676 0 006.684 112.428 116.672 116.672 0 0042.31 39.887 116.67 116.67 0 0056.306 14.515c64.42 0 107.54-51.53 107.54-115.94 0-18-2.23-50.89-2.23-50.89H553.91zM423.14 469.81h151.83" stroke="#111827" stroke-width="20" stroke-miterlimit="10"/></g></svg>