<?xml version="1.0" encoding="utf-8"?>
<!-- Generator: Adobe Illustrator 24.3.0, SVG Export Plug-In . SVG Version: 6.00 Build 0)  -->
<svg version="1.1" id="Layer_1" xmlns="http://www.w3.org/2000/svg" xmlns:xlink="http://www.w3.org/1999/xlink" x="0px" y="0px"
	 viewBox="0 0 4697.6 5516.6" style="enable-background:new 0 0 4697.6 5516.6;" xml:space="preserve">
<style type="text/css">
	.st0{fill:#1940B0;}
	.st1{fill:none;stroke:#73C8FE;stroke-width:10;stroke-miterlimit:10;}
	.st2{fill:#5696BF;}
	.st3{fill:#73C8FE;}
	.st4{fill:url(#SVGID_1_);fill-opacity:0.6;}
	.st5{fill-rule:evenodd;clip-rule:evenodd;fill:#B28B67;}
	.st6{fill-rule:evenodd;clip-rule:evenodd;fill:#1940B0;}
	.st7{fill-rule:evenodd;clip-rule:evenodd;fill:#C5CFD6;}
	.st8{fill-rule:evenodd;clip-rule:evenodd;fill:#E4E4E4;}
	.st9{fill-rule:evenodd;clip-rule:evenodd;fill:#997659;}
	.st10{fill-rule:evenodd;clip-rule:evenodd;fill:#AFB9C5;}
	.st11{fill:#C5CFD6;}
	.st12{fill-rule:evenodd;clip-rule:evenodd;fill:#191847;}
	.st13{fill:none;stroke:#EAEEF6;stroke-width:10;}
	.st14{fill:none;stroke:#EAEEF6;stroke-width:10;stroke-dasharray:51.7774,51.7774;}
	.st15{fill:none;stroke:#EAEEF6;stroke-width:10;stroke-dasharray:51.7822,51.7822;}
	.st16{fill:url(#SVGID_2_);}
	.st17{fill:#F5FAFD;}
	.st18{fill:#E6007A;}
	.st19{fill-rule:evenodd;clip-rule:evenodd;fill-opacity:0.1;}
	.st20{fill:#EAEEF6;}
	.st21{fill:#FFFFFF;}
	.st22{clip-path:url(#SVGID_4_);fill:url(#SVGID_5_);fill-opacity:0.6;}
	.st23{clip-path:url(#SVGID_7_);fill:url(#SVGID_8_);fill-opacity:0.6;}
</style>
<g id="Layer_2_3_">
	<g id="BACKGROUND">
		<circle class="st0" cx="2202.8" cy="2618" r="9.8"/>
		<path class="st0" d="M2148,2618c0,5.4-4.4,9.8-9.8,9.8c-5.4,0-9.8-4.4-9.8-9.8c0-5.4,4.4-9.8,9.8-9.8l0,0
			C2143.6,2608.2,2148,2612.6,2148,2618z"/>
		<path class="st0" d="M2083.3,2618c0,5.4-4.4,9.8-9.8,9.8c-5.4,0-9.8-4.4-9.8-9.8c0-5.4,4.4-9.8,9.8-9.8c0,0,0,0,0.1,0
			C2078.9,2608.2,2083.3,2612.5,2083.3,2618C2083.3,2618,2083.3,2618,2083.3,2618z"/>
		<circle class="st0" cx="2202.8" cy="2568.2" r="9.8"/>
		<path class="st0" d="M2148,2568.2c0,5.4-4.4,9.8-9.8,9.8c-5.4,0-9.8-4.4-9.8-9.8c0-5.4,4.4-9.8,9.8-9.8
			C2143.6,2558.4,2148,2562.8,2148,2568.2L2148,2568.2z"/>
		<path class="st0" d="M2083.3,2568.2c0,5.4-4.4,9.8-9.8,9.8c-5.4,0-9.8-4.4-9.8-9.8c0-5.4,4.4-9.8,9.8-9.8c0,0,0,0,0.1,0
			C2078.9,2558.4,2083.3,2562.7,2083.3,2568.2C2083.3,2568.1,2083.3,2568.2,2083.3,2568.2z"/>
		<circle class="st0" cx="2202.8" cy="2518.4" r="9.8"/>
		<path class="st0" d="M2148,2518.4c0,5.4-4.4,9.8-9.8,9.8c-5.4,0-9.8-4.4-9.8-9.8c0-5.4,4.4-9.8,9.8-9.8
			C2143.6,2508.6,2148,2513,2148,2518.4L2148,2518.4z"/>
		<path class="st0" d="M2083.3,2518.4c0,5.4-4.4,9.8-9.8,9.8c-5.4,0-9.8-4.4-9.8-9.8c0-5.4,4.4-9.8,9.8-9.8c0,0,0,0,0.1,0
			C2078.9,2508.6,2083.3,2513,2083.3,2518.4z"/>
		<circle class="st0" cx="2202.8" cy="2468.5" r="9.8"/>
		<path class="st0" d="M2148,2468.5c0,5.4-4.3,9.8-9.7,9.9s-9.8-4.3-9.9-9.7c0-5.4,4.3-9.8,9.7-9.9c0,0,0,0,0.1,0
			C2143.6,2458.8,2147.9,2463.1,2148,2468.5z"/>
		<path class="st0" d="M2083.3,2468.5c0,5.4-4.3,9.8-9.7,9.9c-5.4,0-9.8-4.3-9.9-9.7c0-5.4,4.3-9.8,9.7-9.9c0,0,0.1,0,0.1,0
			C2078.9,2458.8,2083.3,2463.1,2083.3,2468.5L2083.3,2468.5z"/>
		<circle class="st0" cx="2202.8" cy="2418.7" r="9.8"/>
		<path class="st0" d="M2148,2418.7c0.2,5.4-4,10-9.5,10.2c-5.4,0.2-10-4-10.2-9.5s4-10,9.5-10.2c0.1,0,0.2,0,0.4,0
			C2143.5,2409.2,2147.8,2413.4,2148,2418.7z"/>
		<path class="st0" d="M2083.3,2418.7c0.2,5.4-4,10-9.5,10.2c-5.4,0.2-10-4-10.2-9.5c-0.2-5.4,4-10,9.5-10.2c0.1,0,0.3,0,0.4,0
			C2078.8,2409.2,2083.1,2413.4,2083.3,2418.7z"/>
		<circle class="st0" cx="2202.8" cy="2368.9" r="9.8"/>
		<path class="st0" d="M2148,2368.9c0,5.4-4.4,9.8-9.8,9.8c-5.4,0-9.8-4.4-9.8-9.8c0-5.4,4.4-9.8,9.8-9.8c0,0,0,0,0,0
			C2143.6,2359.1,2148,2363.5,2148,2368.9z"/>
		<path class="st0" d="M2083.3,2368.9c0,5.4-4.4,9.8-9.8,9.8c-5.4,0-9.8-4.4-9.8-9.8c0-5.4,4.4-9.8,9.8-9.8c0,0,0,0,0.1,0
			C2078.9,2359.1,2083.3,2363.5,2083.3,2368.9z"/>
		<path class="st0" d="M2083.3,2767.6c0,5.4-4.4,9.8-9.8,9.8s-9.8-4.4-9.8-9.8c0-5.4,4.4-9.8,9.8-9.8c0,0,0,0,0.1,0
			C2078.9,2757.7,2083.3,2762.1,2083.3,2767.6C2083.3,2767.5,2083.3,2767.5,2083.3,2767.6z"/>
		<circle class="st0" cx="2008.8" cy="2767.5" r="9.8"/>
		<circle class="st0" cx="1944.2" cy="2767.5" r="9.8"/>
		<path class="st0" d="M2083.3,2717.4c0,5.4-4.4,9.8-9.8,9.8c-5.4,0-9.8-4.4-9.8-9.8c0-5.4,4.4-9.8,9.8-9.8c0,0,0,0,0.1,0
			C2078.9,2707.6,2083.3,2712,2083.3,2717.4z"/>
		<circle class="st0" cx="2008.8" cy="2717.7" r="9.8"/>
		<circle class="st0" cx="1944.2" cy="2717.7" r="9.8"/>
		<path class="st0" d="M2083.3,2667.8c0,5.4-4.3,9.8-9.7,9.9c-5.4,0-9.8-4.3-9.9-9.7c0-5.4,4.3-9.8,9.7-9.9c0,0,0.1,0,0.1,0
			C2078.9,2658.1,2083.3,2662.4,2083.3,2667.8L2083.3,2667.8z"/>
		<circle class="st0" cx="2008.8" cy="2667.8" r="9.8"/>
		<circle class="st0" cx="1944.2" cy="2667.8" r="9.8"/>
		<path class="st0" d="M2083.3,2618c0,5.4-4.4,9.8-9.8,9.8c-5.4,0-9.8-4.4-9.8-9.8c0-5.4,4.4-9.8,9.8-9.8c0,0,0,0,0.1,0
			C2078.9,2608.2,2083.3,2612.5,2083.3,2618C2083.3,2618,2083.3,2618,2083.3,2618z"/>
		<circle class="st0" cx="2008.8" cy="2618" r="9.8"/>
		<circle class="st0" cx="1944.2" cy="2618" r="9.8"/>
		<path class="st0" d="M2083.3,2568.2c0,5.4-4.4,9.8-9.8,9.8c-5.4,0-9.8-4.4-9.8-9.8c0-5.4,4.4-9.8,9.8-9.8c0,0,0,0,0.1,0
			C2078.9,2558.4,2083.3,2562.7,2083.3,2568.2C2083.3,2568.1,2083.3,2568.2,2083.3,2568.2z"/>
		<circle class="st0" cx="2008.8" cy="2568.2" r="9.8"/>
		<circle class="st0" cx="1944.2" cy="2568.2" r="9.8"/>
		<path class="st0" d="M2083.3,2518.4c0,5.4-4.4,9.8-9.8,9.8c-5.4,0-9.8-4.4-9.8-9.8c0-5.4,4.4-9.8,9.8-9.8c0,0,0,0,0.1,0
			C2078.9,2508.6,2083.3,2513,2083.3,2518.4z"/>
		<circle class="st0" cx="2008.8" cy="2518.4" r="9.8"/>
		<circle class="st0" cx="1944.2" cy="2518.4" r="9.8"/>
	</g>
</g>
<circle class="st1" cx="3158.8" cy="3355.6" r="87.5"/>
<circle class="st1" cx="1252.3" cy="1720.6" r="57.3"/>
<circle class="st2" cx="3322.7" cy="3212.1" r="26.6"/>
<g>
	<g>
		<path class="st3" d="M3715.5,1496.8c21,0,38,17.1,38,38c0,21-17.1,38-38,38h-116.3c-32,0-58,26-58,58s26,58,58,58h244.3
			c21,0,38,17.1,38,38c0,21-17.1,38-38,38h-654c-0.1,0-0.2,0-0.3,0c-31.9,0.2-57.8,26.1-57.8,58c0,32,26,58,58,58h337.2
			c21,0,38,17.1,38,38c0,21-17.1,38-38,38h-570.4c-21,0-38-17.1-38-38c0-21,17.1-38,38-38h58.5c32,0,58-26,58-58
			c0-31.9-25.9-57.9-57.8-58c-0.1,0-0.2,0-0.3,0h-291.5c-21,0-38-17.1-38-38c0-21,17.1-38,38-38h701.2c32,0,58-26,58-58
			s-26-58-58-58h-374.1c-21,0-38-17.1-38-38c0-21,17.1-38,38-38H3715.5 M3715.5,1486.8h-665.1c-26.5,0-48,21.5-48,48s21.5,48,48,48
			h374.1c26.5,0,48,21.5,48,48s-21.5,48-48,48h-701.2c-26.5,0-48,21.5-48,48s21.5,48,48,48h291.5l0,0c26.5,0,48,21.5,48,48
			s-21.5,48-48,48h-58.5c-26.5,0-48,21.5-48,48s21.5,48,48,48h570.4c26.5,0,48-21.5,48-48s-21.5-48-48-48h-337.2
			c-26.5,0-48-21.5-48-48s21.5-48,48-48l0,0h654c26.5,0,48-21.5,48-48s-21.5-48-48-48h-244.3c-26.5,0-48-21.5-48-48s21.5-48,48-48
			h116.3c26.5,0,48-21.5,48-48C3763.5,1508.3,3742,1486.8,3715.5,1486.8L3715.5,1486.8z"/>
	</g>
	<g>
		<path class="st3" d="M3382.9,2073.3c21,0,38,17.1,38,38c0,21-17.1,38-38,38c-21,0-38-17.1-38-38
			C3344.8,2090.4,3361.9,2073.3,3382.9,2073.3 M3382.9,2063.3c-26.5,0-48,21.5-48,48s21.5,48,48,48s48-21.5,48-48
			S3409.4,2063.3,3382.9,2063.3L3382.9,2063.3z"/>
	</g>
</g>
<g id="Layer_2_1_">
	<g id="Layer_1-2">
		<path class="st3" d="M3762.1,2159.4c26.6,0.2,48.2,21.7,48.4,48.4c0.2,24.3-17.9,44.8-42,47.7h-354.2c-26.5,0-48,21.5-48,48
			s21.5,48,48,48h70.5c23.6,3.2,41.2,23.3,41.3,47.1c0.4,26.7-21,48.6-47.7,49l0,0h-148c-26.5,0-48,21.5-48,48s21.5,48,48,48h660.4
			c26.5,0,48-21.5,48-48s-21.5-48-48-48h-336.6c-26.5,0-48-21.5-48-48c0-0.1,0-0.2,0-0.3c-0.4-24,17.2-44.5,41-47.7H4061
			c26.5,0,48-21.5,48-48s-21.5-48-48-48h-130c-23.9-2.9-41.8-23.3-41.6-47.4c-0.2-26.7,21.3-48.5,48-48.7l0,0h598.3
			c26.5,0,48-21.5,48-48s-21.5-48-48-48h-632.2c-26.5-3.1-45.6-27.1-42.5-53.6c2.6-22.3,20.2-39.9,42.5-42.5h329.9
			c26.5,0,48-21.5,48-48s-21.5-48-48-48h-870.8c-26.5,0-48,21.5-48,48s21.5,48,48,48h366.1c26.5,3.1,45.6,27.1,42.5,53.6
			c-2.6,22.3-20.2,39.9-42.5,42.5h-634.8c-26.5,0-48,21.5-48,48s21.5,48,48,48h668.2V2159.4z"/>
	</g>
</g>
<g>
	<path class="st3" d="M894.4,2533.5H622.8c-26.5,0-47.9,21.5-47.9,47.9c0,26.5,21.5,47.9,47.9,47.9h706.4
		c26.5,0,47.9-21.5,47.9-47.9c0-26.5-21.5-47.9-47.9-47.9c0,0-259.6,0-259.6,0c-26.6,0-48.2-21.6-48.2-48.2s21.6-48.2,48.2-48.2
		h425.5c26.5,0,47.9-21.5,47.9-47.9c0-26.5-21.4-47.9-47.9-47.9l-661.7,0c-26.6,0-48.2-21.6-48.2-48.2c0-26.6,21.6-48.2,48.2-48.2
		h302.3c26.5,0,47.9-21.5,47.9-47.9c0-26.5-21.4-47.9-47.9-47.9h-102.8c-26.6,0-48.2-21.6-48.2-48.2s21.6-48.2,48.2-48.2h52.8
		c26.5,0,48-21.5,48-48s-21.5-48-48-48H762c-26.5,0-48,21.5-48,48s21.5,48,48,48h95.7c26.6,0,48.2,21.6,48.2,48.2
		c0,26.6-21.6,48.2-48.2,48.2H537.8c-26.5,0-47.9,21.5-47.9,47.9c0,26.5,21.5,47.9,47.9,47.9c0,0,120.4,0,120.4,0
		c26.6,0,48.2,21.6,48.2,48.2s-21.6,48.2-48.2,48.2l-209.4,0c-26.5,0-47.9,21.5-47.9,47.9c0,26.5,21.5,47.9,47.9,47.9h445.6
		c26.6,0,48.2,21.6,48.2,48.2C942.6,2511.9,921,2533.5,894.4,2533.5z"/>
	<path class="st3" d="M1341.8,2245h99.5c26.5,0,48-21.5,48-48s-21.5-48-48-48h-99.5c-26.5,0-48,21.5-48,48S1315.3,2245,1341.8,2245z
		"/>
	<path class="st3" d="M1720.1,2341.2h-3.4c-26.5,0-48,21.5-48,48s21.5,48,48,48h3.4c26.5,0,48-21.5,48-48
		S1746.6,2341.2,1720.1,2341.2z"/>
</g>
<radialGradient id="SVGID_1_" cx="3309.7461" cy="-371.7396" r="1" gradientTransform="matrix(1.138922e-14 186 -960 5.878305e-14 -354521.25 -611085.6875)" gradientUnits="userSpaceOnUse">
	<stop  offset="0" style="stop-color:#12183A;stop-opacity:0.85"/>
	<stop  offset="1" style="stop-color:#12183A;stop-opacity:0"/>
</radialGradient>
<ellipse class="st4" cx="2348.8" cy="4527.1" rx="960" ry="186"/>
<path class="st5" d="M2296.1,3924.4c87.3-34.5,393.2-142.6,540.7-173.1c42.4-8.8,83.5-16.9,122.1-24.3
	c114.8-21.9,174.3,185.2,63.7,201.1c-275.4,39.6-665.8,80.6-699.2,85.1C2276.6,4019.6,2241.2,3946.1,2296.1,3924.4z"/>
<path class="st6" d="M2596.2,3812.8c-43.2-8.6-83-16.4-117.1-22.3c-220-38.6-284.2-156.4-246.2-413.3h405.4
	c66.2,19,410.3,163.3,588.9,240.1c118.2,50.8,80.9,233.9,14,281.6c-0.4,2.9-1.6,4.9-3.7,5.8c-253.7,105.2-470.1,97.3-609,92.3
	c-58.2-2.1-102.8-3.7-130.9,3.7l-44-138.8L2596.2,3812.8z"/>
<path class="st7" d="M2342.2,3903.2c0-1.2-1-2.1-2.1-2c-9.6,0.7-48.5,4.1-64.3,11.8c-18.1,8.8-49.8,31.7-49.8,31.7
	c10.2,20.9,183.7,376.6,183.7,376.6s55.7-9,44.1-42.5c-11.6-33.5-18.6-56-18.6-56l-7.6-219.7c0-0.6-0.5-1-1.1-1l-39.4,2.5
	c0,0-27.9-22.6-36.9-40.9C2342.5,3947.8,2342.2,3912.3,2342.2,3903.2z"/>
<path class="st5" d="M2435.4,3924.4c-87.3-34.5-393.2-142.6-540.7-173.1c-42.4-8.8-83.5-16.9-122.1-24.3
	c-114.8-21.9-174.3,185.2-63.7,201.1c275.4,39.6,665.8,80.6,699.2,85.1C2454.9,4019.6,2490.3,3946.1,2435.4,3924.4z"/>
<path class="st6" d="M2135.3,3812.8c43.2-8.6,83-16.4,117.1-22.3c220-38.6,284.2-156.4,246.2-413.3h-405.4
	c-66.2,19-410.3,163.3-588.9,240.1c-118.2,50.8-80.9,233.9-14,281.6c0.4,2.9,1.6,4.9,3.7,5.8c253.7,105.2,470.1,97.3,609,92.3
	c58.2-2.1,102.8-3.7,130.9,3.7l44-138.8L2135.3,3812.8z"/>
<path class="st8" d="M2389.3,3903.2c0-1.2,1-2.1,2.1-2c9.6,0.7,48.5,4.1,64.3,11.8c18.1,8.8,49.8,31.7,49.8,31.7
	c-10.2,20.9-183.7,376.6-183.7,376.6s-55.7-9-44.1-42.5c11.6-33.5,18.6-56,18.6-56l7.6-219.7c0-0.6,0.5-1,1.1-1l39.4,2.5
	c0,0,27.9-22.6,36.9-40.9C2389,3947.8,2389.4,3912.3,2389.3,3903.2z"/>
<path class="st9" d="M3032.2,3183.2l272.6-115.4c67.1-1.9,124.8-10.5,173.1-25.7c12.1-6.7,28.5-22.3-13.7-29.1s-86.4-15.8-88.8-31.4
	c-2.4-15.6,26.6-26.5,19.5-48.4c-4.8-14.6-48.7,8.6-131.7,69.7l-252.8,40.4L3032.2,3183.2z"/>
<path class="st9" d="M1557,3043.3l-252.8-40.4c-83-61.1-126.9-84.3-131.7-69.7c-7.1,21.9,21.9,32.9,19.5,48.4
	c-2.4,15.6-46.6,24.6-88.8,31.4c-42.2,6.8-25.9,22.4-13.7,29.1c48.3,15.2,106,23.8,173.1,25.7l272.6,115.4L1557,3043.3z"/>
<path class="st5" d="M2129.7,2776l126.6-424.4h91.3L2431,2776H2129.7z"/>
<path class="st10" d="M2364.4,2590.1l127.5,8.5c31.4,283.5,202.5,462.6,585.5,402l50.9,365.1c-358,46.2-671.9-96.9-736.2-484.1
	C2375.4,2781.4,2362.2,2677.1,2364.4,2590.1z"/>
<path class="st11" d="M2080.7,3139.8c0-102.3-8.6-194.3,18.4-280.1l-7.4-221.1l3.7-37.6c0,0,26.7-5.8,59.4-13.5
	c22.5-5.3,45.2-9.4,68-12.2c74.8-9.4,150.9-5.6,224.8,11.2l47.2,10.8c0,331.6,105.9,543.2,160.1,787h-587.6
	C2074,3297.6,2080.7,3217.2,2080.7,3139.8z"/>
<path class="st10" d="M2158.6,2881.4c-17.1,103.1-51.8,188.8-100.3,258.4c-133.8,192-372.6,260.1-635.1,226.2l50.8-365.5
	c381.2,60.5,552.2-111.5,584.5-393.6c0,0,26.7-5.8,59.4-13.5c22.5-5.3,45.2-9.4,68-12.2C2187.6,2667.9,2175,2782.7,2158.6,2881.4z"
	/>
<path class="st5" d="M2492.4,2547.5c-65.8,24.3-338.4-81.2-344.7-274.2c-6.2-193,266.8-178.6,329.1-87.3
	S2558.2,2523.3,2492.4,2547.5z"/>
<path class="st12" d="M2218.6,2485.7c-39.6-117.2-125.4-191-119.1-245.8c6.3-54.8,56.1-73.2,56.1-73.2s15.5-109.1,161.4-108.1
	s240.2,51.4,215.7,186.2c-35,3.6-78.5-4.6-134.6,23c-26.7,13.1-33.2,67.6-33.2,67.6l-26.4,2.7c0,0-44.9-59.2-80.5-38.6
	c-35.6,20.6-8.6,83.1-8.6,83.1l-2.8,100.3L2218.6,2485.7z"/>
<g>
	<g>
		<path class="st13" d="M2699.6,1630.6c7.8,3,15.6,6,23.3,9.1"/>
		<path class="st14" d="M2770.4,1660.2c369,168.7,635.2,523.5,678.6,944.4"/>
		<path class="st13" d="M3451.3,2630.4c0.7,8.3,1.3,16.6,1.8,24.9"/>
	</g>
</g>
<g>
	<g>
		<path class="st13" d="M1114.6,2655.4c0.5-8.3,1.1-16.7,1.7-24.9"/>
		<path class="st15" d="M1121.6,2579c52.4-418.5,325.6-768.3,699.3-929.3"/>
		<path class="st13" d="M1844.8,1639.7c7.7-3.1,15.5-6.2,23.3-9.1"/>
	</g>
</g>
<radialGradient id="SVGID_2_" cx="2283.8" cy="3962.3" r="327" gradientTransform="matrix(1 0 0 -1 0 5516)" gradientUnits="userSpaceOnUse">
	<stop  offset="0.2571" style="stop-color:#16A3FE"/>
	<stop  offset="1" style="stop-color:#FFFFFF;stop-opacity:0"/>
</radialGradient>
<circle class="st16" cx="2283.8" cy="1553.7" r="327"/>
<circle class="st17" cx="2283.8" cy="1553.7" r="200.6"/>
<g>
	<g>
		<g>
			<path d="M2283.8,1412.5c-59,0-107.3,48-107.3,107.3c0,11.9,2,23.6,5.7,34.9c2.6,7.7,11.1,11.9,19,9.4c7.7-2.6,11.9-11.1,9.4-19
				c-3.1-8.8-4.5-18.2-4.3-27.5c1.1-40,33.5-72.9,73.5-74.9c44.6-2.3,81.5,33.2,81.5,77.2c0,41.2-32.4,74.9-72.9,77.2
				c0,0-15,0.9-22.4,2c-3.7,0.6-6.5,1.1-8.5,1.4c-0.9,0.3-1.7-0.6-1.4-1.4l2.6-12.5l13.9-64.1c1.7-7.9-3.4-15.9-11.4-17.6
				c-7.9-1.7-15.9,3.4-17.6,11.4c0,0-33.5,156.1-33.8,157.8c-1.7,7.9,3.4,15.9,11.4,17.6s15.9-3.4,17.6-11.4
				c0.3-1.7,4.8-22.4,4.8-22.4c3.4-15.9,16.5-27.5,31.8-29.5c3.4-0.6,16.7-1.4,16.7-1.4c55.3-4.3,99.1-50.5,99.1-107
				C2391.1,1460.4,2342.9,1412.5,2283.8,1412.5z"/>
		</g>
	</g>
	<path class="st18" d="M2291.5,1659.4c-9.7-2-19.3,4-21.3,13.9c-2,9.7,4,19.3,13.9,21.3c9.7,2,19.3-4,21.3-13.9
		S2301.4,1661.4,2291.5,1659.4z"/>
</g>
<path class="st19" d="M2133.1,3384.3c15-171.5,41.7-333.3,85.9-485.4c-9.7,162.7-12.4,364.4,20.2,485.4H2133.1z"/>
<g>
	<path class="st20" d="M3665.5,2750.5c0.3-9.6-8.9-16.2-25.4-16.5l-272.5-5c-23.9-0.4-54.2,12.7-67.7,29.4l-49.4,61.3
		c-4.2,5.3-6.3,10.2-6.4,14.6v0.1v0.1v0.1v0.1v0.1v0.1v0.1v0.1v0.1v0.1v0.1v0.1v0.1v0.1v0.1v0.1v0.1v0.1v0.1v0.1v0.1v0.1v0.1v0.1
		v0.1v0.1v0.1v0.1v0.1v0.1v0.1v0.1v0.1v0.1v0.1v0.1v0.1v0.1v0.1v0.1v0.1v0.1v0.1v0.1v0.1v0.1v0.1v0.1v0.1v0.1v0.1v0.1v0.1v0.1v0.1
		v0.1v0.1v0.1v0.1v0.1v0.1v0.1v0.1v0.1v0.1v0.1v0.1v0.1v0.1v0.1v0.1v0.1v0.1v0.1v0.1v0.1v0.1v0.1v0.1v0.1v0.1v0.1v0.1v0.1v0.1v0.1
		v0.1v0.1v0.1v0.1v0.1v0.1v0.1v0.1v0.1v0.1v0.1v0.1v0.1v0.1c-0.3,9.6,8.9,16.2,25.4,16.5l272.5,5c23.9,0.4,54.2-12.7,67.7-29.4
		l49.4-61.3c4.2-5.3,6.3-10.2,6.4-14.6v-0.1v-0.1v-0.1v-0.1v-0.1v-0.1v-0.1v-0.1v-0.1v-0.1v-0.1v-0.1v-0.1v-0.1v-0.1v-0.1v-0.1v-0.1
		v-0.1v-0.1v-0.1v-0.1v-0.1v-0.1v-0.1v-0.1v-0.1v-0.1v-0.1v-0.1v-0.1v-0.1v-0.1v-0.1v-0.1v-0.1v-0.1v-0.1v-0.1v-0.1v-0.1v-0.1v-0.1
		v-0.1v-0.1v-0.1v-0.1v-0.1v-0.1v-0.1v-0.1v-0.1v-0.1v-0.1v-0.1v-0.1v-0.1v-0.1v-0.1v-0.1v-0.1v-0.1v-0.1v-0.1v-0.1v-0.1v-0.1v-0.1
		v-0.1v-0.1v-0.1v-0.1v-0.1v-0.1v-0.1v-0.1v-0.1v-0.1v-0.1v-0.1v-0.1v-0.1v-0.1v-0.1v-0.1v-0.1v-0.1v-0.1v-0.1v-0.1v-0.1v-0.1v-0.1
		v-0.1v-0.1v-0.1v-0.1v-0.1v-0.1C3665.5,2750.6,3665.5,2750.6,3665.5,2750.5z"/>
	<path class="st6" d="M3597.3,2816.4c-3.8,4.8-1.4,8.7,5.4,8.9l-4.2,5.2c-9,11.1-29.2,19.9-45.1,19.6l-285.6-5.2
		c-16-0.3-21.6-9.5-12.7-20.7l56.8-70.4c9-11.1,29.2-19.9,45.1-19.6l285.6,5.2c16,0.3,21.6,9.5,12.7,20.7l-4.5,5.6
		c-6.9-0.1-15.5,3.6-19.4,8.4L3597.3,2816.4z"/>
	<g id="Bondly_x5F_logomark_1_">
		<path class="st21" d="M3492.3,2757.3l-1.5,7.3l-18.7,16.3l15.5-0.7l-1.4,6.7l-37.6,32.7l-7,0.3l3.1-15.1l-18.2,15.9l-8.5,0.4
			l6-29.1l10.6-9.2l14.8-0.7l3-14.4l10.3-9L3492.3,2757.3z M3457.3,2781.7l7.3-0.4l18.3-16l-21.7,1l-0.8,0.7L3457.3,2781.7z
			 M3427.4,2813.1h0.7l18.2-15.8l1.6-7.5l-14.8,0.7l-1.1,1L3427.4,2813.1z M3451.1,2811.2l26.3-22.9l-14.5,0.7l-8.8,7.6
			L3451.1,2811.2z"/>
	</g>
</g>
<g>
	<path class="st20" d="M901.8,2744.2c-0.3-9.6,8.9-16.2,25.4-16.5l272.5-5c23.9-0.4,54.2,12.7,67.7,29.4l49.4,61.3
		c4.2,5.3,6.3,10.2,6.4,14.6v0.1v0.1v0.1v0.1v0.1v0.1v0.1v0.1v0.1v0.1v0.1v0.1v0.1v0.1v0.1v0.1v0.1v0.1v0.1v0.1v0.1v0.1v0.1v0.1v0.1
		v0.1v0.1v0.1v0.1v0.1v0.1v0.1v0.1v0.1v0.1v0.1v0.1v0.1v0.1v0.1v0.1v0.1v0.1v0.1v0.1v0.1v0.1v0.1v0.1v0.1v0.1v0.1v0.1v0.1v0.1v0.1
		v0.1v0.1v0.1v0.1v0.1v0.1v0.1v0.1v0.1v0.1v0.1v0.1v0.1v0.1v0.1v0.1v0.1v0.1v0.1v0.1v0.1v0.1v0.1v0.1v0.1v0.1v0.1v0.1v0.1v0.1v0.1
		v0.1v0.1v0.1v0.1v0.1v0.1v0.1v0.1v0.1v0.1v0.1v0.1v0.1c0.3,9.6-8.9,16.2-25.4,16.5l-272.5,5c-23.9,0.4-54.2-12.7-67.7-29.4
		l-49.4-61.3c-4.2-5.3-6.3-10.2-6.4-14.6v-0.1v-0.1v-0.1v-0.1v-0.1v-0.1v-0.1v-0.1v-0.1v-0.1v-0.1v-0.1v-0.1v-0.1v-0.1v-0.1v-0.1
		v-0.1v-0.1v-0.1v-0.1v-0.1v-0.1v-0.1v-0.1v-0.1v-0.1v-0.1v-0.1v-0.1v-0.1v-0.1v-0.1v-0.1v-0.1v-0.1v-0.1v-0.1v-0.1v-0.1v-0.1v-0.1
		v-0.1v-0.1v-0.1v-0.1v-0.1v-0.1v-0.1v-0.1v-0.1v-0.1v-0.1v-0.1v-0.1v-0.1v-0.1v-0.1v-0.1v-0.1v-0.1v-0.1v-0.1v-0.1v-0.1v-0.1v-0.1
		v-0.1v-0.1v-0.1v-0.1v-0.1v-0.1v-0.1v-0.1v-0.1v-0.1v-0.1v-0.1v-0.1v-0.1v-0.1v-0.1v-0.1v-0.1v-0.1v-0.1v-0.1v-0.1v-0.1v-0.1v-0.1
		v-0.1v-0.1v-0.1v-0.1v-0.1v-0.1v-0.1L901.8,2744.2z"/>
	<path class="st6" d="M935.9,2767.8c-3.8-4.8-12.5-8.5-19.4-8.4l-4.5-5.6c-9-11.1-3.3-20.4,12.7-20.7l285.6-5.2
		c16-0.3,36.2,8.5,45.1,19.6l56.8,70.4c9,11.1,3.3,20.4-12.7,20.7l-285.6,5.2c-16,0.3-36.2-8.5-45.1-19.6l-4.2-5.2
		c6.9-0.1,9.3-4.1,5.4-8.9L935.9,2767.8z"/>
	<g id="Bondly_x5F_logomark_2_">
		<path class="st21" d="M1104.5,2755.3l10.3,9l3,14.4l14.8,0.7l10.6,9.2l6,29.1l-8.5-0.4l-18.2-15.9l3.1,15.1l-7-0.3l-37.6-32.7
			l-1.4-6.7l15.5,0.7l-18.7-16.3l-1.5-7.3L1104.5,2755.3z M1107,2763.7l-0.8-0.7l-21.7-1l18.3,16l7.3,0.4L1107,2763.7z M1135.3,2788
			l-1.1-1l-14.8-0.7l1.6,7.5l18.2,15.8h0.7L1135.3,2788z M1113.1,2793.3l-8.8-7.6l-14.5-0.7l26.3,22.9L1113.1,2793.3z"/>
	</g>
</g>
<g>
	<g>
		<defs>
			<path id="SVGID_3_" d="M3032.2,3183.2l272.6-115.4c67.1-1.9,124.8-10.5,173.1-25.7c12.1-6.7,28.5-22.3-13.7-29.1
				s-86.4-15.8-88.8-31.4c-2.4-15.6,26.6-26.5,19.5-48.4c-4.8-14.6-48.7,8.6-131.7,69.7l-252.8,40.4L3032.2,3183.2z"/>
		</defs>
		<clipPath id="SVGID_4_">
			<use xlink:href="#SVGID_3_"  style="overflow:visible;"/>
		</clipPath>
		
			<radialGradient id="SVGID_5_" cx="3303.0774" cy="-372.5585" r="0.1806" gradientTransform="matrix(9.664607e-15 209.2254 -814.6322 6.612315e-14 -300043.375 -688067.8125)" gradientUnits="userSpaceOnUse">
			<stop  offset="0" style="stop-color:#352011"/>
			<stop  offset="1" style="stop-color:#352011;stop-opacity:0"/>
		</radialGradient>
		<ellipse class="st22" cx="3454.8" cy="3019.9" rx="147" ry="37.8"/>
	</g>
</g>
<g>
	<g>
		<defs>
			<path id="SVGID_6_" d="M1557,3043.3l-252.8-40.4c-83-61.1-126.9-84.3-131.7-69.7c-7.1,21.9,21.9,32.9,19.5,48.4
				c-2.4,15.6-46.6,24.6-88.8,31.4c-42.2,6.8-25.9,22.4-13.7,29.1c48.3,15.2,106,23.8,173.1,25.7l272.6,115.4L1557,3043.3z"/>
		</defs>
		<clipPath id="SVGID_7_">
			<use xlink:href="#SVGID_6_"  style="overflow:visible;"/>
		</clipPath>
		
			<radialGradient id="SVGID_8_" cx="3303.0774" cy="-376.4212" r="0.1806" gradientTransform="matrix(9.393497e-09 209.2254 814.6322 -3.657414e-08 307757.375 -688067.8125)" gradientUnits="userSpaceOnUse">
			<stop  offset="0" style="stop-color:#352011"/>
			<stop  offset="1" style="stop-color:#352011;stop-opacity:0"/>
		</radialGradient>
		<ellipse class="st23" cx="1112.5" cy="3019.9" rx="147" ry="37.8"/>
	</g>
</g>
</svg>
