<?xml version="1.0" encoding="utf-8"?>
<!-- Generator: Adobe Illustrator 24.3.0, SVG Export Plug-In . SVG Version: 6.00 Build 0)  -->
<svg version="1.1" id="Out_line" xmlns="http://www.w3.org/2000/svg" xmlns:xlink="http://www.w3.org/1999/xlink" x="0px" y="0px"
	 viewBox="0 0 512 512" style="enable-background:new 0 0 512 512;" xml:space="preserve">
<style type="text/css">
	.st0{fill:#1940B0;}
</style>
<path class="st0" d="M376,472c0,4.4-3.6,8-8,8H144c-4.4,0-8-3.6-8-8v-88h-16v88c0,13.2,10.8,24,24,24h224c13.2,0,24-10.8,24-24V304
	h-16V472z"/>
<path class="st0" d="M136,40c0-4.4,3.6-8,8-8h224c4.4,0,8,3.6,8,8v120h16V40c0-13.2-10.8-24-24-24H144c-13.2,0-24,10.8-24,24v72h16
	V40z"/>
<path class="st0" d="M368,408V304h-16v96H160v-16h-16v24c0,4.4,3.6,8,8,8c0,0,0,0,0,0h208C364.4,416,368,412.4,368,408
	C368,408,368,408,368,408z"/>
<path class="st0" d="M368,160V88c0-4.4-3.6-8-8-8c0,0,0,0,0,0H152c-4.4,0-8,3.6-8,8c0,0,0,0,0,0v24h16V96h192v64H368z"/>
<path class="st0" d="M240,48h48v16h-48V48z"/>
<circle class="st0" cx="224" cy="56" r="8"/>
<path class="st0" d="M232,448c0,13.3,10.7,24,24,24c13.3,0,24-10.7,24-24s-10.7-24-24-24C242.8,424,232,434.8,232,448z M264,448
	c0,4.4-3.6,8-8,8s-8-3.6-8-8s3.6-8,8-8C260.4,440,264,443.6,264,448z"/>
<path class="st0" d="M208,344v-44.7l29.7-29.7c3.1-3.1,3.1-8.2,0-11.3c-1.5-1.5-3.5-2.3-5.7-2.3H40c-13.2,0-24,10.8-24,24v64
	c0,13.2,10.8,24,24,24h144C197.2,368,208,357.2,208,344z M32,344v-64c0-4.4,3.6-8,8-8h172.7l-18.3,18.3c-1.5,1.5-2.3,3.5-2.3,5.7v48
	c0,4.4-3.6,8-8,8H40C35.6,352,32,348.4,32,344L32,344z"/>
<path class="st0" d="M40,240h192c4.4,0,8-3.6,8-8c0-2.1-0.8-4.2-2.3-5.7L208,196.7V152c0-13.2-10.8-24-24-24H40
	c-13.2,0-24,10.8-24,24v64C16,229.2,26.8,240,40,240z M32,152c0-4.4,3.6-8,8-8h144c4.4,0,8,3.6,8,8v48c0,2.1,0.8,4.2,2.3,5.7
	l18.3,18.3H40c-4.4,0-8-3.6-8-8V152z"/>
<path class="st0" d="M472,176H328c-13.2,0-24,10.8-24,24v44.7l-29.7,29.7c-3.1,3.1-3.1,8.2,0,11.3c1.5,1.5,3.5,2.3,5.7,2.3h192
	c13.2,0,24-10.8,24-24v-64C496,186.8,485.2,176,472,176z M480,264c0,4.4-3.6,8-8,8H299.3l18.3-18.3c1.5-1.5,2.3-3.5,2.3-5.7v-48
	c0-4.4,3.6-8,8-8h144c4.4,0,8,3.6,8,8V264z"/>
<path class="st0" d="M64,160h32v16H64V160z"/>
<path class="st0" d="M112,160h64v16h-64V160z"/>
<path class="st0" d="M48,192h32v16H48V192z"/>
<path class="st0" d="M96,192h48v16H96V192z"/>
<path class="st0" d="M352,208h48v16h-48V208z"/>
<path class="st0" d="M416,208h48v16h-48V208z"/>
<path class="st0" d="M336,240h96v16h-96V240z"/>
<path class="st0" d="M64,288h32v16H64V288z"/>
<path class="st0" d="M112,288h32v16h-32V288z"/>
<path class="st0" d="M160,288h16v16h-16V288z"/>
<path class="st0" d="M48,320h64v16H48V320z"/>
<path class="st0" d="M128,320h48v16h-48V320z"/>
</svg>
