<?xml version="1.0" encoding="utf-8"?>
<!-- Generator: Adobe Illustrator 24.3.0, SVG Export Plug-In . SVG Version: 6.00 Build 0)  -->
<svg version="1.1" id="Layer_1" xmlns="http://www.w3.org/2000/svg" xmlns:xlink="http://www.w3.org/1999/xlink" x="0px" y="0px"
	 viewBox="0 0 52.7 22" style="enable-background:new 0 0 52.7 22;" xml:space="preserve">
<style type="text/css">
	.st0{fill:none;stroke:#EAEEF6;stroke-miterlimit:10;}
</style>
<g id="Layer_2_1_">
	<g id="Layer_1-2">
		<path class="st0" d="M52.2,14c0,0.8-0.7,1.5-1.5,1.5H35.1c-0.8,0.1-1.4,0.8-1.3,1.7c0.1,0.7,0.6,1.2,1.3,1.3H36
			c0.8,0,1.5,0.7,1.5,1.5s-0.7,1.5-1.5,1.5H9.2c-0.8,0-1.5-0.7-1.5-1.5s0.7-1.5,1.5-1.5h14.5c0.8-0.1,1.4-0.9,1.3-1.7
			c-0.1-0.7-0.7-1.2-1.4-1.3h-6.2c-0.8,0-1.5-0.7-1.5-1.5s0.7-1.5,1.5-1.5H37c0.8,0,1.5-0.6,1.5-1.5s-0.6-1.5-1.5-1.5H2
			C1.2,9.5,0.5,8.8,0.5,8S1.2,6.5,2,6.5h17c0.8,0,1.5-0.7,1.5-1.5S19.8,3.5,19,3.5h-8.2C9.9,3.5,9.3,2.8,9.3,2s0.7-1.5,1.5-1.5h25.5
			c0.8,0,1.5,0.7,1.5,1.5s-0.7,1.5-1.5,1.5h-5.8C29.6,3.5,29,4.2,29,5s0.7,1.5,1.5,1.5h13.7c0.8,0,1.5,0.7,1.5,1.5s-0.7,1.5-1.5,1.5
			h-1.8c-0.8,0-1.5,0.7-1.5,1.5s0.7,1.5,1.5,1.5h8.3C51.6,12.5,52.2,13.2,52.2,14C52.2,14,52.2,14,52.2,14z"/>
	</g>
</g>
</svg>
