<?xml version="1.0" encoding="utf-8"?>
<!-- Generator: Adobe Illustrator 24.3.0, SVG Export Plug-In . SVG Version: 6.00 Build 0)  -->
<svg version="1.1" id="Layer_1" xmlns="http://www.w3.org/2000/svg" xmlns:xlink="http://www.w3.org/1999/xlink" x="0px" y="0px"
	 viewBox="0 0 48 21" style="enable-background:new 0 0 48 21;" xml:space="preserve">
<style type="text/css">
	.st0{fill:#EAEEF6;}
</style>
<path class="st0" d="M46.5,6H26.8c-0.8-0.1-1.4-0.8-1.3-1.7c0.1-0.7,0.6-1.2,1.3-1.3h10.3c0.8,0,1.5-0.7,1.5-1.5S37.9,0,37.1,0H9.9
	C9.1,0,8.4,0.7,8.4,1.5S9.1,3,9.9,3h11.4c0.8,0.1,1.4,0.8,1.3,1.7C22.6,5.4,22,5.9,21.3,6H1.5C0.7,6,0,6.7,0,7.5S0.7,9,1.5,9h20.9
	c0.8,0,1.5,0.7,1.5,1.5c0,0.8-0.6,1.4-1.3,1.5H11.5c-0.8,0-1.5,0.7-1.5,1.5s0.7,1.5,1.5,1.5h2.2c0.7,0.1,1.3,0.7,1.3,1.5
	c0,0.8-0.7,1.5-1.5,1.5c0,0,0,0,0,0H8.9c-0.8,0-1.5,0.7-1.5,1.5S8.1,21,8.9,21h20.6c0.8,0,1.5-0.7,1.5-1.5S30.3,18,29.5,18H19
	c-0.8,0-1.5-0.7-1.5-1.5c0,0,0,0,0,0c0-0.7,0.5-1.4,1.3-1.5h12.9c0.8,0,1.5-0.7,1.5-1.5S32.5,12,31.7,12h-4.1
	c-0.7-0.1-1.3-0.7-1.3-1.5C26.3,9.7,27,9,27.8,9c0,0,0,0,0,0h18.7C47.3,9,48,8.3,48,7.5S47.3,6,46.5,6z"/>
</svg>
