<svg width="31" height="31" viewBox="0 0 31 31" fill="none" xmlns="http://www.w3.org/2000/svg">
<circle cx="15.5" cy="15.5" r="15.5" fill="#F5FAFD"/>
<path d="M14.227 13.9571C13.6686 13.9571 13.2278 14.4363 13.2278 15.0208C13.2278 15.6054 13.6784 16.0846 14.227 16.0846C14.7853 16.0846 15.2261 15.6054 15.2261 15.0208C15.2359 14.4363 14.7853 13.9571 14.227 13.9571ZM17.8025 13.9571C17.2441 13.9571 16.8033 14.4363 16.8033 15.0208C16.8033 15.6054 17.2539 16.0846 17.8025 16.0846C18.3608 16.0846 18.8017 15.6054 18.8017 15.0208C18.8017 14.4363 18.3608 13.9571 17.8025 13.9571Z" fill="#12183A"/>
<path d="M22.5633 5.91666H9.43675C8.32981 5.91666 7.42859 6.79832 7.42859 7.89082V20.8475C7.42859 21.94 8.32981 22.8217 9.43675 22.8217H20.5453L20.0261 21.0487L21.28 22.1892L22.4653 23.2625L24.5714 25.0833V7.89082C24.5714 6.79832 23.6702 5.91666 22.5633 5.91666ZM18.7821 18.4325C18.7821 18.4325 18.4294 18.0204 18.1355 17.6562C19.4188 17.3017 19.9086 16.5158 19.9086 16.5158C19.507 16.7746 19.1249 16.9567 18.7821 17.0812C18.2923 17.2825 17.8221 17.4167 17.3617 17.4933C16.4212 17.6658 15.5592 17.6179 14.8245 17.4837C14.2661 17.3783 13.7861 17.225 13.3845 17.0717C13.1592 16.9854 12.9143 16.88 12.6694 16.7458C12.64 16.7267 12.6106 16.7171 12.5812 16.6979C12.5617 16.6883 12.5519 16.6787 12.5421 16.6692C12.3657 16.5733 12.2678 16.5062 12.2678 16.5062C12.2678 16.5062 12.738 17.2729 13.9821 17.6371C13.6882 18.0012 13.3257 18.4325 13.3257 18.4325C11.1608 18.3654 10.338 16.9758 10.338 16.9758C10.338 13.89 11.7486 11.3887 11.7486 11.3887C13.1592 10.3537 14.5012 10.3825 14.5012 10.3825L14.5992 10.4975C12.8359 10.9958 12.0229 11.7529 12.0229 11.7529C12.0229 11.7529 12.2384 11.6379 12.6008 11.475C13.649 11.0246 14.4817 10.9 14.8245 10.8712C14.8833 10.8617 14.9323 10.8521 14.991 10.8521C15.5886 10.7754 16.2645 10.7562 16.9698 10.8329C17.9004 10.9383 18.8996 11.2067 19.9184 11.7529C19.9184 11.7529 19.1445 11.0342 17.4792 10.5358L17.6163 10.3825C17.6163 10.3825 18.9584 10.3537 20.369 11.3887C20.369 11.3887 21.7796 13.89 21.7796 16.9758C21.7796 16.9758 20.947 18.3654 18.7821 18.4325V18.4325Z" fill="#12183A"/>
</svg>
