<svg width="117" height="100" viewBox="0 0 117 100" fill="none" xmlns="http://www.w3.org/2000/svg">
<path fill-rule="evenodd" clip-rule="evenodd" d="M6.65403 0.0927644C6.65403 0.144341 6.40755 0.185529 6.09953 0.185529C5.7915 0.185529 5.54502 0.226716 5.54502 0.278293C5.54502 0.329314 5.37867 0.371058 5.17536 0.371058C4.97204 0.371058 4.80569 0.412801 4.80569 0.463822C4.80569 0.514842 4.72251 0.556586 4.62085 0.556586C4.51919 0.556586 4.43602 0.59833 4.43602 0.649351C4.43602 0.700371 4.32041 0.742115 4.17919 0.742115C4.02837 0.742115 3.86738 0.818738 3.7891 0.927644C3.71581 1.02968 3.5819 1.11317 3.49142 1.11317C3.40104 1.11317 3.32701 1.15492 3.32701 1.20594C3.32701 1.25696 3.26408 1.2987 3.18719 1.2987C3.01723 1.2987 1.29384 3.01002 1.29384 3.17866C1.29384 3.24462 1.21066 3.35872 1.109 3.43228C1.00735 3.50584 0.924171 3.64026 0.924171 3.73108C0.924171 3.8218 0.882583 3.8961 0.831754 3.8961C0.780924 3.8961 0.739336 3.97959 0.739336 4.08163C0.739336 4.18367 0.697749 4.26716 0.646919 4.26716C0.59609 4.26716 0.554502 4.35065 0.554502 4.45269C0.554502 4.55473 0.512915 4.63822 0.462085 4.63822C0.411256 4.63822 0.369668 4.76345 0.369668 4.91651C0.369668 5.06957 0.328081 5.19481 0.277251 5.19481C0.226422 5.19481 0.184834 5.36178 0.184834 5.56586C0.184834 5.76994 0.143246 5.93692 0.0924171 5.93692C0.0309597 5.93692 0 20.5937 0 49.7217C0 78.8497 0.0309597 93.5065 0.0924171 93.5065C0.143246 93.5065 0.184834 93.6735 0.184834 93.8776C0.184834 94.0816 0.226422 94.2486 0.277251 94.2486C0.328081 94.2486 0.369668 94.3738 0.369668 94.5269C0.369668 94.68 0.411256 94.8052 0.462085 94.8052C0.512915 94.8052 0.554502 94.8887 0.554502 94.9907C0.554502 95.0928 0.59609 95.1763 0.646919 95.1763C0.697749 95.1763 0.739336 95.2597 0.739336 95.3618C0.739336 95.4638 0.780924 95.5473 0.831754 95.5473C0.882583 95.5473 0.924171 95.6216 0.924171 95.7123C0.924171 95.8032 1.00735 95.9376 1.109 96.0111C1.21066 96.0847 1.29384 96.1988 1.29384 96.2647C1.29384 96.4211 3.01104 98.1447 3.16676 98.1447C3.23247 98.1447 3.34614 98.2282 3.41943 98.3302C3.49272 98.4323 3.62663 98.5158 3.71711 98.5158C3.80749 98.5158 3.88152 98.5575 3.88152 98.6085C3.88152 98.6596 4.00628 98.7013 4.15877 98.7013C4.31126 98.7013 4.43602 98.743 4.43602 98.7941C4.43602 98.8451 4.51919 98.8868 4.62085 98.8868C4.72251 98.8868 4.80569 98.9286 4.80569 98.9796C4.80569 99.0306 4.93045 99.0724 5.08294 99.0724C5.23543 99.0724 5.36019 99.1141 5.36019 99.1651C5.36019 99.2167 5.60667 99.2579 5.91469 99.2579C6.22272 99.2579 6.46919 99.2991 6.46919 99.3506C6.46919 99.4123 20.8246 99.4434 49.3507 99.4434C77.8768 99.4434 92.2322 99.4123 92.2322 99.3506C92.2322 99.2991 92.4787 99.2579 92.7867 99.2579C93.0948 99.2579 93.3412 99.2167 93.3412 99.1651C93.3412 99.1141 93.5076 99.0724 93.7109 99.0724C93.9142 99.0724 94.0806 99.0306 94.0806 98.9796C94.0806 98.9286 94.1637 98.8868 94.2654 98.8868C94.3671 98.8868 94.4502 98.8451 94.4502 98.7941C94.4502 98.743 94.5659 98.7013 94.7071 98.7013C94.8579 98.7013 95.0189 98.6247 95.0972 98.5158C95.1704 98.4137 95.3044 98.3302 95.3948 98.3302C95.4852 98.3302 95.5592 98.2885 95.5592 98.2375C95.5592 98.1865 95.6222 98.1447 95.6991 98.1447C95.869 98.1447 97.5924 96.4334 97.5924 96.2647C97.5924 96.1988 97.6756 96.0847 97.7773 96.0111C97.8789 95.9376 97.9621 95.8032 97.9621 95.7123C97.9621 95.6216 98.0037 95.5473 98.0545 95.5473C98.1053 95.5473 98.1469 95.4638 98.1469 95.3618C98.1469 95.2597 98.1885 95.1763 98.2393 95.1763C98.2902 95.1763 98.3318 95.0928 98.3318 94.9907C98.3318 94.8887 98.3733 94.8052 98.4242 94.8052C98.475 94.8052 98.5166 94.68 98.5166 94.5269C98.5166 94.3738 98.5582 94.2486 98.609 94.2486C98.6598 94.2486 98.7014 94.0816 98.7014 93.8776C98.7014 93.6735 98.743 93.5065 98.7938 93.5065C98.8553 93.5065 98.8863 78.8497 98.8863 49.7217C98.8863 20.5937 98.8553 5.93692 98.7938 5.93692C98.743 5.93692 98.7014 5.76994 98.7014 5.56586C98.7014 5.36178 98.6598 5.19481 98.609 5.19481C98.5582 5.19481 98.5166 5.06957 98.5166 4.91651C98.5166 4.76345 98.475 4.63822 98.4242 4.63822C98.3733 4.63822 98.3318 4.55473 98.3318 4.45269C98.3318 4.35065 98.2902 4.26716 98.2393 4.26716C98.1885 4.26716 98.1469 4.18367 98.1469 4.08163C98.1469 3.97959 98.1053 3.8961 98.0545 3.8961C98.0037 3.8961 97.9621 3.81262 97.9621 3.71058C97.9621 3.60853 97.9205 3.52505 97.8697 3.52505C97.8188 3.52505 97.7773 3.46197 97.7773 3.38479C97.7773 3.21447 95.8874 1.2987 95.7193 1.2987C95.6537 1.2987 95.5401 1.21521 95.4668 1.11317C95.3935 1.01113 95.2596 0.927644 95.1692 0.927644C95.0788 0.927644 95.0047 0.8859 95.0047 0.834879C95.0047 0.783859 94.88 0.742115 94.7275 0.742115C94.575 0.742115 94.4502 0.700371 94.4502 0.649351C94.4502 0.59833 94.3671 0.556586 94.2654 0.556586C94.1637 0.556586 94.0806 0.514842 94.0806 0.463822C94.0806 0.412801 93.9558 0.371058 93.8033 0.371058C93.6508 0.371058 93.5261 0.329314 93.5261 0.278293C93.5261 0.226716 93.2796 0.185529 92.9716 0.185529C92.6635 0.185529 92.4171 0.144341 92.4171 0.0927644C92.4171 0.0310761 78.0616 0 49.5355 0C21.0094 0 6.65403 0.0310761 6.65403 0.0927644ZM23.2891 13.8219C23.2891 13.8729 23.497 13.9147 23.7512 13.9147C24.0053 13.9147 24.2133 13.9564 24.2133 14.0074C24.2133 14.0584 24.338 14.1002 24.4905 14.1002C24.643 14.1002 24.7678 14.1419 24.7678 14.1929C24.7678 14.244 24.8509 14.2857 24.9526 14.2857C25.0543 14.2857 25.1374 14.3275 25.1374 14.3785C25.1374 14.4295 25.2622 14.4712 25.4147 14.4712C25.5672 14.4712 25.6919 14.513 25.6919 14.564C25.6919 14.615 25.766 14.6568 25.8564 14.6568C25.9468 14.6568 26.0807 14.7403 26.154 14.8423C26.2273 14.9443 26.3521 15.0278 26.4313 15.0278C26.5105 15.0278 26.6352 15.1113 26.7085 15.2134C26.7818 15.3154 26.8955 15.3989 26.9612 15.3989C27.1169 15.3989 28.8341 17.1225 28.8341 17.2789C28.8341 17.3448 28.9173 17.4589 29.019 17.5325C29.1206 17.606 29.2038 17.7313 29.2038 17.8108C29.2038 17.8903 29.287 18.0155 29.3886 18.0891C29.4903 18.1626 29.5735 18.297 29.5735 18.3878C29.5735 18.4786 29.615 18.5529 29.6659 18.5529C29.7167 18.5529 29.7583 18.6364 29.7583 18.7384C29.7583 18.8404 29.7999 18.9239 29.8507 18.9239C29.9015 18.9239 29.9431 19.0492 29.9431 19.2022C29.9431 19.3553 29.9847 19.4805 30.0355 19.4805C30.0864 19.4805 30.128 19.6058 30.128 19.7588C30.128 19.9119 30.1695 20.0371 30.2204 20.0371C30.2712 20.0371 30.3128 20.2458 30.3128 20.5009C30.3128 20.756 30.3544 20.9647 30.4052 20.9647C30.4624 20.9647 30.4976 21.4595 30.4976 22.2635C30.4976 23.0674 30.4624 23.5622 30.4052 23.5622C30.3544 23.5622 30.3128 23.7709 30.3128 24.026C30.3128 24.2811 30.2712 24.4898 30.2204 24.4898C30.1695 24.4898 30.128 24.615 30.128 24.7681C30.128 24.9212 30.0864 25.0464 30.0355 25.0464C29.9847 25.0464 29.9431 25.1716 29.9431 25.3247C29.9431 25.4777 29.9015 25.603 29.8507 25.603C29.7999 25.603 29.7583 25.6865 29.7583 25.7885C29.7583 25.8905 29.7167 25.974 29.6659 25.974C29.615 25.974 29.5735 26.0575 29.5735 26.1596C29.5735 26.2616 29.5319 26.3451 29.481 26.3451C29.4302 26.3451 29.3886 26.4194 29.3886 26.5101C29.3886 26.6009 29.3055 26.7353 29.2038 26.8089C29.1021 26.8825 29.019 26.9993 29.019 27.0686C29.019 27.1378 28.8526 27.3549 28.6493 27.551C28.446 27.7471 28.2796 27.9545 28.2796 28.0118C28.2796 28.1471 27.8569 28.5714 27.7221 28.5714C27.665 28.5714 27.4584 28.7384 27.263 28.9425C27.0677 29.1466 26.8514 29.3135 26.7824 29.3135C26.7133 29.3135 26.597 29.397 26.5237 29.4991C26.4504 29.6011 26.3165 29.6846 26.226 29.6846C26.1356 29.6846 26.0616 29.7263 26.0616 29.7774C26.0616 29.8284 25.9784 29.8701 25.8768 29.8701C25.7751 29.8701 25.6919 29.9119 25.6919 29.9629C25.6919 30.0139 25.6088 30.0557 25.5071 30.0557C25.4055 30.0557 25.3223 30.0974 25.3223 30.1484C25.3223 30.1994 25.1975 30.2412 25.045 30.2412C24.8925 30.2412 24.7678 30.2829 24.7678 30.334C24.7678 30.385 24.643 30.4267 24.4905 30.4267C24.338 30.4267 24.2133 30.4685 24.2133 30.5195C24.2133 30.5705 24.0053 30.6122 23.7512 30.6122C23.497 30.6122 23.2891 30.654 23.2891 30.705C23.2891 30.7624 22.7962 30.7978 21.9953 30.7978C21.1943 30.7978 20.7014 30.7624 20.7014 30.705C20.7014 30.654 20.4935 30.6122 20.2393 30.6122C19.9852 30.6122 19.7773 30.5705 19.7773 30.5195C19.7773 30.4685 19.6525 30.4267 19.5 30.4267C19.3475 30.4267 19.2227 30.385 19.2227 30.334C19.2227 30.2829 19.098 30.2412 18.9455 30.2412C18.793 30.2412 18.6682 30.1994 18.6682 30.1484C18.6682 30.0974 18.5851 30.0557 18.4834 30.0557C18.3818 30.0557 18.2986 30.0139 18.2986 29.9629C18.2986 29.9119 18.2154 29.8701 18.1137 29.8701C18.0121 29.8701 17.9289 29.8284 17.9289 29.7774C17.9289 29.7263 17.8549 29.6846 17.7645 29.6846C17.674 29.6846 17.5401 29.6011 17.4668 29.4991C17.3935 29.397 17.2763 29.3135 17.2062 29.3135C17.1362 29.3135 16.9623 29.1883 16.8199 29.0353C16.6775 28.8822 16.5141 28.757 16.4569 28.757C16.3216 28.757 15.5261 27.9584 15.5261 27.8226C15.5261 27.7652 15.4013 27.6012 15.2488 27.4583C15.0963 27.3153 14.9716 27.1407 14.9716 27.0705C14.9716 27.0002 14.8884 26.8825 14.7867 26.8089C14.6851 26.7353 14.6019 26.6009 14.6019 26.5101C14.6019 26.4194 14.5603 26.3451 14.5095 26.3451C14.4586 26.3451 14.4171 26.2616 14.4171 26.1596C14.4171 26.0575 14.3755 25.974 14.3246 25.974C14.2738 25.974 14.2322 25.8905 14.2322 25.7885C14.2322 25.6865 14.1906 25.603 14.1398 25.603C14.089 25.603 14.0474 25.4777 14.0474 25.3247C14.0474 25.1716 14.0058 25.0464 13.955 25.0464C13.9041 25.0464 13.8626 24.9212 13.8626 24.7681C13.8626 24.615 13.821 24.4898 13.7701 24.4898C13.7193 24.4898 13.6777 24.2811 13.6777 24.026C13.6777 23.7709 13.6361 23.5622 13.5853 23.5622C13.5281 23.5622 13.4929 23.0674 13.4929 22.2635C13.4929 21.4595 13.5281 20.9647 13.5853 20.9647C13.6361 20.9647 13.6777 20.756 13.6777 20.5009C13.6777 20.2458 13.7193 20.0371 13.7701 20.0371C13.821 20.0371 13.8626 19.9119 13.8626 19.7588C13.8626 19.6058 13.9041 19.4805 13.955 19.4805C14.0058 19.4805 14.0474 19.3553 14.0474 19.2022C14.0474 19.0492 14.089 18.9239 14.1398 18.9239C14.1906 18.9239 14.2322 18.8404 14.2322 18.7384C14.2322 18.6364 14.2738 18.5529 14.3246 18.5529C14.3755 18.5529 14.4171 18.4694 14.4171 18.3673C14.4171 18.2653 14.4586 18.1818 14.5095 18.1818C14.5603 18.1818 14.6019 18.1075 14.6019 18.0168C14.6019 17.926 14.6851 17.7916 14.7867 17.718C14.8884 17.6444 14.9716 17.5276 14.9716 17.4583C14.9716 17.3891 15.1379 17.172 15.3412 16.9759C15.5445 16.7798 15.7109 16.5724 15.7109 16.5151C15.7109 16.3798 16.1336 15.9555 16.2685 15.9555C16.3256 15.9555 16.5321 15.7885 16.7275 15.5844C16.9229 15.3803 17.1391 15.2134 17.2081 15.2134C17.2772 15.2134 17.3935 15.1299 17.4668 15.0278C17.5401 14.9258 17.674 14.8423 17.7645 14.8423C17.8549 14.8423 17.9289 14.8006 17.9289 14.7495C17.9289 14.6985 18.0121 14.6568 18.1137 14.6568C18.2154 14.6568 18.2986 14.615 18.2986 14.564C18.2986 14.513 18.3818 14.4712 18.4834 14.4712C18.5851 14.4712 18.6682 14.4295 18.6682 14.3785C18.6682 14.3275 18.793 14.2857 18.9455 14.2857C19.098 14.2857 19.2227 14.244 19.2227 14.1929C19.2227 14.1419 19.3475 14.1002 19.5 14.1002C19.6525 14.1002 19.7773 14.0584 19.7773 14.0074C19.7773 13.9564 19.9852 13.9147 20.2393 13.9147C20.4935 13.9147 20.7014 13.8729 20.7014 13.8219C20.7014 13.7645 21.1943 13.7291 21.9953 13.7291C22.7962 13.7291 23.2891 13.7645 23.2891 13.8219ZM69.6825 36.2709C69.6825 36.325 69.9905 36.3636 70.4218 36.3636C70.8531 36.3636 71.1611 36.4023 71.1611 36.4564C71.1611 36.5074 71.3691 36.5492 71.6232 36.5492C71.8774 36.5492 72.0853 36.5909 72.0853 36.6419C72.0853 36.6929 72.2517 36.7347 72.455 36.7347C72.6583 36.7347 72.8246 36.7764 72.8246 36.8275C72.8246 36.8785 72.991 36.9202 73.1943 36.9202C73.3976 36.9202 73.564 36.962 73.564 37.013C73.564 37.064 73.6887 37.1058 73.8412 37.1058C73.9937 37.1058 74.1185 37.1475 74.1185 37.1985C74.1185 37.2495 74.2432 37.2913 74.3957 37.2913C74.5482 37.2913 74.673 37.333 74.673 37.384C74.673 37.4351 74.7562 37.4768 74.8578 37.4768C74.9595 37.4768 75.0427 37.5186 75.0427 37.5696C75.0427 37.6206 75.1674 37.6623 75.3199 37.6623C75.4724 37.6623 75.5972 37.7041 75.5972 37.7551C75.5972 37.8061 75.6803 37.8479 75.782 37.8479C75.8836 37.8479 75.9668 37.8896 75.9668 37.9406C75.9668 37.9917 76.0408 38.0334 76.1312 38.0334C76.2217 38.0334 76.3556 38.1169 76.4289 38.2189C76.5022 38.321 76.6361 38.4045 76.7266 38.4045C76.817 38.4045 76.891 38.4462 76.891 38.4972C76.891 38.5482 76.965 38.59 77.0554 38.59C77.1459 38.59 77.2798 38.6735 77.3531 38.7755C77.4264 38.8776 77.5427 38.961 77.6118 38.961C77.6808 38.961 77.897 39.128 78.0924 39.3321C78.2878 39.5362 78.4931 39.7032 78.5488 39.7032C78.6819 39.7032 80.0332 41.0613 80.0332 41.1951C80.0332 41.2519 80.1579 41.4155 80.3104 41.5584C80.4629 41.7014 80.5877 41.876 80.5877 41.9462C80.5877 42.0165 80.6709 42.1342 80.7725 42.2078C80.8742 42.2814 80.9573 42.4066 80.9573 42.4861C80.9573 42.5656 81.0405 42.6908 81.1422 42.7644C81.2438 42.8379 81.327 42.9724 81.327 43.0632C81.327 43.1539 81.3686 43.2282 81.4194 43.2282C81.4703 43.2282 81.5118 43.3117 81.5118 43.4137C81.5118 43.5158 81.5534 43.5993 81.6043 43.5993C81.6551 43.5993 81.6967 43.6827 81.6967 43.7848C81.6967 43.8868 81.7383 43.9703 81.7891 43.9703C81.8399 43.9703 81.8815 44.0538 81.8815 44.1558C81.8815 44.2579 81.9231 44.3414 81.9739 44.3414C82.0248 44.3414 82.0664 44.4249 82.0664 44.5269C82.0664 44.6289 82.1079 44.7124 82.1588 44.7124C82.2096 44.7124 82.2512 44.7959 82.2512 44.898C82.2512 45 82.2928 45.0835 82.3436 45.0835C82.3944 45.0835 82.436 45.2087 82.436 45.3618C82.436 45.5148 82.4776 45.6401 82.5284 45.6401C82.5793 45.6401 82.6209 45.7653 82.6209 45.9184C82.6209 46.0714 82.6624 46.1967 82.7133 46.1967C82.7641 46.1967 82.8057 46.3219 82.8057 46.475C82.8057 46.628 82.8473 46.7532 82.8981 46.7532C82.9489 46.7532 82.9905 46.8785 82.9905 47.0315C82.9905 47.1846 83.0321 47.3098 83.0829 47.3098C83.1338 47.3098 83.1754 47.4768 83.1754 47.6809C83.1754 47.885 83.2169 48.0519 83.2678 48.0519C83.3186 48.0519 83.3602 48.2607 83.3602 48.5158C83.3602 48.7709 83.4018 48.9796 83.4526 48.9796C83.5034 48.9796 83.545 49.1883 83.545 49.4434C83.545 49.6985 83.5866 49.9072 83.6374 49.9072C83.6888 49.9072 83.7299 50.1546 83.7299 50.4638C83.7299 50.773 83.7709 51.0204 83.8223 51.0204C83.8762 51.0204 83.9147 51.3296 83.9147 51.7625C83.9147 52.1955 83.9532 52.5046 84.0071 52.5046C84.0639 52.5046 84.0995 52.9685 84.0995 53.7106C84.0995 54.4527 84.1351 54.9165 84.1919 54.9165C84.2532 54.9165 84.2844 59.9258 84.2844 69.7588V84.6011H76.9834H69.6825V71.8924C69.6825 63.4817 69.6512 59.1837 69.59 59.1837C69.5328 59.1837 69.4976 58.689 69.4976 57.885C69.4976 57.081 69.4624 56.5863 69.4052 56.5863C69.3538 56.5863 69.3128 56.3389 69.3128 56.0297C69.3128 55.7205 69.2718 55.4731 69.2204 55.4731C69.1695 55.4731 69.128 55.2644 69.128 55.0093C69.128 54.7542 69.0864 54.5455 69.0355 54.5455C68.9847 54.5455 68.9431 54.4202 68.9431 54.2672C68.9431 54.1141 68.9015 53.9889 68.8507 53.9889C68.7999 53.9889 68.7583 53.8636 68.7583 53.7106C68.7583 53.5575 68.7167 53.4323 68.6659 53.4323C68.615 53.4323 68.5735 53.307 68.5735 53.154C68.5735 53.0009 68.5319 52.8757 68.481 52.8757C68.4302 52.8757 68.3886 52.7922 68.3886 52.6902C68.3886 52.5881 68.347 52.5046 68.2962 52.5046C68.2454 52.5046 68.2038 52.4303 68.2038 52.3396C68.2038 52.2488 68.1206 52.1144 68.019 52.0408C67.9173 51.9673 67.8341 51.8531 67.8341 51.7871C67.8341 51.6184 66.2958 50.0928 66.1257 50.0928C66.0487 50.0928 65.9858 50.051 65.9858 50C65.9858 49.949 65.9026 49.9072 65.8009 49.9072C65.6993 49.9072 65.6161 49.8655 65.6161 49.8145C65.6161 49.7635 65.5329 49.7217 65.4313 49.7217C65.3296 49.7217 65.2464 49.68 65.2464 49.6289C65.2464 49.5779 65.1217 49.5362 64.9692 49.5362C64.8167 49.5362 64.6919 49.4944 64.6919 49.4434C64.6919 49.3924 64.5256 49.3506 64.3223 49.3506C64.119 49.3506 63.9526 49.3089 63.9526 49.2579C63.9526 49.2022 63.5829 49.1651 63.0284 49.1651C62.4739 49.1651 62.1043 49.128 62.1043 49.0724C62.1043 49.0213 62.0211 48.9796 61.9194 48.9796C61.8178 48.9796 61.7346 49.0213 61.7346 49.0724C61.7346 49.128 61.3649 49.1651 60.8104 49.1651C60.2559 49.1651 59.8863 49.2022 59.8863 49.2579C59.8863 49.3089 59.6783 49.3506 59.4242 49.3506C59.17 49.3506 58.9621 49.3924 58.9621 49.4434C58.9621 49.4944 58.8373 49.5362 58.6848 49.5362C58.5323 49.5362 58.4076 49.5779 58.4076 49.6289C58.4076 49.68 58.3244 49.7217 58.2227 49.7217C58.1211 49.7217 58.0379 49.7635 58.0379 49.8145C58.0379 49.8655 57.9547 49.9072 57.8531 49.9072C57.7514 49.9072 57.6682 49.949 57.6682 50C57.6682 50.051 57.5851 50.0928 57.4834 50.0928C57.3818 50.0928 57.2986 50.1345 57.2986 50.1855C57.2986 50.2365 57.2246 50.2783 57.1342 50.2783C57.0437 50.2783 56.9098 50.3618 56.8365 50.4638C56.7632 50.5659 56.6492 50.6494 56.5831 50.6494C56.4362 50.6494 55.4502 51.6245 55.4502 51.7697C55.4502 51.8268 55.3255 51.9906 55.173 52.1336C55.0205 52.2765 54.8957 52.4603 54.8957 52.5418C54.8957 52.6235 54.8541 52.6902 54.8033 52.6902C54.7525 52.6902 54.7109 52.7737 54.7109 52.8757C54.7109 52.9777 54.6693 53.0612 54.6185 53.0612C54.5677 53.0612 54.5261 53.1447 54.5261 53.2468C54.5261 53.3488 54.4845 53.4323 54.4336 53.4323C54.3828 53.4323 54.3412 53.5158 54.3412 53.6178C54.3412 53.7199 54.2996 53.8033 54.2488 53.8033C54.198 53.8033 54.1564 53.9286 54.1564 54.0816C54.1564 54.2347 54.1148 54.3599 54.064 54.3599C54.0132 54.3599 53.9716 54.4852 53.9716 54.6382C53.9716 54.7913 53.93 54.9165 53.8791 54.9165C53.8283 54.9165 53.7867 55.0835 53.7867 55.2876C53.7867 55.4917 53.7451 55.6586 53.6943 55.6586C53.6435 55.6586 53.6019 55.8673 53.6019 56.1224C53.6019 56.3776 53.5603 56.5863 53.5095 56.5863C53.4556 56.5863 53.4171 56.8955 53.4171 57.3284C53.4171 57.7613 53.3785 58.0705 53.3246 58.0705C53.2635 58.0705 53.2322 62.5541 53.2322 71.3358V84.6011H45.8389H38.4455V60.9462V37.2913H45.5616H52.6777V40.538C52.6777 42.3237 52.7015 43.7848 52.7305 43.7848C52.8316 43.7848 53.0474 43.5189 53.0474 43.3944C53.0474 43.3255 53.1306 43.209 53.2322 43.1354C53.3339 43.0619 53.4171 42.9366 53.4171 42.8571C53.4171 42.7776 53.5002 42.6524 53.6019 42.5788C53.7036 42.5053 53.7867 42.3885 53.7867 42.3192C53.7867 42.2499 53.9531 42.0328 54.1564 41.8367C54.3597 41.6406 54.5261 41.4345 54.5261 41.3787C54.5261 41.2463 55.8786 39.8887 56.0105 39.8887C56.0661 39.8887 56.2715 39.7217 56.4668 39.5176C56.6622 39.3135 56.8784 39.1466 56.9475 39.1466C57.0165 39.1466 57.1329 39.0631 57.2062 38.961C57.2794 38.859 57.4042 38.7755 57.4834 38.7755C57.5626 38.7755 57.6874 38.692 57.7607 38.59C57.834 38.4879 57.9679 38.4045 58.0583 38.4045C58.1487 38.4045 58.2227 38.3627 58.2227 38.3117C58.2227 38.2607 58.2968 38.2189 58.3872 38.2189C58.4776 38.2189 58.6115 38.1354 58.6848 38.0334C58.7581 37.9314 58.892 37.8479 58.9825 37.8479C59.0729 37.8479 59.1469 37.8061 59.1469 37.7551C59.1469 37.7041 59.2301 37.6623 59.3318 37.6623C59.4334 37.6623 59.5166 37.6206 59.5166 37.5696C59.5166 37.5186 59.5998 37.4768 59.7014 37.4768C59.8031 37.4768 59.8863 37.4351 59.8863 37.384C59.8863 37.333 60.011 37.2913 60.1635 37.2913C60.316 37.2913 60.4408 37.2495 60.4408 37.1985C60.4408 37.1475 60.5655 37.1058 60.718 37.1058C60.8705 37.1058 60.9953 37.064 60.9953 37.013C60.9953 36.962 61.0784 36.9202 61.1801 36.9202C61.2818 36.9202 61.3649 36.8785 61.3649 36.8275C61.3649 36.7764 61.5313 36.7347 61.7346 36.7347C61.9379 36.7347 62.1043 36.6929 62.1043 36.6419C62.1043 36.5909 62.2706 36.5492 62.4739 36.5492C62.6773 36.5492 62.8436 36.5074 62.8436 36.4564C62.8436 36.4054 63.0515 36.3636 63.3057 36.3636C63.5598 36.3636 63.7678 36.3219 63.7678 36.2709C63.7678 36.2109 64.8151 36.1781 66.7251 36.1781C68.6351 36.1781 69.6825 36.2109 69.6825 36.2709ZM29.3886 60.9462V84.6011H21.9953H14.6019V60.9462V37.2913H21.9953H29.3886V60.9462ZM109.422 86.5492C109.422 86.6002 109.214 86.6419 108.96 86.6419C108.706 86.6419 108.498 86.6837 108.498 86.7347C108.498 86.7857 108.373 86.8275 108.22 86.8275C108.068 86.8275 107.943 86.8692 107.943 86.9202C107.943 86.9712 107.818 87.013 107.666 87.013C107.513 87.013 107.389 87.0547 107.389 87.1058C107.389 87.1568 107.305 87.1985 107.204 87.1985C107.102 87.1985 107.019 87.2403 107.019 87.2913C107.019 87.3423 106.953 87.384 106.871 87.384C106.79 87.384 106.607 87.5093 106.464 87.6623C106.322 87.8154 106.159 87.9406 106.102 87.9406C105.958 87.9406 104.801 89.1166 104.801 89.2635C104.801 89.3297 104.718 89.4441 104.616 89.5176C104.514 89.5912 104.431 89.7256 104.431 89.8164C104.431 89.9071 104.39 89.9814 104.339 89.9814C104.288 89.9814 104.246 90.0649 104.246 90.167C104.246 90.269 104.205 90.3525 104.154 90.3525C104.103 90.3525 104.062 90.436 104.062 90.538C104.062 90.6401 104.02 90.7236 103.969 90.7236C103.918 90.7236 103.877 90.8488 103.877 91.0019C103.877 91.1549 103.835 91.2801 103.784 91.2801C103.734 91.2801 103.692 91.4471 103.692 91.6512C103.692 91.8553 103.65 92.0223 103.6 92.0223C103.542 92.0223 103.507 92.517 103.507 93.321C103.507 94.125 103.542 94.6197 103.6 94.6197C103.65 94.6197 103.692 94.7866 103.692 94.9907C103.692 95.1948 103.734 95.3618 103.784 95.3618C103.835 95.3618 103.877 95.487 103.877 95.6401C103.877 95.7931 103.918 95.9184 103.969 95.9184C104.02 95.9184 104.062 96.0019 104.062 96.1039C104.062 96.2059 104.103 96.2894 104.154 96.2894C104.205 96.2894 104.246 96.3637 104.246 96.4545C104.246 96.5453 104.33 96.6797 104.431 96.7532C104.533 96.8268 104.616 96.952 104.616 97.0315C104.616 97.111 104.699 97.2363 104.801 97.3098C104.903 97.3834 104.986 97.498 104.986 97.5647C104.986 97.7126 105.772 98.5158 105.917 98.5158C105.974 98.5158 106.137 98.641 106.28 98.7941C106.422 98.9471 106.605 99.0724 106.686 99.0724C106.768 99.0724 106.834 99.1141 106.834 99.1651C106.834 99.2161 106.917 99.2579 107.019 99.2579C107.121 99.2579 107.204 99.2996 107.204 99.3506C107.204 99.4017 107.287 99.4434 107.389 99.4434C107.49 99.4434 107.573 99.4852 107.573 99.5362C107.573 99.5872 107.698 99.6289 107.851 99.6289C108.003 99.6289 108.128 99.6707 108.128 99.7217C108.128 99.7727 108.253 99.8145 108.405 99.8145C108.558 99.8145 108.682 99.8562 108.682 99.9072C108.682 99.9654 109.268 100 110.254 100C111.239 100 111.825 99.9654 111.825 99.9072C111.825 99.8562 111.949 99.8145 112.102 99.8145C112.254 99.8145 112.379 99.7727 112.379 99.7217C112.379 99.6707 112.504 99.6289 112.656 99.6289C112.809 99.6289 112.934 99.5872 112.934 99.5362C112.934 99.4852 113.017 99.4434 113.118 99.4434C113.22 99.4434 113.303 99.4017 113.303 99.3506C113.303 99.2996 113.386 99.2579 113.488 99.2579C113.59 99.2579 113.673 99.2161 113.673 99.1651C113.673 99.1141 113.739 99.0724 113.819 99.0724C113.899 99.0724 114.125 98.9054 114.32 98.7013C114.515 98.4972 114.722 98.3302 114.779 98.3302C114.915 98.3302 115.336 97.9055 115.336 97.7687C115.336 97.7103 115.461 97.5455 115.614 97.4026C115.766 97.2596 115.891 97.0851 115.891 97.0148C115.891 96.9445 115.974 96.8268 116.076 96.7532C116.177 96.6797 116.261 96.5453 116.261 96.4545C116.261 96.3637 116.302 96.2894 116.353 96.2894C116.404 96.2894 116.445 96.1642 116.445 96.0111C116.445 95.8581 116.487 95.7328 116.538 95.7328C116.589 95.7328 116.63 95.6076 116.63 95.4545C116.63 95.3015 116.672 95.1763 116.723 95.1763C116.774 95.1763 116.815 95.0093 116.815 94.8052C116.815 94.6011 116.857 94.4341 116.908 94.4341C116.964 94.4341 117 94.0012 117 93.321C117 92.6407 116.964 92.2078 116.908 92.2078C116.857 92.2078 116.815 91.9991 116.815 91.744C116.815 91.4889 116.774 91.2801 116.723 91.2801C116.672 91.2801 116.63 91.1549 116.63 91.0019C116.63 90.8488 116.589 90.7236 116.538 90.7236C116.487 90.7236 116.445 90.6401 116.445 90.538C116.445 90.436 116.404 90.3525 116.353 90.3525C116.302 90.3525 116.261 90.269 116.261 90.167C116.261 90.0649 116.219 89.9814 116.168 89.9814C116.117 89.9814 116.076 89.9147 116.076 89.8331C116.076 89.7516 115.951 89.5678 115.799 89.4249C115.646 89.2819 115.521 89.1181 115.521 89.0609C115.521 88.9158 114.535 87.9406 114.388 87.9406C114.322 87.9406 114.208 87.8571 114.135 87.7551C114.062 87.6531 113.937 87.5696 113.858 87.5696C113.779 87.5696 113.654 87.4861 113.581 87.384C113.507 87.282 113.373 87.1985 113.283 87.1985C113.193 87.1985 113.118 87.1568 113.118 87.1058C113.118 87.0547 112.994 87.013 112.841 87.013C112.689 87.013 112.564 86.9712 112.564 86.9202C112.564 86.8692 112.439 86.8275 112.287 86.8275C112.134 86.8275 112.009 86.7857 112.009 86.7347C112.009 86.6837 111.802 86.6419 111.547 86.6419C111.293 86.6419 111.085 86.6002 111.085 86.5492C111.085 86.4942 110.746 86.4564 110.254 86.4564C109.761 86.4564 109.422 86.4942 109.422 86.5492ZM110.716 87.2913C110.716 87.3429 110.962 87.384 111.27 87.384C111.578 87.384 111.825 87.4252 111.825 87.4768C111.825 87.5278 111.949 87.5696 112.102 87.5696C112.254 87.5696 112.379 87.6113 112.379 87.6623C112.379 87.7134 112.462 87.7551 112.564 87.7551C112.666 87.7551 112.749 87.7968 112.749 87.8479C112.749 87.8989 112.832 87.9406 112.934 87.9406C113.035 87.9406 113.118 87.9824 113.118 88.0334C113.118 88.0844 113.193 88.1262 113.283 88.1262C113.373 88.1262 113.507 88.2096 113.581 88.3117C113.654 88.4137 113.768 88.4972 113.834 88.4972C113.991 88.4972 114.967 89.4771 114.967 89.6343C114.967 89.7006 115.05 89.8151 115.152 89.8887C115.253 89.9622 115.336 90.0875 115.336 90.167C115.336 90.2465 115.42 90.3717 115.521 90.4453C115.63 90.5238 115.706 90.6854 115.706 90.8368C115.706 90.9786 115.748 91.0946 115.799 91.0946C115.849 91.0946 115.891 91.2199 115.891 91.3729C115.891 91.526 115.933 91.6512 115.983 91.6512C116.034 91.6512 116.076 91.8182 116.076 92.0223C116.076 92.2263 116.117 92.3933 116.168 92.3933C116.224 92.3933 116.261 92.7644 116.261 93.321C116.261 93.8776 116.224 94.2486 116.168 94.2486C116.117 94.2486 116.076 94.4156 116.076 94.6197C116.076 94.8237 116.034 94.9907 115.983 94.9907C115.933 94.9907 115.891 95.116 115.891 95.269C115.891 95.4221 115.849 95.5473 115.799 95.5473C115.748 95.5473 115.706 95.6308 115.706 95.7328C115.706 95.8349 115.665 95.9184 115.614 95.9184C115.563 95.9184 115.521 96.0019 115.521 96.1039C115.521 96.2059 115.48 96.2894 115.429 96.2894C115.378 96.2894 115.336 96.3561 115.336 96.4378C115.336 96.5193 115.212 96.7031 115.059 96.846C114.907 96.989 114.782 97.1537 114.782 97.2122C114.782 97.3498 114.36 97.7737 114.223 97.7737C114.164 97.7737 114 97.8989 113.858 98.0519C113.715 98.205 113.541 98.3302 113.472 98.3302C113.401 98.3302 113.284 98.4137 113.211 98.5158C113.138 98.6178 113.004 98.7013 112.913 98.7013C112.823 98.7013 112.749 98.743 112.749 98.7941C112.749 98.8451 112.624 98.8868 112.472 98.8868C112.319 98.8868 112.194 98.9286 112.194 98.9796C112.194 99.0306 112.07 99.0724 111.917 99.0724C111.765 99.0724 111.64 99.1141 111.64 99.1651C111.64 99.2228 111.116 99.2579 110.254 99.2579C109.391 99.2579 108.867 99.2228 108.867 99.1651C108.867 99.1141 108.743 99.0724 108.59 99.0724C108.438 99.0724 108.313 99.0306 108.313 98.9796C108.313 98.9286 108.188 98.8868 108.036 98.8868C107.883 98.8868 107.758 98.8451 107.758 98.7941C107.758 98.743 107.684 98.7013 107.594 98.7013C107.503 98.7013 107.369 98.6178 107.296 98.5158C107.223 98.4137 107.098 98.3302 107.019 98.3302C106.94 98.3302 106.815 98.2468 106.742 98.1447C106.668 98.0427 106.554 97.9592 106.487 97.9592C106.339 97.9592 105.725 97.3567 105.725 97.211C105.725 97.1533 105.6 96.989 105.448 96.846C105.295 96.7031 105.171 96.5193 105.171 96.4378C105.171 96.3561 105.129 96.2894 105.078 96.2894C105.027 96.2894 104.986 96.2059 104.986 96.1039C104.986 96.0019 104.944 95.9184 104.893 95.9184C104.843 95.9184 104.801 95.8349 104.801 95.7328C104.801 95.6308 104.759 95.5473 104.709 95.5473C104.658 95.5473 104.616 95.4638 104.616 95.3618C104.616 95.2597 104.575 95.1763 104.524 95.1763C104.473 95.1763 104.431 94.9675 104.431 94.7124C104.431 94.4573 104.39 94.2486 104.339 94.2486C104.283 94.2486 104.246 93.8467 104.246 93.2282C104.246 92.6097 104.283 92.2078 104.339 92.2078C104.39 92.2078 104.431 92.0408 104.431 91.8367C104.431 91.6327 104.473 91.4657 104.524 91.4657C104.575 91.4657 104.616 91.3404 104.616 91.1874C104.616 91.0343 104.658 90.9091 104.709 90.9091C104.759 90.9091 104.801 90.8348 104.801 90.7441C104.801 90.6532 104.884 90.5188 104.986 90.4453C105.087 90.3717 105.171 90.2465 105.171 90.167C105.171 90.0875 105.254 89.9622 105.355 89.8887C105.457 89.8151 105.54 89.7006 105.54 89.6343C105.54 89.4771 106.516 88.4972 106.673 88.4972C106.739 88.4972 106.853 88.4137 106.927 88.3117C107 88.2096 107.134 88.1262 107.224 88.1262C107.315 88.1262 107.389 88.0844 107.389 88.0334C107.389 87.9824 107.472 87.9406 107.573 87.9406C107.675 87.9406 107.758 87.8989 107.758 87.8479C107.758 87.7968 107.841 87.7551 107.943 87.7551C108.045 87.7551 108.128 87.7134 108.128 87.6623C108.128 87.6113 108.253 87.5696 108.405 87.5696C108.558 87.5696 108.682 87.5278 108.682 87.4768C108.682 87.4252 108.929 87.384 109.237 87.384C109.545 87.384 109.791 87.3429 109.791 87.2913C109.791 87.2403 109.999 87.1985 110.254 87.1985C110.508 87.1985 110.716 87.2403 110.716 87.2913ZM107.874 89.7492C107.786 89.8495 107.758 90.7095 107.758 93.3635V96.846H108.313H108.867V95.269V93.692H109.514C110.073 93.692 110.161 93.7146 110.161 93.857C110.161 93.9479 110.244 94.0823 110.346 94.1558C110.448 94.2294 110.531 94.3546 110.531 94.4341C110.531 94.5136 110.614 94.6389 110.716 94.7124C110.817 94.786 110.9 94.9112 110.9 94.9907C110.9 95.0702 110.984 95.1955 111.085 95.269C111.187 95.3426 111.27 95.477 111.27 95.5678C111.27 95.6585 111.312 95.7328 111.363 95.7328C111.413 95.7328 111.455 95.8071 111.455 95.8979C111.455 95.9887 111.538 96.1231 111.64 96.1967C111.741 96.2702 111.825 96.3867 111.825 96.4557C111.825 96.7148 112.086 96.846 112.604 96.846C112.887 96.846 113.118 96.8043 113.118 96.7532C113.118 96.7022 113.077 96.6605 113.026 96.6605C112.975 96.6605 112.934 96.577 112.934 96.475C112.934 96.3729 112.892 96.2894 112.841 96.2894C112.79 96.2894 112.749 96.2151 112.749 96.1244C112.749 96.0336 112.666 95.8992 112.564 95.8256C112.462 95.752 112.379 95.6268 112.379 95.5473C112.379 95.4678 112.296 95.3426 112.194 95.269C112.093 95.1955 112.009 95.0702 112.009 94.9907C112.009 94.9112 111.926 94.786 111.825 94.7124C111.723 94.6389 111.64 94.5136 111.64 94.4341C111.64 94.3546 111.557 94.2294 111.455 94.1558C111.165 93.9462 111.216 93.692 111.547 93.692C111.7 93.692 111.825 93.6503 111.825 93.5993C111.825 93.5482 111.888 93.5065 111.966 93.5065C112.149 93.5065 112.934 92.719 112.934 92.5349C112.934 92.457 112.975 92.3933 113.026 92.3933C113.079 92.3933 113.118 92.115 113.118 91.744C113.118 91.3729 113.079 91.0946 113.026 91.0946C112.975 91.0946 112.934 90.9889 112.934 90.8596C112.934 90.5983 112.384 89.9814 112.151 89.9814C112.073 89.9814 112.009 89.9397 112.009 89.8887C112.009 89.8377 111.802 89.7959 111.547 89.7959C111.293 89.7959 111.085 89.7542 111.085 89.7032C111.085 89.6449 110.51 89.6117 109.537 89.6139C108.319 89.6167 107.965 89.6455 107.874 89.7492ZM111.689 90.8596C111.984 91.156 112.009 91.2253 112.009 91.7451C112.009 92.2201 111.974 92.3449 111.783 92.5366C111.658 92.6619 111.45 92.7644 111.321 92.7644C111.191 92.7644 111.085 92.8061 111.085 92.8571C111.085 92.9138 110.654 92.9499 109.976 92.9499H108.867V91.744V90.538H110.118H111.369L111.689 90.8596Z" fill="#12183A"/>
</svg>
