<svg width="31" height="31" viewBox="0 0 31 31" fill="none" xmlns="http://www.w3.org/2000/svg">
<circle cx="15.5" cy="15.5" r="15.5" fill="#F5FAFD"/>
<path fill-rule="evenodd" clip-rule="evenodd" d="M7.01626 15.3364L16.0556 11.4428C20.3601 9.65236 21.2545 9.34136 21.8375 9.3311C21.9657 9.32884 22.2524 9.36062 22.4381 9.51131C22.595 9.63853 22.6381 9.81046 22.6587 9.93105C22.6794 10.0516 22.7051 10.3265 22.6847 10.5413C22.4514 12.9921 21.442 18.9399 20.9286 21.6849C20.7113 22.8465 20.2838 23.236 19.8693 23.2741C18.9692 23.3569 18.2857 22.6792 17.4138 22.1077L13.9547 19.7842C12.4244 18.7758 13.4165 18.2215 14.2886 17.3157C14.5168 17.0785 18.4828 13.4712 18.5595 13.144C18.5688 13.1031 18.578 12.9505 18.4874 12.8699C18.3968 12.7893 18.2629 12.8172 18.1664 12.8388C18.0296 12.8699 15.8503 14.3104 11.6285 17.1602C11.0099 17.585 10.4495 17.792 9.94756 17.7812C9.39411 17.7692 8.32954 17.4683 7.53814 17.211C6.56744 16.8955 5.79594 16.7286 5.86315 16.1928C5.89812 15.9137 6.28249 15.6283 7.01623 15.3364L7.01626 15.3364Z" fill="#12183A"/>
</svg>
