<svg width="31" height="31" viewBox="0 0 31 31" fill="none" xmlns="http://www.w3.org/2000/svg">
<circle cx="15.5" cy="15.5" r="15.5" fill="#F5FAFD"/>
<path d="M11.9751 23C19.145 23 23.0666 16.8438 23.0666 11.5052C23.0666 11.3303 23.0666 11.1562 23.0552 10.9829C23.8181 10.4111 24.4766 9.70293 25 8.89176C24.2885 9.21847 23.5338 9.43273 22.761 9.52739C23.5748 9.02249 24.1839 8.22838 24.4748 7.29285C23.7096 7.76343 22.8725 8.09507 21.9995 8.27346C21.4118 7.62577 20.6345 7.19689 19.7878 7.05318C18.9412 6.90947 18.0725 7.05894 17.3161 7.47848C16.5597 7.89801 15.9578 8.56421 15.6035 9.37398C15.2492 10.1838 15.1624 11.092 15.3564 11.958C13.8065 11.8775 12.2904 11.4601 10.9063 10.7329C9.52221 10.0058 8.30116 8.98505 7.3224 7.73708C6.82391 8.62645 6.67123 9.67929 6.89545 10.6812C7.11968 11.6832 7.70394 12.5589 8.52928 13.1301C7.90892 13.111 7.30209 12.9376 6.76 12.6244C6.76 12.6409 6.76 12.6583 6.76 12.6756C6.76025 13.6083 7.0718 14.5123 7.64181 15.2341C8.21183 15.9559 9.00521 16.4512 9.8874 16.6359C9.3135 16.7981 8.71136 16.8218 8.12724 16.7052C8.37634 17.5079 8.8613 18.2099 9.51429 18.7129C10.1673 19.216 10.9557 19.4949 11.7692 19.5107C10.3888 20.6351 8.68361 21.2454 6.92796 21.2436C6.61781 21.2429 6.30796 21.2235 6 21.1853C7.78268 22.3709 9.85693 22.9998 11.9751 22.9968" fill="#12183A"/>
</svg>
