<?xml version="1.0" encoding="utf-8"?>
<!-- Generator: Adobe Illustrator 24.3.0, SVG Export Plug-In . SVG Version: 6.00 Build 0)  -->
<svg version="1.1" id="Layer_1" xmlns="http://www.w3.org/2000/svg" xmlns:xlink="http://www.w3.org/1999/xlink" x="0px" y="0px"
	 viewBox="0 0 512 512" style="enable-background:new 0 0 512 512;" xml:space="preserve">
<style type="text/css">
	.st0{fill:#1940B0;}
</style>
<g>
	<circle class="st0" cx="460.1" cy="360" r="10"/>
	<path class="st0" d="M499.4,193.7c-4-9.5-9-18.6-14.8-27.2c-5.7-8.5-12.3-16.4-19.5-23.7c-7.2-7.2-15.2-13.8-23.7-19.5
		c-8.6-5.8-17.7-10.7-27.2-14.8C394.6,100.2,373.6,96,352,96s-42.6,4.2-62.3,12.6c-9.5,4-18.6,9-27.2,14.8c-2.2,1.5-4.4,3.1-6.6,4.7
		c-26.8-20.1-60-32-95.9-32C71.8,96,0,167.8,0,256s71.8,160,160,160c36,0,69.2-11.9,95.9-32c2.2,1.6,4.4,3.2,6.6,4.7
		c8.6,5.8,17.7,10.7,27.2,14.8c19.7,8.4,40.7,12.6,62.3,12.6l0,0v0c13.7,0,27.4-1.8,40.6-5.2c12.8-3.4,25.2-8.3,36.8-14.7
		c4.8-2.7,6.6-8.8,3.9-13.6c-1.8-3.2-5.1-5.2-8.8-5.2c-1.7,0-3.4,0.4-4.8,1.2c0,0,0,0,0,0C399.1,390,375.7,396,352,396
		c-29.2,0-57.1-8.9-80.5-25.4C301.4,341.5,320,300.9,320,256c0-44.9-18.6-85.5-48.5-114.6c23.4-16.5,51.3-25.4,80.5-25.4
		c37.4,0,72.5,14.6,99,41c26.4,26.5,41,61.6,41,99c0,22.2-5,43.3-14.9,63c-1.2,2.4-1.4,5.1-0.6,7.6c0.8,2.5,2.6,4.6,5,5.8
		c1.4,0.7,2.9,1.1,4.5,1.1c3.8,0,7.2-2.1,8.9-5.5c5.5-10.9,9.8-22.5,12.6-34.4c3-12.2,4.4-24.9,4.4-37.6
		C512,234.4,507.8,213.4,499.4,193.7L499.4,193.7z M255.9,154.1c5.1,4.8,9.9,10,14.2,15.6l-54.6,54.6c5.8-25.3,18.6-48.5,37.4-67.3
		C254,156,255,155.1,255.9,154.1L255.9,154.1z M291.1,206.8l-76.4,76.4c-1.7-8.8-2.6-17.9-2.6-27.1l69.5-69.5
		C285.2,193,288.4,199.8,291.1,206.8L291.1,206.8z M300,256c0,0.6,0,1.3,0,1.9l-68.8,68.8c-4-6.9-7.5-14-10.2-21.5l76.4-76.4
		C299.1,237.6,300,246.7,300,256L300,256z M160,396c-77.2,0-140-62.8-140-140s62.8-140,140-140c29.9,0,57.6,9.4,80.3,25.4
		c-0.5,0.5-1,1-1.5,1.4c-7.2,7.2-13.8,15.2-19.5,23.7c-5.8,8.6-10.7,17.7-14.8,27.2c-8.4,19.7-12.6,40.7-12.6,62.3
		c0,21.6,4.2,42.6,12.6,62.3c4,9.5,9,18.6,14.8,27.2c5.7,8.5,12.3,16.4,19.5,23.7c0.5,0.5,1,1,1.5,1.4
		C217.6,386.6,189.9,396,160,396L160,396z M255.9,357.9c-1-0.9-2-1.9-2.9-2.9c-3.7-3.7-7.1-7.5-10.3-11.5l53-53
		C289,316.6,275,339.9,255.9,357.9L255.9,357.9z"/>
</g>
</svg>
