<?xml version="1.0" encoding="utf-8"?>
<!-- Generator: Adobe Illustrator 24.3.0, SVG Export Plug-In . SVG Version: 6.00 Build 0)  -->
<svg version="1.1" id="Layer_1" xmlns="http://www.w3.org/2000/svg" xmlns:xlink="http://www.w3.org/1999/xlink" x="0px" y="0px"
	 viewBox="0 0 484 484" style="enable-background:new 0 0 484 484;" xml:space="preserve">
<style type="text/css">
	.st0{fill:#1940B0;}
</style>
<g>
	<g>
		<path class="st0" d="M299.8,149.7c4.2,15.1,15.8,26.3,31,30.2l96.6,24.5c3.6,0.9,7.3,1.4,10.9,1.4c11.5,0,22.5-4.6,30.8-13.1
			c10.9-11.2,14.9-26.9,10.7-41.9c0,0,0,0,0,0l-27-95.9c-4.2-15.1-15.8-26.3-31-30.2c-15.2-3.9-30.7,0.5-41.6,11.7l-2.9,3
			C337.8,13.6,292.2,0,244.7,0C180.1,0,119.3,25.2,73.6,70.9C27.9,116.6,2.7,177.4,2.7,242s25.2,125.4,70.9,171.1
			c45.7,45.7,106.5,70.9,171.1,70.9c69.4,0,135.5-29.9,181.5-81.9c8.8-10,13.2-22.9,12.4-36.2c-0.8-13.3-6.8-25.5-16.8-34.4
			c-20.7-18.2-52.3-16.3-70.6,4.4c-27,30.6-65.8,48.1-106.5,48.1c-78.3,0-142-63.7-142-142s63.7-142,142-142
			c21.2,0,42,4.7,60.9,13.7C298.4,124.1,296.2,137.1,299.8,149.7z M410.9,43.3c1.9,0,3.9,0.2,5.8,0.7c8.1,2.1,14.4,8.1,16.7,16.2
			l27,95.9c2.3,8.1,0.1,16.5-5.7,22.5c-5.9,6-14.2,8.4-22.4,6.3l-96.6-24.5c-8.1-2.1-14.4-8.1-16.7-16.2s-0.1-16.5,5.7-22.5
			l27.5-28.2l33.3-34.2c0,0,0,0,0,0l8.8-9C398.8,45.8,404.7,43.3,410.9,43.3z M82.7,242c0,89.3,72.7,162,162,162
			c46.5,0,90.7-20,121.5-54.9c10.9-12.4,29.9-13.6,42.3-2.6c6,5.3,9.6,12.6,10.1,20.6c0.5,8-2.1,15.7-7.5,21.7
			C369,436.6,308.4,464,244.7,464c-59.3,0-115-23.1-157-65c-41.9-41.9-65-97.7-65-157s23.1-115,65-157c41.9-41.9,97.7-65,157-65
			c42.3,0,82.9,11.7,118.1,34l-21.4,22l-21.8,22.3c-23-12-48.7-18.3-74.9-18.3C155.4,80,82.7,152.7,82.7,242z"/>
		<path class="st0" d="M81.6,128.5c-4.7-2.9-10.8-1.5-13.8,3.1C46.8,165,35.7,203.5,35.7,243c0,30.4,6.4,59.8,19,87.2
			c1.7,3.7,5.3,5.8,9.1,5.8c1.4,0,2.8-0.3,4.2-0.9c5-2.3,7.2-8.2,4.9-13.3C61.5,297,55.7,270.5,55.7,243c0-35.8,10-70.6,29-100.7
			C87.7,137.7,86.3,131.5,81.6,128.5z"/>
		<path class="st0" d="M153.3,55c-18.8,9.2-36.1,21.1-51.5,35.4c-4,3.8-4.2,10.1-0.5,14.1c2,2.1,4.6,3.2,7.3,3.2
			c2.4,0,4.9-0.9,6.8-2.7c13.9-13,29.5-23.8,46.5-32.1c5-2.4,7-8.4,4.6-13.4C164.3,54.6,158.3,52.6,153.3,55z"/>
	</g>
</g>
<g>
	<g>
		<path class="st0" d="M242.5,151.9c-37.5,0-68.2,30.5-68.2,68.2c0,7.6,1.3,15,3.6,22.2c1.6,4.9,7,7.6,12.1,6c4.9-1.6,7.6-7,6-12.1
			c-2-5.6-2.9-11.6-2.7-17.5c0.7-25.4,21.3-46.4,46.7-47.7c28.3-1.4,51.8,21.1,51.8,49.1c0,26.2-20.6,47.7-46.4,49.1
			c0,0-9.6,0.5-14.3,1.3c-2.3,0.4-4.2,0.7-5.4,0.9c-0.5,0.2-1.1-0.4-0.9-0.9l1.6-7.9l8.8-40.8c1.1-5.1-2.2-10.1-7.2-11.2
			s-10.1,2.2-11.2,7.2c0,0-21.3,99.3-21.5,100.4c-1.1,5.1,2.2,10.1,7.2,11.2c5.1,1.1,10.1-2.2,11.2-7.2c0.2-1.1,3.1-14.3,3.1-14.3
			c2.2-10.1,10.5-17.5,20.2-18.8c2.2-0.4,10.6-0.9,10.6-0.9c35.2-2.7,63-32.1,63-68C310.7,182.4,280,151.9,242.5,151.9z
			 M247.4,308.9c-6.1-1.3-12.3,2.5-13.5,8.8c-1.3,6.1,2.5,12.3,8.8,13.5c6.1,1.3,12.3-2.5,13.5-8.8
			C257.5,316.1,253.7,310.2,247.4,308.9z"/>
	</g>
</g>
</svg>
