<?xml version="1.0" encoding="utf-8"?>
<!-- Generator: Adobe Illustrator 24.3.0, SVG Export Plug-In . SVG Version: 6.00 Build 0)  -->
<svg version="1.1" id="Capa_1" xmlns="http://www.w3.org/2000/svg" xmlns:xlink="http://www.w3.org/1999/xlink" x="0px" y="0px"
	 viewBox="0 0 512 512" style="enable-background:new 0 0 512 512;" xml:space="preserve">
<style type="text/css">
	.st0{fill:#1940B0;}
</style>
<g>
	<path class="st0" d="M356,203.9c0-3.6-1.9-6.9-5-8.7l-90-51.9c-3.1-1.8-6.9-1.8-10,0l-90,51.9c-3.1,1.8-5,5.1-5,8.7v104.2
		c0,3.8,1.8,6.6,5.1,8.7c0,0,90.2,52.1,90.2,52.1c1.5,0.9,3.3,1.3,5,1.3c1.7,0,3.5-0.5,5-1.4l89.8-52.1c3.1-1.8,5-5.1,5-8.6
		L356,203.9L356,203.9z M336,290.7l-70-40.6v-80.8l70,40.4V290.7z M246,169.3v81.1l-70,40.4v-81.1L246,169.3z M256.2,348.6
		L186,308.1l70.2-40.5l69.9,40.5L256.2,348.6z"/>
	<path class="st0" d="M395,116.9C369.5,54.1,323.8,0,256,0c-67.6,0-113.5,54.1-139.1,117C54.1,142.5,0,188.2,0,256
		c0,67.6,54.1,113.5,117,139.1C142.5,457.9,188.2,512,256,512c17.6,0,34.5-3.7,50.4-11.1c5-2.3,7.2-8.3,4.8-13.3
		c-2.3-5-8.3-7.2-13.3-4.8c-13.2,6.1-27.3,9.3-41.9,9.3c-58.4,0-93.8-48.2-113-87.5c36,11.4,75.3,17.5,113,17.5
		c37.6,0,76.9-6.2,113-17.6c-3.5,7.3-7.3,14.2-11.3,20.6c-2.9,4.7-1.4,10.9,3.3,13.8c4.7,2.9,10.9,1.4,13.8-3.3
		c7.5-12.2,14.3-25.9,20.3-40.5C457.9,369.5,512,323.8,512,256C512,188.3,457.9,142.5,395,116.9L395,116.9z M256,20
		c58.4,0,93.8,48.2,113,87.5C333,96.2,293.6,90,256,90c-37.6,0-76.9,6.2-113,17.6C162.1,68.2,197.5,20,256,20z M20,256
		c0-58.4,48.2-93.8,87.5-113C96.2,179,90,218.4,90,256c0,37.6,6.2,76.9,17.6,113C68.2,349.9,20,314.5,20,256z M132.4,379.7
		c-14.3-38-22.4-82.8-22.4-123.7c0-41.6,7.9-85.2,22.3-123.6c38-14.3,82.8-22.4,123.7-22.4c41.6,0,85.2,7.9,123.6,22.3
		c14.3,38,22.4,82.8,22.4,123.7c0,41.6-7.9,85.2-22.3,123.6c-38,14.3-82.8,22.4-123.7,22.4C214.4,402,170.8,394.1,132.4,379.7z
		 M404.5,369c11.4-36,17.5-75.3,17.5-113c0-37.6-6.2-76.9-17.6-113c39.4,19.2,87.6,54.6,87.6,113C492,314.4,443.8,349.8,404.5,369z"
		/>
	<circle class="st0" cx="339" cy="466" r="10"/>
</g>
</svg>
